<svg xmlns="http://www.w3.org/2000/svg" width="109" height="99" fill="none" viewBox="0 0 109 99"><path fill="#6D73E6" fill-opacity="0.1" d="M58.676 96.857c-3.36-1.942-7.07-3.519-10.026-5.887-2.417-2.087-5.367-3.598-8.586-4.398a22.215 22.215 0 0 0-9.86-.188c-5.08 1.025-10.394.496-15.108-1.505-2.685-1.187-4.997-2.969-6.72-5.18-1.724-2.212-2.805-4.782-3.142-7.472a14.73 14.73 0 0 1 1.212-7.92c1.132-2.506 2.944-4.712 5.267-6.415 2.681-2.058 6.043-3.361 9.032-5.092 3.28-1.924 6.494-3.936 9.693-5.91a79.662 79.662 0 0 1 8.86-5.332c10.54-4.681 21.356-1.815 27.612 7.213a24.337 24.337 0 0 1 3.624 6.876c1.561 4.898 4.021 9.522 7.277 13.679 3.863 5.283 5.423 10.933 2.775 17.166-3.659 8.717-11.595 12.392-21.91 10.365Zm-.26-76.105c-1.848 2.693-3.32 5.726-5.639 8.039a11.908 11.908 0 0 1-4.389 2.685c-1.67.582-3.462.812-5.244.672a12.641 12.641 0 0 1-5.038-1.48 11.352 11.352 0 0 1-3.814-3.33c-5.82-7.684-2.593-20.496 6.44-24.993 2.441-1.335 5.354-1.77 8.139-1.217 2.785.554 5.229 2.055 6.83 4.193 3.14 3.895 3.937 9.446 2.715 15.431Zm31.545 5.139c-2.127 6.156-4.906 10.206-10.11 12.604a12.788 12.788 0 0 1-5.376 1.315 12.87 12.87 0 0 1-5.445-1.06c-1.696-.74-3.172-1.838-4.306-3.2a10.244 10.244 0 0 1-2.215-4.631c-1.36-7.332.86-13.92 7.237-18.823 8.073-6.2 18.329-2.724 20.093 6.733.28 2.346.321 4.71.122 7.062Zm-63.599 9.854c-2.468 8.02-8.583 11.54-16.23 9.338a12.374 12.374 0 0 1-4.313-2.33 11.01 11.01 0 0 1-2.895-3.718C1.323 35.847.875 32.28 1.646 28.848c.77-3.433 2.72-6.556 5.57-8.923a11.578 11.578 0 0 1 4.275-2.271 12.377 12.377 0 0 1 4.936-.39 12.01 12.01 0 0 1 4.644 1.566c1.4.828 2.58 1.928 3.454 3.22 1.427 2.01 2.333 4.285 2.651 6.657.319 2.371.04 4.778-.814 7.038Zm80.305 18.398c-.589 2.165-1.681 4.192-3.203 5.944-1.523 1.752-3.44 3.19-5.624 4.218-8.487 3.863-17.629-1.228-17.554-9.81a16.25 16.25 0 0 1 1.466-6.845c.985-2.17 2.437-4.142 4.272-5.8 4.502-4.106 10.14-5.171 14.821-2.958 4.681 2.213 7.302 7.412 6.393 12.845a814.92 814.92 0 0 1-.571 2.406Z"/></svg>