<svg xmlns="http://www.w3.org/2000/svg" width="120" height="115" fill="none" viewBox="0 0 120 115"><path fill="#6D73E6" fill-opacity="0.1" d="M45.846 96.197c-1.908-2.765-4.22-5.377-5.658-8.32-1.123-2.525-2.867-4.801-5.078-6.626a19.277 19.277 0 0 0-7.587-3.833 22.435 22.435 0 0 1-11.187-6.819c-1.656-1.926-2.807-4.174-3.346-6.535-.54-2.362-.45-4.762.26-6.977a12.473 12.473 0 0 1 3.803-5.697c1.785-1.523 3.988-2.558 6.407-3.012 2.826-.596 5.907-.35 8.853-.577 3.242-.267 6.464-.627 9.661-.965a67.556 67.556 0 0 1 8.806-.826c9.876.306 17.238 6.577 18.834 15.927a21.17 21.17 0 0 1 .329 6.694c-.558 4.387-.319 8.898.707 13.343 1.091 5.547.26 10.518-4.048 14.368-5.99 5.401-13.48 5.286-20.756-.145Zm27.296-59.194c-2.407 1.4-4.647 3.205-7.282 4.133a10.095 10.095 0 0 1-4.379.445 11.125 11.125 0 0 1-4.314-1.44 11.06 11.06 0 0 1-3.377-3.033 9.956 9.956 0 0 1-1.758-4.012c-1.743-8.143 5.392-16.885 14.031-17 2.378-.123 4.797.628 6.759 2.099 1.962 1.471 3.318 3.55 3.787 5.81 1.032 4.2-.355 8.807-3.467 12.998ZM95.78 52.79c-3.875 3.985-7.497 6.09-12.403 6.007a10.96 10.96 0 0 1-4.65-.99 11.234 11.234 0 0 1-3.844-2.859 10.237 10.237 0 0 1-2.188-4.095 8.886 8.886 0 0 1-.046-4.424c1.594-6.202 5.697-10.488 12.42-11.91 8.508-1.796 15.216 4.738 13.169 12.742a29.658 29.658 0 0 1-2.457 5.53ZM42.84 36.66c-4.813 5.304-10.834 5.752-15.975 1.181a10.862 10.862 0 0 1-2.508-3.421 9.62 9.62 0 0 1-.903-3.97c-.092-3.075.849-6.011 2.688-8.389 1.839-2.377 4.481-4.073 7.549-4.846a9.84 9.84 0 0 1 4.14-.165 10.69 10.69 0 0 1 3.973 1.543 10.52 10.52 0 0 1 3.04 2.953 9.434 9.434 0 0 1 1.518 3.793c.382 2.093.264 4.199-.346 6.16a12.238 12.238 0 0 1-3.175 5.16Zm55.705 44.315a12.724 12.724 0 0 1-4.635 3.418c-1.815.791-3.824 1.19-5.89 1.171-7.986-.173-13.245-7.545-10.086-14.181a13.735 13.735 0 0 1 3.612-4.767 14.863 14.863 0 0 1 5.412-2.906c4.98-1.506 9.742-.224 12.577 3.245 2.835 3.469 2.992 8.486.322 12.365-.45.569-.9 1.138-1.312 1.655Z"/></svg>