<svg xmlns="http://www.w3.org/2000/svg" width="48" height="46" fill="none" viewBox="0 0 48 46"><path fill="#6D73E6" fill-opacity="0.1" d="M17.679 37.835c-.683-1.109-1.528-2.165-2.024-3.334a6.982 6.982 0 0 0-1.835-2.665 7.451 7.451 0 0 0-2.881-1.625 8.648 8.648 0 0 1-4.222-2.849 5.844 5.844 0 0 1-1.16-2.6 5.11 5.11 0 0 1 .262-2.705 4.94 4.94 0 0 1 1.618-2.146 5.477 5.477 0 0 1 2.576-1.056c1.12-.18 2.32-.03 3.478-.066 1.274-.046 2.543-.129 3.802-.203 1.143-.129 2.3-.184 3.465-.163 3.857.295 6.595 2.862 7.005 6.524a8.164 8.164 0 0 1-.024 2.607 14.668 14.668 0 0 0-.029 5.197c.3 2.175-.139 4.091-1.913 5.51-2.467 1.992-5.395 1.814-8.118-.426Zm12.035-22.514c-.974.5-1.892 1.162-2.944 1.476a3.995 3.995 0 0 1-1.724.095 4.326 4.326 0 0 1-1.655-.637 4.24 4.24 0 0 1-1.252-1.239 3.807 3.807 0 0 1-.596-1.59c-.496-3.195 2.496-6.464 5.879-6.355a4.067 4.067 0 0 1 2.597.936c.734.607 1.217 1.44 1.349 2.325.308 1.65-.34 3.416-1.654 4.989Zm8.498 6.538c-1.607 1.479-3.073 2.232-4.99 2.112a4.29 4.29 0 0 1-1.797-.467 4.317 4.317 0 0 1-1.44-1.18 3.913 3.913 0 0 1-.762-1.63 3.436 3.436 0 0 1 .084-1.72c.765-2.381 2.469-3.973 5.132-4.406 3.37-.546 5.846 2.113 4.861 5.186a11.65 11.65 0 0 1-1.087 2.105Zm-20.345-7.213c-2.005 1.975-4.37 2.042-6.278.174a4.15 4.15 0 0 1-.903-1.374 3.693 3.693 0 0 1-.263-1.559 5.092 5.092 0 0 1 1.244-3.211c.774-.891 1.847-1.503 3.065-1.748a3.884 3.884 0 0 1 1.623.01 4.153 4.153 0 0 1 1.52.67c.457.324.84.734 1.122 1.202.282.467.455.98.507 1.5.102.82.007 1.636-.276 2.387a4.842 4.842 0 0 1-1.36 1.95Zm20.78 18.214a5.075 5.075 0 0 1-1.892 1.246 5.714 5.714 0 0 1-2.332.35c-3.12-.21-5.01-3.168-3.622-5.69a5.45 5.45 0 0 1 1.522-1.788 5.928 5.928 0 0 1 2.184-1.033c1.983-.496 3.818.087 4.848 1.486 1.03 1.398.976 3.35-.157 4.81l-.551.62Z"/></svg>