<svg xmlns="http://www.w3.org/2000/svg" width="52" height="49" fill="none" viewBox="0 0 52 49"><path fill="#6D73E6" fill-opacity="0.1" d="M21.703 42.105c-.95-1.135-2.074-2.183-2.824-3.417a7.936 7.936 0 0 0-2.5-2.696 8.47 8.47 0 0 0-3.508-1.354 9.828 9.828 0 0 1-5.215-2.51 6.642 6.642 0 0 1-1.731-2.733 5.807 5.807 0 0 1-.15-3.087 5.615 5.615 0 0 1 1.467-2.678 6.225 6.225 0 0 1 2.724-1.61c1.229-.388 2.603-.416 3.9-.646 1.425-.26 2.839-.562 4.243-.852a30.39 30.39 0 0 1 3.869-.753c4.386-.301 7.886 2.137 8.949 6.187.291.963.427 1.953.4 2.936a16.67 16.67 0 0 0 .822 5.849c.694 2.396.515 4.623-1.247 6.51-2.447 2.645-5.77 2.926-9.2.854Zm9.838-27.295c-1.013.724-1.936 1.618-3.068 2.144a4.54 4.54 0 0 1-1.923.39 4.917 4.917 0 0 1-1.966-.445 4.82 4.82 0 0 1-1.611-1.187 4.326 4.326 0 0 1-.931-1.69c-1.083-3.512 1.745-7.68 5.568-8.112a4.622 4.622 0 0 1 3.073.626c.926.562 1.605 1.418 1.9 2.393.616 1.805.177 3.897-1.042 5.882Zm10.63 5.957c-1.565 1.928-3.09 3.016-5.266 3.196a4.876 4.876 0 0 1-2.097-.231 4.906 4.906 0 0 1-1.812-1.09 4.447 4.447 0 0 1-1.125-1.709 3.905 3.905 0 0 1-.189-1.947c.47-2.804 2.124-4.874 5.049-5.798 3.7-1.167 6.92 1.416 6.318 5.034-.206.877-.5 1.729-.878 2.545Zm-24.064-4.77c-1.93 2.55-4.58 3.013-7.031 1.226a4.716 4.716 0 0 1-1.242-1.397 4.197 4.197 0 0 1-.551-1.71 5.787 5.787 0 0 1 .871-3.815c.724-1.129 1.83-1.993 3.16-2.47a4.414 4.414 0 0 1 1.827-.255 4.72 4.72 0 0 1 1.82.505 4.568 4.568 0 0 1 1.458 1.167c.394.48.673 1.027.817 1.604.249.906.277 1.84.081 2.73a5.502 5.502 0 0 1-1.21 2.415Zm26.358 17.071a5.768 5.768 0 0 1-1.923 1.711 6.494 6.494 0 0 1-2.564.777c-3.544.276-6.155-2.74-5.008-5.805.3-.843.782-1.611 1.419-2.26a6.738 6.738 0 0 1 2.286-1.52c2.149-.883 4.308-.529 5.695.875 1.388 1.403 1.649 3.607.614 5.435l-.519.787Z"/></svg>