<svg xmlns="http://www.w3.org/2000/svg" width="86" height="78" fill="none" viewBox="0 0 86 78"><path fill="#00036B" d="M85.316 24.918c-1.101 17.02-6.418 32.334-18.558 44.776-3.925 4.027-8.625 6.865-14.28 7.92a20.28 20.28 0 0 1-12.604-1.56c-12.815-6.072-23.76-14.428-31.573-26.483C4.605 43.87 2.062 37.678 1.146 30.93.111 23.308 1.104 16.026 5.79 9.619 9.64 4.325 15.03 1.585 21.367.465c10.912-1.9 19.8 2.176 27.56 9.415.93.863 1.505.871 2.54.264 4.805-2.867 9.818-5.299 15.429-6.11 5.28-.765 10.095.112 13.728 4.455 2.265 2.7 3.353 5.927 3.997 9.325.43 2.344.662 4.72.695 7.104Z"/><path fill="#C3C8FF" d="M46.713 8.898c3.667 2.878 6.566 6.447 9.204 10.249.126.23.271.45.435.655.618.63.652.153.655-.362-.309-.5-.018-.916.185-1.341 1.684-3.554 3.31-7.129 4.623-10.84.2-.568.37-1.183.987-1.487 4.96-1.629 9.895-2.2 14.579.792 3.696 2.352 5.354 6.072 6.273 10.157 1.608 7.146.85 14.238-.81 21.26-2.3 9.734-6.237 18.745-12.438 26.647-4.132 5.264-9.003 9.655-15.577 11.701-4.406 1.376-8.81 1.32-13.145-.383-3.522-2.112-6.537-4.884-9.505-7.656-2.69-2.51-5.354-5.07-7.727-7.905a10.877 10.877 0 0 1-1.906-3.107c-3.649-5.629-6.218-11.693-7.226-18.352-.94-6.201-.51-12.279 2.307-17.979 2.434-4.923 6.16-8.593 11.302-10.713a14.665 14.665 0 0 0 1.822-.763c1.122-1.011 2.59-1.056 3.944-1.32a29.435 29.435 0 0 1 9.954-.093c.744.109 1.394.513 2.064.84Z"/><path fill="#6D73E6" d="M46.712 8.898a30.538 30.538 0 0 0-8.184-.792 37.92 37.92 0 0 0-6.701 1.043c-.496.113-.605.617-1.022.763-.633-.468-1.193-.019-1.716.203-4.412 1.872-7.941 4.8-10.412 8.926-3.382 5.642-4.27 11.772-3.578 18.243.747 7.005 3.277 13.33 6.978 19.244.193.309.214.966.895.655.438 1.927 1.848 3.215 3.12 4.549 4.753 5.032 9.817 9.74 15.385 13.879.089.096.162.205.216.325-3.54-1.141-6.69-3.07-9.834-4.98-8.499-5.161-15.91-11.537-21.626-19.753-4.179-6.025-7.18-12.585-8.282-19.864-1.177-7.86-.19-15.337 4.864-21.834C10.439 4.84 15.358 2.358 21.07 1.26c9.273-1.787 17.31 1.024 24.56 6.687.378.293.721.631 1.083.95Zm16.091-3.126c-1.708 4.65-3.696 9.18-5.795 13.668-1.772-2.564-3.583-5.093-5.809-7.297-.39-.386-.633-.692.043-1.083 3.69-2.133 7.421-4.153 11.56-5.288Z"/><path fill="#00036B" d="M68.333 59.348v.921c-.08 2.625-1.431 3.725-3.937 3.034a39.422 39.422 0 0 1-4.953-1.753c-4.14-1.764-8.184-1.505-12.236.295-2.004.89-3.96 1.88-6.073 2.522a10.31 10.31 0 0 1-1.652.411c-1.458.193-2.508-.49-2.825-1.935-.637-2.883 0-5.684.837-8.408 1.613-5.244 4.287-9.84 8.886-13.024 4.8-3.321 10.297-2.82 14.595 1.146 4.409 4.081 7.337 10.753 7.358 16.79ZM22.97 57.183c-.021.248.103.602-.222.673-.372.084-.483-.303-.641-.552-2.485-3.91-4.51-8.03-5.838-12.482-2.033-6.788-2.56-13.623-.39-20.464 2.257-7.128 6.864-12.144 13.863-14.86.335-.13 1.17-.84 1.056.422-8.356 2.875-13.15 8.894-14.906 17.364-1.756 8.47.127 16.44 3.746 24.099.956 2.017 1.99 4.002 3.332 5.8Zm27.737-26.971c0 1.956-.528 3.733-1.848 5.211-2.04 2.29-5.016 2.36-7.191.195-2.825-2.817-3.018-8.21-.404-11.217 1.948-2.242 4.831-2.41 6.972-.362 1.753 1.674 2.482 3.783 2.471 6.172ZM41.19 41.025c0 3.319-2.228 5.632-5.444 5.637-3.918 0-7.234-3.355-7.25-7.347a5.497 5.497 0 0 1 5.545-5.613c3.846.016 7.144 3.4 7.15 7.323Zm24.266-10.193c-.121 1.848-.462 3.62-1.777 5.072-1.814 2.003-4.282 2.143-6.278.345-2.944-2.656-3.057-8.548-.217-11.352 1.672-1.647 4.064-1.713 5.79-.127 1.727 1.587 2.408 3.712 2.482 6.062Zm9.24 9.647a6.381 6.381 0 0 1-3.324 5.293c-2.421 1.402-5.23.528-6.492-1.97-1.7-3.355.528-8.118 4.179-8.957 2.996-.69 5.637 1.73 5.637 5.634Z"/><path fill="#FFD529" d="M67.546 57.867c.103 4.926-.816 5.57-4.3 4.353-2.356-.82-4.632-1.848-7.09-2.402-3.075-.684-5.919.074-8.712 1.183-1.956.776-3.876 1.642-5.808 2.447a10.22 10.22 0 0 1-1.505.462c-1.935.462-2.862-.209-2.933-2.207-.156-4.422 1.132-8.483 3.22-12.322 1.585-2.928 3.607-5.517 6.4-7.392 4.375-2.96 9.54-2.64 13.465.916a22.177 22.177 0 0 1 7.263 14.962ZM49.942 30.254a6.646 6.646 0 0 1-1.613 4.71c-1.608 1.848-3.986 2.017-5.832.427-2.886-2.481-3.15-7.96-.528-10.713 1.584-1.663 3.923-1.774 5.647-.222 1.68 1.5 2.355 3.435 2.326 5.798Zm-20.705 8.989a4.71 4.71 0 0 1 4.858-4.797c3.371.021 6.431 3.142 6.458 6.582.02 2.817-2.13 4.98-4.906 4.924-3.521-.069-6.434-3.118-6.41-6.709Zm35.475-8.353c-.055 1.658-.435 3.253-1.605 4.57-1.518 1.713-3.54 1.814-5.212.264-2.492-2.3-2.73-7.5-.456-10.032 1.56-1.743 3.643-1.814 5.298-.143 1.444 1.45 1.949 3.276 1.975 5.341Zm9.249 9.335c-.1 1.97-.953 3.763-2.904 4.89-2.537 1.468-5.375.103-5.872-2.79-.417-2.422.351-4.42 2.279-5.915 1.32-1.016 2.825-1.264 4.324-.483 1.592.837 2.154 2.329 2.173 4.298Z"/></svg>