<svg xmlns="http://www.w3.org/2000/svg" width="79" height="79" fill="none" viewBox="0 0 79 79"><path fill="#00036B" d="M78.575 45.313v19.49c0 4.788-2.229 8.092-6.584 9.974-2.638 1.139-5.31 2.195-7.965 3.3-2.656 1.104-5.399.682-8.137.201a3554.751 3554.751 0 0 0-23.468-4.047c-6.788-1.156-13.58-2.277-20.369-3.438-2.029-.346-4.116-.488-5.969-1.524-3.47-1.93-5.471-4.84-5.49-8.836a4166.203 4166.203 0 0 1 0-38.246c.014-3.692 1.706-6.696 4.934-8.398A61.228 61.228 0 0 1 17.314 9.01c1.9-.538 3.789.015 5.676.169.473.039.844.095 1.144-.383 2.501-3.999 6.302-6.096 10.745-7.132 4.267-.997 8.585-1.256 12.898-.258 5.46 1.26 9.402 5.59 10.275 11.354.13.854.517 1.083 1.22 1.173 3.296.417 6.582.91 9.891 1.241 5.323.534 9.373 4.818 9.402 10.163.034 6.659.01 13.318.01 19.976ZM57.647 20.036c-.093-2.66.18-5.325-.487-7.975-1.34-5.389-4.56-8.822-10.024-10.039-3.743-.833-7.486-.57-11.216.137a18.923 18.923 0 0 0-7.473 3.058c-3.345 2.352-5.12 5.651-5.732 9.633-.676.032-.527-.422-.508-.826.054-1.151.459-2.195.863-3.263.147-.385.386-.775-.304-.88-2.329-.349-4.667-.67-6.937.232a391.937 391.937 0 0 0-8.939 3.691 7.515 7.515 0 0 0-3.17 2.36c-1.706 1.741-2.438 3.872-2.438 6.271V60.17c0 4.808 3.231 8.585 7.995 9.428 3.507.622 7.02 1.22 10.531 1.81 5.985 1.019 11.971 2.035 17.958 3.047 5.464.937 10.918 1.95 16.395 2.804 2.347.37 4.666 1.122 7.097.773.12.015.241.015.361 0a62.91 62.91 0 0 0 11.46-4.613c3.206-1.636 4.769-4.542 4.774-8.17.016-13.268.016-26.535 0-39.802 0-4.877-3.387-8.763-8.239-9.473-3.484-.507-6.986-.927-10.472-1.431-.759-.11-.802.192-.732.79a17.715 17.715 0 0 1-.05 3.886c-.042.444-.01.944-.713.817Z"/><path fill="#C3C9FF" d="M61.265 78.032c-2.438.349-4.75-.402-7.098-.773-5.476-.86-10.93-1.867-16.394-2.803a7005.581 7005.581 0 0 0-17.958-3.048c-3.511-.598-7.025-1.188-10.53-1.81-4.772-.843-8-4.62-8-9.428-.022-12.58-.022-25.158 0-37.735 0-2.399.73-4.53 2.438-6.27 2.906.385 5.788.958 8.731 1.036.056.836.751.602 1.204.663 4.016.526 8.047 1.01 12.06 1.531 6.71.873 13.42 1.757 20.128 2.653 2.572.339 5.184.488 7.705 1.07 4.544 1.03 7.363 4.81 7.37 9.597.015 11.164.02 22.328.017 33.492 0 .488-.243 1.07.317 1.463.007 3.452.01 6.907.01 10.362ZM28.298 67.628c7.344 0 12.36-1.582 16.709-4.732 11.016-7.978 11.58-22.98 1.19-31.749-9.414-7.946-24.139-7.529-33.097.94-7.802 7.377-8.607 18.735-1.758 27.005 4.83 5.832 11.277 8.368 16.956 8.536Z"/><path fill="#939EFF" d="M12.454 17.2c-2.943-.078-5.825-.65-8.734-1.036a7.514 7.514 0 0 1 3.17-2.36c2.968-1.268 5.952-2.5 8.953-3.694 2.27-.902 4.608-.58 6.937-.232.69.105.45.488.304.88-.404 1.056-.809 2.112-.863 3.263-.017.407-.166.858.517.826 1.022 2.085 2.682 2.37 4.426.764.76.287.79-.261.85-.754.147-1.182.603-2.248 1.14-3.299.333-.658.794-.81 1.462-.719 5.325.72 10.65 1.448 15.983 2.107.875.107 1.185.487 1.253 1.268.122 1.409.346 2.81.185 4.232-.046.395-.168.863.503.841.32.169.641.33.953.51 2.682 1.543 5.386 1.868 8.154.244.702.13.67-.37.716-.824.16-1.29.177-2.593.052-3.887-.071-.597-.027-.9.731-.79 3.487.505 6.988.924 10.472 1.432 4.852.709 8.234 4.586 8.24 9.472.019 13.266.019 26.533 0 39.802 0 3.628-1.569 6.534-4.775 8.17a62.901 62.901 0 0 1-11.46 4.614c-.12.014-.24.014-.36 0V67.662c.487-.205.407-.648.407-1.04 0-11.441.05-22.879-.025-34.32-.044-4.915-3.16-8.852-8.017-9.828-4.437-.887-8.968-1.324-13.464-1.914a2057.54 2057.54 0 0 0-20.237-2.584c-2.492-.293-4.947-.888-7.473-.776Z"/><path fill="#6D73E6" d="M57.652 20.036c-2.768 1.631-5.48 1.307-8.154-.244-.312-.18-.634-.341-.953-.51.522-1.757.336-3.532 0-5.278-.693-3.657-2.421-6.525-6.235-7.627-1.772-.512-3.577-.405-5.41-.23-5.364.515-9.124 4.097-9.753 9.459-1.746 1.607-3.414 1.321-4.426-.763.615-3.982 2.387-7.281 5.733-9.634a18.923 18.923 0 0 1 7.487-3.053c3.724-.707 7.466-.975 11.216-.136 5.465 1.219 8.685 4.65 10.024 10.038.651 2.65.378 5.316.47 7.978Z"/><path fill="#00036B" d="M28.297 67.628c-5.678-.168-12.125-2.704-16.955-8.534-6.85-8.27-6.047-19.627 1.758-27.005 8.955-8.471 23.682-8.883 33.096-.942 10.39 8.778 9.827 23.77-1.19 31.749-4.35 3.15-9.365 4.742-16.709 4.732Zm1.578-.687c7.612-.173 13.788-2.682 18.584-8.29 5.586-6.515 5.952-16.337.797-23.188-3.73-4.972-8.728-7.944-14.844-8.895-8.646-1.34-16.172.912-22.146 7.473-5.786 6.352-6.515 15.605-1.743 22.72 4.671 6.976 11.5 9.936 19.352 10.18Z"/><path fill="#00036B" d="M12.459 17.2c2.526-.112 4.981.488 7.463.783 6.754.82 13.5 1.707 20.238 2.585 4.496.59 9.021 1.026 13.464 1.914 4.857.975 7.973 4.905 8.007 9.823.076 11.44.027 22.878.024 34.319 0 .392.093.836-.407 1.04-.56-.382-.317-.975-.317-1.462-.014-11.164-.02-22.328-.017-33.492 0-4.791-2.816-8.573-7.368-9.602-2.521-.57-5.133-.731-7.705-1.07-6.71-.888-13.42-1.772-20.128-2.653-4.018-.522-8.046-1.004-12.06-1.531-.443-.051-1.138.183-1.194-.654Zm14.701-1.59c.62-5.364 4.377-8.943 9.753-9.457 1.834-.176 3.638-.283 5.41.229 3.814 1.102 5.543 3.977 6.235 7.627.332 1.745.517 3.52 0 5.279-.67.021-.548-.447-.502-.842.16-1.421-.064-2.823-.185-4.233-.069-.785-.378-1.16-1.254-1.267-5.332-.659-10.657-1.388-15.982-2.107-.676-.09-1.137.06-1.463.72-.537 1.05-.993 2.116-1.139 3.298-.083.493-.112 1.034-.873.754Zm3.109-5.47 17.094 2.194c-1.085-3.11-3.035-4.935-6.13-5.457a14.295 14.295 0 0 0-7.519.8 7.468 7.468 0 0 0-3.445 2.462Z"/><path fill="#6D73E6" d="M29.877 66.94c-7.851-.243-14.68-3.203-19.352-10.172-4.772-7.12-4.043-16.368 1.743-22.72 5.974-6.56 13.5-8.814 22.147-7.473 6.115.951 11.113 3.924 14.844 8.895 5.154 6.864 4.788 16.673-.798 23.188-4.796 5.596-10.972 8.11-18.584 8.282Zm3.297-29.07h.102v-3.534c0-2.59-1.81-4.496-4.255-4.5-2.399 0-4.255 1.95-4.308 4.5-.047 2.27-.127 4.543-.188 6.813 0 .487 0 .838-.731.731-1.849-.244-3.707-.407-5.564-.568-.761-.066-1.53-.168-2.285.124-1.61.62-2.35 1.951-2.214 4.03.105 1.608 1.463 3.285 3.023 3.568 2.112.385 4.233.732 6.362.988.948.114 1.202.487 1.175 1.404-.076 2.394-.115 4.793-.058 7.188.056 2.477 2.41 4.61 4.932 4.594 2.294-.015 3.477-1.493 3.553-4.414.056-2.148.148-4.298.185-6.449.014-.731.244-.846.975-.731 2.836.487 5.676.934 8.534 1.302 3.348.431 5.937-2.504 4.957-5.545-.744-2.306-2.755-3.674-5.623-3.901-2.584-.205-5.164-.488-7.748-.7-.63-.051-.834-.28-.817-.9.02-1.321-.007-2.662-.007-4Z"/><path fill="#00036B" d="M33.17 37.87c0 1.338.028 2.682 0 4.018-.016.62.188.848.818.9 2.584.207 5.164.487 7.748.7 2.868.229 4.877 1.596 5.623 3.9.975 3.04-1.61 5.977-4.957 5.545a211.43 211.43 0 0 1-8.534-1.302c-.714-.124-.948-.012-.975.731-.037 2.151-.13 4.301-.185 6.45-.076 2.925-1.259 4.389-3.553 4.413-2.521.017-4.877-2.117-4.933-4.594-.056-2.394-.017-4.793.059-7.188.027-.907-.227-1.29-1.175-1.404-2.122-.256-4.243-.61-6.354-.988-1.56-.282-2.926-1.95-3.024-3.567-.136-2.084.605-3.413 2.214-4.03.756-.293 1.524-.19 2.285-.125 1.858.161 3.716.32 5.564.569.731.097.717-.259.731-.732.061-2.27.142-4.542.188-6.812.054-2.553 1.91-4.506 4.308-4.501 2.439 0 4.25 1.911 4.255 4.5v3.534l-.102-.017Zm-.743.348h.13v-3.774c0-2.268-1.395-3.82-3.475-3.865-2.08-.044-3.565 1.49-3.633 3.733-.073 2.475-.186 4.947-.217 7.422 0 .849-.295.992-1.102.9a121.015 121.015 0 0 0-6.905-.6c-1.61-.093-2.682.946-2.81 2.548-.177 2.102 1.157 3.657 3.414 3.955 2.007.278 4.006.6 6.015.839 1.02.12 1.315.55 1.251 1.587-.148 2.387-.165 4.786-.183 7.18-.012 1.795.903 3.095 2.439 3.921 2.382 1.28 4.596-.029 4.65-2.72.036-1.827 0-3.658.065-5.482.149-3.962-.468-3.17 3.382-2.682 2.331.295 4.633.744 6.976 1.005 2.46.275 4.389-1.278 4.425-3.431.042-1.965-1.602-3.982-3.789-4.284-3.17-.437-6.364-.71-9.553-.975-.921-.076-1.155-.376-1.094-1.268.08-1.327.014-2.67.014-4.009Z"/><path fill="#FFD529" d="M32.426 38.218c0 1.339.069 2.682-.024 4.016-.061.892.173 1.192 1.095 1.268 3.189.258 6.383.531 9.553.975 2.194.303 3.83 2.319 3.789 4.284-.044 2.153-1.966 3.706-4.426 3.43-2.333-.26-4.645-.709-6.976-1.004-3.85-.487-3.233-1.28-3.381 2.682-.066 1.827-.03 3.658-.066 5.481-.054 2.683-2.268 4.002-4.65 2.722-1.536-.827-2.45-2.127-2.438-3.921.017-2.394.034-4.794.183-7.18.063-1.037-.244-1.464-1.251-1.588-2.01-.244-4.009-.56-6.015-.839-2.248-.31-3.582-1.853-3.414-3.955.137-1.602 1.2-2.64 2.809-2.548 2.307.132 4.61.337 6.905.6.807.093 1.09-.051 1.102-.9.032-2.474.144-4.947.217-7.422.069-2.243 1.558-3.779 3.633-3.732 2.075.046 3.477 1.597 3.475 3.864v3.775l-.12-.008Z"/></svg>