<svg xmlns="http://www.w3.org/2000/svg" width="81" height="78" fill="none" viewBox="0 0 81 78"><path fill="#00036B" d="M44.071 77.493c-8.187 0-16.373-.035-24.56.015-3.744.025-6.848-1.214-9.23-4.142a1.755 1.755 0 0 0-1.038-.614C3.76 71.462.023 66.824.015 61.19c-.02-16.17-.02-32.34 0-48.511C.025 5.989 5.248.799 11.955.786 28.08.77 44.203.77 60.326.786a11.5 11.5 0 0 1 8.7 3.735 2.98 2.98 0 0 0 1.68.94 11.674 11.674 0 0 1 9.509 11.447c.035 16.59.035 33.179 0 49.765-.015 6.079-4.712 10.757-10.83 10.8-8.437.058-16.875.015-25.313.015v.005ZM56.418 6.555c-12.472 0-24.947-.112-37.416.013-5.266.053-9.65 4.734-9.702 10.064-.083 8.221-.022 16.444-.032 24.665 0 .476.067.85.501 1.191a30.967 30.967 0 0 0 6.78 4.313c4.293 2.257 8.832 3.26 13.649 2.373 5.23-.959 9.174-4.032 12.429-8.048 3.082-3.8 6.65-6.911 11.354-8.502 6.65-2.257 13.224-1.56 19.729.668 1.755.602 3.46 1.342 5.265 2.044 0-5.98.066-11.868-.04-17.75-.032-1.806-.25-3.668-1.13-5.341-1.879-3.59-4.948-5.496-8.882-5.69-4.16-.203-8.34-.02-12.505 0Zm8.004 69.618c1.71.02 3.42.066 5.128.05a9.4 9.4 0 0 0 8.906-6.459c.92-2.72.44-5.539.48-8.318.013-7.933.03-15.864.05-23.794 0-.592-.186-.918-.723-1.14-1.19-.488-2.352-1.053-3.55-1.522-5.088-1.994-10.356-2.95-15.797-2.258-6.322.803-11.206 4.1-15.173 9.031C38.13 48.7 31.093 52.186 21.97 50.19c-.8-.173-1.55-.643-2.42-.485-3.527-1.663-7.126-3.206-10.24-6.02v16.25c0 2.76-.02 5.52-.017 8.259.024.243.083.48.175.707 1.515 4.877 4.811 7.316 9.89 7.318h28.788c5.424-.015 10.847-.038 16.268-.053l.008.007Zm-55.51-4.919a12.781 12.781 0 0 1-.926-4.653c.025-16.672.038-33.343.038-50.011a9.456 9.456 0 0 1 .158-1.756c1.06-5.652 5.872-9.608 11.76-9.613 15.46-.02 30.916-.028 46.37-.023.43 0 .903.17 1.4-.228a10.61 10.61 0 0 0-7.5-2.93H12.465c-6.733 0-11.196 4.49-11.196 11.25v23.444c0 8.147-.015 16.305 0 24.446.025 4.718 3.257 9.06 7.643 10.074Z"/><path fill="#939EFF" d="M8.91 71.254c-4.385-1.003-7.617-5.356-7.632-10.074-.023-8.148 0-16.306 0-24.446V13.29C1.268 6.53 5.731 2.04 12.463 2.04h47.748a10.609 10.609 0 0 1 7.49 2.934c-.502.399-.97.228-1.4.228-15.456.014-30.913.021-46.37.023-5.888 0-10.7 3.961-11.76 9.613a9.455 9.455 0 0 0-.148 1.75c-.015 16.673-.027 33.346-.035 50.02.015 1.592.328 3.168.922 4.645Z"/><path fill="#00036B" d="M33.348 23.988a8.698 8.698 0 0 1-5.333 8.127 8.687 8.687 0 0 1-3.348.675c-5.1 0-8.74-3.966-8.794-8.78-.055-4.761 3.917-8.675 8.674-8.705a8.68 8.68 0 0 1 8.128 5.332 8.69 8.69 0 0 1 .673 3.35Zm-1.309-.156c.128-3.87-3.558-7.363-7.221-7.225-4.451-.18-7.987 3.683-7.608 7.777.296 4.106 3.074 6.863 7.104 7.049 4.225.401 7.943-3.259 7.723-7.601h.002Z"/><path fill="#C3C8FF" d="M78.927 61.438v-4.754c0-6.355.014-12.702.043-19.04a1.75 1.75 0 0 0-.043-.419v-1.899h.03c0-5.98.066-11.868-.04-17.75-.032-1.807-.25-3.668-1.13-5.341-1.861-3.58-4.93-5.487-8.865-5.68-4.16-.203-8.34-.02-12.512 0-12.472 0-24.947-.113-37.416.013-5.266.053-9.649 4.734-9.702 10.064V17.8c-.044.24-.066.485-.067.73v42.144c0 .284.029.567.087.845v6.68c.025.244.084.482.176.708 1.514 4.877 4.81 7.316 9.89 7.317h28.788c5.423 0 10.847-.025 16.268-.04 1.71.02 3.42.066 5.128.05a9.398 9.398 0 0 0 8.906-6.46c.9-2.736.42-5.556.46-8.335Z"/><path fill="#C3C8FF" d="M66.95 75.433c.087.382.05.675-.445.675H35.606c-.133 0-.266-.015-.399-.022-.023-.826-.078-1.651-.128-2.474-.083-1.362-.313-2.76.156-4.116.275.185.546.376.827.554 4.737 3.038 11.178.108 11.958-5.441.271-1.912.281-1.841 2.257-2.13 3.207-.472 6.223-1.472 8.638-3.763.502-.461.614-.196.835.17a52.06 52.06 0 0 1 2.74 5.211 68.026 68.026 0 0 1 3.747 10.621c.083.342-.018.984.712.715Z"/><path fill="#00036B" d="M66.95 75.433c-.753.269-.64-.373-.733-.72a68.036 68.036 0 0 0-3.746-10.62 52.028 52.028 0 0 0-2.74-5.211c-.221-.366-.346-.632-.835-.17-2.415 2.294-5.432 3.295-8.639 3.762-1.978.289-1.988.218-2.256 2.13-.78 5.549-7.222 8.479-11.959 5.44-.28-.177-.551-.368-.827-.553-.276-.287-.57-.56-.825-.863-1.988-2.364-2.507-5.018-1.504-7.938.117-.348.453-.732-.1-1.03a17.304 17.304 0 0 1-5.327-4.348c-2.866 6.75-4.337 13.584-4.14 20.758-.606.525-.544-.025-.554-.366-.08-2.201.021-4.405.304-6.59.657-4.809 1.825-9.47 3.866-13.89a.926.926 0 0 0-.04-.928c-1.206-2.205-1.324-4.435-.065-6.663a.613.613 0 0 0-.035-.805.95.95 0 0 1-.18-.238c-.668-1.709-1.788-2.461-3.744-2.592-2.144-.145-3.714-1.683-4.917-3.451-1.951-2.868-2.734-6.121-2.952-9.52-.21-3.294.08-6.538 1.505-9.576.978-2.074 2.362-3.705 4.779-4.141a5.317 5.317 0 0 1 2.57.18c.547.173.712-.022.9-.421a11.543 11.543 0 0 1 2.214-3.306c1.793-1.812 3.814-2.037 5.966-.665a12.288 12.288 0 0 1 2.67 2.423c.228.266.389.527.893.384 4.782-1.352 9.558-1.081 14.292.198.587.158.898.03 1.292-.371 1.444-1.475 3.009-2.735 5.243-2.737 1.504 0 2.695.647 3.791 1.563 1.402 1.171 2.397 2.674 3.31 4.232.206.35.351.655.873.655 5.68.017 8.274 3.848 9.147 7.663 1.504 6.67.411 12.9-4.012 18.247-3.009 3.628-6.936 4.315-11.314 2.78-.113-.058-.25-.108-.326.02-.022.033.075.146.116.22 1.253 1.506 2.244 3.142 2.309 5.186a5.924 5.924 0 0 1-1.026 3.59c-.36.532-.323.89 0 1.415 3.187 5.245 5.336 10.915 6.756 16.867ZM52 16.768c-.436.178-.847.025-1.254-.09-4.094-1.144-8.242-1.46-12.422-.62-4.691.94-8.563 3.168-11.095 7.383-1.655 2.508-2.35 5.323-2.758 8.245-.57 4.122-.452 8.186 1.253 12.041 2.325 5.281 6.64 8.046 12.079 9.312.316.075.687 0 .81.434-.276.299-.595.193-.928.123-3.761-.772-7.036-2.426-9.674-5.245-.466-.502-.687-.474-.95.143-.838 1.969-.597 3.845.459 5.642 1.236 2.104 3.089 3.542 5.155 4.766.597.351.88.346 1.354-.251 2.026-2.526 4.699-3.6 7.881-2.918 3.049.653 5.06 2.592 5.908 5.612.203.72.571.8 1.148.725 2.896-.374 5.704-1.038 8.18-2.684 3.906-2.584 4.538-6.422 1.73-10.09-.452-.584-.713-.667-1.292-.125a17.468 17.468 0 0 1-8.382 4.418c-.301.062-.577.185-.815-.113.276-.602.9-.487 1.374-.62a17.801 17.801 0 0 0 7.788-4.47c.461-.452.685-.695-.075-1.132a8.72 8.72 0 0 1-3.761-4.4c-1.442-3.511-1.3-7.157-.778-10.812.527-3.7 1.63-7.252 2.926-10.746l.457-.216c.17.296.055.562-.05.853a56.002 56.002 0 0 0-1.909 6.1c-.955 4.042-1.64 8.096-.812 12.263.818 4.114 3.207 6.743 7.272 7.724 3.964.953 7.181-.394 9.613-3.55 3.26-4.247 4.263-9.161 3.942-14.417a15.616 15.616 0 0 0-1.542-5.539c-1.452-2.907-4.654-4.784-7.515-4.377-.105.298.113.502.22.737a51.487 51.487 0 0 1 2.854 7.757c.07.25.366.632-.05.773-.416.14-.418-.302-.501-.572a49.954 49.954 0 0 0-1.83-5.381c-1.217-2.93-2.533-5.81-4.858-8.073-2.394-2.333-5.015-2.423-7.57-.25-.579.486-1.176.975-1.582 1.64ZM24.92 43.645a1.847 1.847 0 0 0-.05-.359c-1.739-4.847-1.588-9.768-.417-14.678 1.354-5.677 4.626-9.818 10.12-12.066.25-.103.602-.1.752-.48a13.142 13.142 0 0 0-2.69-2.508c-1.648-1.076-3.147-1.023-4.714.158-.898.68-1.505 1.596-2.056 2.554-1.49 2.602-2.317 5.446-3.01 8.336-.064.276-.014.753-.4.672-.464-.087-.251-.549-.171-.838.389-1.447.752-2.9 1.226-4.322.667-2.084.324-2.52-1.946-2.27a3.764 3.764 0 0 0-.486.108c-2.294.554-3.463 2.273-4.263 4.264-1.484 3.698-1.575 7.526-.903 11.41.45 2.586 1.284 5.042 2.934 7.139 1.53 1.959 3.498 3.01 6.06 2.88h.013Zm12.848 26.5c-.502-1.573-.876-3.05-.926-4.585a1.312 1.312 0 0 0-.376-.783c-1.038-1.362-.948-3.096.198-4.164a3.033 3.033 0 0 1 4.093 0c1.128 1.05 1.23 2.817.188 4.166-.251.308-.375.7-.346 1.097a11.9 11.9 0 0 0 .872 3.976c.21.532.462.687 1.056.501 3.54-1.116 5.767-5.122 4.797-8.677-.93-3.379-4.085-5.77-7.295-5.544-3.76.271-6.476 2.81-6.988 6.508-.444 3.15 1.705 6.66 4.714 7.505h.013Zm2.444.567c.725.12 1.033-.103.622-.958a5.71 5.71 0 0 1-.479-1.52c-.25-1.47-.8-2.923.442-4.33.72-.818.303-2.228-.575-2.96a2.456 2.456 0 0 0-3.044.02c-.92.78-1.268 2.115-.501 3.028.722.855.772 1.788.88 2.76.105.825.282 1.64.527 2.435.383 1.372.591 1.513 2.116 1.525h.012Z"/><path fill="#6D73E6" d="M23.32 76.07c-.2-7.174 1.271-14.007 4.155-20.753a17.301 17.301 0 0 0 5.326 4.347c.554.299.218.683.1 1.032-1.003 2.93-.501 5.573 1.505 7.937.25.303.549.577.825.863-.47 1.354-.239 2.759-.156 4.116.05.823.106 1.648.128 2.474L23.32 76.07Z"/><path fill="#C3C8FF" d="M38.616 53.483c-.123-.424-.502-.358-.81-.434-5.439-1.266-9.754-4.03-12.079-9.311-1.702-3.866-1.82-7.93-1.253-12.042.4-2.922 1.095-5.744 2.758-8.245 1.206-.54 2.417-1.069 3.616-1.626 4.859-2.258 9.907-3.6 15.318-3.399 2.794.081 5.541.733 8.074 1.917.448.21.855.539 1.391.501l.251.457c-1.299 3.494-2.402 7.047-2.929 10.747-.521 3.655-.664 7.292.778 10.812a8.72 8.72 0 0 0 3.76 4.4c.753.436.538.68.076 1.131a17.803 17.803 0 0 1-7.788 4.47c-.474.133-1.098.018-1.374.62-3.27.381-6.53.16-9.79.002Zm-3.762-14.487c-.907.893-2.773.715-3.723-.25-.813-.82-.818-1.94-1.276-2.885-.251-.502-.337-1.194-1.034-1.172-.639.018-1.023.527-1.208 1.142-.349-.096-.472.07-.502.4-.336 2.76 1.971 5.843 4.68 6.18 1.459.18 2.835-.231 4.19-.71.363-.128.651-.214.99.102 3.57 3.337 10.697 1.142 12.718-4.131.127-.334.203-.572-.251-.652v-.402c-.04-.406.158-.92-.399-1.121-.556-.2-.89.1-1.221.469-.502.567-1.056 1.094-1.542 1.693-1.254 1.563-2.798 2.707-4.965 2.386-1.482-.218-2.843-.695-3.493-2.243.778-.379 1.567-.725 2.23-1.307 1.504-1.327 1.33-2.508-.542-3.16-2.257-.796-4.591-.753-6.896-.191-1.231.298-1.504 1.212-.822 2.305.561.893 1.361 1.558 2.196 2.165a1.935 1.935 0 0 1 .87 1.382Z"/><path fill="#939EFF" d="M74.398 30.053c.334 5.268-.67 10.17-3.942 14.417-2.432 3.156-5.65 4.516-9.613 3.55-4.075-.981-6.465-3.61-7.272-7.724-.828-4.167-.143-8.22.812-12.262a55.997 55.997 0 0 1 1.908-6.1c.106-.292.221-.558.05-.856 1.859-.725 3.589-.535 5.093.86a10.96 10.96 0 0 1 2.084 2.406 88.347 88.347 0 0 0 2.523 4.066c1.103 1.671 2.44 2.178 4.383 1.674 1.321-.347 2.64-.517 3.974-.03Z"/><path fill="#6D73E6" d="M24.905 43.645c-2.562.13-4.53-.92-6.06-2.867-1.65-2.098-2.485-4.554-2.934-7.14-.672-3.873-.582-7.711.903-11.409.807-2.007 1.976-3.723 4.263-4.264.159-.051.321-.092.486-.12 2.257-.252 2.605.185 1.913 2.277-.469 1.422-.837 2.875-1.226 4.322-.078.289-.293.753.17.838.387.073.337-.396.402-.672.694-2.89 1.522-5.735 3.009-8.336.546-.959 1.158-1.874 2.056-2.554 1.567-1.181 3.066-1.234 4.714-.158a13.14 13.14 0 0 1 2.69 2.509c-.14.378-.501.376-.752.479-5.494 2.257-8.776 6.389-10.12 12.066-1.17 4.91-1.321 9.831.416 14.678.035.114.059.232.07.35Z"/><path fill="#939EFF" d="M38.614 53.483c3.26.159 6.52.38 9.78 0 .237.299.513.176.814.113a17.466 17.466 0 0 0 8.383-4.417c.579-.542.84-.46 1.29.125 2.817 3.655 2.177 7.506-1.734 10.105-2.475 1.645-5.284 2.31-8.18 2.684-.576.075-.945 0-1.148-.725-.848-3.01-2.859-4.96-5.908-5.612-3.182-.682-5.855.392-7.88 2.918-.475.59-.753.594-1.355.25-2.066-1.221-3.919-2.658-5.155-4.766-1.056-1.796-1.297-3.672-.459-5.642.25-.617.484-.642.95-.142 2.638 2.82 5.92 4.472 9.674 5.245.326.058.645.163.928-.136Z"/><path fill="#6D73E6" d="M74.397 30.053c-1.334-.486-2.653-.316-3.987.03-1.943.502-3.28 0-4.383-1.673a88.347 88.347 0 0 1-2.522-4.066 10.944 10.944 0 0 0-2.072-2.406c-1.504-1.395-3.222-1.58-5.09-.86l-.456.218-.25-.457c-1.13-1.424-2.649-2.508-3.62-4.071.41-.665 1.004-1.154 1.586-1.646 2.557-2.162 5.175-2.072 7.57.251 2.324 2.258 3.64 5.143 4.857 8.073a49.962 49.962 0 0 1 1.83 5.38c.08.272.09.713.502.573.41-.14.12-.527.05-.773a51.484 51.484 0 0 0-2.854-7.762c-.108-.23-.326-.439-.22-.737 2.86-.406 6.063 1.47 7.537 4.378a15.615 15.615 0 0 1 1.522 5.548Z"/><path fill="#FFD529" d="M37.755 70.145c-3.009-.845-5.165-4.354-4.726-7.508.501-3.697 3.24-6.236 6.988-6.507 3.21-.233 6.364 2.165 7.294 5.544.98 3.555-1.253 7.56-4.796 8.677-.595.188-.845.033-1.056-.501a11.906 11.906 0 0 1-.873-3.977 1.558 1.558 0 0 1 .346-1.096c1.043-1.35.94-3.116-.188-4.167a3.033 3.033 0 0 0-4.092 0c-1.146 1.069-1.236 2.803-.198 4.165.21.21.343.486.376.782.05 1.538.427 3.016.925 4.588Z"/><path fill="#6D73E6" d="M51.999 16.768c.97 1.565 2.49 2.646 3.618 4.071-.537.033-.943-.296-1.392-.502a20.477 20.477 0 0 0-8.074-1.916c-5.41-.2-10.458 1.144-15.318 3.4-1.198.556-2.41 1.085-3.616 1.625 2.533-4.215 6.404-6.442 11.096-7.383 4.18-.84 8.327-.524 12.422.62.416.11.827.263 1.264.085Z"/><path fill="#FFD529" d="M40.2 70.712c-1.524-.012-1.732-.153-2.128-1.53a14.532 14.532 0 0 1-.527-2.436c-.108-.966-.158-1.899-.88-2.76-.767-.912-.419-2.257.502-3.027a2.456 2.456 0 0 1 3.044-.02c.877.732 1.294 2.142.574 2.96-1.254 1.407-.682 2.86-.441 4.33.087.526.249 1.038.479 1.52.41.86.102 1.084-.622.963Z"/><path fill="#F6F6F6" d="M58.925 48.376c-.04-.075-.138-.188-.115-.22.085-.129.213-.078.326-.02l-.21.24Z"/><path fill="#B5BBFF" d="M37.798 37.81c.65 1.548 2.006 2.024 3.493 2.243 2.167.32 3.704-.823 4.965-2.386.487-.6 1.033-1.126 1.542-1.693.331-.37.702-.655 1.221-.47.52.186.359.715.4 1.122v.401c-.141.251-.297.502-.42.778a8.304 8.304 0 0 1-4.114 4.16c-4.195 1.968-8.167.463-9.612-3.701l2.525-.454Z"/><path fill="#00036B" d="m37.798 37.81-2.525.454c1.444 4.164 5.416 5.67 9.61 3.7a8.304 8.304 0 0 0 4.118-4.16c.123-.265.278-.519.419-.777.449.08.373.319.25.652-2.02 5.268-9.147 7.468-12.717 4.132-.339-.316-.627-.23-.99-.103-1.355.48-2.731.89-4.19.71-2.709-.336-5.016-3.407-4.68-6.179.04-.33.163-.501.502-.401.078.592.135 1.189.25 1.776.55 3.086 2.654 4.598 5.723 4.12.458-.072.912-.17 1.359-.294 1.206-.331 1.203-.339.531-1.423-.208-.338-.408-.68-.612-1.02a1.936 1.936 0 0 0-.877-1.375c-.835-.608-1.635-1.272-2.197-2.165-.692-1.094-.409-2.007.823-2.306 2.304-.554 4.629-.604 6.895.19 1.873.658 2.046 1.835.542 3.162-.665.582-1.457.928-2.234 1.307Zm-2.192-4.413c-.807.043-1.845-.02-2.843.309-.424.138-.835.288-.752.875.107.81 2.422 3.046 3.26 3.01 1.754-.077 3.417-.516 4.708-1.833.752-.775.665-1.255-.343-1.736-1.222-.57-2.525-.625-4.03-.625Z"/><path fill="#B5BBFF" d="M34.854 38.996c.203.341.404.683.612 1.021.672 1.084.674 1.092-.532 1.423-.447.124-.9.222-1.359.293-3.069.48-5.173-1.033-5.722-4.119-.105-.587-.163-1.184-.25-1.776.185-.615.569-1.124 1.208-1.141.697-.023.785.667 1.033 1.171.459.946.464 2.065 1.276 2.885.948.958 2.814 1.136 3.734.243Z"/><path fill="#FFD529" d="M35.605 33.397c1.517 0 2.814.05 4.012.625 1.003.482 1.103.96.344 1.736-1.292 1.317-2.947 1.756-4.71 1.834-.83.035-3.144-2.2-3.26-3.01-.077-.588.334-.738.753-.876 1.01-.324 2.049-.261 2.861-.309Z"/></svg>