<svg xmlns="http://www.w3.org/2000/svg" width="86" height="79" fill="none" viewBox="0 0 86 79"><path fill="#00036B" d="M42.31 78.936H8.884c-5.37 0-8.336-2.953-8.336-8.292V28.211c0-5.431 4.135-9.51 9.637-9.515 3.983 0 7.966-.043 11.95.028 1.12.019 1.563-.262 1.768-1.41.605-3.447 1.63-6.795 3.332-9.885C30.89.77 36.747-1.484 43.994.957c4.849 1.63 8.983 4.415 12.83 7.687.5.426.611.897.609 1.494-.019 2.454.042 4.907-.035 7.364-.032 1.015.306 1.228 1.275 1.223 6.28-.045 12.557-.03 18.835-.022 4.849 0 7.966 3.072 7.966 7.864 0 14.41-.122 28.819.074 43.222.061 4.624-5.387 9.276-9.294 9.205-11.304-.173-22.624-.058-33.944-.058Z"/><path fill="#C3C8FF" d="M6.923 20.005c.72-.526 1.575-.526 2.409-.526 7.7 0 15.401 0 23.08-.034.946 0 1.063.376 1.063 1.16-.038 2.759-.019 5.523 0 8.279 0 .47-.093.965.265 1.38 2.924 3.438 6.11 6.588 10.5 8.132 3.916 1.378 7.34.39 9.952-2.832 2.085-2.567 3.62-5.334 3.264-8.855-.207-2.038 0-4.116-.059-6.172-.023-.884.293-1.1 1.145-1.095 6.455.032 12.91 0 19.366.027 4.044.023 6.811 2.787 6.819 6.796.02 12.79.02 25.578 0 38.365v5.785a5.2 5.2 0 0 1-.855 2.977 2.942 2.942 0 0 1-1.766.458c-2.655 0-5.332.263-7.948-.05-10.077-1.202-20.18-.344-30.271-.513-10.091-.168-20.147-.044-30.22-.031-3.3.444-6.94-3.256-6.903-6.799.087-11.942.034-23.882.032-35.824 0-.608.082-1.228-.24-1.796-.562-1.381-.265-2.825-.329-4.242-.037-.995-.018-1.994 0-2.988.011-.626.115-1.212.696-1.602Z"/><path fill="#6D73E6" d="M39.034.841c3.576-.053 6.697 1.394 9.729 3.027a45.95 45.95 0 0 1 7.066 4.852c.318.228.574.53.745.88.171.35.252.736.235 1.124-.048 5.952.183 11.914-.101 17.855-.178 3.666-2.39 6.543-5.444 8.578-2.655 1.776-5.475 1.276-8.194-.026-3.452-1.651-6.108-4.27-8.601-7.077-.452-.51-.412-1.128-.412-1.74V11.241c0-.568-.047-1.136-.074-1.701-.505-.62-.406-1.33-.226-2.007a12.445 12.445 0 0 1 2.688-5.204c.714-.797 1.646-1.131 2.589-1.489ZM13.483 72.909c.573-.016 1.147-.048 1.72-.048 18.472 0 36.945-.173 55.414.124 4.4.07 8.832.284 13.25.407-1.896 2.807-4.187 4.834-7.905 4.826-22.456-.045-44.912-.053-67.368-.023-4.549 0-7.284-2.683-7.286-7.151 0-14.404.069-28.81-.056-43.212-.037-3.295 2.663-6.53 5.67-7.827-.556 2.06-.152 4.16-.24 6.241-.034.807-.22 1.662.266 2.43-.247.5-.136 1.036-.136 1.554 0 11.87.093 23.74-.06 35.607-.051 3.892 2.92 7.626 7.52 7.56 1.635-.023 3.27 0 4.907 0h50.657c-18.198 0-36.396-.005-54.593-.015-.597-.008-1.354.326-1.76-.473Z"/><path fill="#6D73E6" d="M39.033.841c-2.533 1.441-4.036 3.621-4.835 6.372-.231.79-.14 1.555-.218 2.328-.796.079-.515.7-.53 1.112-.025 2.317-.046 4.637 0 6.954.02.862-.267 1.133-1.13 1.115-2.339-.053-4.678-.024-7.02-.016-.532 0-.99-.037-.84-.776.94-4.563 2.125-9.039 5.133-12.768C31.997 2.19 35.07.525 39.033.841Z"/><path fill="#00036B" d="M26.427 68.987c-3.404 0-6.805.014-10.207 0-3.717-.02-6.123-2.42-6.129-6.09V43.072c0-3.605 2.337-6.075 5.988-6.11 6.894-.068 13.787-.068 20.68 0 3.604.04 5.96 2.557 5.97 6.165.018 6.565.018 13.13 0 19.696 0 3.716-2.475 6.146-6.23 6.162-3.356.013-6.715.002-10.072.002Z"/><path fill="#00036B" d="M13.482 72.909c.547.262 1.131.134 1.7.134 18.476 0 36.954.007 55.434.02.518 0 1.466-.283 1.466.308 0 .64-.932.33-1.442.33-18.653.018-37.309.023-55.966.012-5.35 0-8.285-2.908-8.285-8.192 0-11.824.007-23.646.02-35.467 0-.47-.41-1.202.514-1.378.314.526.191 1.113.191 1.673v35.603c0 3.42 1.74 5.807 4.78 6.77.51.17 1.051.234 1.588.187ZM64.9 51.877H50.715c-1.809 0-2.921-.884-2.94-2.309-.018-1.425 1.1-2.404 2.868-2.406 9.588-.01 19.177-.01 28.769 0 1.614 0 2.655.762 2.841 2.009a2.299 2.299 0 0 1-.318 1.575 2.34 2.34 0 0 1-1.275.992c-.47.114-.954.16-1.437.136-4.774.008-9.549.008-14.323.003Z"/><path fill="#00036B" d="M64.943 61.863h-14.58c-1.355 0-2.292-.718-2.555-1.841a2.347 2.347 0 0 1 .23-1.528 2.38 2.38 0 0 1 1.132-1.063c.624-.262 1.293-.247 1.96-.244h27.7c.444-.014.887.005 1.328.058 1.351.2 2.175 1.16 2.124 2.417a2.26 2.26 0 0 1-.717 1.577 2.304 2.304 0 0 1-1.63.619c-2.738.044-5.478.018-8.219.018-2.26-.005-4.518-.01-6.774-.013Z"/><path fill="#FFD529" d="M26.432 68.201c-3.452 0-6.904.019-10.356 0-3.208-.018-5.191-1.993-5.2-5.168-.01-6.7-.01-13.403 0-20.105 0-3.14 2.14-5.26 5.312-5.273 6.81-.018 13.62-.018 20.43 0 3.152 0 5.295 2.185 5.311 5.328v19.974c0 3.235-2.01 5.223-5.292 5.244-3.394.016-6.8.003-10.205 0Z"/><path fill="#C3C8FF" d="M65.021 51.114H50.844c-.44.038-.883 0-1.31-.113a1.59 1.59 0 0 1-.739-.615 1.566 1.566 0 0 1 .095-1.82c.204-.256.483-.444.799-.536.432-.089.874-.12 1.314-.095h28.09c.265 0 .53-.013.796 0 1.038.084 1.67.626 1.625 1.68-.043.979-.65 1.489-1.652 1.492h-6.625l-8.216.007Zm-.091 10.023H50.753c-.619 0-1.237.024-1.734-.46a1.576 1.576 0 0 1-.457-1.433 1.571 1.571 0 0 1 .962-1.163c.416-.147.86-.204 1.3-.168h29.017c1.011.097 1.694.586 1.67 1.654-.024 1.068-.706 1.55-1.742 1.552h-9.276l-5.563.018Z"/></svg>