<svg xmlns="http://www.w3.org/2000/svg" width="72" height="81" fill="none" viewBox="0 0 72 81"><path fill="#00036B" d="M31.612 1.242c2.626.882 4.701 2.512 6.407 4.643.401.526.953.918 1.58 1.123 2.69.908 5.358 1.87 8.042 2.764.816.272 1.196.631 1.168 1.583a135.994 135.994 0 0 0 0 8.162c.035 1.113-.291 1.739-1.392 1.912-.967.156-1.005.68-.754 1.523 1 3.363 2.272 6.64 3.802 9.8 5.07 10.35 12.084 19.222 20.551 26.978.754.679.82 1.005-.153 1.48-1.62.774-3.18 1.669-4.797 2.448-.668.321-.623.583-.19 1.07 1.668 1.877 3.286 3.797 4.967 5.661.633.704 1.06 1.435.754 2.372-.307.938-1.158 1.224-2.066 1.385-2.22.39-4.427.867-6.653 1.2-1.699.252-3.345.86-5.149.099-2.417-1.005-4.97-1.704-7.435-2.61a2.513 2.513 0 0 0-2.241.14c-4.99 2.616-10.016 5.174-15.004 7.79-.731.384-1.15.303-1.7-.282a67.028 67.028 0 0 1-4.936-5.697c-.432-.58-.754-.69-1.43-.356-2.238 1.12-4.523 2.133-6.766 3.266a1.807 1.807 0 0 1-1.852-.017 864.714 864.714 0 0 0-12.787-6.365c-.91-.442-1.24-.962-1.237-1.998.04-12.681.018-25.363.043-38.045 0-.88-.093-1.553-1.04-1.837-.661-.198-.535-.753-.535-1.256 0-2.513.062-5.025-.03-7.538-.043-1.1.23-1.734 1.351-1.932 1.169-.206 1.473-.777 1.345-2.066-.375-3.882 1.758-8.224 7.51-7.324 1.508.236 3.088.7 4.078 1.784 1.973 2.158 3.945 1.643 6.169.65 1.864-.831 1.905-.74 1.706-2.819-.033-.332-.06-.666-.093-1.005-.33-5.304 3.714-8.382 8.767-6.686Zm29.617 73.622c2.101-.374 4.232-.64 6.282-1.175.857-.224 1.367-1.166 1.566-2.116.422-1.196.108-2.149-.79-3.053-1.133-1.146-2.14-2.415-3.43-3.887.172 2.555-.386 4.653-1.223 6.694-.786 1.163-1.54 2.334-2.405 3.547v-.01ZM27.036 64.708c-.015.023.068.106.106.163 1.048 1.978 2.927 2.744 5.025 2.01 1.85-.638 3.206-1.874 4.189-3.542 1.643-2.43 2.261-5.091 1.699-7.976-.651-3.254-2.988-4.568-6.353-3.455 1.95.716 2.71 2.106 2.787 3.963a10.686 10.686 0 0 1-1.083 4.965c-.226.49-.502.955-.754 1.432-.595.566-1.05 1.257-1.733 1.76-1.111.803-2.292 1.105-3.624.69-.088-.078-.176-.143-.259-.01Zm10.355 3.711c-.63-.216-1.286-.377-1.894-.648a4.357 4.357 0 0 0-3.352-.186c-2.46.814-4.56-.13-5.75-2.465a2.347 2.347 0 0 0-1.655-1.35c-.606-.148-1.169-.477-1.777-.597-2.299-.455-3.417-1.97-3.226-4.903.173-2.658 1.176-5.025 3.176-6.897 1.236-1.153 2.62-1.583 4.254-.912.54.221 1.12.35 1.656.578a3.727 3.727 0 0 0 3.209.02c2.261-.977 4.618-.14 5.857 1.977a3.016 3.016 0 0 0 1.759 1.43c7.824 2.666 15.679 5.244 23.438 8.089 1.76.64 2.985.462 4.41-.428.988-.613 2.058-1.093 3.176-1.678-2.224-2.106-4.362-4.161-6.357-6.36-7.362-8.133-13.418-17.086-17.205-27.454a34.935 34.935 0 0 1-1.072-3.465c-.22-.86-.528-1.108-1.44-.781a4990.426 4990.426 0 0 1-23.964 8.478c-2.764.97-5.51 1.945-8.277 2.884-.822.28-1.156.646-1.045 1.619a78.723 78.723 0 0 0 10.355 31.157 68.475 68.475 0 0 0 9.772 13.004c.46.48.819.824 1.583.422 4.806-2.53 9.64-5.008 14.465-7.506.17-.12.333-.25.485-.392l-10.58-3.636ZM3.093 31.641c0 12.461-.006 24.922-.018 37.381 0 .845.188 1.335 1.005 1.73a646.908 646.908 0 0 1 11.559 5.75c.962.503 1.218.353 1.103-.753-.676-6.352-1.488-12.7-1.9-19.072-.296-4.392-1.957-8.412-2.832-12.661a85.608 85.608 0 0 1-1.452-8.762c-.078-.792-.36-1.256-1.1-1.623-2.091-1.005-4.14-2.116-6.365-3.267v1.277Zm31.36 34.987c2.262.774 4.426 1.507 6.58 2.244 5.756 1.98 11.52 3.94 17.259 5.962.847.3 1.377.136 1.99-.452 2.827-2.716 4.25-5.93 3.714-9.905a1.435 1.435 0 0 0-1.09-1.32c-7.897-2.68-15.79-5.375-23.678-8.085a1.179 1.179 0 0 0-.377.02c.643 4.588-.842 8.367-4.397 11.536Zm-7.89-47.335c-1.286.503-2.56 1.028-3.861 1.478-.656.226-.754.545-.664 1.213.385 2.626-.19 4.975-2.236 6.83-.927.831-1.917.914-2.997.354-1.317-.683-1.543-2.088-.42-3.063a3.603 3.603 0 0 0 1.256-2.513c.06-.615-.125-.854-.791-.583a123.983 123.983 0 0 1-4.8 1.835c-.633.223-.65.65-.66 1.176-.038 2.377.05 4.759-.201 7.332 1.58-.525 3.063-1.005 4.522-1.508a17499.2 17499.2 0 0 0 31.41-11.086c.718-.251.964-.593.952-1.342-.04-2.593-.028-5.186 0-7.79 0-.605-.09-1.004-.754-1.21-2.535-.832-5.048-1.727-7.79-2.676.704 1.583 1.357 2.987 1.734 4.49.093.377.41.38.711.286.302-.093.54-.223.817-.314.38-.123.932-.465 1.11 0 .212.553-.48.6-.829.669-1.336.268-1.605 1.07-1.578 2.346a6.243 6.243 0 0 1-2.44 5.255 3.08 3.08 0 0 1-2.233.655c-.86-.052-1.468-.47-1.701-1.256-.234-.786-.229-1.593.573-2.13.801-.538 1.133-1.305 1.294-2.483l-10.423 4.035ZM1.55 27.821c-.018.606.133 1.005.723 1.29 2.39 1.198 4.757 2.44 7.121 3.686.646.341 1.036.482 1.043-.528.015-2.088.09-4.176.206-6.262.04-.754-.23-1.123-.877-1.445-1.53-.754-3.015-1.605-4.523-2.422-.25-.133-.653-.251-.502-.603.186-.412.583-.204.864-.053a215.58 215.58 0 0 1 4.744 2.56c.47.252.865.383 1.402.159a107.403 107.403 0 0 1 4.9-1.91c.711-.251.842-.603.633-1.309a12.775 12.775 0 0 0-2.98-5.156c-.38-.404-.726-.545-1.314-.321a646.633 646.633 0 0 1-10.699 3.937c-.565.203-.771.502-.754 1.103.038 1.256 0 2.513 0 3.769.023 1.163.045 2.34.013 3.505Zm29.622 24.776c-1.455-.52-2.94-.96-4.395-1.478-1.193-.424-2.279-.208-3.153.62-2.427 2.305-3.553 5.107-2.965 8.479a2.352 2.352 0 0 0 1.709 1.965 147.51 147.51 0 0 1 4.975 1.718c1.332.503 2.452.189 3.455-.753a9.297 9.297 0 0 0 2.965-6.204c0-2.807-.543-3.619-2.59-4.347Zm-9.669-33.093c.181.643.586.711 1.159.488 4.51-1.756 9.028-3.502 13.55-5.24.619-.236.827-.52.694-1.203a12.027 12.027 0 0 0-2.41-5.174c-.266-.341-.45-.598-1.005-.39-5.04 1.883-10.093 3.72-15.305 5.622 1.425 1.915 2.7 3.721 3.317 5.897Zm8.873-17.898c-3.75-.877-6.747 1.616-6.85 5.734a9.05 9.05 0 0 0 .251 2.236c.086.367-.088 1.204.782.9.573-.201 1.294-.251 1.083-1.3-.362-1.803-.186-3.597 1.543-4.68 1.728-1.083 3.44-.415 4.92.615 3.402 2.367 5.467 5.571 5.658 9.8.058 1.317-.362 2.487-1.465 3.294a1.209 1.209 0 0 0-.485 1.43c.181.625.754.736 1.312.754 1.256.042 1.98-.817 2.603-1.704a6.171 6.171 0 0 0 1.035-3.89c-.057-5.804-4.92-11.91-10.387-13.189ZM10.314 9.898c-2.699-.477-5.327 1.354-5.947 4.169a6.736 6.736 0 0 0-.176 2.492c.065.415-.206 1.211.502 1.146.633-.058 1.427-.146 1.46-1.284.103-3.56 2.578-5.025 5.74-3.35 3.841 2.056 5.904 5.443 6.502 9.702.189 1.355-.148 2.696-1.256 3.654-.553.48-1.093.93-.503 1.628.59.698 1.34 1.018 2.209.482 1.68-1.037 2.304-2.678 2.513-4.522.026-.292.036-.585.03-.877-.023-5.958-5.262-12.21-11.074-13.235v-.005Zm7.305 67.263a6801.88 6801.88 0 0 1 7.146-3.4c.857-.404.21-.824-.025-1.16a74.13 74.13 0 0 1-5.734-9.406c-1.106-2.198-2.114-4.445-3.164-6.67h-.311c.69 6.816 1.379 13.646 2.088 20.636ZM28.8 4.757a2.244 2.244 0 0 0-2.178 1.397 4.344 4.344 0 0 0-.176 3.292c.16.47.502.146.726.068a827.75 827.75 0 0 0 6.355-2.332c-1.465-1.355-2.82-2.417-4.727-2.425Zm-18.9 8.4c-1.777-.289-3.312 1.4-3.066 3.234.09.668.432.445.779.33a54.56 54.56 0 0 0 1.17-.428l4.25-1.593A5.78 5.78 0 0 0 9.9 13.157Zm60.988 59.39c.307-.838-.145-1.401-.904-1.909-.035.99-.367 1.782-.867 2.648.877.176 1.495-.012 1.771-.738Z"/><path fill="#C3C8FF" d="M47.976 72.055 37.39 68.42c-.63-.216-1.287-.377-1.895-.648a4.356 4.356 0 0 0-3.352-.186c-2.46.814-4.56-.13-5.749-2.465a2.347 2.347 0 0 0-1.656-1.35c-.605-.148-1.168-.477-1.776-.597-2.3-.455-3.417-1.97-3.226-4.903.173-2.658 1.175-5.025 3.176-6.897 1.236-1.153 2.62-1.583 4.254-.912.54.221 1.12.35 1.656.578a3.727 3.727 0 0 0 3.208.02c2.262-.978 4.619-.14 5.858 1.977a3.015 3.015 0 0 0 1.758 1.43c7.825 2.666 15.68 5.244 23.439 8.089 1.759.64 2.985.462 4.41-.428.987-.613 2.058-1.093 3.176-1.678-2.224-2.106-4.362-4.161-6.357-6.36-7.362-8.133-13.418-17.086-17.205-27.454a34.933 34.933 0 0 1-1.073-3.465c-.218-.86-.528-1.108-1.44-.781a5001.36 5001.36 0 0 1-23.963 8.478c-2.764.97-5.51 1.945-8.277 2.884-.822.28-1.156.646-1.046 1.619a78.726 78.726 0 0 0 10.355 31.157 68.474 68.474 0 0 0 9.772 13.004c.46.48.82.824 1.583.422 4.807-2.53 9.642-5.008 14.466-7.506.172-.12.336-.25.49-.392Z"/><path fill="#939EFF" d="M3.093 30.364v1.277c0 12.461-.006 24.922-.018 37.382 0 .844.189 1.334 1.005 1.728 3.872 1.872 7.717 3.8 11.559 5.752.962.502 1.219.352 1.103-.754-.676-6.352-1.488-12.7-1.9-19.071-.296-4.393-1.957-8.413-2.832-12.662a85.613 85.613 0 0 1-1.452-8.762c-.078-.791-.36-1.256-1.1-1.623-2.091-1.013-4.139-2.116-6.365-3.267Z"/><path fill="#FFD529" d="M38.86 55.092c.636 4.588-.85 8.367-4.397 11.536 2.261.774 4.425 1.508 6.578 2.244 5.757 1.98 11.52 3.94 17.26 5.963.847.299 1.377.135 1.99-.453 2.827-2.716 4.249-5.93 3.714-9.905a1.435 1.435 0 0 0-1.09-1.32c-7.897-2.68-15.79-5.375-23.678-8.085a1.184 1.184 0 0 0-.377.02Z"/><path fill="#6D73E6" d="m36.986 15.265-10.422 4.02c-1.287.503-2.56 1.029-3.862 1.478-.656.226-.754.546-.664 1.214.385 2.626-.19 4.975-2.236 6.83-.927.839-1.917.922-2.998.361-1.316-.683-1.543-2.088-.42-3.063a3.604 3.604 0 0 0 1.257-2.512c.06-.616-.126-.855-.791-.583a124.046 124.046 0 0 1-4.8 1.834c-.633.224-.65.65-.66 1.176-.038 2.377.05 4.759-.202 7.332 1.58-.525 3.063-1.005 4.523-1.508a17779.19 17779.19 0 0 0 31.41-11.086c.718-.251.964-.593.951-1.341-.04-2.594-.027-5.187 0-7.79 0-.606-.09-1.005-.753-1.211-2.536-.832-5.048-1.726-7.79-2.676.704 1.583 1.357 2.987 1.734 4.49.093.377.41.38.711.287.302-.093.54-.224.817-.314.38-.124.932-.465 1.11 0 .211.552-.48.6-.829.668-1.337.269-1.605 1.07-1.578 2.347a6.244 6.244 0 0 1-2.44 5.254 3.081 3.081 0 0 1-2.233.656c-.86-.053-1.468-.47-1.701-1.257-.234-.786-.23-1.593.572-2.13.802-.538 1.134-1.297 1.294-2.476Z"/><path fill="#6D73E6" d="M1.558 24.308c0 1.171.023 2.345 0 3.518-.018.606.133 1.005.724 1.29a396.92 396.92 0 0 1 7.12 3.685c.647.342 1.036.483 1.044-.527.015-2.088.09-4.176.206-6.262.04-.754-.232-1.123-.877-1.445-1.53-.754-3.016-1.605-4.523-2.422-.251-.133-.654-.251-.503-.603.186-.412.583-.204.865-.053a221.06 221.06 0 0 1 4.744 2.56c.47.252.864.383 1.402.159a107.402 107.402 0 0 1 4.9-1.91c.71-.251.841-.603.633-1.309-.576-1.932-1.6-3.7-2.99-5.161-.38-.404-.727-.545-1.315-.322A646.46 646.46 0 0 1 2.29 19.444c-.565.203-.771.502-.754 1.103.048 1.251.023 2.508.023 3.761Zm29.24 38.842c-1.005.94-2.123 1.241-3.455.754a147.134 147.134 0 0 0-4.975-1.719 2.352 2.352 0 0 1-1.709-1.965c-.588-3.372.538-6.173 2.965-8.478.875-.829 1.96-1.045 3.154-.62 1.454.517 2.94.957 4.394 1.477 2.048.729 2.59 1.54 2.59 4.35a9.297 9.297 0 0 1-2.964 6.201Zm-5.244-2.626c-.211.252-.754.533-.364.895.389.362.655-.171.874-.427a10.528 10.528 0 0 0 2.56-7.02c0-.37.06-.888-.444-1.066-.224-.08-.302.21-.234 1.256-.123 2.219-.794 4.453-2.392 6.362Zm-7.367-46.917c1.425 1.915 2.699 3.721 3.317 5.897.18.643.585.711 1.158.488a3449.96 3449.96 0 0 1 13.551-5.24c.618-.236.827-.52.694-1.203a12.025 12.025 0 0 0-2.41-5.174c-.266-.341-.45-.598-1.005-.39-5.04 1.883-10.093 3.72-15.305 5.622Z"/><path fill="#B1AEFC" d="M40.76 14.805c-.054-5.814-4.916-11.92-10.383-13.199-3.75-.877-6.747 1.616-6.85 5.734a9.05 9.05 0 0 0 .251 2.236c.086.367-.088 1.204.782.9.573-.201 1.294-.251 1.083-1.299-.362-1.804-.186-3.598 1.543-4.681 1.728-1.083 3.44-.415 4.92.615 3.402 2.367 5.467 5.571 5.658 9.8.058 1.317-.362 2.488-1.465 3.294a1.209 1.209 0 0 0-.485 1.43c.181.626.754.736 1.312.754 1.256.042 1.98-.817 2.603-1.704a6.172 6.172 0 0 0 1.03-3.88Zm-19.372 8.332c-.015-5.945-5.254-12.196-11.056-13.221-2.698-.478-5.327 1.354-5.947 4.168a6.737 6.737 0 0 0-.176 2.493c.065.414-.206 1.21.502 1.146.633-.058 1.427-.146 1.46-1.284.103-3.561 2.578-5.026 5.74-3.35 3.824 2.038 5.886 5.425 6.484 9.684.189 1.355-.148 2.696-1.256 3.654-.553.48-1.093.93-.502 1.628.59.698 1.339 1.018 2.208.482 1.681-1.037 2.305-2.678 2.513-4.523a7.85 7.85 0 0 0 .03-.877Z"/><path fill="#939EFF" d="M15.53 56.527c.69 6.814 1.379 13.644 2.087 20.634a6801.88 6801.88 0 0 1 7.146-3.4c.857-.404.212-.824-.025-1.16a74.123 74.123 0 0 1-5.734-9.405c-1.105-2.199-2.113-4.445-3.163-6.672l-.312.003Z"/><path fill="#C3C8FF" d="M36.357 63.341c1.643-2.43 2.261-5.09 1.698-7.975-.65-3.254-2.987-4.568-6.352-3.455 1.95.716 2.709 2.105 2.787 3.962a10.686 10.686 0 0 1-1.083 4.966c-.226.49-.503.954-.754 1.432 1.249.286 2.302 1.321 3.704 1.07Z"/><path fill="#939EFF" d="M36.358 63.341c-1.412.251-2.454-.789-3.713-1.07-.598.565-1.053 1.256-1.737 1.759-1.11.804-2.291 1.105-3.623.69l-.143.144c1.047 1.977 2.927 2.744 5.025 2.01 1.852-.623 3.209-1.86 4.191-3.533Z"/><path fill="#C3C8FF" d="M69.087 71.583c.422-1.196.108-2.148-.789-3.053-1.133-1.146-2.14-2.415-3.43-3.887.171 2.555-.386 4.653-1.223 6.694 1.827-.176 3.618.377 5.442.246Z"/><path fill="#939EFF" d="M69.085 71.583c-1.824.13-3.616-.422-5.442-.251-.792 1.153-1.556 2.324-2.415 3.538 2.1-.375 4.231-.641 6.282-1.176.864-.219 1.366-1.161 1.575-2.111Z"/><path fill="#C3C8FF" d="M69.106 73.287c.887.175 1.507-.013 1.759-.74.306-.838-.146-1.401-.905-1.909-.022.995-.354 1.782-.854 2.648Z"/><path fill="#B1AEFC" d="M27.285 64.728c-.078-.088-.166-.153-.252-.02-.015.023.068.106.106.163l.146-.143Z"/><path fill="#00036B" d="M27.946 54.152c-.123 2.229-.794 4.463-2.392 6.372-.211.252-.754.533-.364.895s.655-.17.874-.427a10.528 10.528 0 0 0 2.56-7.02c0-.37.06-.888-.444-1.066-.224-.08-.302.21-.234 1.246Z"/></svg>