<svg xmlns="http://www.w3.org/2000/svg" width="76" height="81" fill="none" viewBox="0 0 76 81"><path fill="#6D73E6" fill-opacity="0.1" d="M67.038 45.053c-1.722 1.725-3.286 3.718-5.194 5.132-1.65 1.133-3.046 2.677-4.065 4.494a14.152 14.152 0 0 0-1.771 5.915 16.476 16.476 0 0 1-3.44 8.875c-1.159 1.435-2.61 2.552-4.217 3.248-1.607.696-3.32.949-4.979.734a8.862 8.862 0 0 1-4.513-1.96c-1.302-1.07-2.311-2.505-2.934-4.17-.775-1.936-.985-4.165-1.513-6.236-.593-2.276-1.25-4.526-1.889-6.76a48.896 48.896 0 0 1-1.683-6.17c-1.014-7.081 2.513-13.157 8.944-15.528a15.222 15.222 0 0 1 4.705-1.118c3.18-.18 6.348-.946 9.372-2.264 3.797-1.51 7.425-1.573 10.692.991 4.576 3.558 5.429 8.913 2.485 14.817ZM21.663 33.4c1.293 1.532 2.852 2.89 3.839 4.646.5.92.795 1.967.86 3.063a8.15 8.15 0 0 1-.482 3.266 8.124 8.124 0 0 1-1.73 2.808 7.253 7.253 0 0 1-2.625 1.782c-5.556 2.317-12.644-1.616-13.802-7.76-.384-1.68-.153-3.503.645-5.096.799-1.593 2.104-2.834 3.647-3.467 2.849-1.29 6.289-.908 9.648.758Zm8.373-18.221c3.308 2.238 5.253 4.542 5.806 8.05a8.022 8.022 0 0 1-.122 3.446 8.254 8.254 0 0 1-1.548 3.118 7.475 7.475 0 0 1-2.631 2.1 6.389 6.389 0 0 1-3.131.617c-4.596-.319-8.146-2.678-9.993-7.284-2.334-5.83 1.463-11.473 7.392-11.07 1.445.196 2.86.538 4.227 1.023ZM25.2 55.05c4.362 2.733 5.43 6.966 2.83 11.234a7.957 7.957 0 0 1-2.113 2.24c-.83.587-1.75.985-2.702 1.168-2.168.47-4.368.187-6.282-.81-1.915-.998-3.448-2.658-4.378-4.743a7.138 7.138 0 0 1-.633-2.93 7.846 7.846 0 0 1 2.314-5.593 6.865 6.865 0 0 1 2.5-1.583 9.258 9.258 0 0 1 4.41-.566A8.696 8.696 0 0 1 25.2 55.05ZM49.673 9.49a9.067 9.067 0 0 1 3.001 2.855 10.39 10.39 0 0 1 1.566 4.045c.872 5.716-3.699 10.438-8.798 9.06a9.757 9.757 0 0 1-3.83-1.945 10.626 10.626 0 0 1-2.735-3.476c-1.688-3.351-1.373-6.916.733-9.395 2.105-2.478 5.643-3.252 8.727-1.86.459.245.918.492 1.336.717Z"/></svg>