<svg xmlns="http://www.w3.org/2000/svg" width="90" height="88" fill="none" viewBox="0 0 90 88"><path fill="#6D73E6" fill-opacity="0.1" d="M30.165 69.546c-1.032-2.208-2.37-4.358-3.048-6.635-.501-1.938-1.475-3.778-2.834-5.355a14.153 14.153 0 0 0-4.954-3.686 16.476 16.476 0 0 1-7.166-6.265c-.953-1.58-1.507-3.324-1.612-5.073-.105-1.748.243-3.444 1.01-4.93a8.862 8.862 0 0 1 3.385-3.572c1.452-.858 3.144-1.316 4.922-1.333 2.084-.067 4.251.497 6.377.709 2.342.22 4.681.37 7 .535 2.117.034 4.246.21 6.373.525 7.001 1.466 11.506 6.858 11.538 13.711a15.221 15.221 0 0 1-.558 4.804c-.916 3.05-1.279 6.29-1.073 9.582.12 4.084-1.06 7.516-4.585 9.71-4.907 3.085-10.232 2.057-14.775-2.727ZM56.62 30.883c-1.88.692-3.69 1.693-5.678 2.02a7.309 7.309 0 0 1-3.173-.237 8.149 8.149 0 0 1-2.904-1.57 8.125 8.125 0 0 1-2.048-2.584 7.25 7.25 0 0 1-.778-3.077c-.28-6.013 5.839-11.33 12.01-10.32 1.708.213 3.343 1.053 4.568 2.347 1.224 1.295 1.944 2.946 2.012 4.613.238 3.117-1.295 6.22-4.008 8.808Zm14.264 14.095c-3.233 2.344-6.063 3.385-9.55 2.705a8.021 8.021 0 0 1-3.196-1.292 8.253 8.253 0 0 1-2.402-2.52 7.474 7.474 0 0 1-1.075-3.19 6.388 6.388 0 0 1 .491-3.153c1.87-4.21 5.3-6.74 10.26-6.903 6.275-.202 10.282 5.295 7.877 10.73a21.094 21.094 0 0 1-2.405 3.623ZM35.064 26.81c-4.058 3.166-8.402 2.723-11.524-1.178a7.955 7.955 0 0 1-1.383-2.751 6.965 6.965 0 0 1-.175-2.939c.299-2.199 1.317-4.169 2.908-5.628 1.592-1.459 3.675-2.331 5.953-2.493a7.134 7.134 0 0 1 2.97.406 7.847 7.847 0 0 1 4.466 4.085c.424.93.64 1.917.633 2.89a9.258 9.258 0 0 1-.975 4.338 8.695 8.695 0 0 1-2.873 3.27ZM69.52 65.376a9.066 9.066 0 0 1-3.707 1.846 10.39 10.39 0 0 1-4.336.089c-5.67-1.133-8.546-7.042-5.51-11.364a9.757 9.757 0 0 1 3.138-2.935 10.627 10.627 0 0 1 4.2-1.383c3.727-.442 6.97 1.073 8.58 3.899 1.61 2.826 1.128 6.415-1.233 8.837l-1.131 1.011Z"/></svg>