<svg xmlns="http://www.w3.org/2000/svg" width="72" height="79" fill="none" viewBox="0 0 72 79"><path fill="#6D73E6" fill-opacity="0.1" d="M65.433 41.843c-1.537 1.873-2.894 4.005-4.643 5.58-1.52 1.27-2.753 2.936-3.59 4.848a14.486 14.486 0 0 0-1.203 6.106c.053 3.271-.852 6.514-2.575 9.223-1.01 1.537-2.335 2.776-3.853 3.603-1.518.826-3.18 1.213-4.832 1.125a8.747 8.747 0 0 1-4.619-1.63c-1.379-.98-2.502-2.35-3.267-3.982-.939-1.894-1.349-4.128-2.057-6.176-.792-2.252-1.644-4.471-2.475-6.678a51.07 51.07 0 0 1-2.219-6.096c-1.643-7.068 1.274-13.472 7.384-16.36a14.58 14.58 0 0 1 4.528-1.492c3.112-.428 6.16-1.445 9.015-3.009 3.598-1.816 7.162-2.16 10.61.176 4.827 3.238 6.154 8.576 3.796 14.762Zm-45.706-8.26c1.412 1.446 3.07 2.697 4.2 4.393a7.624 7.624 0 0 1 1.127 3.025 8.419 8.419 0 0 1-.178 3.333 8.144 8.144 0 0 1-1.445 2.967 7.036 7.036 0 0 1-2.421 2.002c-5.255 2.767-12.587-.656-14.287-6.768-.531-1.664-.47-3.523.17-5.192.64-1.67 1.812-3.022 3.272-3.78 2.686-1.521 6.105-1.402 9.562.02ZM26.3 14.548c3.459 2.003 5.583 4.179 6.446 7.677a8.332 8.332 0 0 1 .194 3.487 8.339 8.339 0 0 1-1.238 3.266 7.289 7.289 0 0 1-2.398 2.322c-.942.555-1.98.85-3.024.864-4.55.034-8.259-2.074-10.496-6.58-2.828-5.702.393-11.691 6.264-11.741a20.56 20.56 0 0 1 4.252.705ZM25.178 55.16c4.54 2.421 5.977 6.611 3.808 11.119a7.84 7.84 0 0 1-1.875 2.423 6.696 6.696 0 0 1-2.552 1.387 8.972 8.972 0 0 1-6.255-.332c-1.975-.86-3.634-2.416-4.74-4.449a7.447 7.447 0 0 1-.89-2.908 8.085 8.085 0 0 1 .313-3.11 7.717 7.717 0 0 1 1.454-2.713 6.648 6.648 0 0 1 2.315-1.79 8.878 8.878 0 0 1 4.288-.911 8.556 8.556 0 0 1 4.134 1.284ZM45.106 7.293A9.213 9.213 0 0 1 48.32 9.94a10.82 10.82 0 0 1 1.909 3.961c1.38 5.702-2.688 10.82-7.83 9.824a9.678 9.678 0 0 1-3.946-1.669 10.911 10.911 0 0 1-3.008-3.296c-1.967-3.252-1.982-6.874-.136-9.538 1.846-2.664 5.257-3.718 8.417-2.551.474.212.949.425 1.38.62Z"/></svg>