<svg xmlns="http://www.w3.org/2000/svg" width="208" height="70" fill="none" viewBox="0 0 208 70"><rect width="207.905" height="69.3016" y="0.606567" fill="#fff" rx="10.3952"/><path fill="#000" d="M44.532 34.847a9.278 9.278 0 0 1 1.26-4.543 9.555 9.555 0 0 1 3.35-3.385 9.834 9.834 0 0 0-3.405-2.961 10.094 10.094 0 0 0-4.402-1.16c-3.284-.336-6.468 1.92-8.142 1.92-1.706 0-4.283-1.886-7.057-1.83a10.58 10.58 0 0 0-5.078 1.479 10.262 10.262 0 0 0-3.67 3.73c-3.783 6.393-.962 15.79 2.661 20.958 1.813 2.531 3.932 5.358 6.704 5.258 2.713-.11 3.727-1.69 7.001-1.69 3.244 0 4.195 1.69 7.024 1.626 2.91-.046 4.745-2.542 6.494-5.097a20.73 20.73 0 0 0 2.97-5.905 9.305 9.305 0 0 1-4.15-3.36 8.978 8.978 0 0 1-1.56-5.04ZM39.19 19.4a9.159 9.159 0 0 0 2.18-6.666 9.774 9.774 0 0 0-6.274 3.17 8.804 8.804 0 0 0-1.773 2.991 8.66 8.66 0 0 0-.464 3.427 8.182 8.182 0 0 0 3.51-.75 7.99 7.99 0 0 0 2.82-2.172Zm26.283-5.797h3.586c3.098 0 4.606 1.843 4.606 5.185 0 3.343-1.523 5.208-4.606 5.208h-3.586V13.603Zm1.728 1.454v7.485h1.667c2.056 0 3.023-1.241 3.023-3.731 0-2.505-.975-3.754-3.023-3.754h-1.667Zm11.931.754c2.101 0 3.57 1.363 3.57 3.624v1.043c0 2.338-1.469 3.655-3.57 3.655-2.132 0-3.587-1.302-3.587-3.647v-1.043c0-2.2 1.478-3.632 3.587-3.632Zm.007 1.363c-1.203 0-1.888 1.005-1.888 2.353v.898c0 1.348.64 2.345 1.888 2.345 1.234 0 1.866-.99 1.866-2.345v-.898c0-1.348-.663-2.353-1.866-2.353Zm15.974-1.226-2.117 8.048h-1.72l-1.683-5.939h-.046l-1.652 5.939h-1.728l-2.208-8.048h1.82l1.294 6.137h.076l1.621-6.137h1.592l1.667 6.137h.076l1.317-6.137h1.69Zm1.675 8.048v-8.048h1.66v1.447h.083c.206-.632.792-1.569 2.421-1.569 1.622 0 2.711.899 2.711 2.734v5.436h-1.69v-4.941c0-1.226-.64-1.79-1.592-1.79-1.248 0-1.903.96-1.903 2.262v4.469h-1.69Zm9.433 0V13.055h1.69v10.94h-1.69Zm7.492-8.185c2.101 0 3.571 1.363 3.571 3.624v1.043c0 2.338-1.47 3.655-3.571 3.655-2.132 0-3.586-1.302-3.586-3.647v-1.043c0-2.2 1.477-3.632 3.586-3.632Zm.008 1.363c-1.203 0-1.889 1.005-1.889 2.353v.898c0 1.348.64 2.345 1.889 2.345 1.233 0 1.865-.99 1.865-2.345v-.898c0-1.348-.662-2.353-1.865-2.353Zm7.941 6.944c-1.561 0-2.635-.96-2.635-2.46 0-1.423.99-2.383 2.848-2.383h2.033v-.753c0-.922-.586-1.356-1.515-1.356-.914 0-1.325.381-1.455.914h-1.606c.099-1.348 1.112-2.254 3.114-2.254 1.721 0 3.144.716 3.144 2.718v5.452h-1.606v-1.043h-.076c-.358.617-1.059 1.165-2.246 1.165Zm.525-1.31c.959 0 1.721-.655 1.721-1.53v-.868h-1.767c-.982 0-1.416.495-1.416 1.165 0 .837.701 1.233 1.462 1.233Zm8.611-6.966c1.135 0 2.003.502 2.315 1.317h.083v-4.104h1.691v10.94h-1.645V22.71h-.084c-.243.815-1.21 1.393-2.383 1.393-1.85 0-3.053-1.317-3.053-3.44v-1.379c0-2.124 1.226-3.441 3.076-3.441Zm.472 1.385c-1.127 0-1.827.838-1.827 2.3v.883c0 1.47.708 2.307 1.865 2.307 1.142 0 1.888-.83 1.888-2.2v-1.219c0-1.24-.814-2.07-1.926-2.07Zm12.898-1.416c2.101 0 3.571 1.363 3.571 3.624v1.043c0 2.338-1.47 3.655-3.571 3.655-2.132 0-3.586-1.302-3.586-3.647v-1.043c0-2.2 1.477-3.632 3.586-3.632Zm.007 1.363c-1.203 0-1.888 1.005-1.888 2.353v.898c0 1.348.64 2.345 1.888 2.345 1.234 0 1.866-.99 1.866-2.345v-.898c0-1.348-.663-2.353-1.866-2.353Zm5.741 6.822v-8.048h1.66v1.447h.084c.205-.632.792-1.569 2.421-1.569 1.622 0 2.71.899 2.71 2.734v5.436h-1.69v-4.941c0-1.226-.639-1.79-1.591-1.79-1.249 0-1.904.96-1.904 2.262v4.469h-1.69Zm13.415-7.994v-2.01h1.653v2.01h1.804v1.324h-1.804v4.272c0 .875.327 1.119 1.233 1.119.229 0 .533-.015.662-.03v1.294c-.137.022-.7.068-1.081.068-1.956 0-2.489-.7-2.489-2.314v-4.409h-1.226v-1.325h1.248Zm5.589 7.994V13.055h1.683v4.34h.083c.175-.571.83-1.569 2.444-1.569 1.569 0 2.688.906 2.688 2.741v5.429h-1.683v-4.934c0-1.226-.677-1.797-1.637-1.797-1.21 0-1.895.952-1.895 2.262v4.469h-1.683Zm12.57.137c-2.193 0-3.555-1.348-3.555-3.617v-1.088c0-2.284 1.492-3.617 3.456-3.617 2.018 0 3.442 1.401 3.442 3.617v.944h-5.223v.396c0 1.157.685 2.01 1.873 2.01.883 0 1.492-.42 1.606-.922h1.652c-.099.93-1.081 2.277-3.251 2.277Zm-1.88-4.865h3.57v-.107c0-1.21-.708-2.017-1.781-2.017-1.074 0-1.789.807-1.789 2.017v.107ZM67.924 51.717h-3.517l7.157-20.786h3.867l7.142 20.786h-3.655l-1.842-5.756h-7.294l-1.858 5.756Zm5.589-17.192h-.137l-2.817 8.786h5.74l-2.786-8.786Zm18.767 17.42c-2.085 0-3.669-.99-4.522-2.467h-.121v7.583h-3.381v-21.44h3.29v2.36h.12c.884-1.538 2.529-2.573 4.691-2.573 3.609 0 6.182 2.726 6.182 7.538v1.43c0 4.782-2.543 7.569-6.258 7.569Zm-.776-2.787c2.147 0 3.61-1.72 3.61-4.964v-1.127c0-3.121-1.371-4.903-3.67-4.903-2.36 0-3.838 1.919-3.838 4.888v1.142c0 3.046 1.492 4.964 3.898 4.964Zm17.961 2.787c-2.086 0-3.669-.99-4.522-2.467h-.122v7.583h-3.381v-21.44h3.29v2.36h.121c.884-1.538 2.528-2.573 4.69-2.573 3.609 0 6.183 2.726 6.183 7.538v1.43c0 4.782-2.543 7.569-6.259 7.569Zm-.776-2.787c2.147 0 3.609-1.72 3.609-4.964v-1.127c0-3.121-1.371-4.903-3.67-4.903-2.36 0-3.837 1.919-3.837 4.888v1.142c0 3.046 1.492 4.964 3.898 4.964Zm14.04-3.213h3.381c.152 1.797 1.736 3.335 4.674 3.335 2.696 0 4.295-1.264 4.295-3.228 0-1.584-1.066-2.437-3.29-2.97l-3.411-.852c-2.68-.624-5.085-2.223-5.085-5.604 0-3.974 3.471-6.152 7.507-6.152 4.035 0 7.4 2.178 7.476 6.06h-3.319c-.153-1.766-1.508-3.227-4.203-3.227-2.376 0-3.99 1.126-3.99 3.06 0 1.355.944 2.33 2.878 2.772l3.396.837c3.122.762 5.497 2.239 5.497 5.771 0 4.081-3.304 6.38-8.009 6.38-5.787 0-7.721-3.38-7.797-6.182Zm19.926-10.324v-3.913h3.319v3.913h3.137v2.71h-3.137v8.589c0 1.751.655 2.238 2.467 2.238.289 0 .563 0 .761-.03v2.589c-.274.045-.913.106-1.599.106-3.913 0-4.994-1.4-4.994-4.629v-8.862h-2.223v-2.71h2.269Zm15.585-.274c4.629 0 7.142 3.259 7.142 7.644v1.294c0 4.538-2.497 7.706-7.142 7.706-4.644 0-7.172-3.168-7.172-7.706v-1.294c0-4.37 2.543-7.644 7.172-7.644Zm0 2.71c-2.512 0-3.761 2.056-3.761 4.98v1.233c0 2.878 1.233 4.995 3.761 4.995s3.746-2.102 3.746-4.995v-1.233c0-2.939-1.233-4.98-3.746-4.98Zm9.997 13.66V35.62h3.381v2.117h.122c.411-1.005 1.614-2.345 3.852-2.345.442 0 .822.03 1.142.091v2.985c-.289-.077-.883-.122-1.446-.122-2.711 0-3.625 1.675-3.625 3.837v9.533h-3.426Zm16.698.273c-4.31 0-7.051-2.847-7.051-7.613v-1.63c0-4.492 2.68-7.4 6.914-7.4 4.294 0 6.882 3.015 6.882 7.553v1.538h-10.461v.38c0 2.711 1.462 4.508 3.761 4.508 1.721 0 2.893-.853 3.305-2.239h3.213c-.488 2.604-2.589 4.904-6.563 4.904Zm-3.716-9.912h7.157v-.03c0-2.285-1.416-4.082-3.563-4.082-2.178 0-3.594 1.797-3.594 4.081v.03Z"/></svg>