<svg xmlns="http://www.w3.org/2000/svg" width="209" height="70" fill="none" viewBox="0 0 209 70"><rect width="207.905" height="69.3016" x="0.904755" fill="#000" rx="10.3952"/><path fill="#fff" d="M45.437 34.24a9.278 9.278 0 0 1 1.26-4.542 9.556 9.556 0 0 1 3.35-3.386 9.834 9.834 0 0 0-3.405-2.96 10.094 10.094 0 0 0-4.402-1.16c-3.284-.337-6.468 1.919-8.142 1.919-1.706 0-4.283-1.886-7.058-1.83a10.581 10.581 0 0 0-5.077 1.48 10.261 10.261 0 0 0-3.671 3.73c-3.783 6.393-.961 15.79 2.662 20.958 1.813 2.53 3.932 5.357 6.704 5.257 2.713-.11 3.726-1.689 7-1.689 3.245 0 4.196 1.69 7.024 1.625 2.911-.046 4.745-2.542 6.495-5.096a20.735 20.735 0 0 0 2.97-5.905 9.305 9.305 0 0 1-4.15-3.361 8.978 8.978 0 0 1-1.56-5.04Zm-5.343-15.447a9.158 9.158 0 0 0 2.18-6.665 9.775 9.775 0 0 0-6.273 3.169 8.807 8.807 0 0 0-1.773 2.992 8.659 8.659 0 0 0-.464 3.426 8.18 8.18 0 0 0 3.51-.75 7.991 7.991 0 0 0 2.82-2.172Zm26.283-5.796h3.586c3.1 0 4.607 1.842 4.607 5.184 0 3.343-1.523 5.208-4.607 5.208h-3.586V12.997Zm1.729 1.454v7.484h1.667c2.056 0 3.023-1.24 3.023-3.73 0-2.505-.975-3.754-3.023-3.754h-1.667Zm11.93.754c2.102 0 3.571 1.362 3.571 3.624v1.043c0 2.337-1.47 3.654-3.57 3.654-2.133 0-3.587-1.302-3.587-3.647v-1.043c0-2.2 1.477-3.631 3.586-3.631Zm.008 1.362c-1.203 0-1.888 1.005-1.888 2.353v.898c0 1.348.64 2.345 1.888 2.345 1.233 0 1.865-.99 1.865-2.345v-.898c0-1.348-.662-2.353-1.865-2.353Zm15.973-1.225-2.116 8.047h-1.72l-1.683-5.938h-.046L88.8 23.389h-1.73l-2.208-8.047h1.82l1.294 6.136h.077l1.621-6.136h1.591l1.668 6.136h.076l1.317-6.136h1.69Zm1.675 8.048v-8.048h1.66v1.446h.084c.206-.632.792-1.568 2.421-1.568 1.622 0 2.711.898 2.711 2.733v5.436h-1.691v-4.941c0-1.226-.639-1.79-1.591-1.79-1.248 0-1.903.96-1.903 2.262v4.47h-1.69Zm9.434 0V12.447h1.69V23.39h-1.69Zm7.492-8.185c2.101 0 3.571 1.362 3.571 3.624v1.043c0 2.337-1.47 3.654-3.571 3.654-2.132 0-3.586-1.302-3.586-3.647v-1.043c0-2.2 1.477-3.631 3.586-3.631Zm.007 1.362c-1.203 0-1.888 1.005-1.888 2.353v.898c0 1.348.64 2.345 1.888 2.345 1.234 0 1.866-.99 1.866-2.345v-.898c0-1.348-.663-2.353-1.866-2.353Zm7.941 6.944c-1.56 0-2.634-.96-2.634-2.46 0-1.423.99-2.382 2.848-2.382h2.032v-.754c0-.921-.586-1.355-1.515-1.355-.913 0-1.324.38-1.454.914h-1.606c.099-1.348 1.111-2.254 3.114-2.254 1.72 0 3.144.715 3.144 2.718v5.451h-1.606v-1.043h-.077c-.357.617-1.058 1.165-2.246 1.165Zm.526-1.31c.959 0 1.72-.654 1.72-1.53v-.868h-1.766c-.982 0-1.416.495-1.416 1.165 0 .838.7 1.234 1.462 1.234Zm8.611-6.966c1.134 0 2.002.503 2.314 1.317h.084v-4.104h1.69V23.39h-1.644v-1.286h-.084c-.243.814-1.21 1.393-2.383 1.393-1.85 0-3.053-1.317-3.053-3.441v-1.379c0-2.124 1.226-3.441 3.076-3.441Zm.472 1.386c-1.127 0-1.827.837-1.827 2.3v.882c0 1.47.708 2.307 1.865 2.307 1.142 0 1.888-.83 1.888-2.2v-1.218c0-1.241-.814-2.071-1.926-2.071Zm12.898-1.416c2.101 0 3.57 1.362 3.57 3.624v1.043c0 2.337-1.469 3.654-3.57 3.654-2.132 0-3.586-1.302-3.586-3.647v-1.043c0-2.2 1.477-3.631 3.586-3.631Zm.007 1.362c-1.203 0-1.888 1.005-1.888 2.353v.898c0 1.348.64 2.345 1.888 2.345 1.234 0 1.866-.99 1.866-2.345v-.898c0-1.348-.663-2.353-1.866-2.353Zm5.741 6.823v-8.048h1.66v1.446h.083c.206-.632.792-1.568 2.422-1.568 1.621 0 2.71.898 2.71 2.733v5.436h-1.69v-4.941c0-1.226-.64-1.79-1.591-1.79-1.249 0-1.904.96-1.904 2.262v4.47h-1.69Zm13.415-7.995v-2.01h1.652v2.01h1.805v1.325h-1.805v4.271c0 .876.328 1.12 1.234 1.12.228 0 .533-.016.662-.031v1.294c-.137.023-.7.069-1.081.069-1.957 0-2.49-.7-2.49-2.315V16.72h-1.225v-1.325h1.248Zm5.589 7.995V12.447h1.682v4.34h.084c.175-.57.83-1.568 2.444-1.568 1.569 0 2.688.906 2.688 2.74v5.43h-1.683v-4.934c0-1.226-.678-1.797-1.637-1.797-1.21 0-1.896.951-1.896 2.261v4.47h-1.682Zm12.57.136c-2.193 0-3.556-1.347-3.556-3.616v-1.09c0-2.284 1.493-3.616 3.457-3.616 2.018 0 3.441 1.4 3.441 3.616v.944h-5.223v.396c0 1.157.686 2.01 1.873 2.01.883 0 1.493-.419 1.607-.921h1.652c-.099.929-1.081 2.276-3.251 2.276Zm-1.881-4.865h3.571v-.106c0-1.211-.708-2.018-1.781-2.018-1.074 0-1.79.807-1.79 2.018v.106ZM68.829 51.11h-3.518l7.157-20.785h3.868l7.142 20.785h-3.655l-1.842-5.756h-7.294l-1.858 5.756Zm5.588-17.192h-.137l-2.817 8.786h5.741l-2.787-8.786Zm18.769 17.42c-2.087 0-3.67-.99-4.523-2.467h-.122v7.584h-3.38v-21.44h3.289v2.36h.122c.883-1.538 2.527-2.574 4.69-2.574 3.609 0 6.182 2.726 6.182 7.538v1.431c0 4.782-2.543 7.568-6.258 7.568Zm-.777-2.786c2.147 0 3.609-1.721 3.609-4.964V42.46c0-3.122-1.37-4.903-3.67-4.903-2.36 0-3.837 1.918-3.837 4.888v1.142c0 3.045 1.492 4.964 3.898 4.964Zm17.961 2.786c-2.086 0-3.67-.99-4.522-2.467h-.122v7.584h-3.381v-21.44h3.289v2.36h.122c.883-1.538 2.528-2.574 4.69-2.574 3.609 0 6.183 2.726 6.183 7.538v1.431c0 4.782-2.543 7.568-6.259 7.568Zm-.777-2.786c2.148 0 3.609-1.721 3.609-4.964V42.46c0-3.122-1.37-4.903-3.669-4.903-2.361 0-3.838 1.918-3.838 4.888v1.142c0 3.045 1.493 4.964 3.898 4.964Zm14.041-3.213h3.38c.153 1.797 1.736 3.335 4.675 3.335 2.695 0 4.294-1.264 4.294-3.229 0-1.583-1.066-2.436-3.289-2.969l-3.411-.853c-2.68-.624-5.086-2.223-5.086-5.603 0-3.975 3.472-6.152 7.507-6.152 4.036 0 7.401 2.177 7.477 6.06h-3.32c-.152-1.766-1.507-3.228-4.202-3.228-2.376 0-3.99 1.127-3.99 3.06 0 1.356.944 2.33 2.878 2.772l3.396.838c3.121.761 5.497 2.238 5.497 5.77 0 4.082-3.304 6.381-8.01 6.381-5.786 0-7.72-3.38-7.796-6.182Zm19.925-10.324V31.1h3.32v3.914h3.137v2.71h-3.137v8.588c0 1.752.655 2.239 2.467 2.239.289 0 .563 0 .761-.03v2.588c-.274.046-.914.107-1.599.107-3.913 0-4.994-1.401-4.994-4.63v-8.862h-2.224v-2.71h2.269Zm15.586-.275c4.629 0 7.142 3.26 7.142 7.645v1.294c0 4.538-2.498 7.705-7.142 7.705s-7.172-3.167-7.172-7.705v-1.294c0-4.37 2.543-7.645 7.172-7.645Zm0 2.711c-2.513 0-3.761 2.056-3.761 4.98v1.233c0 2.878 1.233 4.994 3.761 4.994s3.746-2.101 3.746-4.994V42.43c0-2.939-1.234-4.979-3.746-4.979Zm9.997 13.659V35.015h3.381v2.116h.121c.412-1.005 1.614-2.345 3.853-2.345.441 0 .822.03 1.142.091v2.985c-.289-.076-.883-.122-1.447-.122-2.71 0-3.624 1.675-3.624 3.838v9.532h-3.426Zm16.697.274c-4.309 0-7.05-2.848-7.05-7.614v-1.629c0-4.492 2.68-7.4 6.913-7.4 4.294 0 6.883 3.014 6.883 7.552v1.538h-10.461v.38c0 2.711 1.462 4.508 3.761 4.508 1.721 0 2.893-.852 3.304-2.238h3.213c-.487 2.604-2.588 4.903-6.563 4.903Zm-3.715-9.913h7.157v-.03c0-2.285-1.416-4.081-3.564-4.081-2.177 0-3.593 1.796-3.593 4.08v.031Z"/></svg>