<svg xmlns="http://www.w3.org/2000/svg" width="76" height="74" fill="none" viewBox="0 0 76 74"><path fill="#fff" fill-opacity="0.2" d="M62.4 48.18c-1.864.802-3.646 1.844-5.603 2.369a10.817 10.817 0 0 0-4.487 2.205c-1.271 1.06-2.233 2.389-2.799 3.868-.9 2.302-2.615 4.269-4.878 5.593a9.872 9.872 0 0 1-4.353 1.25 10.012 10.012 0 0 1-4.479-.804 9.036 9.036 0 0 1-3.5-2.657 7.896 7.896 0 0 1-1.657-3.856c-.26-1.631.033-3.326.017-4.99-.03-1.832-.121-3.662-.198-5.477a33.408 33.408 0 0 1-.146-4.986c.63-5.477 4.987-8.99 11.074-8.997a15.86 15.86 0 0 1 4.323.448 28.466 28.466 0 0 0 8.618.864c3.618-.085 6.78.847 9.07 3.612 3.213 3.849 2.811 8.013-1.003 11.557Zm-36.902-20.8c.795 1.474 1.859 2.893 2.341 4.45.24.81.271 1.659.094 2.482a5.289 5.289 0 0 1-1.115 2.27 5.99 5.99 0 0 1-2.1 1.596 6.604 6.604 0 0 1-2.66.601c-5.316.204-10.63-4.598-10.325-9.425.024-1.337.614-2.614 1.647-3.57 1.032-.954 2.43-1.514 3.905-1.563 2.747-.179 5.652 1.03 8.213 3.159Zm11.153-11.13c2.395 2.535 3.592 4.753 3.323 7.48a5.183 5.183 0 0 1-.84 2.499 5.846 5.846 0 0 1-2.009 1.873 6.554 6.554 0 0 1-2.731.834 6.7 6.7 0 0 1-2.85-.392c-3.921-1.474-6.5-4.165-7.12-8.047-.784-4.912 3.715-8.035 8.776-6.14a22.466 22.466 0 0 1 3.451 1.892ZM23.947 44.241c3.203 3.184 3.227 6.583.06 9.017a6.497 6.497 0 0 1-2.311 1.076 6.869 6.869 0 0 1-2.595.129c-1.983-.239-3.831-1.04-5.28-2.29-1.45-1.249-2.426-2.882-2.789-4.665a4.806 4.806 0 0 1 .075-2.323 5.126 5.126 0 0 1 1.167-2.07 5.801 5.801 0 0 1 2.034-1.416 6.347 6.347 0 0 1 2.507-.488 9.831 9.831 0 0 1 3.95.773 8.965 8.965 0 0 1 3.182 2.257ZM54.908 17.37a8.04 8.04 0 0 1 1.996 2.906c.43 1.086.6 2.243.497 3.394-.462 4.435-5.436 6.671-9.569 4.284a9.778 9.778 0 0 1-2.91-2.463 8.765 8.765 0 0 1-1.633-3.29c-.75-2.918.283-5.453 2.64-6.706 2.356-1.253 5.592-.867 7.972.987l1.007.887Z"/></svg>