<svg xmlns="http://www.w3.org/2000/svg" width="68" height="66" fill="none" viewBox="0 0 68 66"><path fill="#fff" fill-opacity="0.2" d="M27.523 55.462c-1.226-1.416-2.682-2.713-3.64-4.27-.755-1.342-1.866-2.494-3.233-3.352a10.71 10.71 0 0 0-4.6-1.566c-2.576-.279-4.977-1.324-6.828-2.97a7.89 7.89 0 0 1-2.214-3.442 7.297 7.297 0 0 1-.115-3.983 7.786 7.786 0 0 1 2.014-3.54 8.948 8.948 0 0 1 3.645-2.227c1.636-.566 3.454-.675 5.174-1.04 1.893-.414 3.77-.878 5.634-1.327a42.465 42.465 0 0 1 5.137-1.179c5.808-.621 10.37 2.346 11.664 7.527.36 1.23.51 2.503.45 3.775-.16 2.536.153 5.078.926 7.52.853 3.061.555 5.95-1.826 8.484-3.309 3.55-7.71 4.088-12.188 1.59Zm13.755-35.814c-1.36.988-2.605 2.194-4.117 2.933a6.351 6.351 0 0 1-2.552.605 6.395 6.395 0 0 1-2.588-.47 5.844 5.844 0 0 1-2.098-1.45 5.148 5.148 0 0 1-1.185-2.137c-1.335-4.483 2.517-10.022 7.584-10.783a6.035 6.035 0 0 1 4.047.647c1.208.678 2.083 1.75 2.445 2.994.767 2.302.13 5.03-1.536 7.66Z"/><path fill="#fff" fill-opacity="0.3" d="M55.167 26.789c-2.123 2.575-4.167 4.062-7.05 4.41a6.48 6.48 0 0 1-2.767-.187 6.027 6.027 0 0 1-2.366-1.314 5.28 5.28 0 0 1-1.441-2.15 4.865 4.865 0 0 1-.197-2.508c.698-3.65 2.942-6.414 6.834-7.764 4.925-1.704 9.112 1.466 8.217 6.175a17.91 17.91 0 0 1-1.23 3.338Zm-31.692-4.896c-2.623 3.4-6.14 4.14-9.332 1.958a5.616 5.616 0 0 1-1.603-1.74 5.07 5.07 0 0 1-.682-2.182c-.172-1.739.268-3.482 1.256-4.98.988-1.498 2.474-2.674 4.245-3.36a6.123 6.123 0 0 1 2.424-.427 6.08 6.08 0 0 1 2.391.556 5.52 5.52 0 0 1 1.897 1.432 4.888 4.888 0 0 1 1.037 2.031 7.168 7.168 0 0 1 .033 3.526 7.59 7.59 0 0 1-1.666 3.186Zm34.389 20.676a8.28 8.28 0 0 1-2.59 2.314 9.192 9.192 0 0 1-3.412 1.14c-4.693.545-8.062-3.218-6.462-7.24a8.667 8.667 0 0 1 1.937-2.998 9.698 9.698 0 0 1 3.065-2.086c2.865-1.256 5.71-.912 7.506.83 1.797 1.74 2.081 4.577.663 6.995l-.707 1.045Z"/></svg>