<svg xmlns="http://www.w3.org/2000/svg" width="79" height="78" fill="none" viewBox="0 0 79 78"><path fill="#fff" fill-opacity="0.2" d="M56.046 60.545c-2.187-.1-4.43.059-6.55-.346a12.203 12.203 0 0 0-5.417.011 11.485 11.485 0 0 0-4.765 2.335c-2.12 1.739-4.816 2.793-7.666 2.996a10.633 10.633 0 0 1-4.76-.821c-1.485-.632-2.77-1.594-3.736-2.796a8.393 8.393 0 0 1-1.792-4.08 8.08 8.08 0 0 1 .595-4.359c.665-1.642 1.88-3.091 2.79-4.653.99-1.725 1.923-3.476 2.86-5.206a37.808 37.808 0 0 1 2.635-4.724c3.633-4.828 9.656-6.118 15.346-3.345a15.44 15.44 0 0 1 3.788 2.393 27.737 27.737 0 0 0 7.57 4.743c3.425 1.573 5.861 3.888 6.462 7.515.862 5.063-1.828 8.77-7.36 10.337ZM33.142 24.266c-.077 1.74.127 3.55-.288 5.225a5.667 5.667 0 0 1-1.292 2.362 6.43 6.43 0 0 1-2.303 1.61 7.045 7.045 0 0 1-2.85.532 7.004 7.004 0 0 1-2.817-.653c-5.08-2.238-7.373-9.15-4.405-13.519.766-1.238 2.027-2.162 3.522-2.582a6.694 6.694 0 0 1 4.517.323c2.666 1.088 4.707 3.543 5.916 6.702Zm16.604-5.303c.827 3.463.712 6.08-1.055 8.505a6.239 6.239 0 0 1-2.174 1.95 7.097 7.097 0 0 1-5.932.363 6.481 6.481 0 0 1-2.444-1.667c-2.844-3.167-3.756-6.858-2.178-10.768 2-4.946 7.938-5.808 11.611-1.726a20.742 20.742 0 0 1 2.172 3.343ZM22.318 39.308c1.222 4.437-.645 7.622-4.956 8.45a7.296 7.296 0 0 1-2.757-.051 6.949 6.949 0 0 1-2.495-1.065c-1.72-1.128-3-2.721-3.66-4.55a8.305 8.305 0 0 1-.01-5.631 5.513 5.513 0 0 1 1.36-2.136 6.245 6.245 0 0 1 2.24-1.4 6.77 6.77 0 0 1 5.3.295 9.401 9.401 0 0 1 3.26 2.527 8.309 8.309 0 0 1 1.717 3.561Zm43.858-10.961a7.834 7.834 0 0 1 .25 3.627 8.142 8.142 0 0 1-1.424 3.397c-2.896 3.932-8.786 3.748-11.319-.369a9.11 9.11 0 0 1-1.348-3.629 8.838 8.838 0 0 1 .304-3.82c.92-3.068 3.295-4.963 6.193-5.057 2.897-.094 5.705 1.744 6.897 4.562l.447 1.29Z"/></svg>