<svg xmlns="http://www.w3.org/2000/svg" width="77" height="77" fill="none" viewBox="0 0 77 77"><path fill="#fff" fill-opacity="0.2" d="M60.174 54.09c-2.005.441-3.984 1.131-6.019 1.282-1.726.07-3.405.525-4.889 1.327-1.483.802-2.725 1.925-3.612 3.268-1.4 2.087-3.523 3.694-6.037 4.571a10.086 10.086 0 0 1-4.542.417 9.708 9.708 0 0 1-4.203-1.616 8.52 8.52 0 0 1-2.827-3.25 7.642 7.642 0 0 1-.753-4.081c.114-1.646.783-3.25 1.142-4.882.383-1.799.707-3.607 1.04-5.398.205-1.654.533-3.294.982-4.908 1.852-5.244 6.91-7.876 12.87-6.755 1.438.222 2.831.64 4.13 1.24a27.825 27.825 0 0 0 8.242 2.442c3.56.587 6.446 2.086 8.063 5.216 2.278 4.363.946 8.365-3.587 11.127ZM28.74 26.893c.446 1.59 1.167 3.176 1.289 4.79a5.068 5.068 0 0 1-.468 2.447 5.578 5.578 0 0 1-1.604 2.015 6.316 6.316 0 0 1-2.416 1.174c-.893.22-1.83.253-2.738.096-5.25-.786-9.37-6.47-7.982-11.14.325-1.304 1.19-2.445 2.417-3.189a6.247 6.247 0 0 1 4.175-.806c2.73.333 5.3 2.054 7.327 4.613Zm13.426-8.829c1.772 2.926 2.443 5.319 1.565 7.939a5.422 5.422 0 0 1-1.386 2.29 6.19 6.19 0 0 1-2.389 1.462 6.715 6.715 0 0 1-2.861.31 6.524 6.524 0 0 1-2.701-.912c-3.506-2.169-5.423-5.281-5.156-9.197.341-4.953 5.45-7.176 9.976-4.383a21.239 21.239 0 0 1 2.952 2.49ZM23.424 43.112c2.417 3.71 1.674 7.041-1.974 8.838a6.832 6.832 0 0 1-5.075.27c-1.887-.601-3.516-1.728-4.653-3.22-1.137-1.491-1.724-3.27-1.677-5.083a4.889 4.889 0 0 1 .597-2.26 5.42 5.42 0 0 1 1.61-1.81 6.105 6.105 0 0 1 2.31-1.01 6.424 6.424 0 0 1 2.564-.013c1.339.237 2.6.747 3.691 1.49a8.455 8.455 0 0 1 2.607 2.798Zm36.363-20.569a7.653 7.653 0 0 1 1.3 3.215 7.385 7.385 0 0 1-.28 3.414c-1.453 4.256-6.826 5.524-10.333 2.421a9.213 9.213 0 0 1-2.293-2.95 8.436 8.436 0 0 1-.856-3.524c-.078-2.995 1.506-5.284 4.095-6.074 2.59-.79 5.67.187 7.581 2.442l.786 1.056Z"/></svg>