<svg xmlns="http://www.w3.org/2000/svg" width="66" height="65" fill="none" viewBox="0 0 66 65"><path fill="#fff" fill-opacity="0.2" d="M41.624 12.134c.97 1.431 2.169 2.775 2.874 4.31a8.546 8.546 0 0 0 2.604 3.422 9.77 9.77 0 0 0 4.082 1.895c2.355.508 4.459 1.709 5.982 3.414a7.16 7.16 0 0 1 1.648 3.405 6.826 6.826 0 0 1-.362 3.705 7.49 7.49 0 0 1-2.283 3.09 8.587 8.587 0 0 1-3.642 1.712c-1.584.366-3.282.292-4.92.465-1.804.2-3.6.45-5.38.686a40.111 40.111 0 0 1-4.902.596c-5.46.016-9.34-3.176-9.932-8.105a10.673 10.673 0 0 1 .027-3.544c.446-2.336.454-4.724.025-7.063-.43-2.921.185-5.572 2.69-7.691 3.486-2.972 7.63-3.046 11.49-.297Zm-16.96 31.881c1.377-.785 2.673-1.783 4.162-2.323a5.997 5.997 0 0 1 2.438-.314 5.88 5.88 0 0 1 2.344.686c.714.387 1.32.916 1.775 1.547.455.631.745 1.348.848 2.096.711 4.286-3.513 9.05-8.3 9.267-1.32.108-2.637-.247-3.677-.991-1.04-.745-1.726-1.823-1.916-3.013-.44-2.208.472-4.676 2.326-6.955Zm-12.039-7.964c2.27-2.182 4.342-3.364 7.056-3.408a5.999 5.999 0 0 1 2.544.44 5.46 5.46 0 0 1 2.04 1.447 4.79 4.79 0 0 1 1.083 2.132c.169.78.13 1.583-.113 2.346-1.076 3.317-3.482 5.663-7.25 6.539-4.766 1.105-8.276-2.239-6.893-6.52.41-1.032.922-2.029 1.533-2.976Zm28.812 7.599c2.832-2.899 6.18-3.244 8.883-.914a5.06 5.06 0 0 1 1.282 1.77c.286.664.414 1.376.377 2.088-.046 1.63-.658 3.203-1.75 4.497-1.093 1.293-2.61 2.24-4.332 2.706a5.762 5.762 0 0 1-2.298.162 5.576 5.576 0 0 1-2.152-.747 4.992 4.992 0 0 1-1.59-1.511 4.453 4.453 0 0 1-.723-1.984 6.713 6.713 0 0 1 .384-3.272 7.294 7.294 0 0 1 1.92-2.794ZM11.976 21.157a7.983 7.983 0 0 1 2.673-1.895 8.726 8.726 0 0 1 3.298-.728c4.417-.052 7.098 3.762 5.142 7.338a8.35 8.35 0 0 1-2.149 2.593 9.326 9.326 0 0 1-3.087 1.638c-2.805.888-5.402.294-6.864-1.494-1.46-1.788-1.391-4.446.208-6.55l.779-.902Z"/></svg>