<svg xmlns="http://www.w3.org/2000/svg" width="50" height="46" fill="none" viewBox="0 0 50 46"><path fill="#fff" fill-opacity="0.2" d="M27.116 44.806c-1.527-.892-3.214-1.617-4.555-2.702a9.475 9.475 0 0 0-3.902-2.02 10.123 10.123 0 0 0-4.492-.105 11.745 11.745 0 0 1-6.88-.715 7.928 7.928 0 0 1-3.05-2.373 6.935 6.935 0 0 1-1.414-3.41 6.714 6.714 0 0 1 .57-3.607 7.45 7.45 0 0 1 2.415-2.913c1.227-.933 2.762-1.52 4.128-2.303 1.5-.87 2.968-1.78 4.43-2.674a36.347 36.347 0 0 1 4.05-2.412c4.814-2.113 9.735-.786 12.565 3.34a11.076 11.076 0 0 1 1.635 3.14c.7 2.234 1.81 4.346 3.283 6.246 1.748 2.415 2.445 4.992 1.224 7.827-1.687 3.965-5.312 5.624-10.007 4.68Zm.059-34.679c-.849 1.223-1.527 2.603-2.588 3.652a5.432 5.432 0 0 1-2.007 1.215 5.877 5.877 0 0 1-2.39.296 5.755 5.755 0 0 1-2.293-.684 5.168 5.168 0 0 1-1.73-1.525C13.534 9.57 15.035 3.738 19.16 1.706a5.526 5.526 0 0 1 3.712-.539c1.267.258 2.377.946 3.102 1.924 1.422 1.78 1.771 4.311 1.2 7.036Zm14.362 2.403c-.984 2.801-2.26 4.641-4.636 5.724a5.83 5.83 0 0 1-2.453.589 5.86 5.86 0 0 1-2.478-.494 5.307 5.307 0 0 1-1.955-1.466 4.663 4.663 0 0 1-.998-2.115c-.602-3.343.424-6.34 3.342-8.562 3.692-2.81 8.357-1.206 9.14 3.106a15.95 15.95 0 0 1 .038 3.218Zm-29.002 4.368c-1.143 3.649-3.938 5.242-7.417 4.223a5.632 5.632 0 0 1-1.96-1.07 5.01 5.01 0 0 1-1.31-1.7 6.915 6.915 0 0 1-.559-4.644c.36-1.562 1.255-2.982 2.559-4.055A5.282 5.282 0 0 1 5.8 8.626a5.644 5.644 0 0 1 2.25-.168 5.469 5.469 0 0 1 2.113.722c.636.38 1.17.884 1.566 1.474a6.79 6.79 0 0 1 1.192 3.038 6.58 6.58 0 0 1-.387 3.206Zm36.545 8.536a6.9 6.9 0 0 1-1.474 2.703 7.772 7.772 0 0 1-2.572 1.91c-3.876 1.744-8.03-.593-7.975-4.503a7.409 7.409 0 0 1 .684-3.116 8.066 8.066 0 0 1 1.96-2.634c2.06-1.863 4.632-2.337 6.76-1.32 2.127 1.018 3.31 3.391 2.883 5.866l-.266 1.094Z"/></svg>