<svg xmlns="http://www.w3.org/2000/svg" width="63" height="60" fill="none" viewBox="0 0 63 60"><path fill="#fff" fill-opacity="0.2" d="M28.394 53.554c-1.43-1.243-3.07-2.34-4.255-3.755a9.833 9.833 0 0 0-3.713-2.902 10.908 10.908 0 0 0-4.787-.963c-2.587.051-5.12-.676-7.203-2.068a8.186 8.186 0 0 1-2.72-3.119 7.343 7.343 0 0 1-.728-3.92 7.53 7.53 0 0 1 1.442-3.754 8.59 8.59 0 0 1 3.257-2.662c1.529-.767 3.308-1.105 4.951-1.685 1.806-.648 3.589-1.345 5.36-2.025a41.424 41.424 0 0 1 4.893-1.816c5.642-1.352 10.607 1 12.686 5.954.545 1.17.892 2.409 1.028 3.673a20.894 20.894 0 0 0 2.077 7.31c1.315 2.917 1.468 5.81-.493 8.614-2.72 3.927-6.985 5.017-11.795 3.118Zm8.058-37.124c-1.19 1.15-2.234 2.498-3.613 3.42a6.194 6.194 0 0 1-2.428.922 6.44 6.44 0 0 1-2.63-.135 6.042 6.042 0 0 1-2.296-1.167 5.332 5.332 0 0 1-1.501-1.96c-2.012-4.26.938-10.22 5.826-11.616a6.067 6.067 0 0 1 4.098.126c1.298.516 2.329 1.464 2.879 2.647 1.113 2.177.904 4.953-.335 7.763Zm14.824 5.291c-1.699 2.813-3.49 4.543-6.283 5.252-.894.254-1.84.31-2.763.166a6.206 6.206 0 0 1-2.54-.997 5.481 5.481 0 0 1-1.756-1.94 4.916 4.916 0 0 1-.581-2.454c.125-3.694 1.915-6.71 5.551-8.537 4.602-2.31 9.228.29 9.072 5.057a17.49 17.49 0 0 1-.7 3.453Zm-32.063-.813c-2.065 3.692-5.425 4.868-8.916 3.119a5.833 5.833 0 0 1-1.853-1.517 5.2 5.2 0 0 1-1.01-2.068 7.534 7.534 0 0 1 .471-5.08c.745-1.604 2.031-2.955 3.675-3.857a5.996 5.996 0 0 1 2.328-.73c.826-.084 1.662 0 2.448.246a5.723 5.723 0 0 1 2.096 1.174 5.058 5.058 0 0 1 1.337 1.875 7.2 7.2 0 0 1 .577 3.479 7.353 7.353 0 0 1-1.153 3.359Zm37.167 16.06a7.93 7.93 0 0 1-2.2 2.615 8.909 8.909 0 0 1-3.195 1.559c-4.553 1.134-8.462-2.155-7.503-6.333a8.356 8.356 0 0 1 1.45-3.207 9.302 9.302 0 0 1 2.706-2.45c2.637-1.604 5.5-1.625 7.544-.133 2.044 1.492 2.763 4.258 1.736 6.827l-.537 1.122Z"/></svg>