<svg xmlns="http://www.w3.org/2000/svg" width="1179" height="462" fill="none" viewBox="0 0 1179 462"><path fill="#fff" fill-opacity="0.2" d="M1127.05 160.545c-2.19-.101-4.43.059-6.55-.345a12.212 12.212 0 0 0-5.42.01c-1.78.41-3.42 1.212-4.77 2.335-2.12 1.739-4.81 2.793-7.66 2.996-1.64.093-3.28-.189-4.76-.821a9.618 9.618 0 0 1-3.74-2.796c-.96-1.202-1.58-2.605-1.79-4.08-.21-1.475 0-2.974.6-4.359.66-1.642 1.88-3.091 2.78-4.653 1-1.725 1.93-3.476 2.86-5.206a37.28 37.28 0 0 1 2.64-4.724c3.63-4.828 9.66-6.118 15.35-3.345 1.38.619 2.66 1.426 3.78 2.393a27.874 27.874 0 0 0 7.57 4.743c3.43 1.573 5.87 3.888 6.47 7.515.86 5.063-1.83 8.769-7.36 10.337Zm-22.91-36.279c-.08 1.74.13 3.551-.29 5.225a5.507 5.507 0 0 1-1.29 2.362 6.415 6.415 0 0 1-2.3 1.61c-.89.371-1.87.553-2.85.532a7.009 7.009 0 0 1-2.82-.653c-5.08-2.238-7.37-9.15-4.4-13.519.76-1.238 2.02-2.162 3.52-2.582 1.5-.42 3.11-.305 4.52.323 2.66 1.088 4.7 3.543 5.91 6.702Zm16.61-5.303c.82 3.463.71 6.08-1.06 8.505a6.252 6.252 0 0 1-2.17 1.95c-.89.484-1.89.769-2.92.832a7.11 7.11 0 0 1-3.02-.469 6.56 6.56 0 0 1-2.44-1.667c-2.84-3.167-3.75-6.858-2.18-10.768 2-4.946 7.94-5.808 11.61-1.726a20.61 20.61 0 0 1 2.18 3.343Zm-27.43 20.345c1.22 4.437-.65 7.622-4.96 8.45-.91.158-1.85.141-2.75-.051a6.937 6.937 0 0 1-2.5-1.065c-1.72-1.128-3-2.721-3.66-4.55a8.314 8.314 0 0 1-.01-5.631c.27-.795.74-1.524 1.36-2.136a6.237 6.237 0 0 1 2.24-1.4c.85-.31 1.77-.444 2.69-.393.92.051 1.81.286 2.61.688a9.413 9.413 0 0 1 3.26 2.527 8.347 8.347 0 0 1 1.72 3.561Zm43.86-10.961a7.96 7.96 0 0 1 .25 3.627 8.198 8.198 0 0 1-1.43 3.397c-2.89 3.932-8.78 3.748-11.32-.369a9.13 9.13 0 0 1-1.35-3.629 8.988 8.988 0 0 1 .31-3.82c.92-3.068 3.29-4.963 6.19-5.057 2.9-.094 5.71 1.744 6.9 4.562.15.443.31.886.45 1.289ZM81.624 409.134c.97 1.431 2.169 2.775 2.874 4.31a8.549 8.549 0 0 0 2.604 3.422 9.764 9.764 0 0 0 4.082 1.895c2.355.508 4.459 1.709 5.981 3.414a7.165 7.165 0 0 1 1.65 3.406 6.826 6.826 0 0 1-.363 3.704 7.49 7.49 0 0 1-2.283 3.089 8.587 8.587 0 0 1-3.642 1.712c-1.584.367-3.282.293-4.92.466-1.804.2-3.6.449-5.38.686a40.051 40.051 0 0 1-4.902.596c-5.46.016-9.34-3.176-9.931-8.105a10.673 10.673 0 0 1 .026-3.544c.446-2.336.454-4.724.025-7.063-.43-2.921.185-5.572 2.69-7.691 3.486-2.972 7.63-3.046 11.49-.297Zm-16.96 31.881c1.377-.785 2.673-1.783 4.162-2.323a6.007 6.007 0 0 1 2.438-.314c.829.064 1.63.299 2.344.686.714.387 1.32.916 1.775 1.547.455.631.745 1.348.848 2.096.711 4.286-3.513 9.05-8.3 9.267-1.32.108-2.636-.247-3.677-.992-1.04-.744-1.726-1.823-1.916-3.012-.44-2.208.472-4.676 2.326-6.955Zm-12.039-7.964c2.27-2.182 4.342-3.364 7.056-3.408a5.997 5.997 0 0 1 2.544.44 5.472 5.472 0 0 1 2.04 1.447 4.795 4.795 0 0 1 1.083 2.132 4.54 4.54 0 0 1-.113 2.346c-1.076 3.317-3.482 5.663-7.25 6.539-4.766 1.105-8.276-2.239-6.893-6.52.41-1.032.922-2.029 1.533-2.976Zm28.812 7.6c2.832-2.9 6.18-3.245 8.883-.915.56.502.997 1.105 1.282 1.769a4.66 4.66 0 0 1 .377 2.089c-.046 1.629-.658 3.203-1.75 4.497-1.093 1.293-2.61 2.241-4.332 2.706a5.778 5.778 0 0 1-2.298.162 5.6 5.6 0 0 1-2.152-.747 5.002 5.002 0 0 1-1.59-1.511 4.456 4.456 0 0 1-.723-1.984 6.71 6.71 0 0 1 .384-3.272 7.292 7.292 0 0 1 1.92-2.794Zm-29.461-22.494a7.976 7.976 0 0 1 2.673-1.895 8.713 8.713 0 0 1 3.298-.728c4.417-.052 7.098 3.762 5.142 7.338a8.357 8.357 0 0 1-2.149 2.593 9.332 9.332 0 0 1-3.087 1.638c-2.805.888-5.402.294-6.864-1.494-1.46-1.788-1.391-4.446.208-6.551l.779-.901Zm441.14 1.649c-1.527-.892-3.214-1.617-4.555-2.702a9.466 9.466 0 0 0-3.902-2.02 10.122 10.122 0 0 0-4.492-.105 11.746 11.746 0 0 1-6.88-.715 7.923 7.923 0 0 1-3.05-2.373 6.934 6.934 0 0 1-1.414-3.411 6.715 6.715 0 0 1 .571-3.606 7.447 7.447 0 0 1 2.414-2.913c1.227-.933 2.762-1.52 4.128-2.303 1.499-.87 2.968-1.781 4.43-2.674a36.341 36.341 0 0 1 4.05-2.412c4.814-2.113 9.735-.786 12.565 3.34a11.085 11.085 0 0 1 1.635 3.14 19.882 19.882 0 0 0 3.283 6.246c1.748 2.415 2.445 4.992 1.224 7.827-1.687 3.965-5.312 5.624-10.007 4.681Zm.059-34.679c-.849 1.223-1.527 2.603-2.588 3.652a5.44 5.44 0 0 1-2.007 1.215 5.877 5.877 0 0 1-2.391.296 5.748 5.748 0 0 1-2.292-.684 5.171 5.171 0 0 1-1.73-1.525c-2.633-3.512-1.133-9.343 2.994-11.375a5.52 5.52 0 0 1 3.711-.539c1.267.258 2.377.946 3.101 1.924 1.423 1.781 1.773 4.311 1.202 7.036Zm14.362 2.403c-.984 2.801-2.259 4.641-4.636 5.724a5.84 5.84 0 0 1-2.453.589 5.869 5.869 0 0 1-2.478-.494 5.311 5.311 0 0 1-1.955-1.466 4.667 4.667 0 0 1-.998-2.115c-.602-3.343.424-6.34 3.342-8.562 3.692-2.809 8.357-1.206 9.139 3.106.122 1.07.135 2.147.039 3.218Zm-29.002 4.368c-1.143 3.649-3.938 5.242-7.417 4.223a5.615 5.615 0 0 1-1.96-1.07 4.994 4.994 0 0 1-1.31-1.7 6.912 6.912 0 0 1-.559-4.644c.359-1.562 1.255-2.982 2.559-4.055a5.275 5.275 0 0 1 1.953-1.026 5.636 5.636 0 0 1 2.25-.168 5.456 5.456 0 0 1 2.113.722c.636.38 1.171.884 1.566 1.474a6.79 6.79 0 0 1 1.192 3.038 6.58 6.58 0 0 1-.387 3.206Zm36.545 8.536a6.907 6.907 0 0 1-1.474 2.703 7.79 7.79 0 0 1-2.572 1.911c-3.876 1.743-8.03-.594-7.975-4.504a7.396 7.396 0 0 1 .684-3.116 8.07 8.07 0 0 1 1.959-2.634c2.061-1.863 4.633-2.337 6.761-1.32 2.127 1.018 3.31 3.391 2.883 5.866l-.266 1.094ZM625.174 272.09c-2.005.441-3.984 1.131-6.019 1.282a11.246 11.246 0 0 0-4.889 1.327c-1.483.802-2.725 1.925-3.612 3.268-1.4 2.087-3.523 3.694-6.037 4.571a10.092 10.092 0 0 1-4.542.417 9.718 9.718 0 0 1-4.203-1.616c-1.229-.851-2.201-1.969-2.827-3.25a7.635 7.635 0 0 1-.753-4.081c.114-1.645.783-3.25 1.142-4.882.383-1.799.707-3.607 1.041-5.398.204-1.654.532-3.294.982-4.908 1.851-5.244 6.909-7.875 12.869-6.755 1.438.222 2.831.64 4.131 1.239a27.822 27.822 0 0 0 8.241 2.443c3.56.587 6.446 2.085 8.063 5.216 2.278 4.363.946 8.365-3.587 11.127Zm-31.434-27.197c.446 1.591 1.167 3.176 1.289 4.79a5.066 5.066 0 0 1-.468 2.447 5.593 5.593 0 0 1-1.604 2.015 6.32 6.32 0 0 1-2.415 1.174c-.893.22-1.83.253-2.739.096-5.25-.786-9.369-6.471-7.982-11.139.325-1.305 1.19-2.446 2.417-3.19a6.25 6.25 0 0 1 4.175-.807c2.73.334 5.301 2.055 7.327 4.614Zm13.426-8.829c1.772 2.926 2.443 5.319 1.565 7.939a5.427 5.427 0 0 1-1.386 2.29 6.195 6.195 0 0 1-2.389 1.462 6.707 6.707 0 0 1-2.861.309 6.526 6.526 0 0 1-2.701-.911c-3.506-2.169-5.424-5.281-5.156-9.197.341-4.953 5.45-7.176 9.976-4.383a21.198 21.198 0 0 1 2.952 2.491Zm-18.742 25.048c2.417 3.71 1.674 7.041-1.974 8.838a6.828 6.828 0 0 1-5.075.27c-1.887-.601-3.516-1.728-4.653-3.22-1.137-1.491-1.724-3.271-1.677-5.083a4.903 4.903 0 0 1 .597-2.261 5.428 5.428 0 0 1 1.61-1.809 6.084 6.084 0 0 1 2.31-1.009 6.417 6.417 0 0 1 2.564-.014 9.493 9.493 0 0 1 3.691 1.489 8.465 8.465 0 0 1 2.607 2.799Zm36.363-20.569a7.663 7.663 0 0 1 1.299 3.215 7.382 7.382 0 0 1-.279 3.414c-1.452 4.256-6.826 5.524-10.333 2.421a9.2 9.2 0 0 1-2.293-2.95 8.434 8.434 0 0 1-.857-3.524c-.077-2.995 1.507-5.284 4.096-6.074 2.589-.79 5.67.187 7.581 2.442.271.363.541.725.786 1.056ZM62.4 97.18c-1.864.802-3.646 1.844-5.603 2.369a10.816 10.816 0 0 0-4.487 2.205c-1.271 1.06-2.233 2.389-2.799 3.868-.9 2.302-2.615 4.269-4.878 5.593a9.866 9.866 0 0 1-4.353 1.249 10.01 10.01 0 0 1-4.479-.803 9.04 9.04 0 0 1-3.5-2.657 7.9 7.9 0 0 1-1.657-3.856c-.26-1.631.033-3.326.017-4.99-.03-1.832-.121-3.662-.198-5.477a33.408 33.408 0 0 1-.146-4.986c.63-5.477 4.987-8.99 11.074-8.997a15.86 15.86 0 0 1 4.323.448 28.466 28.466 0 0 0 8.618.864c3.618-.085 6.78.847 9.07 3.612 3.213 3.849 2.811 8.013-1.003 11.557Zm-36.902-20.8c.795 1.474 1.859 2.893 2.341 4.45.24.81.271 1.659.094 2.482a5.289 5.289 0 0 1-1.115 2.27 5.99 5.99 0 0 1-2.1 1.596 6.604 6.604 0 0 1-2.66.601c-5.316.204-10.63-4.598-10.325-9.425.024-1.337.614-2.614 1.647-3.57 1.032-.955 2.43-1.514 3.905-1.563 2.747-.179 5.652 1.03 8.213 3.159Zm11.153-11.13c2.395 2.535 3.592 4.753 3.323 7.48a5.183 5.183 0 0 1-.84 2.499 5.846 5.846 0 0 1-2.009 1.873 6.554 6.554 0 0 1-2.731.834 6.7 6.7 0 0 1-2.85-.392c-3.921-1.474-6.5-4.165-7.12-8.047-.784-4.912 3.715-8.035 8.776-6.14a22.466 22.466 0 0 1 3.451 1.892ZM23.947 93.241c3.203 3.184 3.227 6.583.06 9.017a6.498 6.498 0 0 1-2.311 1.076 6.887 6.887 0 0 1-2.595.129c-1.983-.239-3.831-1.04-5.28-2.29-1.45-1.249-2.426-2.882-2.789-4.665a4.806 4.806 0 0 1 .075-2.323 5.126 5.126 0 0 1 1.167-2.07 5.801 5.801 0 0 1 2.034-1.416 6.347 6.347 0 0 1 2.507-.488 9.831 9.831 0 0 1 3.95.773 8.965 8.965 0 0 1 3.182 2.257ZM54.908 66.37a8.04 8.04 0 0 1 1.996 2.906c.43 1.086.6 2.243.497 3.394-.462 4.435-5.436 6.671-9.569 4.284a9.778 9.778 0 0 1-2.91-2.463 8.765 8.765 0 0 1-1.633-3.29c-.75-2.918.283-5.453 2.64-6.706 2.356-1.253 5.592-.867 7.972.987l1.007.887Zm728.615-10.908c-1.226-1.416-2.682-2.713-3.64-4.27-.755-1.342-1.866-2.494-3.233-3.352a10.716 10.716 0 0 0-4.601-1.566c-2.575-.279-4.976-1.324-6.827-2.97a7.886 7.886 0 0 1-2.214-3.442 7.297 7.297 0 0 1-.115-3.983 7.788 7.788 0 0 1 2.014-3.54 8.948 8.948 0 0 1 3.645-2.227c1.636-.566 3.454-.675 5.174-1.04 1.893-.414 3.77-.878 5.634-1.327a42.463 42.463 0 0 1 5.137-1.179c5.808-.621 10.369 2.346 11.664 7.527a11.47 11.47 0 0 1 .449 3.775 20.606 20.606 0 0 0 .927 7.52c.853 3.061.555 5.95-1.826 8.484-3.309 3.55-7.709 4.088-12.188 1.59Zm13.754-35.814c-1.359.988-2.604 2.194-4.116 2.933a6.348 6.348 0 0 1-2.552.605 6.397 6.397 0 0 1-2.588-.47 5.841 5.841 0 0 1-2.098-1.45 5.148 5.148 0 0 1-1.185-2.137c-1.335-4.483 2.517-10.022 7.584-10.783a6.035 6.035 0 0 1 4.047.647c1.208.678 2.083 1.75 2.445 2.994.767 2.302.129 5.03-1.537 7.66Z"/><path fill="#fff" fill-opacity="0.3" d="M811.167 26.789c-2.123 2.575-4.167 4.062-7.05 4.41a6.478 6.478 0 0 1-2.767-.187 6.023 6.023 0 0 1-2.366-1.314 5.284 5.284 0 0 1-1.441-2.15 4.87 4.87 0 0 1-.197-2.508c.698-3.65 2.942-6.414 6.834-7.764 4.925-1.704 9.112 1.466 8.217 6.175a17.936 17.936 0 0 1-1.23 3.338Zm-31.692-4.896c-2.623 3.4-6.139 4.14-9.331 1.958a5.611 5.611 0 0 1-1.604-1.74 5.076 5.076 0 0 1-.682-2.182c-.172-1.739.268-3.482 1.256-4.98.989-1.498 2.474-2.674 4.245-3.36a6.125 6.125 0 0 1 2.424-.427 6.08 6.08 0 0 1 2.391.556 5.52 5.52 0 0 1 1.897 1.432 4.883 4.883 0 0 1 1.037 2.031 7.182 7.182 0 0 1 .033 3.526 7.598 7.598 0 0 1-1.666 3.186Zm34.389 20.676a8.28 8.28 0 0 1-2.589 2.314 9.195 9.195 0 0 1-3.413 1.14c-4.693.545-8.062-3.218-6.462-7.24a8.653 8.653 0 0 1 1.937-2.998 9.704 9.704 0 0 1 3.065-2.086c2.865-1.256 5.71-.912 7.506.83 1.797 1.74 2.081 4.577.663 6.995l-.707 1.045Z"/><path fill="#fff" fill-opacity="0.2" d="M1144.39 404.554c-1.43-1.243-3.07-2.34-4.25-3.755a9.896 9.896 0 0 0-3.71-2.903 10.942 10.942 0 0 0-4.79-.962c-2.59.051-5.12-.676-7.2-2.068a8.098 8.098 0 0 1-2.72-3.119 7.227 7.227 0 0 1-.73-3.92 7.498 7.498 0 0 1 1.44-3.754 8.56 8.56 0 0 1 3.26-2.662c1.53-.767 3.31-1.105 4.95-1.685 1.8-.648 3.59-1.345 5.36-2.025a41.314 41.314 0 0 1 4.89-1.816c5.64-1.352 10.61 1.001 12.69 5.954.54 1.17.89 2.409 1.02 3.673a21.03 21.03 0 0 0 2.08 7.311c1.32 2.916 1.47 5.809-.49 8.613-2.72 3.927-6.99 5.017-11.8 3.118Zm8.06-37.124c-1.19 1.149-2.23 2.498-3.61 3.421-.72.47-1.55.785-2.43.921-.88.137-1.77.09-2.63-.135a6.098 6.098 0 0 1-2.3-1.167 5.415 5.415 0 0 1-1.5-1.96c-2.01-4.26.94-10.221 5.83-11.616 1.33-.435 2.8-.39 4.1.126 1.3.516 2.33 1.464 2.88 2.647 1.11 2.177.9 4.953-.34 7.763Zm14.83 5.291c-1.7 2.813-3.49 4.543-6.29 5.252-.89.254-1.84.311-2.76.166a6.223 6.223 0 0 1-2.54-.997 5.503 5.503 0 0 1-1.76-1.941c-.4-.764-.6-1.605-.58-2.453.13-3.694 1.92-6.71 5.55-8.537 4.61-2.309 9.23.291 9.08 5.057a17.79 17.79 0 0 1-.7 3.453Zm-32.07-.813c-2.06 3.692-5.42 4.868-8.91 3.119a5.911 5.911 0 0 1-1.86-1.517 5.33 5.33 0 0 1-1.01-2.068 7.553 7.553 0 0 1 .48-5.079c.74-1.606 2.03-2.956 3.67-3.858.71-.397 1.5-.646 2.33-.73.82-.084 1.66 0 2.45.246a5.7 5.7 0 0 1 2.09 1.174c.6.527 1.05 1.168 1.34 1.875.48 1.105.68 2.294.58 3.479a7.36 7.36 0 0 1-1.16 3.359Zm37.17 16.06a7.942 7.942 0 0 1-2.2 2.615 8.925 8.925 0 0 1-3.19 1.559c-4.56 1.134-8.47-2.155-7.51-6.333a8.504 8.504 0 0 1 1.45-3.207 9.439 9.439 0 0 1 2.71-2.45c2.63-1.604 5.5-1.625 7.54-.133 2.05 1.492 2.77 4.258 1.74 6.827-.19.385-.37.771-.54 1.122Z"/></svg>