<svg xmlns="http://www.w3.org/2000/svg" width="70" height="65" fill="none" viewBox="0 0 70 65"><path fill="#fff" fill-opacity="0.2" d="M44.075 56.957c-2.039-.56-4.213-.876-6.095-1.717-1.558-.767-3.322-1.155-5.132-1.13a12.18 12.18 0 0 0-5.241 1.276c-2.551 1.251-5.433 1.712-8.195 1.31-1.58-.253-3.042-.873-4.25-1.803a8.225 8.225 0 0 1-2.665-3.516 8.059 8.059 0 0 1-.421-4.36c.263-1.484.925-2.905 1.925-4.13 1.143-1.463 2.747-2.622 4.096-3.955 1.477-1.475 2.907-2.988 4.335-4.48a44.165 44.165 0 0 1 3.972-4.056c4.949-3.948 11.055-3.94 15.576-.035a13.125 13.125 0 0 1 2.84 3.134 23.575 23.575 0 0 0 5.685 6.223c2.752 2.257 4.335 5.03 3.77 8.698-.766 5.123-4.471 8.175-10.2 8.54ZM33.727 16.718c-.616 1.682-.988 3.493-1.905 5.04a6.599 6.599 0 0 1-1.962 2.034 7.094 7.094 0 0 1-2.684 1.086 6.874 6.874 0 0 1-2.864-.08 6.12 6.12 0 0 1-2.464-1.23c-4.11-3.255-4.122-10.485.054-14.125a6.673 6.673 0 0 1 4.143-1.78c1.547-.095 3.042.359 4.175 1.267 2.185 1.623 3.35 4.45 3.507 7.788Zm17.383-1.68c-.3 3.554-1.227 6.085-3.658 8.08a7.054 7.054 0 0 1-2.668 1.446 7.018 7.018 0 0 1-3.023.198 6.297 6.297 0 0 1-2.708-1.093 5.527 5.527 0 0 1-1.792-2.142c-1.703-3.69-1.413-7.485 1.303-10.97 3.44-4.407 9.331-3.998 11.534.76a18.96 18.96 0 0 1 1.011 3.72ZM18.78 29.123c-.23 4.588-2.994 7.305-7.334 7.205a6.696 6.696 0 0 1-2.595-.63 5.93 5.93 0 0 1-2.03-1.565 8.244 8.244 0 0 1-2.043-5.212c-.053-1.924.56-3.849 1.75-5.5a6.415 6.415 0 0 1 1.956-1.797 6.804 6.804 0 0 1 2.56-.895 6.526 6.526 0 0 1 2.667.181c.852.243 1.623.66 2.259 1.223a8.055 8.055 0 0 1 2.296 3.152 7.89 7.89 0 0 1 .513 3.838Zm44.951-1.465a8.353 8.353 0 0 1-.897 3.593 9.447 9.447 0 0 1-2.41 3.016c-3.971 3.228-9.49 1.81-10.602-2.743a8.906 8.906 0 0 1-.143-3.827 9.78 9.78 0 0 1 1.482-3.664c1.83-2.802 4.671-4.152 7.444-3.634 2.774.519 4.858 2.904 5.106 5.906.007.465.015.93.02 1.353Z"/></svg>