<svg xmlns="http://www.w3.org/2000/svg" width="58" height="58" fill="none" viewBox="0 0 58 58"><path fill="#fff" fill-opacity="0.2" d="M43.307 41.351c-1.505.395-3.01.995-4.516 1.15a8.315 8.315 0 0 0-3.69 1.172 9.156 9.156 0 0 0-2.903 2.752c-1.188 1.744-2.87 3.103-4.783 3.866a6.874 6.874 0 0 1-3.366.413 5.91 5.91 0 0 1-2.96-1.268 5.838 5.838 0 0 1-1.825-2.638 6.715 6.715 0 0 1-.239-3.356c.21-1.36.825-2.694 1.214-4.046.42-1.49.796-2.988 1.18-4.47a33.232 33.232 0 0 1 1.097-4.066c1.763-4.356 5.678-6.605 9.966-5.773a9.438 9.438 0 0 1 2.937.959 16.961 16.961 0 0 0 5.86 1.888c2.568.43 4.571 1.621 5.517 4.18 1.337 3.565.051 6.888-3.489 9.237ZM22.33 19.394c.206 1.306.613 2.603.578 3.933a4.964 4.964 0 0 1-.532 2.027 5.352 5.352 0 0 1-1.332 1.687 5.143 5.143 0 0 1-1.863 1.006 4.463 4.463 0 0 1-2.018.121c-3.793-.567-6.379-5.194-5.002-9.068a5.033 5.033 0 0 1 2.02-2.67c.957-.632 2.076-.893 3.126-.73 1.978.234 3.733 1.614 5.024 3.694Zm10.532-7.493c1.075 2.388 1.384 4.352.538 6.527a5.329 5.329 0 0 1-3.059 3.154 4.608 4.608 0 0 1-2.124.3 3.973 3.973 0 0 1-1.912-.71c-2.407-1.735-3.575-4.274-3.077-7.51.631-4.092 4.552-6.006 7.66-3.77a13.594 13.594 0 0 1 1.974 2.01ZM17.178 32.86c1.489 3.024.688 5.785-2.129 7.324a4.936 4.936 0 0 1-1.887.553 4.29 4.29 0 0 1-1.858-.252A5.928 5.928 0 0 1 8.136 37.9c-.72-1.213-1.014-2.672-.84-4.169a4.832 4.832 0 0 1 .613-1.874 5.13 5.13 0 0 1 1.32-1.518 4.852 4.852 0 0 1 1.773-.869 4.223 4.223 0 0 1 1.884-.051 5.785 5.785 0 0 1 2.594 1.172 5.706 5.706 0 0 1 1.698 2.269ZM45.45 15.325c.424.794.665 1.692.706 2.633a7.086 7.086 0 0 1-.468 2.822c-1.394 3.534-5.435 4.663-7.77 2.157a6.467 6.467 0 0 1-1.457-2.399 7.249 7.249 0 0 1-.357-2.894c.174-2.47 1.512-4.385 3.473-5.076 1.962-.692 4.148.066 5.377 1.898l.495.859Z"/></svg>