<svg xmlns="http://www.w3.org/2000/svg" width="57" height="55" fill="none" viewBox="0 0 57 55"><path fill="#fff" fill-opacity="0.2" d="M20.965 45.192c-.831-1.336-1.855-2.61-2.464-4.02a8.566 8.566 0 0 0-2.23-3.213 9.05 9.05 0 0 0-3.466-1.965 10.53 10.53 0 0 1-5.085-3.442 7.166 7.166 0 0 1-1.42-3.133 6.168 6.168 0 0 1 .276-3.256 5.83 5.83 0 0 1 1.906-2.578 6.431 6.431 0 0 1 3.065-1.263c1.336-.214 2.773-.03 4.157-.068 1.523-.052 3.039-.147 4.543-.232a31.649 31.649 0 0 1 4.14-.187c4.614.368 7.921 3.467 8.461 7.876a9.891 9.891 0 0 1 .006 3.138 17.774 17.774 0 0 0 .036 6.255c.388 2.619-.11 4.925-2.213 6.627-2.922 2.39-6.425 2.166-9.71-.54ZM35.05 18.13c-1.158.6-2.246 1.392-3.5 1.767a4.73 4.73 0 0 1-2.059.108 5.22 5.22 0 0 1-1.987-.771 5.191 5.191 0 0 1-1.514-1.495 4.666 4.666 0 0 1-.734-1.916c-.635-3.848 2.897-7.774 6.943-7.631a4.903 4.903 0 0 1 3.117 1.135c.886.732 1.474 1.736 1.644 2.803.39 1.987-.361 4.11-1.91 6Zm10.246 7.897c-1.902 1.775-3.644 2.678-5.938 2.527a5.15 5.15 0 0 1-2.155-.568 5.27 5.27 0 0 1-1.736-1.425 4.799 4.799 0 0 1-.933-1.964 4.157 4.157 0 0 1 .076-2.07c.883-2.864 2.898-4.775 6.077-5.288 4.021-.646 7.016 2.562 5.881 6.258a13.86 13.86 0 0 1-1.272 2.53Zm-24.421-8.746c-2.37 2.371-5.198 2.444-7.503.19a5.093 5.093 0 0 1-1.098-1.657 4.503 4.503 0 0 1-.335-1.877 6.073 6.073 0 0 1 1.444-3.862c.913-1.07 2.187-1.803 3.64-2.095a4.614 4.614 0 0 1 1.941.017 5.024 5.024 0 0 1 3.183 2.262 4.42 4.42 0 0 1 .627 1.808c.132.988.03 1.97-.299 2.873a5.719 5.719 0 0 1-1.6 2.341Zm25.089 21.987a5.95 5.95 0 0 1-2.245 1.493 6.749 6.749 0 0 1-2.783.414c-3.733-.263-6.032-3.83-4.406-6.86a6.419 6.419 0 0 1 1.796-2.148 6.956 6.956 0 0 1 2.597-1.236c2.364-.59 4.565.117 5.815 1.803 1.25 1.687 1.212 4.036-.123 5.79l-.651.744Z"/></svg>