<svg xmlns="http://www.w3.org/2000/svg" width="80" height="69" fill="none" viewBox="0 0 80 69"><path fill="#fff" fill-opacity="0.2" d="M20.367 23.11c2.031-.585 4.057-1.449 6.096-1.71 1.725-.156 3.434-.744 4.974-1.711a12.45 12.45 0 0 0 3.854-3.833c1.558-2.407 3.799-4.308 6.372-5.406 1.483-.608 3.05-.84 4.557-.673a8.02 8.02 0 0 1 4.06 1.625 7.921 7.921 0 0 1 2.562 3.522c.523 1.41.671 2.976.431 4.55-.242 1.852-1.034 3.684-1.52 5.533-.522 2.038-.986 4.083-1.459 6.109a45.164 45.164 0 0 1-1.362 5.556c-2.255 5.973-7.5 9.157-13.349 8.167a12.812 12.812 0 0 1-4.018-1.205 23.022 23.022 0 0 0-8.018-2.371c-3.5-.499-6.258-2.051-7.624-5.494-1.928-4.797-.288-9.351 4.444-12.658ZM49.55 52.236c-.32-1.766-.914-3.514-.909-5.32a6.75 6.75 0 0 1 .658-2.77 7.28 7.28 0 0 1 1.755-2.335 6.962 6.962 0 0 1 2.498-1.428 6.062 6.062 0 0 1 2.736-.231c5.169.645 8.827 6.844 7.08 12.15a6.844 6.844 0 0 1-2.658 3.69c-1.28.89-2.79 1.282-4.222 1.094-2.693-.251-5.12-2.067-6.938-4.85ZM35.483 62.757c-1.536-3.206-2.018-5.863-.938-8.844a7.244 7.244 0 0 1 1.56-2.635 7.134 7.134 0 0 1 2.494-1.75 6.26 6.26 0 0 1 2.875-.476 5.394 5.394 0 0 1 2.619.901c3.323 2.278 4.99 5.686 4.416 10.096-.728 5.578-5.99 8.305-10.28 5.372a18.523 18.523 0 0 1-2.746-2.664Zm20.635-28.976C54 29.724 55 25.95 58.776 23.767a6.707 6.707 0 0 1 2.545-.815 5.823 5.823 0 0 1 2.531.282 8.043 8.043 0 0 1 4.383 3.406c1.016 1.624 1.462 3.596 1.273 5.633a6.568 6.568 0 0 1-.772 2.566 6.977 6.977 0 0 1-1.745 2.105c-.713.578-1.526 1-2.38 1.237a5.736 5.736 0 0 1-2.555.131 7.851 7.851 0 0 1-3.56-1.506 7.741 7.741 0 0 1-2.378-3.025ZM18.28 58.522a8.341 8.341 0 0 1-1.043-3.552 9.629 9.629 0 0 1 .546-3.847c1.78-4.845 7.232-6.511 10.483-3.186a8.773 8.773 0 0 1 2.053 3.21 9.84 9.84 0 0 1 .577 3.919c-.158 3.36-1.914 6.003-4.555 7.007-2.641 1.004-5.634.045-7.361-2.401l-.7-1.15Z"/></svg>