<svg xmlns="http://www.w3.org/2000/svg" width="41" height="40" fill="none" viewBox="0 0 41 40"><path fill="#fff" fill-opacity="0.1" d="M29.546 30.08c-1.09.126-2.196.393-3.265.354a5.878 5.878 0 0 0-2.687.448 6.274 6.274 0 0 0-2.267 1.617 7.282 7.282 0 0 1-3.68 2.202 4.922 4.922 0 0 1-2.395-.043 4.303 4.303 0 0 1-1.97-1.166 4.16 4.16 0 0 1-1.06-2 4.612 4.612 0 0 1 .115-2.34c.262-.919.805-1.78 1.191-2.676.42-.988.81-1.985 1.203-2.972.31-.918.681-1.82 1.112-2.7 1.602-2.836 4.537-4.007 7.475-3.013a6.872 6.872 0 0 1 1.98.95 12.35 12.35 0 0 0 3.952 1.876c1.765.548 3.07 1.566 3.519 3.426.638 2.592-.543 4.761-3.223 6.038ZM16.678 12.867c.034.922.21 1.857.074 2.772a3.362 3.362 0 0 1-.543 1.348 3.642 3.642 0 0 1-2.468 1.547c-.488.07-.975.03-1.425-.113-2.613-.762-4.038-4.21-2.747-6.751a3.424 3.424 0 0 1 1.64-1.646c.725-.343 1.532-.414 2.255-.199 1.368.355 2.483 1.48 3.214 3.042Zm8.02-4.147c.553 1.755.605 3.14-.171 4.56a3.612 3.612 0 0 1-.998 1.204c-.42.327-.904.558-1.413.676a3.296 3.296 0 0 1-1.515 0 2.893 2.893 0 0 1-1.282-.678c-1.542-1.434-2.148-3.301-1.528-5.487.787-2.764 3.698-3.702 5.69-1.855a9.834 9.834 0 0 1 1.216 1.58ZM11.932 21.66c.79 2.234-.004 4.062-2.108 4.85a3.493 3.493 0 0 1-1.37.198 3.108 3.108 0 0 1-1.283-.356 4.287 4.287 0 0 1-2.005-2.095c-.403-.908-.486-1.945-.239-2.961a3.27 3.27 0 0 1 .587-1.235 3.497 3.497 0 0 1 1.054-.919c.41-.233.86-.378 1.317-.427.457-.047.91.003 1.325.15.662.215 1.25.578 1.722 1.062a4.075 4.075 0 0 1 1 1.733Zm21.308-9.343c.23.59.324 1.233.274 1.887a4.812 4.812 0 0 1-.566 1.903c-1.274 2.305-4.204 2.689-5.631.73a4.588 4.588 0 0 1-.82-1.798 4.991 4.991 0 0 1-.008-2.034c.33-1.69 1.43-2.88 2.863-3.166 1.434-.287 2.904.451 3.612 1.836l.276.642Z"/></svg>