<svg xmlns="http://www.w3.org/2000/svg" width="208" height="70" fill="none" viewBox="0 0 208 70"><rect width="207.905" height="69.3016" fill="#000" rx="10.3952"/><path fill="#EA4335" d="M32.578 30.808 15.746 49.076c.002.003.002.008.003.011.517 1.984 2.288 3.444 4.39 3.444a4.46 4.46 0 0 0 2.307-.64l.054-.033 18.946-11.18-8.868-9.87Z"/><path fill="#FBBC04" d="m49.606 27.697-.016-.012-8.18-4.848-9.214 8.386 9.248 9.454 8.135-4.8a4.671 4.671 0 0 0 2.395-4.098 4.66 4.66 0 0 0-2.368-4.082Z"/><path fill="#4285F4" d="M15.746 14.403a4.66 4.66 0 0 0-.155 1.197v32.28c0 .414.053.815.155 1.195l17.41-17.801-17.41-16.872Z"/><path fill="#34A853" d="m32.703 31.74 8.71-8.906-18.923-11.22a4.475 4.475 0 0 0-2.35-.664c-2.102 0-3.876 1.463-4.393 3.448l-.001.005L32.703 31.74Z"/><path fill="#fff" d="M77.287 17.377c0 1.733-.514 3.113-1.542 4.141-1.155 1.224-2.674 1.837-4.557 1.837-1.802 0-3.326-.624-4.574-1.872-1.247-1.247-1.87-2.783-1.87-4.608 0-1.825.623-3.361 1.87-4.609 1.248-1.247 2.772-1.87 4.574-1.87.913 0 1.773.161 2.582.484.808.324 1.472.78 1.992 1.37l-1.143 1.143c-.382-.463-.878-.82-1.49-1.075a4.742 4.742 0 0 0-1.94-.398c-1.352 0-2.496.468-3.431 1.403-.924.947-1.386 2.131-1.386 3.552 0 1.42.462 2.605 1.386 3.552.935.935 2.079 1.403 3.43 1.403 1.236 0 2.264-.346 3.084-1.04.82-.692 1.294-1.645 1.42-2.858h-4.504v-1.49H77.2c.058.323.087.635.087.935Zm9.178-6.705v1.525h-5.648v3.933h5.094v1.49h-5.094v3.933h5.648v1.524h-7.242V10.673h7.242Zm6.376 1.525v10.88h-1.594v-10.88h-3.465v-1.524h8.524v1.524h-3.465Zm10.53 10.881h-1.594V10.673h1.594v12.405Zm6.728-10.881v10.88h-1.594v-10.88h-3.465v-1.524h8.524v1.524h-3.465Zm20.742 4.678c0 1.837-.612 3.373-1.836 4.608-1.236 1.248-2.749 1.872-4.539 1.872-1.802 0-3.315-.624-4.54-1.872-1.224-1.235-1.836-2.771-1.836-4.608 0-1.836.612-3.373 1.836-4.609 1.225-1.247 2.738-1.87 4.54-1.87 1.801 0 3.315.629 4.539 1.888 1.224 1.236 1.836 2.766 1.836 4.591Zm-11.123 0c0 1.432.451 2.616 1.352 3.552.912.935 2.044 1.403 3.396 1.403 1.351 0 2.477-.468 3.378-1.403.913-.924 1.369-2.108 1.369-3.552s-.456-2.628-1.369-3.552c-.901-.935-2.027-1.403-3.378-1.403-1.352 0-2.484.468-3.396 1.403-.901.936-1.352 2.12-1.352 3.552Zm14.598 6.203h-1.594V10.673h1.941l6.029 9.65h.069l-.069-2.391v-7.26h1.594v12.405h-1.663l-6.307-10.118h-.069l.069 2.391v7.728Zm29.439 28.43h2.822V32.43h-2.822v19.078Zm25.417-12.206-3.235 8.272h-.097l-3.357-8.272h-3.04l5.035 11.56-2.869 6.431h2.941l7.76-17.991h-3.138Zm-16.003 10.039c-.926 0-2.214-.466-2.214-1.621 0-1.471 1.604-2.036 2.991-2.036 1.24 0 1.825.27 2.579.638-.22 1.767-1.727 3.019-3.356 3.019Zm.34-10.456c-2.043 0-4.16.908-5.034 2.921l2.504 1.055c.535-1.055 1.532-1.4 2.578-1.4 1.46 0 2.943.884 2.968 2.456v.195c-.512-.294-1.605-.735-2.943-.735-2.7 0-5.449 1.497-5.449 4.294 0 2.553 2.214 4.199 4.694 4.199 1.898 0 2.944-.86 3.601-1.867h.097v1.473h2.723V44.16c0-3.386-2.504-5.276-5.739-5.276Zm-17.44 2.74h-4.014v-6.54h4.014c2.11 0 3.307 1.763 3.307 3.27 0 1.478-1.197 3.27-3.307 3.27Zm-.073-9.195h-6.761v19.078h2.82V44.28h3.941c3.128 0 6.202-2.286 6.202-5.926s-3.074-5.924-6.202-5.924Zm-36.871 16.914c-1.95 0-3.581-1.647-3.581-3.909 0-2.286 1.631-3.958 3.581-3.958 1.925 0 3.434 1.672 3.434 3.958 0 2.262-1.509 3.909-3.434 3.909Zm3.241-8.974h-.099c-.633-.761-1.851-1.45-3.386-1.45-3.217 0-6.164 2.851-6.164 6.515 0 3.639 2.947 6.467 6.164 6.467 1.535 0 2.753-.689 3.386-1.476h.099v.935c0 2.483-1.316 3.811-3.436 3.811-1.731 0-2.803-1.254-3.241-2.312l-2.461 1.033c.706 1.722 2.583 3.835 5.702 3.835 3.313 0 6.115-1.967 6.115-6.76V39.313h-2.679v1.057Zm4.629 11.138h2.826v-19.08h-2.826v19.08Zm6.991-6.294c-.072-2.507 1.925-3.786 3.362-3.786 1.122 0 2.072.565 2.388 1.376l-5.75 2.41Zm8.772-2.164c-.536-1.45-2.169-4.13-5.507-4.13-3.313 0-6.066 2.63-6.066 6.491 0 3.638 2.729 6.49 6.382 6.49 2.949 0 4.655-1.819 5.361-2.876l-2.192-1.476c-.731 1.082-1.73 1.795-3.169 1.795-1.436 0-2.46-.664-3.118-1.966l8.6-3.59-.291-.738Zm-68.52-2.138v2.753h6.528c-.195 1.55-.706 2.68-1.485 3.466-.951.96-2.438 2.017-5.043 2.017-4.022 0-7.164-3.27-7.164-7.326 0-4.058 3.142-7.327 7.164-7.327 2.168 0 3.752.86 4.92 1.967l1.926-1.943c-1.633-1.573-3.8-2.779-6.846-2.779-5.507 0-10.136 4.525-10.136 10.082 0 5.556 4.63 10.08 10.136 10.08 2.971 0 5.213-.985 6.967-2.828 1.804-1.82 2.364-4.376 2.364-6.442 0-.64-.049-1.228-.147-1.72h-9.184Zm16.755 8.432c-1.95 0-3.631-1.622-3.631-3.933 0-2.336 1.681-3.934 3.63-3.934 1.948 0 3.63 1.598 3.63 3.934 0 2.31-1.681 3.933-3.63 3.933Zm0-10.424c-3.559 0-6.458 2.73-6.458 6.491 0 3.737 2.9 6.49 6.458 6.49 3.557 0 6.456-2.753 6.456-6.49 0-3.762-2.9-6.49-6.456-6.49Zm14.084 10.424c-1.95 0-3.631-1.622-3.631-3.933 0-2.336 1.681-3.934 3.631-3.934 1.949 0 3.629 1.598 3.629 3.934 0 2.31-1.68 3.933-3.629 3.933Zm0-10.424c-3.557 0-6.456 2.73-6.456 6.491 0 3.737 2.899 6.49 6.456 6.49 3.557 0 6.456-2.753 6.456-6.49 0-3.762-2.899-6.49-6.456-6.49Z"/></svg>