<svg xmlns="http://www.w3.org/2000/svg" width="30" height="29" fill="none" viewBox="0 0 30 29"><path stroke="#fff" stroke-linecap="round" stroke-linejoin="round" stroke-width="1.5" d="M6.9 25.417h3.524c.46 0 .916.055 1.361.164l3.724.905c.808.197 1.65.216 2.466.057l4.116-.8a5.677 5.677 0 0 0 2.872-1.496l2.913-2.833a2.03 2.03 0 0 0 0-2.928 2.174 2.174 0 0 0-2.782-.193L21.7 20.77a2.858 2.858 0 0 1-1.686.547h-3.278 2.087c1.176 0 2.129-.927 2.129-2.071v-.414c0-.95-.665-1.779-1.612-2.008l-3.22-.783a6.787 6.787 0 0 0-1.6-.192c-1.303 0-3.66 1.079-3.66 1.079L6.9 18.583m-5.4-.574v7.83c0 .756 0 1.134.147 1.423.13.254.336.46.59.59.289.147.667.147 1.423.147h1.08c.756 0 1.134 0 1.423-.147.254-.13.46-.336.59-.59.147-.289.147-.667.147-1.423v-7.83c0-.756 0-1.134-.147-1.423a1.35 1.35 0 0 0-.59-.59c-.289-.147-.667-.147-1.423-.147H3.66c-.756 0-1.134 0-1.423.147a1.35 1.35 0 0 0-.59.59c-.147.29-.147.667-.147 1.423ZM22.008 3.15c-.805-1.686-2.663-2.58-4.47-1.717-1.806.862-2.575 2.906-1.82 4.701.468 1.11 1.808 3.263 2.762 4.747.353.548.53.822.787.983.221.137.498.211.758.203.304-.01.593-.16 1.173-.458 1.569-.807 3.806-2.003 4.765-2.73 1.552-1.176 1.937-3.338.775-4.981-1.162-1.644-3.189-1.805-4.73-.748Z"/></svg>