<svg xmlns="http://www.w3.org/2000/svg" width="192" height="140" fill="none" viewBox="0 0 192 140"><path fill="#6D73E6" d="M37.612 100.964c-.033-.047-.066-.094-.104-.139v-.082a.991.991 0 0 0 .104.221Zm1.16 1.998-.061-.095v-.068c.014.051.038.107.061.163Z"/><path fill="#6D73E6" d="M39.98 104.456a8.691 8.691 0 0 0-.549.428 11.498 11.498 0 0 0-.661-1.927 8.63 8.63 0 0 0 1.21 1.499Zm22.513 7.245H51.316a11.897 11.897 0 0 0-.11-.799v-.015a4.38 4.38 0 0 0-.594-1.593 1.33 1.33 0 0 0-.526-.526 1.51 1.51 0 0 0-.754-.187 1.551 1.551 0 0 0-.687.142 1.4 1.4 0 0 0-.53.421c-.327.422-.56.897-.685 1.4-.03.116-.059.229-.085.343a9.445 9.445 0 0 0-.158.814h-7.274a21.909 21.909 0 0 1-.77-2.356c0-.04-.022-.081-.034-.122.156-.235.322-.462.492-.683.064-.077.125-.154.189-.229a8.934 8.934 0 0 1 .38-.439c.6-.651 1.286-1.234 2.041-1.735a11.717 11.717 0 0 1 1.267-.745l.141-.07c.145-.073.286-.142.435-.215a4.98 4.98 0 0 1 .527-.214c.319-.126.645-.242.98-.344a18.011 18.011 0 0 1 5.392-.752 15.415 15.415 0 0 1 5.67 1.034c1.71.649 3.195 1.705 4.297 3.056.073.09.142.178.208.27.16.456.411.883.74 1.259.218.479.383.977.49 1.486.055.248.102.52.135.799Zm23.862-5.395c0 .857-.3 1.508-.9 1.953a5.023 5.023 0 0 1-2.166.885c-.786.138-1.584.21-2.384.214h-2.634v2.338H66.858v-.814c0-.642-.168-1.117-.473-1.432a4.109 4.109 0 0 0-1.115-.792 4.67 4.67 0 0 1-1.016-.668 7.862 7.862 0 0 0-.52-.885 2.629 2.629 0 0 1-.056-.567 1.66 1.66 0 0 1 .173-.82c.128-.258.32-.484.561-.662a2.836 2.836 0 0 1 1.725-.54h1.139c.491 0 .977-.225 1.457-.676a12.516 12.516 0 0 0 1.472-1.69 46.645 46.645 0 0 1 1.571-2.009 9.49 9.49 0 0 1 1.76-1.678 3.447 3.447 0 0 1 2.053-.677c.846 0 1.505.214 1.978.642.472.429.709 1.028.709 1.793v4.293h5.752a3.141 3.141 0 0 1 1.654.413c.449.282.673.741.673 1.379Z"/><path fill="#6D73E6" d="M86.53 98.748c0 1.396.402 2.537 1.194 3.389a7.11 7.11 0 0 0 2.034 1.523 3.2 3.2 0 0 1 .321.184v7.857H83.53l.289-.048a8.338 8.338 0 0 0 2.362-.766 7.384 7.384 0 0 0 1.059-.643c.88-.655 1.934-1.867 1.934-3.931 0-2.028-1.216-3.066-1.94-3.503a6.114 6.114 0 0 0-3.21-.844H81.09v-1.756c0-1.822-.834-2.961-1.533-3.597-.7-.636-1.959-1.392-3.972-1.392-1.388.005-2.732.441-3.808 1.235a12.152 12.152 0 0 0-2.263 2.142 49.719 49.719 0 0 0-1.654 2.115c-.315.435-.666.848-1.051 1.234h-.676a5.865 5.865 0 0 0-3.496 1.109 4.339 4.339 0 0 0-1.288 1.467 13.688 13.688 0 0 0-3.62-2.069 18.565 18.565 0 0 0-6.777-1.242 22.476 22.476 0 0 0-4.725.478 86.114 86.114 0 0 1 2.877-9.208c1.916-5.069 3.74-8.351 4.725-9.664 8.446 4.403 18.149 5.865 18.576 5.927h.034c1.9.248 3.818.374 5.738.377 6.577 0 12.545-1.533 17.77-4.559A56.7 56.7 0 0 1 99.7 93.69h-7.31a6.625 6.625 0 0 0-3.94 1.167c-.874.62-1.918 1.807-1.918 3.89Zm25.15 12.139c.033.276.061.548.083.813h-3.58v-7.514c.217.083.421.192.605.324a5.408 5.408 0 0 1 1.678 2.01 11.7 11.7 0 0 1 1.044 3.185c.066.402.123.796.17 1.182Z"/><path fill="#6D73E6" d="M127.368 111.701h-12.79a21.881 21.881 0 0 0-.078-.814 22.556 22.556 0 0 0-.225-1.583 13.899 13.899 0 0 0-1.254-3.837 8.008 8.008 0 0 0-2.483-2.951c-1.057-.766-2.413-1.15-4.069-1.15h-1.105v10.335H92.892v-7.945c0-.672-.177-1.171-.534-1.499a5.546 5.546 0 0 0-1.24-.839 4.277 4.277 0 0 1-1.243-.93c-.354-.382-.531-.965-.531-1.747 0-.856.282-1.488.848-1.895a3.69 3.69 0 0 1 2.192-.608h15.106c3.78 0 7.177.693 10.19 2.08 2.643 1.184 4.911 2.959 6.59 5.157 1.68 2.197 2.716 4.746 3.011 7.405.035.274.054.546.087.821Zm27.779-.822v.822h-11.253V109.5a4.102 4.102 0 0 0-.267-1.332c-.176-.506-.535-.758-1.077-.758-.542 0-.867.195-.976.586a3.658 3.658 0 0 0-.189 1.114v.963c.002.273-.018.545-.061.814-.039.278-.11.55-.213.814h-10.286a4.21 4.21 0 0 1-.083-.814v-.077c0-.521.117-1.037.343-1.516.217-.474.511-.916.874-1.31a9.964 9.964 0 0 1 3.889-2.596 21.42 21.42 0 0 1 4.942-1.229 38.426 38.426 0 0 1 4.879-.334c1.609-.016 3.211.21 4.739.668 1.372.402 2.575 1.176 3.447 2.216.021.026.044.054.063.082l.036-.12v.171a4.353 4.353 0 0 0 .827 2.296c.078.108.163.215.255.321a8.719 8.719 0 0 1 .111 1.42Zm3.353-6.29a.193.193 0 0 0 0 .034 75.429 75.429 0 0 1-.309 1.626c-.014.075-.031.145-.047.214a46.33 46.33 0 0 1-.341 1.535l-.061.251-.014.066c0 .034-.019.069-.026.101 0-.054-.026-.105-.04-.157l-.081-.066-.023-.019a2.304 2.304 0 0 1-.518-.608l-.054.047c0-.032.014-.065.024-.099a1.942 1.942 0 0 1-.237-.833v-.113c0-.139.011-.278.034-.416a1.658 1.658 0 0 1 .727-1.169c.09-.065.185-.122.286-.171.214-.104.443-.179.68-.223ZM53.549 80.852c-1.538.385-6.438 9.672-9.254 21.379a15.377 15.377 0 0 0-2.878 1.287c-.617-.509-1.741-1.91-3.392-5.73-.553-4.89-.83-9.743-.83-12.752-.012-8.235 2.016-16.368 5.933-23.799a18.988 18.988 0 0 0 .344 7.979c1.101 5.135 5.243 8.912 10.077 11.636Zm51.31 12.838h-3.35a56.427 56.427 0 0 0-4.911-11.433 29.967 29.967 0 0 0 3.144-2.39 21.505 21.505 0 0 0 5.148 5.9c.168.134.335.265.496.39a.716.716 0 0 0-.068.365l.049.489a16.94 16.94 0 0 1-.508 6.678Zm4.089-6.231-.047-.02-.04-.023-.029-.018.116.06Z"/><path fill="#6D73E6" d="M155.504 103.208a4.097 4.097 0 0 0-.685.709c-.055-.048-.111-.09-.168-.133a10.443 10.443 0 0 0-3.338-1.7 19.078 19.078 0 0 0-5.649-.803 41.65 41.65 0 0 0-5.273.357c-1.94.246-3.837.718-5.644 1.405-1.927.723-3.63 1.862-4.961 3.317-.19.204-.367.419-.529.642a16.933 16.933 0 0 0-2.044-4.1c-1.996-2.934-4.853-5.307-8.252-6.853-3.395-1.563-7.253-2.355-11.468-2.355h-.829c.461-1.766.651-3.58.567-5.392.212.153.433.296.662.428l.018.01.034.02c.07.04.142.075.217.107 6.142 3.013 12.004 4.069 17.206 4.069 9.582 0 16.934-3.591 19.72-5.182.267.529.472 1.045.668 1.548.584 1.482 1.134 2.882 3.055 3.897 2.573 1.36 4.635 4.568 6.126 8.456.213.525.394 1.028.567 1.553Zm-1.472-30.821a13.353 13.353 0 0 1-.322 1.527l-6.241.572 6.563-2.099Zm-2.807-16.649-.106 1.463-.395 5.432-6.501-5.781 4.252-3.396.709-.555a57.89 57.89 0 0 1 2.041 2.837Z"/><path fill="#6D73E6" d="M144.734 49.069c-5.663-6.002-12.669-10.844-20.553-14.204-.593 1.392-2.011 2.482-4.621 3.04 0 0-9.687 3.13-10.355-7.374a66.983 66.983 0 0 0-8.505-.844c-3.071 2.22-6.062 4.964-7.118 7.795.019.06.026.092.026.092s1.592 4.925 1.953 9.347a15.576 15.576 0 0 1-.03 3.297 5.015 5.015 0 0 1-.088.555s.092.064.25.197l.22.178c.104-1.367.435-2.628 1.101-3.628l15.437 3.103s6.055-3.402 13.837-3.402c4.313-.026 8.539 1.1 12.15 3.237l.123.07 6.318-1.305-.145-.154Zm-93.637.82a24.899 24.899 0 0 1 4.585-2.142 29.98 29.98 0 0 1 1.354-3.546 58.501 58.501 0 0 0-5.94 5.688Zm22.961 0c-.113-.876-2.537-1.337-5.415-1.028-2.877.308-5.117 1.267-5.004 2.141.114.874 2.54 1.336 5.418 1.028 2.877-.308 5.121-1.257 5.001-2.141Zm0 0c-.113-.876-2.537-1.337-5.415-1.028-2.877.308-5.117 1.267-5.004 2.141.114.874 2.54 1.336 5.418 1.028 2.877-.308 5.121-1.257 5.001-2.141Zm78.995 14.265-.395.797c-1.238 4.91-5.859 3.683-8.505 2.118-1.167-.688-1.89-2.219-2.346-3.414-.649-1.726.709-4.497-4.902-7.374-3.411-1.75-1.654-4.099-.34-5.02-3.119-1.634-6.663-2.485-10.265-2.465-7.156 0-12.862 3.135-12.918 3.165a1.888 1.888 0 0 1-1.297.2L98.04 49.355a9.56 9.56 0 0 0-.395 3.302c0 .397.038.812.083 1.242.045.43.104.885.18 1.35.063.406.144.826.236 1.256.402 1.875.955 3.72 1.653 5.523a1.456 1.456 0 0 1-.096 1.295c-2.077 3.538-.527 9.654-.51 9.716.016.062.023.105.032.158.02.133.04.263.064.394l3.241.752.882.203.883.214 3.884.902c.082.018.16.05.228.095a.586.586 0 0 1 .256.382.53.53 0 0 1-.011.227.43.43 0 0 1-.057.127.562.562 0 0 1-.213.357.674.674 0 0 1-.42.142l-5.276-.056-1.11-.013-1.129-.013h-.215l.064.16c.115.284.236.558.363.825.128.268.26.531.397.786 1.229 2.241 2.927 4.244 4.999 5.897a19.126 19.126 0 0 0 3.308 2.187h.023c5.144 2.529 10.532 3.811 16.018 3.811 9.705 0 16.937-3.978 18.921-5.197l.022-.013c.309-.184.472-.297.472-.297l.021-.015c4.321-2.917 7.163-6.249 8.489-9.951l-10.142.927h-.064a.686.686 0 0 1-.399-.126.58.58 0 0 1-.225-.323.536.536 0 0 1 .109-.741.664.664 0 0 1 .215-.116l11.12-3.559a.652.652 0 0 1 .22-.032c.016-.214.026-.428.033-.642a15.947 15.947 0 0 0-1.141-6.328v-.009Zm-48.45-2.52-.626.739-.6.71-1.149 1.367-.914-5.054-.338-1.865-.314-1.74-.817-4.521 8.729 5.674-3.971 4.69Zm-1.068 14.133.045.01v-.01h-.045Zm-1.007-.01.995.01-.848-.2-.907-.213-2.214-.512c.073.3.158.595.248.882l1.654.017 1.072.015Zm-6.378 1.091a.671.671 0 0 1-.43-.182.554.554 0 0 1-.174-.4c0-.148.063-.29.175-.398a.672.672 0 0 1 .429-.183l1.816.02c-.12-.429-.225-.863-.316-1.302l-1.231-.285a.67.67 0 0 1-.226-.098.606.606 0 0 1-.167-.168.546.546 0 0 1-.07-.44.56.56 0 0 1 .108-.205.626.626 0 0 1 .186-.152.685.685 0 0 1 .486-.063l.68.158c-.284-1.236-1.417-6.923.728-10.583 0 0-1.93-4.732-2.228-9.242a32.692 32.692 0 0 0-1.375-1.167l-.03-.025-.147-.118a1.567 1.567 0 0 1-.567-.695 1.41 1.41 0 0 1-.066-.862c.026-.124.05-.257.063-.396a.184.184 0 0 1 0-.036c.113-.993.12-1.994.022-2.988v-.014c-.345-4.206-1.874-8.966-1.89-9.014a.603.603 0 0 1-.038-.132c-.055-.176-.473-1.302-2.304-2.598-1.53-1.081-4.288-2.42-9.102-3.252a36.418 36.418 0 0 0-1.959-.296c-6.16 1.877-11.953 4.623-17.168 8.137a32.904 32.904 0 0 0-3.995 8.291 1.554 1.554 0 0 1-.388.65 1.77 1.77 0 0 1-.668.421c-6.414 2.276-10.24 6.242-11.369 11.793a17.59 17.59 0 0 0 .215 7.77c.015.041.024.082.034.123.864 4.045 3.988 7.608 9.282 10.593 7.947 4.482 18.023 6.064 18.465 6.133 1.73.224 3.476.338 5.224.342 6.544 0 12.4-1.683 17.411-5.004a27.885 27.885 0 0 0 3.388-2.636 17.041 17.041 0 0 1-.598-1.463l-2.206-.034Zm-3.74-20.163c-1.812 2.84-7.307 9.906-17.24 10.463a4.52 4.52 0 0 1-.722-.013.118.118 0 0 1 0 .028l-1.845 7.373c.815.79 2.77 2.282 4.488 1.993 1.33-.214 2.443-1.462 3.308-3.687a.783.783 0 0 1 .174-.267.877.877 0 0 1 .274-.186.951.951 0 0 1 .965.126c.085.07.155.154.205.248a.736.736 0 0 1 .036.608c-1.092 2.798-2.656 4.387-4.647 4.71a4.657 4.657 0 0 1-.766.063c-2.296 0-4.333-1.628-5.162-2.39-1.072.3-2.186.46-3.307.473-1.288 0-2.687-.246-3.832-1.056-1.817-1.284-2.519-3.606-2.084-6.912a.777.777 0 0 1 .327-.529.94.94 0 0 1 1.228.132.74.74 0 0 1 .181.584c-.356 2.713.12 4.554 1.418 5.473 1.684 1.193 4.422.625 5.474.34l1.857-7.454a.658.658 0 0 1 .064-.163 2.294 2.294 0 0 1-.161-.09c-2.285-1.36-7.499-5.062-11.257-12.265 0 0-4.123-7.42 7.685-6.97 0 0 18.73-.214 23.14 5.154a3.61 3.61 0 0 1 .799 2.084 3.562 3.562 0 0 1-.6 2.139v-.009Zm-23.767-7.824c-2.877.308-5.117 1.267-5.004 2.141.114.874 2.54 1.336 5.418 1.028 2.877-.308 5.117-1.268 5.001-2.141-.116-.874-2.537-1.328-5.415-1.02v-.008Zm15.392-17.7a23.266 23.266 0 0 1 5.247 2.004 42.17 42.17 0 0 1 2.599-3.225 65.801 65.801 0 0 0-7.846 1.229v-.009Z"/><path fill="#6D73E6" d="M159.393 83.826a5.668 5.668 0 0 0-.756-.28c-1.417-.418-4.212-.662-7.087 2.405-.059.067-.11.138-.154.214-1.793 2.805 0 4.856 1.089 6.081.111.127.218.249.315.364 1.167 1.397 1.793 3.075 2.064 4.82-1.384-2.475-3.099-4.475-5.166-5.567-1.371-.724-1.756-1.713-2.29-3.062a17.048 17.048 0 0 0-.869-1.95 2.164 2.164 0 0 0-.473-.622c5.434-3.707 8.054-7.709 9.174-11.349a.587.587 0 0 0 .206-.231.517.517 0 0 0 .051-.294.495.495 0 0 0-.056-.186 16.97 16.97 0 0 0-.496-9.886c2.784 6.214 4.291 12.838 4.448 19.543Z"/><path fill="#6D73E6" d="M160.288 86.473a135.788 135.788 0 0 1-1.361 15.495 6.614 6.614 0 0 0-.912.105c-.334.06-.661.149-.976.265-.094-.276-.194-.55-.295-.822.274-3.332-.173-7.032-2.54-9.863-.104-.127-.22-.257-.342-.396-1.21-1.375-2.049-2.57-.945-4.298v-.013c1.653-1.745 3.432-2.398 5.166-1.884.473.14.916.355 1.309.631.333.226.634.488.896.78Z"/><path fill="#000" d="M66.862 110.887v1.625H78.27v-1.625H66.862Zm19.316 0a8.34 8.34 0 0 1-2.362.766l-.288.048-.102.015a16.91 16.91 0 0 1-2.339.199v.597h8.977v-1.625h-3.886Zm25.581.814a20.399 20.399 0 0 0-.082-.814h-3.497v.97h3.593l-.014-.156Zm-18.867-.814v1.625h12.479v-1.625H92.892Zm34.493.97c0-.051 0-.105-.012-.156a19.125 19.125 0 0 0-.087-.814h-12.772c.033.276.057.546.078.814v.156c.014.214.026.439.033.655h12.791c0-.22-.012-.439-.029-.655h-.002Zm16.507-.97v1.625h11.252v-1.625h-11.252Zm15.384-6.373a3.797 3.797 0 0 0-.753.071h-.022a2.652 2.652 0 0 0-.973.409c-.073.394-.149.777-.225 1.154l-.021.101-.127.595c-.05.231-.1.458-.152.681 0 .034-.016.066-.023.098l.054-.047c.133.228.308.434.518.608l.023.02.08.066c.015.052.029.103.041.156 0-.032.016-.066.026-.1l.035.028c.236.192.482.381.737.565a51.407 51.407 0 0 0 .494-2.146 68.89 68.89 0 0 0 .376-1.927c.018-.109.04-.214.059-.336l-.147.004Zm1.014-18.04a4.865 4.865 0 0 0-.884-.789 133.984 133.984 0 0 1-1.389 16.388c.301-.056.605-.091.912-.105h.907c.709-4.884 1.155-10.203 1.307-14.133a4.824 4.824 0 0 0-.851-1.362h-.002ZM78.547 31.742a54.504 54.504 0 0 0-1.946-.214h-.104a64.844 64.844 0 0 0-13.689 6.424 24.996 24.996 0 0 0-1.427 1.933c-.425.628-.81 1.255-1.16 1.867 6.024-4.369 12.908-7.662 20.287-9.704a33.593 33.593 0 0 0-1.956-.306h-.005ZM149.87 52.36l-.688.548-.709.554a55.339 55.339 0 0 1 2.637 3.74l.106-1.463.102-1.407a46.918 46.918 0 0 0-1.444-1.972h-.004Zm-19.137 58.527c.001.273.029.545.083.814.009.052.022.105.038.156.05.226.129.446.236.655h9.573c.158-.204.29-.424.392-.655.021-.051.043-.103.062-.156.102-.264.174-.537.212-.814h-10.596Zm-68.188 1.625c0-.257-.026-.507-.052-.751v-.06a8.03 8.03 0 0 0-.14-.814h-11.15v.015c.049.293.087.561.11.799v.06c.022.214.034.417.034.588v.163h11.198Zm-21.997-1.625a25.616 25.616 0 0 1-.576-1.857c-.05-.188-.102-.379-.152-.574-.014-.051-.026-.104-.04-.158-.064.075-.126.152-.19.229-.17.214-.335.448-.49.683l-.029.045a9.761 9.761 0 0 0-.595 1.009c.186.623.382 1.197.586 1.713l.139.351.073.186h7.815c0-.102.017-.214.029-.325.012-.112.03-.285.052-.428a.462.462 0 0 1 0-.06c.04-.268.092-.54.158-.814h-6.78Zm-3.055-10.144a44.067 44.067 0 0 1-1.238-2.687c.057.497.117.996.18 1.499.385.408.742.837 1.07 1.285.038.045.07.092.104.139-.04-.088-.071-.161-.107-.236h-.01Zm48.684 10.144a8.34 8.34 0 0 1-2.363.766l-.288.048-.102.015c-.103.017-.21.032-.314.045h6.965v-.874h-3.898Z"/><path fill="#fff" d="M154.781 109.148c-.304.164-.619.318-.945.463 0 0 .205-.465.484-1.259.124.278.278.545.461.796Zm4.795-4.634c-.068.113-.137.214-.21.336a13.383 13.383 0 0 1-1.146 1.531l-.08.09a11.359 11.359 0 0 1-.794.82 7.755 7.755 0 0 1-.31.285l-.054.047c0-.032.014-.064.024-.098a1.931 1.931 0 0 1-.236-.833v-.114c-.001-.139.01-.278.033-.415.035-.255.128-.501.274-.722a1.638 1.638 0 0 1 .453-.447c.09-.065.185-.122.286-.172a2.68 2.68 0 0 1 .688-.237h.021c.247-.049.5-.073.754-.071h.297Zm.315-2.555h-.964a6.614 6.614 0 0 0-.912.105c-.334.061-.661.15-.976.266a30.785 30.785 0 0 0-.295-.823c.274-3.332-.173-7.032-2.54-9.863-.104-.126-.22-.257-.342-.396-1.21-1.375-2.049-2.57-.945-4.297v-.013c1.653-1.746 3.432-2.399 5.166-1.885.473.142.916.355 1.309.632.329.229.626.493.884.788.362.408.65.865.853 1.355a3.4 3.4 0 0 1 .26 1.03c.297 3.561.271 8.748-1.498 13.101Z"/><path fill="#000" d="M154.958 101.683a24.349 24.349 0 0 1-.303 2.092c.057.043.114.086.168.133.197-.26.426-.498.685-.709a29.856 29.856 0 0 0-.55-1.516Zm4.321 2.831a3.727 3.727 0 0 0-.754.071 10.819 10.819 0 0 1-.56.781c-.189.24-.425.531-.657.782l-.038.038c-.094.101-.189.199-.285.298l-.211.214c.015.29.095.573.237.833 0 .034-.017.067-.024.099l.054-.047c.133.227.308.433.518.608l.023.019.052-.043.073-.064.097-.086c.237-.203.442-.415.648-.631.205-.217.371-.397.543-.6.6-.711 1.127-1.47 1.576-2.268l-1.292-.004Zm-4.239 4.955a4.412 4.412 0 0 1-.716-1.118 4.22 4.22 0 0 1-.366-1.499v-.171l-.035.12a25.638 25.638 0 0 1-.891 2.527.727.727 0 0 0-.038.462.78.78 0 0 0 .254.402c.127.108.287.18.459.205a.959.959 0 0 0 .506-.063c.303-.133.593-.274.877-.428a4.32 4.32 0 0 0-.05-.437Z"/><path fill="#fff" d="M37.613 100.964c-.033-.047-.066-.094-.104-.139a13.329 13.329 0 0 0-1.564-1.78 40.638 40.638 0 0 1-1.34-5.252c.19.526.388 1.07.591 1.597.371.978.725 1.86 1.063 2.655a43.14 43.14 0 0 0 1.238 2.688c.038.085.069.158.116.231Zm1.159 1.998-.061-.095v-.068c.014.051.038.107.061.163Z"/><path fill="#fff" d="M39.98 104.456a8.691 8.691 0 0 0-.549.428 11.498 11.498 0 0 0-.661-1.927 8.63 8.63 0 0 0 1.21 1.499Zm3.155 1.108-.472 5.33-.074.798-.782-.798-1.821-1.857-.012-.013s-.052-.064-.149-.19l-.22-.302c.064-.077.126-.155.19-.229a8.908 8.908 0 0 1 .38-.439 11.11 11.11 0 0 1 2.041-1.735c.291-.206.598-.394.919-.565Z"/><path fill="#000" d="M38.697 102.797v.068c.021.032.04.064.061.094a.756.756 0 0 0-.061-.162Zm4.921 2.509-.142.071c-.113.058-.236.118-.338.18-.315.175-.624.364-.928.565l-.33 3.653-1.23-1.252c-.056-.073-.236-.298-.472-.666-.115.126-.236.254-.338.387a.41.41 0 0 0-.042.052c-.064.075-.125.152-.19.229a9.42 9.42 0 0 0-.49.683l-.029.045.062.077c.061.081.103.133.12.154.015.02.032.038.05.056l.42.428.782.797.114.115.798.814.5.512a.935.935 0 0 0 .612.263h.043a.922.922 0 0 0 .688-.303.75.75 0 0 0 .184-.425v-.049l.073-.814.523-5.782c-.154.069-.296.138-.44.21Zm-8.205-2.721c-.023-.037-.05-.071-.073-.105a36.479 36.479 0 0 0 1.302 2.803 8.652 8.652 0 0 0-1.229-2.698Z"/><path fill="#fff" d="M74.063 49.888c.116.876-2.126 1.835-5.001 2.142-2.875.306-5.304-.153-5.417-1.028-.114-.876 2.126-1.836 5.003-2.142 2.878-.306 5.3.172 5.415 1.028Z"/><path fill="#fff" d="m103.977 62.372-.6.711-1.149 1.366-.914-5.053-.338-1.865a36.264 36.264 0 0 0-3.243-3.626c.042.428.103.885.18 1.35.063.406.143.826.235 1.256.403 1.875.956 3.72 1.654 5.523a1.454 1.454 0 0 1-.097 1.295c-2.076 3.538-.527 9.654-.51 9.716.017.062.024.105.033.158.019.133.04.263.064.394l3.236.745.882.204.016-.022c.123-.186.236-.36.343-.544 2.381-3.963 1.847-8.032.208-11.608Zm-4.425 12.48c.073.3.158.595.248.882l1.653.017 1.08.013c.04-.056.083-.107.121-.156l-.908-.214-2.194-.542Zm.659 2.047.064.16c.115.283.236.557.363.825.338-.34.645-.666.917-.97l-1.129-.013-.215-.002Zm-4.061-.043a.672.672 0 0 1-.43-.182.554.554 0 0 1-.174-.4c0-.148.063-.29.175-.398a.672.672 0 0 1 .429-.183l1.816.02c-.12-.429-.225-.863-.316-1.302l-1.231-.285a.673.673 0 0 1-.226-.098.606.606 0 0 1-.167-.168.547.547 0 0 1-.07-.44.559.559 0 0 1 .108-.205.626.626 0 0 1 .186-.152.685.685 0 0 1 .486-.063l.68.158c-.284-1.236-1.417-6.923.728-10.583 0 0-1.93-4.732-2.228-9.242a32.67 32.67 0 0 0-1.375-1.166l-.03-.026-.147-.118a1.567 1.567 0 0 1-.567-.695 1.41 1.41 0 0 1-.066-.862c.026-.124.05-.257.063-.396a.184.184 0 0 1 0-.036c.113-.993.12-1.993.022-2.987v-.015c-.345-4.206-1.874-8.966-1.89-9.013a.602.602 0 0 1-.038-.133c-.055-.176-.473-1.302-2.304-2.598-1.53-1.081-4.288-2.42-9.102-3.252a36.219 36.219 0 0 0-1.959-.296 54.268 54.268 0 0 0-1.947-.214h-.103a16.72 16.72 0 0 0-1.368-.06c-4.7 0-8.836 2.178-12.32 6.48a24.996 24.996 0 0 0-1.428 1.933c-.425.628-.81 1.255-1.16 1.868a32.908 32.908 0 0 0-2.835 6.424 1.56 1.56 0 0 1-.387.649c-.184.186-.413.33-.669.421-6.416 2.266-10.241 6.232-11.37 11.782a17.59 17.59 0 0 0 .215 7.771c.014.04.023.081.033.122.864 4.045 3.988 7.608 9.282 10.593 7.947 4.482 18.023 6.065 18.465 6.133 1.73.224 3.476.339 5.224.343 6.544 0 12.4-1.683 17.411-5.005a27.876 27.876 0 0 0 3.388-2.636 17.04 17.04 0 0 1-.598-1.462l-2.206-.026Zm-3.74-20.163c-1.812 2.831-7.307 9.898-17.24 10.454-.24.015-.482.011-.722-.013a.118.118 0 0 1 0 .028l-1.845 7.373c.815.79 2.77 2.283 4.488 1.993 1.33-.214 2.443-1.462 3.308-3.687a.783.783 0 0 1 .174-.266.876.876 0 0 1 .274-.186.951.951 0 0 1 .965.125c.085.07.155.154.205.249a.737.737 0 0 1 .036.607c-1.092 2.799-2.656 4.388-4.647 4.711a4.657 4.657 0 0 1-.766.062c-2.296 0-4.333-1.627-5.162-2.39-1.072.3-2.186.46-3.307.474-1.288 0-2.687-.247-3.832-1.056-1.817-1.285-2.519-3.606-2.084-6.912a.777.777 0 0 1 .327-.53.94.94 0 0 1 1.228.132.74.74 0 0 1 .181.584c-.356 2.713.12 4.555 1.418 5.473 1.684 1.193 4.422.625 5.474.34l1.857-7.453a.658.658 0 0 1 .064-.163 2.336 2.336 0 0 1-.161-.09c-2.285-1.36-7.499-5.062-11.257-12.266 0 0-4.123-7.42 7.685-6.97 0 0 18.73-.214 23.14 5.154.486.61.764 1.334.799 2.085a3.562 3.562 0 0 1-.6 2.138Z"/><path fill="#000" d="M101.772 75.37c-.095.122-.201.25-.317.388l1.08.013c.04-.056.082-.107.12-.157l-.883-.244Zm0 0c-.095.122-.201.25-.317.388l1.08.013c.04-.056.082-.107.12-.157l-.883-.244Zm0 0c-.095.122-.201.25-.317.388l1.08.013c.04-.056.082-.107.12-.157l-.883-.244Zm0 0c-.095.122-.201.25-.317.388l1.08.013c.04-.056.082-.107.12-.157l-.883-.244Zm0 0c-.095.122-.201.25-.317.388l1.08.013c.04-.056.082-.107.12-.157l-.883-.244Zm0 0c-.095.122-.201.25-.317.388l1.08.013c.04-.056.082-.107.12-.157l-.883-.244Zm0 0c-.095.122-.201.25-.317.388l1.08.013c.04-.056.082-.107.12-.157l-.883-.244Zm0 0c-.095.122-.201.25-.317.388l1.08.013c.04-.056.082-.107.12-.157l-.883-.244Zm0 0c-.095.122-.201.25-.317.388l1.08.013c.04-.056.082-.107.12-.157l-.883-.244Zm2.835-13.73-.626.739-.6.71c1.653 3.84 1.521 7.367-.378 10.519l-.017.03c-.085.145-.194.31-.309.486l-.029.043s-.042.068-.118.182l.881.203.884.214c.087-.13.168-.26.236-.392 2.656-4.406 1.956-8.884.078-12.74l-.002.006Zm-1.023 14.152v-.01h-.052l.052.01Zm-.907-.214-.908-.214a11 11 0 0 1-.316.387l1.079.013.995.011-.848-.2-.002.003Zm-2.247 1.325a4.412 4.412 0 0 1-.151.159c.115.283.236.557.363.824.128.268.26.531.397.786a31.585 31.585 0 0 0 1.63-1.743l-1.11-.013-1.129-.013Zm.55-19.377-.314-1.74a39.503 39.503 0 0 0-3.01-3.125c0 .396.038.812.083 1.242.045.43.104.885.18 1.35a32.419 32.419 0 0 1 3.401 4.14l-.34-1.867Zm.792 17.844c-.095.122-.201.25-.317.388l1.08.013c.04-.056.082-.107.12-.157l-.883-.244Zm0 0c-.095.122-.201.25-.317.388l1.08.013c.04-.056.082-.107.12-.157l-.883-.244Zm0 0c-.095.122-.201.25-.317.388l1.08.013c.04-.056.082-.107.12-.157l-.883-.244Zm0 0c-.095.122-.201.25-.317.388l1.08.013c.04-.056.082-.107.12-.157l-.883-.244Zm0 0c-.095.122-.201.25-.317.388l1.08.013c.04-.056.082-.107.12-.157l-.883-.244Zm0 0c-.095.122-.201.25-.317.388l1.08.013c.04-.056.082-.107.12-.157l-.883-.244Zm0 0c-.095.122-.201.25-.317.388l1.08.013c.04-.056.082-.107.12-.157l-.883-.244Zm0 0c-.095.122-.201.25-.317.388l1.08.013c.04-.056.082-.107.12-.157l-.883-.244Zm0 0c-.095.122-.201.25-.317.388l1.08.013c.04-.056.082-.107.12-.157l-.883-.244Zm0 0c-.095.122-.201.25-.317.388l1.08.013c.04-.056.082-.107.12-.157l-.883-.244Zm.907.214-.907-.214c-.095.122-.201.25-.317.388l1.08.013c.04-.056.082-.107.12-.157l.024-.03ZM69.062 52.04c-2.878.309-5.304-.152-5.417-1.028-.114-.875 2.126-1.835 5.003-2.14 2.878-.307 5.3.16 5.415 1.016.116.857-2.124 1.844-5.001 2.152Z"/><path fill="#fff" d="M69.062 52.04c-2.878.309-5.304-.152-5.417-1.028-.114-.875 2.126-1.835 5.003-2.14 2.878-.307 5.3.16 5.415 1.016.116.857-2.124 1.844-5.001 2.152Z"/><path fill="#000" d="M73.168 46.715h-.101a.9.9 0 0 1-.585-.295.74.74 0 0 1-.183-.583c.022-.178.034-.358.035-.537 0-1.538-1.226-2.382-2.452-2.536-1.106-.139-2.568.249-3.04 1.792-.017.051-.03.103-.04.155a.789.789 0 0 1-.357.509.945.945 0 0 1-.647.135.891.891 0 0 1-.566-.317.736.736 0 0 1-.155-.586c0-.022.026-.14.08-.317.72-2.356 3.071-3.178 4.961-2.94 1.89.237 3.974 1.63 3.962 4.111 0 .238-.016.475-.047.71a.771.771 0 0 1-.287.498.927.927 0 0 1-.578.201Zm16.496 2.255h-.1a.903.903 0 0 1-.585-.295.743.743 0 0 1-.184-.583c.022-.179.035-.358.037-.538 0-1.537-1.226-2.381-2.452-2.535-1.108-.14-2.568.248-3.04 1.792a1.16 1.16 0 0 0-.04.154.796.796 0 0 1-.36.508.953.953 0 0 1-.65.135.886.886 0 0 1-.559-.321.733.733 0 0 1-.15-.585c.02-.107.047-.213.081-.317.72-2.356 3.071-3.178 4.961-2.94 1.89.237 3.974 1.63 3.962 4.111 0 .232-.019.471-.047.711a.773.773 0 0 1-.29.503.93.93 0 0 1-.584.2Z"/><path fill="#fff" d="M85.671 104.921a3.14 3.14 0 0 0-1.654-.413h-5.745v-4.298c0-.765-.236-1.362-.709-1.792-.472-.43-1.132-.643-1.977-.643a3.448 3.448 0 0 0-2.053.677 9.47 9.47 0 0 0-1.76 1.679 44.277 44.277 0 0 0-1.571 2.008 12.462 12.462 0 0 1-1.472 1.69c-.473.452-.959.678-1.458.676h-1.139a2.836 2.836 0 0 0-1.724.54 1.846 1.846 0 0 0-.562.662 1.66 1.66 0 0 0-.173.82c-.002.19.017.38.057.567.193.285.366.58.52.885.303.263.645.488 1.015.668.42.204.797.472 1.115.792.315.315.473.794.473 1.433v1.666H78.26v-3.191h2.634c.8-.004 1.599-.075 2.384-.214a5.023 5.023 0 0 0 2.166-.885c.6-.442.9-1.093.9-1.952.008-.631-.216-1.09-.673-1.375Zm2.776-10.065a6.628 6.628 0 0 1 3.94-1.16h7.31a56.717 56.717 0 0 0-3.763-9.097c-5.226 3.026-11.194 4.56-17.77 4.56a45.088 45.088 0 0 1-5.74-.378h-.032c-.428-.062-10.13-1.524-18.577-5.927-.975 1.322-2.8 4.596-4.725 9.664a86.104 86.104 0 0 0-2.877 9.208 22.543 22.543 0 0 1 4.725-.478c2.33-.01 4.636.413 6.778 1.242 1.32.51 2.542 1.209 3.62 2.069a4.34 4.34 0 0 1 1.287-1.467 5.865 5.865 0 0 1 3.496-1.109h.676c.385-.386.736-.799 1.051-1.234.522-.708 1.08-1.42 1.654-2.115.65-.799 1.41-1.519 2.263-2.141 1.076-.795 2.42-1.23 3.808-1.236 2.013 0 3.27.756 3.972 1.392.702.636 1.533 1.775 1.533 3.597v1.741h2.937a6.115 6.115 0 0 1 3.21.844c.723.428 1.94 1.475 1.94 3.503 0 2.064-1.054 3.276-1.935 3.932a7.476 7.476 0 0 1-1.058.642 8.342 8.342 0 0 1-2.363.767l-.288.047-.102.015a16.913 16.913 0 0 1-2.339.199v.642h8.978v-8.728a3.382 3.382 0 0 0-.321-.184 7.11 7.11 0 0 1-2.034-1.523c-.792-.856-1.194-1.993-1.194-3.39.022-2.09 1.066-3.275 1.94-3.897Zm14.437 17.662c-.012-.2-.024-.418-.035-.655v-.156c-.012-.253-.026-.525-.038-.814-.035-.786-.073-1.685-.113-2.64l-.118-2.754a205.928 205.928 0 0 0-.171-3.353c-.059-.973-.122-1.713-.184-2.039a6.668 6.668 0 0 0-.047-.236 49.97 49.97 0 0 0-.834-3.614h-8.956a3.69 3.69 0 0 0-2.193.608c-.567.407-.85 1.039-.848 1.895 0 .781.177 1.363.532 1.748.347.377.768.692 1.242.929.455.226.873.508 1.24.839.358.321.535.82.535 1.499v8.797h9.991c0-.032-.003-.047-.003-.06v.006Zm-51.535.041h11.203a7.043 7.043 0 0 0-.052-.792v-.06a8.03 8.03 0 0 0-.14-.814 7.152 7.152 0 0 0-.49-1.486 3.879 3.879 0 0 1-.74-1.259 5.722 5.722 0 0 0-.208-.27c-1.102-1.351-2.587-2.407-4.298-3.056a15.415 15.415 0 0 0-5.67-1.034 18.012 18.012 0 0 0-5.39.752 11.28 11.28 0 0 0-.981.344 73.018 73.018 0 0 0-.986 6.011 45.682 45.682 0 0 0-.179 1.625v.041h3.683a.234.234 0 0 1 0-.041c0-.102.017-.214.029-.325.011-.111.03-.285.051-.428a.462.462 0 0 1 0-.06c.04-.268.093-.54.159-.814.026-.113.054-.227.085-.343.125-.503.358-.978.685-1.4a1.4 1.4 0 0 1 .53-.421c.212-.098.448-.147.687-.142a1.5 1.5 0 0 1 .754.188c.227.126.41.308.526.525.303.494.503 1.034.593 1.593v.015c.05.293.087.561.111.799v.06c.021.214.033.417.033.589v.162l.005.041Zm100.219-61.555-.241 3.328-.102 1.407v.002l-.106 1.462v.002l-.395 5.429-6.501-5.773 4.259-3.397v-.002l.697-.554.688-.549 1.701-1.355Z"/><path fill="#fff" d="m153.056 64.162-.395.797c-1.238 4.91-5.859 3.683-8.505 2.118-1.167-.688-1.89-2.219-2.346-3.413-.65-1.726.709-4.497-4.902-7.375-3.412-1.75-1.654-4.099-.34-5.02-3.119-1.634-6.663-2.485-10.265-2.464-7.156 0-12.862 3.135-12.919 3.165a1.883 1.883 0 0 1-1.297.199l-14.045-2.814a9.562 9.562 0 0 0-.394 3.302c0 .396.038.812.083 1.242a23.814 23.814 0 0 0 .415 2.606c.403 1.875.956 3.72 1.654 5.523a1.454 1.454 0 0 1-.097 1.295c-2.076 3.538-.527 9.653-.51 9.715.017.062.024.105.033.159.019.132.04.263.064.394l3.241.751.881.204.884.214 3.884.901c.082.018.16.05.228.096a.613.613 0 0 1 .17.167.55.55 0 0 1 .086.214.515.515 0 0 1-.068.354.566.566 0 0 1-.213.358.676.676 0 0 1-.42.141l-5.276-.055-1.11-.013-1.13-.013h-.215l.064.16a16.836 16.836 0 0 0 .761 1.61c1.229 2.242 2.927 4.244 4.999 5.898a19.12 19.12 0 0 0 3.308 2.186h.023c5.143 2.53 10.532 3.812 16.018 3.812 9.705 0 16.937-3.979 18.921-5.197l.021-.013c.31-.184.473-.298.473-.298l.021-.015c4.321-2.916 7.163-6.248 8.489-9.95l-10.143.927h-.063a.684.684 0 0 1-.399-.126.575.575 0 0 1-.225-.324.536.536 0 0 1 .109-.741.646.646 0 0 1 .215-.115l11.12-3.56a.652.652 0 0 1 .22-.032c.016-.214.026-.428.033-.642.054-2.155-.332-4.3-1.141-6.328Zm-48.451-2.529-.626.74-.6.71-1.148 1.366-.914-5.053-.338-1.865-.314-1.741-.818-4.52 8.73 5.674-3.972 4.69Zm-1.067 14.133.044.011v-.01h-.044Zm-1.007-.01.995.01-.848-.199-.908-.214-2.213-.512c.073.3.158.596.248.883l1.654.017 1.072.015Z"/><path fill="#fff" d="M154.032 72.387a13.353 13.353 0 0 1-.322 1.527l-6.241.572 6.563-2.099Z"/><path fill="#000" d="m108.82 87.396.029.017.04.024.048.02-.117-.06Zm-.247-30.46-3.969 4.698-.626.738-.6.711-1.148 1.36-.914-5.053-.338-1.866-.314-1.74-.003-.003-.817-4.52 8.729 5.675Zm11.534 15.743a.929.929 0 0 1-.595-.213.771.771 0 0 1-.277-.522 6.312 6.312 0 0 0-.108-.773c-.473-2.276-2.552-3.212-4.409-3.126-1.682.077-3.726 1.021-3.945 3.426-.014.156-.014.248-.014.248a.741.741 0 0 1-.242.564.887.887 0 0 1-.279.177.95.95 0 0 1-.332.067h-.022a.92.92 0 0 1-.608-.224.756.756 0 0 1-.263-.545 3.225 3.225 0 0 1 .016-.428c.293-3.212 3.024-4.767 5.602-4.885 2.53-.115 5.561 1.219 6.215 4.42.063.313.107.629.133.946a.739.739 0 0 1-.206.58.87.87 0 0 1-.27.193.94.94 0 0 1-.33.084l-.066.01Zm23.106-.797a.928.928 0 0 1-.594-.212.763.763 0 0 1-.277-.522 6.123 6.123 0 0 0-.109-.773c-.472-2.279-2.551-3.212-4.408-3.127-1.683.075-3.726 1.022-3.946 3.427-.014.154-.014.246-.014.248a.754.754 0 0 1-.245.564.922.922 0 0 1-.613.243h-.021a.92.92 0 0 1-.609-.223.757.757 0 0 1-.263-.546 3.421 3.421 0 0 1 .017-.417c.293-3.212 3.024-4.769 5.601-4.887 2.535-.115 5.562 1.219 6.216 4.422.063.313.107.63.132.947a.71.71 0 0 1-.039.31.768.768 0 0 1-.167.27.865.865 0 0 1-.27.193.95.95 0 0 1-.331.083h-.06Zm-20.83 1.534c1.916-.615 5.266-1.285 8.379.126.158.071.295.173.404.298.108.125.184.27.223.426a.977.977 0 0 1-.001.471 1.025 1.025 0 0 1-.224.426l-1.963 2.195a3.178 3.178 0 0 1-1.061.77 3.505 3.505 0 0 1-2.656.084 3.237 3.237 0 0 1-1.117-.702l-2.457-2.379a1.026 1.026 0 0 1-.275-.455.953.953 0 0 1-.003-.519c.047-.17.14-.328.272-.457.131-.13.295-.227.479-.284Z"/><path fill="#000" d="M132.248 81.813h-.156c-3.48-.094-5.67-3.357-5.769-3.496a.73.73 0 0 1-.083-.591c.058-.2.2-.37.395-.476a.952.952 0 0 1 .649-.093.88.88 0 0 1 .537.344c.03.043 1.816 2.666 4.33 2.728 1.732.047 3.489-1.116 5.25-3.446a.816.816 0 0 1 .241-.228.963.963 0 0 1 .992-.002c.097.06.179.137.243.227a.734.734 0 0 1-.035.898c-2.072 2.744-4.291 4.135-6.594 4.135Z"/><path fill="#000" d="M121.04 81.859c-2.289 0-4.489-1.383-6.57-4.12a.736.736 0 0 1-.139-.593.79.79 0 0 1 .365-.509.946.946 0 0 1 .654-.126c.228.039.43.157.561.33 1.779 2.356 3.544 3.504 5.287 3.427 2.72-.116 4.657-3.212 4.676-3.24a.864.864 0 0 1 .524-.377.955.955 0 0 1 .665.07.809.809 0 0 1 .416.475.725.725 0 0 1-.077.603c-.097.158-2.419 3.89-6.114 4.051l-.248.009Z"/><path fill="#fff" d="M125.021 74.547c.917-.159 1.617-.495 1.564-.75-.054-.256-.842-.334-1.759-.175-.918.159-1.618.495-1.564.75.054.256.841.334 1.759.175Z"/><path fill="#000" d="m151.568 51.004-.241 3.328-.102 1.407v.002l-.106 1.462v.002l-.395 5.429-6.501-5.773 4.259-3.397v-.002l.697-.554.688-.549 1.701-1.355Z"/><path fill="#fff" d="m151.568 51.004-.241 3.328-.102 1.407v.002l-.106 1.462v.002l-.395 5.429-6.501-5.773 4.259-3.397v-.002l.697-.554.688-.549 1.701-1.355ZM111.763 111.7l.014.157h-3.594v-7.671c.217.083.421.192.605.324a5.408 5.408 0 0 1 1.678 2.01 11.7 11.7 0 0 1 1.044 3.185c.071.402.13.796.177 1.182.026.276.059.548.076.813Z"/><path fill="#fff" d="M127.431 112.649h-12.793v-.137c0-.214-.019-.428-.033-.655v-.157a20.058 20.058 0 0 0-.078-.813 21.965 21.965 0 0 0-.224-1.583 13.868 13.868 0 0 0-1.255-3.837 7.999 7.999 0 0 0-2.483-2.951c-1.057-.766-2.413-1.15-4.068-1.15h-1.127v11.283h-5.788c.024-.03.05-.062.073-.096l.029-.041c.153-.239.282-.491.385-.752 0-.019.016-.038.026-.06.097-.244.193-.516.29-.813.473-1.467.912-3.518 1.314-5.461.248-1.19.472-2.338.709-3.289.236-1.023.472-1.813.678-2.175a27.71 27.71 0 0 0 1.835-3.713h2.575c3.78 0 7.177.693 10.19 2.079 2.643 1.185 4.911 2.96 6.591 5.157 1.679 2.198 2.715 4.746 3.01 7.406.035.268.064.54.087.814 0 .051 0 .105.012.156.017.214.029.428.038.655l.007.133Z"/><path fill="#fff" d="M155.504 103.208a4.097 4.097 0 0 0-.685.709c-.055-.048-.111-.09-.168-.133a10.443 10.443 0 0 0-3.338-1.7 19.078 19.078 0 0 0-5.649-.803 41.65 41.65 0 0 0-5.273.357c-1.94.246-3.837.718-5.644 1.405-1.927.723-3.63 1.862-4.961 3.317-.19.204-.367.419-.529.642a16.933 16.933 0 0 0-2.044-4.1c-1.996-2.934-4.853-5.307-8.252-6.853-3.395-1.563-7.253-2.355-11.468-2.355h-.829c.461-1.766.651-3.58.567-5.392.212.153.433.296.662.428l.018.01.034.02c.07.04.142.075.217.107 6.142 3.013 12.004 4.069 17.206 4.069 9.582 0 16.934-3.591 19.72-5.182.267.529.472 1.045.668 1.548.584 1.482 1.134 2.882 3.055 3.897 2.573 1.36 4.635 4.568 6.126 8.456.213.525.394 1.028.567 1.553Zm2.255 5.152-.035-.028c0 .035-.019.069-.026.101 0-.053-.026-.105-.04-.156l-.08-.067-.024-.019a2.289 2.289 0 0 1-.518-.608l-.054.047c0-.032.014-.064.024-.098a1.931 1.931 0 0 1-.236-.833v-.114c-.001-.139.01-.278.033-.415.035-.255.128-.501.274-.722.066.251.132.499.191.747 0 .022.012.041.017.062.075.3.146.6.212.9.076.317.144.631.206.946.014.056.026.112.035.165l.021.092Z"/><path fill="#fff" d="M155.141 110.879v1.771h-11.252v-3.15a4.155 4.155 0 0 0-.267-1.332c-.177-.506-.536-.758-1.078-.758-.541 0-.867.195-.975.586a3.628 3.628 0 0 0-.189 1.114v.963c.002.273-.019.545-.062.814-.039.278-.11.55-.212.814-.019.053-.041.105-.062.156a3.097 3.097 0 0 1-.505.793h-9.358a2.69 2.69 0 0 1-.314-.793 1.044 1.044 0 0 1-.038-.156 4.21 4.21 0 0 1-.083-.814v-.077c0-.521.117-1.037.343-1.516a4.99 4.99 0 0 1 .874-1.31 9.968 9.968 0 0 1 3.879-2.596 21.433 21.433 0 0 1 4.942-1.229 38.426 38.426 0 0 1 4.879-.334c1.609-.016 3.211.21 4.739.668 1.372.402 2.575 1.176 3.447 2.216.021.026.045.054.064.082l.035-.12v.171a4.353 4.353 0 0 0 .827 2.296c.079.108.164.215.255.321.024.143.043.285.057.428.038.326.054.651.054.992Z"/><path fill="#000" d="M130.855 111.856a2.685 2.685 0 0 0 .315.793c.187.313.45.584.77.792h7.56l.092-.047a3.312 3.312 0 0 0 1.07-.882 3.13 3.13 0 0 0 .392-.656h-10.199Zm13.032 0v1.585h11.252v-1.585h-11.252Zm14.749-3.531a35.994 35.994 0 0 0-.196-.944c-.071-.315-.147-.664-.236-.996 0-.043-.022-.087-.034-.13a28.54 28.54 0 0 0-.224-.883 18.795 18.795 0 0 0-.146-.543 1.864 1.864 0 0 0-.286.171 1.675 1.675 0 0 0-.454.447 1.751 1.751 0 0 0-.274.722 2.629 2.629 0 0 0-.033.415v.114c.014.289.095.573.236.833 0 .034-.016.066-.023.098l.054-.047c.133.228.308.434.517.608l.024.02.08.066c.014.052.029.103.04.156 0-.032.017-.066.026-.1l.036.028c.236.192.482.381.737.565l.302.214c-.026-.268-.089-.54-.146-.814Zm-31.211 4.324v-.137c0-.214-.021-.439-.038-.656h-12.793c.014.215.026.439.033.656v.929h12.803v-.06c.007-.246.002-.49-.005-.732Zm-26.46-.793c.012-.032.024-.064.038-.096l.021-.06c.092-.248.184-.52.276-.814a33 33 0 0 0 .546-2.042c.236-.992.473-2.116.735-3.349l.078-.369c.205-.989.423-2.041.631-2.916.21-.887.408-1.593.569-1.87a27.969 27.969 0 0 0 1.977-4.096h-1.861a26.899 26.899 0 0 1-1.675 3.34c-.052.09-.097.18-.137.275-.279.72-.494 1.459-.645 2.209-.18.763-.373 1.681-.593 2.754-.411 1.983-.945 4.497-1.46 6.06a7.91 7.91 0 0 1-.32.814l-.027.06a2.12 2.12 0 0 1-.25.415.734.734 0 0 0-.16.336.118.118 0 0 0 0 .041.747.747 0 0 0 .088.452.83.83 0 0 0 .369.34.931.931 0 0 0 .413.097h5.786v-1.585l-4.399.004ZM92.22 52.477c-4.411-5.353-23.141-5.154-23.141-5.154-11.813-.45-7.685 6.97-7.685 6.97 3.758 7.203 8.977 10.906 11.257 12.265.052.033.106.063.16.09a.658.658 0 0 0-.063.163l-1.869 7.454c-1.051.285-3.78.857-5.474-.34-1.297-.919-1.774-2.76-1.417-5.474a.74.74 0 0 0-.182-.583.94.94 0 0 0-1.228-.132c-.182.13-.3.32-.327.53-.434 3.305.267 5.63 2.084 6.911 1.146.81 2.544 1.056 3.832 1.056a12.869 12.869 0 0 0 3.307-.473c.83.762 2.866 2.39 5.162 2.39.257 0 .513-.02.766-.063 1.992-.33 3.555-1.927 4.647-4.71a.726.726 0 0 0-.036-.608.806.806 0 0 0-.205-.248.9.9 0 0 0-.294-.158.959.959 0 0 0-.67.032.877.877 0 0 0-.274.186.783.783 0 0 0-.175.267c-.867 2.224-1.98 3.464-3.307 3.687-1.72.29-3.676-1.203-4.489-1.994l1.845-7.372a.118.118 0 0 0 0-.028c.24.023.482.028.723.013 9.922-.563 15.427-7.63 17.246-10.454a3.561 3.561 0 0 0 .603-2.138 3.612 3.612 0 0 0-.797-2.085Zm-23.153-.428c-2.877.308-5.304-.152-5.417-1.028-.114-.876 2.126-1.835 5.004-2.142 2.877-.306 5.296.153 5.412 1.01.116.856-2.124 1.843-5.001 2.151l.002.009Zm34.521 23.726v.01l-.045-.01h.045Z"/><path fill="#000" d="M190.271 103.056a5.937 5.937 0 0 0-3.572-1.097h-7.402a6.125 6.125 0 0 0-3.232.857 6.197 6.197 0 0 0-3.232-.857h-11.104c1.668-4.496 1.694-9.636 1.418-13.214-.153-1.404-.841-2.717-1.944-3.713.019-8.692-2.164-17.272-6.379-25.08 1.16-6.177-.896-12.6-.896-12.6l-.385.08-6.662 1.386a61.992 61.992 0 0 0-4.106-4.092c-5.277-4.799-11.454-8.706-18.243-11.54.059-3.189-2.651-7.234-5.089-10.217-1.336-1.65-3.201-2.885-5.342-3.537a12.03 12.03 0 0 0-6.615-.103c-5.821 1.608-10.69 5.568-13.938 8.857a68.497 68.497 0 0 0-13.285 2.205 52.366 52.366 0 0 0-3.484-.428 17.35 17.35 0 0 0-1.654-.077c-.951-.001-1.9.08-2.835.244-.045-1.724-.815-19.533-12.346-27.987A11.45 11.45 0 0 0 54.847.117a11.92 11.92 0 0 0-5.535.527c-7.933 2.694-21.735 8.818-12.868 16.68 0 0 10.029 11.119 19.068-6.153l1.51-1.977s10.035 15.212 8.367 23.949c-2.809 2.075-4.926 4.844-6.457 7.415-7.337 5.35-13.26 12.121-17.332 19.818-4.073 7.696-6.191 16.12-6.2 24.656 0 1.713.09 4.002.267 6.565a124.543 124.543 0 0 1-1.789-5.66.799.799 0 0 0-.356-.455.946.946 0 0 0-.6-.13.905.905 0 0 0-.544.26.752.752 0 0 0-.22.523 43.433 43.433 0 0 0 1.418 11.09 14.938 14.938 0 0 0-.971-.557 24.043 24.043 0 0 0-6.643-2.3 36.351 36.351 0 0 0-6.942-.678H5.833a6.55 6.55 0 0 0-3.943 1.167c-.862.63-1.89 1.811-1.89 3.886 0 1.36.378 2.475 1.127 3.321a6.988 6.988 0 0 0 1.954 1.542c.11.06.216.125.316.197v16.626c-.1.07-.206.135-.316.192-.76.409-1.43.944-1.973 1.576-.735.857-1.108 1.97-1.108 3.334 0 2.075 1.028 3.259 1.89 3.887 1.124.794 2.518 1.208 3.943 1.171h13.891c1.564 0 2.895-.39 3.953-1.158.858-.621 1.89-1.803 1.89-3.9 0-1.511-.473-2.713-1.434-3.576a6.983 6.983 0 0 0-1.165-.856 27.922 27.922 0 0 0 5.786-.623 17.814 17.814 0 0 0 5.455-2.127l.094-.06a13.51 13.51 0 0 0 2.009 5.996c1.375 2.188 3.405 3.979 5.854 5.167 2.433 1.195 5.247 1.801 8.36 1.801a20.295 20.295 0 0 0 4.86-.608 17.372 17.372 0 0 0 4.643-1.87 11.452 11.452 0 0 0 3.702-3.404c.273-.4.51-.819.708-1.253.525 1.998 1.58 3.585 3.161 4.741 2.172 1.589 5.066 2.394 8.602 2.394a15.645 15.645 0 0 0 5.777-1.126 13.114 13.114 0 0 0 4.725-3.15c.251.978.86 1.849 1.729 2.473 1.063.76 2.39 1.146 3.948 1.146h17.546a24.722 24.722 0 0 0 10.055-2.018c2.848-1.237 5.296-3.12 7.106-5.466.027 1.568.566 3.093 1.55 4.383.99 1.268 2.347 2.263 3.922 2.876 1.52.595 3.16.898 4.817.888a16.998 16.998 0 0 0 5.367-.903 11.41 11.41 0 0 0 2.285-1.041 8.644 8.644 0 0 0 1.838.977 13.56 13.56 0 0 0 4.961.967 11.851 11.851 0 0 0 2.71-.316 10.81 10.81 0 0 1-.054-1.09v-.215c.009-.465.063-.93.16-1.387a8.969 8.969 0 0 1-2.821.465 10.515 10.515 0 0 1-3.841-.759 4.888 4.888 0 0 1-1.599-.932 4.361 4.361 0 0 1-1.073-1.423c-.885 1.103-2.122 1.933-3.544 2.377a13.852 13.852 0 0 1-4.396.747 9.951 9.951 0 0 1-3.688-.676 6.38 6.38 0 0 1-2.75-2.011c-.695-.888-1.041-1.976-1.04-3.264 0-1.409.363-2.583 1.089-3.524a7.932 7.932 0 0 1 2.852-2.274 14.272 14.272 0 0 1 3.815-1.229 22.261 22.261 0 0 1 3.953-.369h1.141c.383.008.764.043 1.141.105v-5.974a4.102 4.102 0 0 0-.267-1.332c-.176-.505-.535-.758-1.077-.758-.542 0-.867.195-.976.587a3.652 3.652 0 0 0-.189 1.113v.964c.002.272-.019.544-.061.813-.039.278-.11.55-.213.814-.019.054-.04.105-.061.156a3.134 3.134 0 0 1-.506.793 3.299 3.299 0 0 1-.957.745l-.092.047a8.673 8.673 0 0 1-4.016.906 6.835 6.835 0 0 1-3.345-.782 1.91 1.91 0 0 1-.204-.124 2.465 2.465 0 0 1-.848-.929 2.739 2.739 0 0 1-.236-.656 1.183 1.183 0 0 1-.038-.156 4.124 4.124 0 0 1-.082-.814v-.077a3.533 3.533 0 0 1 .342-1.516 5.04 5.04 0 0 1 .874-1.31 9.964 9.964 0 0 1 3.912-2.606 21.39 21.39 0 0 1 4.943-1.229 38.227 38.227 0 0 1 4.878-.334c1.61-.017 3.211.209 4.74.668 1.372.402 2.575 1.175 3.446 2.216.022.026.045.053.064.081l.036-.12v.172a4.23 4.23 0 0 0 .366 1.499 4.379 4.379 0 0 0 .716 1.117 9.355 9.355 0 0 1 .106 1.407v10.591c-.005.242.065.481.203.688a.724.724 0 0 0 .297.236c.12.053.255.075.388.064a.984.984 0 0 0 .645-.215.991.991 0 0 1 .648-.214 1.38 1.38 0 0 1 .614.104c.193.08.36.203.486.357.216.27.343.59.364.923.152-.056.312-.103.473-.148h.033a8.13 8.13 0 0 1 .865-.176l.3-.036.179-.017a.431.431 0 0 1 .088 0c.085 0 .172-.013.262-.017.158 0 .321-.013.486-.013h.093a4.09 4.09 0 0 0-.863-2 3.893 3.893 0 0 0-1.204-.999 4.282 4.282 0 0 0-1.543-.479v-6.073h.472a.935.935 0 0 0 .473-.122l5.939 10.399a7.305 7.305 0 0 0-3.258-.737c.027.192.04.385.04.578.001.234-.012.468-.037.7-.04.436-.128.866-.263 1.285h.168c.815-.03 1.62.179 2.294.595a5.43 5.43 0 0 1 1.495 1.472c.389.568.745 1.155 1.066 1.758.267.52.589 1.017.961 1.481.132.181.311.33.521.435.21.104.445.16.684.163.307.004.61-.066.877-.204.267-.137.489-.337.642-.578.386-.543.709-1.12.964-1.723l-10.314-18.056a4.195 4.195 0 0 0-1.394-1.414 11.445 11.445 0 0 1-.473-.321l-.302-.214a16.054 16.054 0 0 1-.737-.565l-.036-.028c0 .034-.019.068-.026.101 0-.054-.026-.105-.04-.157l-.08-.066-.024-.019a2.323 2.323 0 0 1-.517-.609l-.054.048c0-.033.014-.065.023-.099a1.941 1.941 0 0 1-.236-.833v-.113c0-.139.011-.278.033-.416.035-.255.129-.501.274-.721a1.645 1.645 0 0 1 .454-.448 2.658 2.658 0 0 1 .973-.409h.021a3.89 3.89 0 0 1 .754-.071h13.558a3.04 3.04 0 0 1 1.8.506c.473.338.709.856.709 1.539 0 .613-.152 1.065-.456 1.356a2.97 2.97 0 0 1-1.051.655 6.716 6.716 0 0 0-1.051.482.941.941 0 0 0-.352.351.827.827 0 0 0-.104.465c.004.436.084.87.236 1.284.151.426.338.84.557 1.24l3.424 6.215 3.118-5.881a4.575 4.575 0 0 0 .532-2.16c0-.643-.173-1.087-.52-1.332a4.11 4.11 0 0 0-1.181-.574 3.452 3.452 0 0 1-1.181-.632c-.349-.285-.522-.785-.52-1.499 0-.689.236-1.197.723-1.526a3.08 3.08 0 0 1 1.786-.495h7.401a2.928 2.928 0 0 1 1.787.518c.472.346.704.862.696 1.55 0 .536-.111.93-.328 1.182a8.265 8.265 0 0 1-.945.885 11.314 11.314 0 0 0-1.654 1.642 13.58 13.58 0 0 0-1.181 1.942l-6.894 13.187c-.63 1.195-1.293 2.47-1.989 3.824a25.231 25.231 0 0 1-2.421 3.814 11.598 11.598 0 0 1-3.287 2.899c-1.26.758-2.772 1.138-4.536 1.14a10.965 10.965 0 0 1-4.396-.857c-1.279-.542-2.36-1.403-3.119-2.482-.756-1.07-1.139-2.355-1.15-3.854-.377.195-.765.37-1.165.522l-.222.084c-.45.162-.911.299-1.38.409a8.653 8.653 0 0 0 1.771 4.527c1.023 1.34 2.421 2.409 4.05 3.098a14.037 14.037 0 0 0 5.611 1.099c2.311 0 4.359-.525 6.088-1.559a14.341 14.341 0 0 0 4.031-3.589 27.933 27.933 0 0 0 2.66-4.191c.69-1.332 1.356-2.614 1.985-3.813l6.893-13.187c.269-.546.585-1.073.945-1.574a8.487 8.487 0 0 1 1.25-1.227c.447-.363.861-.757 1.238-1.18.621-.715.945-1.644.945-2.764 0-1.844-.94-2.936-1.729-3.516Zm-34.819-28.908c.821-3.276.65-6.692-.496-9.887 2.786 6.222 4.293 12.854 4.446 19.568a5.617 5.617 0 0 0-.756-.28c-1.417-.419-4.212-.663-7.087 2.404-.059.067-.11.138-.154.214-1.793 2.805 0 4.857 1.089 6.081.111.127.218.249.315.364 1.167 1.397 1.793 3.075 2.064 4.82-1.384-2.475-3.099-4.475-5.166-5.567-1.371-.724-1.756-1.713-2.29-3.062a17.048 17.048 0 0 0-.869-1.95 2.163 2.163 0 0 0-.473-.622c5.434-3.706 8.054-7.709 9.174-11.349a.587.587 0 0 0 .206-.23.526.526 0 0 0 .052-.295.517.517 0 0 0-.055-.21Zm-1.732-.234-6.241.572 6.563-2.099a13.592 13.592 0 0 1-.331 1.527h.009Zm-.654-9.752a15.951 15.951 0 0 1 1.148 6.339c0 .214-.016.428-.033.642a.656.656 0 0 0-.22.032l-11.12 3.56a.65.65 0 0 0-.214.115.577.577 0 0 0-.15.18.531.531 0 0 0 .041.56.575.575 0 0 0 .225.324.683.683 0 0 0 .398.127h.064l10.142-.928c-1.325 3.703-4.167 7.035-8.488 9.951l-.021.015s-.164.114-.473.298l-.021.013c-1.985 1.218-9.214 5.197-18.921 5.197-5.486 0-10.868-1.285-16.018-3.812h-.024a19.118 19.118 0 0 1-3.307-2.186c-2.081-1.656-3.785-3.663-5.018-5.91a16.473 16.473 0 0 1-.761-1.61l-.064-.161h.215l1.129.013 1.111.012 5.275.056c.155 0 .304-.05.421-.141a.561.561 0 0 0 .212-.358.515.515 0 0 0 .069-.354.55.55 0 0 0-.086-.214.611.611 0 0 0-.17-.167.678.678 0 0 0-.228-.096l-3.884-.901-.884-.214-.879-.201-3.236-.752a9.807 9.807 0 0 1-.064-.394c0-.054-.019-.107-.033-.159-.014-.051-1.567-6.177.51-9.715a1.456 1.456 0 0 0 .097-1.295 36.456 36.456 0 0 1-1.654-5.523c-.09-.428-.17-.857-.236-1.257a21.68 21.68 0 0 1-.18-1.349c-.042-.432-.07-.846-.082-1.242a9.56 9.56 0 0 1 .39-3.302l14.03 2.814a1.882 1.882 0 0 0 1.297-.2c.057-.03 5.763-3.164 12.919-3.164 3.601-.02 7.144.83 10.262 2.465-1.311.92-3.071 3.27.34 5.019 5.611 2.882 4.253 5.649 4.903 7.375.448 1.194 1.181 2.725 2.346 3.413 2.655 1.565 7.276 2.784 8.505-2.118l.42-.797Zm-44.122 23.296-.047-.02-.04-.023-.029-.017.116.06Zm-9.389-12.606 2.214.512.907.214.849.2-.995-.012-1.08-.012-1.654-.017c-.082-.29-.167-.58-.24-.885Zm4.029.934-.045-.011h.052s-.007.006-.007.01Zm-3.837 4.081a21.49 21.49 0 0 0 5.148 5.9c.168.134.335.265.496.39a.727.727 0 0 0-.069.365l.05.489a16.958 16.958 0 0 1-.51 6.678h-3.348a56.481 56.481 0 0 0-4.912-11.432 29.982 29.982 0 0 0 3.145-2.39Zm48.738-26.403.709-.554.687-.548 1.701-1.356-.236 3.328-.101 1.407-.107 1.462-.411 5.43-6.501-5.781 4.259-3.388Zm-39.279-28.811.133 1.914c-.09.818-.143 1.583-.159 2.295a69.678 69.678 0 0 0-6.227-.69 60.965 60.965 0 0 1 6.253-3.52Zm-8.483 5.034c2.853.1 5.695.382 8.505.843.675 10.504 10.354 7.375 10.354 7.375 2.599-.559 4.017-1.648 4.621-3.04 7.885 3.36 14.891 8.202 20.554 14.203l.147.154-6.337 1.309-.122-.071c-3.612-2.137-7.838-3.263-12.151-3.238-7.782 0-13.837 3.403-13.837 3.403l-15.42-3.092c-.666 1-.997 2.261-1.1 3.627l-.22-.177a4.25 4.25 0 0 0-.25-.197c.039-.184.068-.369.087-.555.126-1.096.137-2.2.03-3.298-.361-4.426-1.954-9.347-1.954-9.347s0-.032-.026-.092c1.056-2.843 4.04-5.593 7.119-7.807Zm-8.822.261c-1.394 1.57-2.294 2.794-2.599 3.225a23.27 23.27 0 0 0-5.247-2.004 65.814 65.814 0 0 1 7.846-1.22ZM57.051 44.21a30.013 30.013 0 0 0-1.365 3.538 24.899 24.899 0 0 0-4.585 2.141 58.528 58.528 0 0 1 5.94-5.679h.01ZM44.94 61.023c1.125-5.548 4.962-9.514 11.385-11.788a1.77 1.77 0 0 0 .669-.421c.183-.186.316-.409.387-.65a32.908 32.908 0 0 1 2.835-6.424c.35-.612.735-1.24 1.16-1.867a26.218 26.218 0 0 1 1.427-1.934c3.485-4.301 7.622-6.48 12.32-6.48.45 0 .908.022 1.368.06h.105c.677.063 1.327.136 1.946.215.688.09 1.342.188 1.959.295 4.814.833 7.572 2.172 9.102 3.253 1.834 1.285 2.25 2.422 2.304 2.598.007.045.02.09.038.132.014.047 1.542 4.808 1.89 9.013v.015c.098.994.091 1.995-.022 2.988a.201.201 0 0 0 0 .036c-.014.14-.037.272-.063.396a1.41 1.41 0 0 0 .066.862c.112.276.309.517.567.695l.146.118.03.025c.287.23.771.626 1.376 1.167.297 4.51 2.228 9.242 2.228 9.242-2.15 3.66-1.012 9.347-.728 10.583l-.68-.159a.706.706 0 0 0-.486.064.624.624 0 0 0-.186.151.528.528 0 0 0-.038.645.61.61 0 0 0 .167.169.674.674 0 0 0 .226.098l1.23.285c.09.445.196.879.317 1.302l-1.816-.02a.672.672 0 0 0-.43.182.554.554 0 0 0-.174.4c0 .148.063.29.175.399a.672.672 0 0 0 .429.182l2.206.024c.18.505.38.993.598 1.462a27.886 27.886 0 0 1-3.388 2.636c-5.01 3.321-10.867 5.004-17.411 5.004a41.34 41.34 0 0 1-5.224-.342c-.442-.069-10.518-1.651-18.465-6.133-5.294-2.985-8.418-6.548-9.282-10.593 0-.041-.02-.082-.033-.122a17.591 17.591 0 0 1-.23-7.763Zm-1.814.214a18.988 18.988 0 0 0 .345 7.98c1.1 5.138 5.242 8.911 10.076 11.635-1.538.386-6.438 9.673-9.254 21.379a15.377 15.377 0 0 0-2.878 1.287c-.616-.509-1.74-1.91-3.392-5.73-.553-4.89-.83-9.743-.83-12.752-.011-8.235 2.016-16.368 5.933-23.799Zm-4.356 41.725c-.022-.03-.04-.063-.062-.095v-.068c.026.053.052.109.073.165.343.537.748 1.04 1.21 1.499a9.095 9.095 0 0 0-.548.428 11.486 11.486 0 0 0-.673-1.929Zm-3.57-7.564c.371.979.725 1.861 1.063 2.656.44 1.034.85 1.927 1.238 2.687.036.075.076.148.114.214-.033-.047-.066-.094-.104-.139a13.339 13.339 0 0 0-1.564-1.78 40.635 40.635 0 0 1-1.34-5.252c.184.544.383 1.073.593 1.614Zm1 13.292a15.136 15.136 0 0 0-1.89 6.285 9.675 9.675 0 0 1-1.654 1.256 14.854 14.854 0 0 1-4.55 1.769 24.798 24.798 0 0 1-5.273.551c-1.388 0-2.772-.13-4.13-.39v2.355c0 .735.2 1.264.607 1.585.422.331.901.599 1.418.792a4.5 4.5 0 0 1 1.417.857c.403.368.606.958.607 1.771 0 .872-.275 1.507-.824 1.905-.55.399-1.285.606-2.204.621H5.832a3.614 3.614 0 0 1-2.178-.608c-.558-.407-.837-1.038-.837-1.895 0-.781.169-1.367.506-1.758a4.117 4.117 0 0 1 1.193-.953 5.49 5.49 0 0 0 1.181-.856c.337-.323.506-.805.506-1.448v-16.773c0-.657-.169-1.151-.506-1.482a5.268 5.268 0 0 0-1.18-.856 4.23 4.23 0 0 1-1.194-.943c-.337-.384-.506-.958-.506-1.723 0-.857.28-1.489.837-1.895a3.625 3.625 0 0 1 2.178-.609h13.18c2.135.003 4.264.211 6.35.621a21.084 21.084 0 0 1 5.822 2.005c1.687.88 3.113 2.117 4.158 3.606.024.034.05.068.073.105a8.652 8.652 0 0 1 1.229 2.698c.189.717.304 1.449.342 2.186-.287.395-.552.802-.794 1.221h.008Zm26.341 4.655c-.094 1.122-.53 1.992-1.309 2.61-.888.705-2.058 1.057-3.51 1.056h-10.22c.347 1.259 1.065 2.409 2.076 3.328.997.895 2.434 1.342 4.31 1.342a6.125 6.125 0 0 0 2.218-.428 14.248 14.248 0 0 0 2.079-1c.65-.383 1.219-.715 1.71-1 .492-.285.86-.428 1.115-.428.208-.015.416.021.603.103.187.083.346.21.46.368.223.32.338.692.331 1.07a6.323 6.323 0 0 1-1.077 3.664 8.748 8.748 0 0 1-2.835 2.608 14.442 14.442 0 0 1-3.85 1.551 17.182 17.182 0 0 1-4.121.516c-2.654 0-4.994-.5-7.019-1.499-1.99-.96-3.64-2.411-4.758-4.186-1.142-1.802-1.712-3.92-1.71-6.354 0-.227.004-.452.014-.674.032-1.046.178-2.087.434-3.107.162-.642.377-1.272.643-1.885.109-.253.227-.499.354-.739.069-.132.14-.265.215-.394.12-.214.237-.415.38-.614l.029-.045c.156-.236.321-.463.491-.683.064-.077.126-.154.19-.229a8.842 8.842 0 0 1 .38-.439 11.17 11.17 0 0 1 2.041-1.735 11.522 11.522 0 0 1 1.266-.745l.142-.071c.144-.072.286-.141.435-.214.149-.073.35-.154.527-.214.319-.126.645-.242.98-.345 1.739-.52 3.56-.774 5.391-.751a15.415 15.415 0 0 1 5.67 1.034c1.71.649 3.195 1.704 4.298 3.056.073.09.141.177.208.269.16.457.41.884.739 1.26.219.479.383.977.491 1.486.06.263.107.535.14.813v.06a9.592 9.592 0 0 1 .052.793v.302c.011.169.004.331-.01.49h.007Zm1.512 4.103a3.023 3.023 0 0 0-.253-.236 4.77 4.77 0 0 0 .253-.3v.536Zm20.66 7.709a10.217 10.217 0 0 1-3.865 2.618c-1.462.597-3.046.91-4.65.919-2.89 0-5.166-.609-6.83-1.826-1.662-1.218-2.5-3.202-2.51-5.951v-10.03c0-.643-.168-1.118-.473-1.433a4.107 4.107 0 0 0-1.115-.792 4.67 4.67 0 0 1-1.016-.668 7.952 7.952 0 0 0-.52-.885 2.635 2.635 0 0 1-.056-.567 1.66 1.66 0 0 1 .173-.82c.128-.257.32-.484.561-.662a2.843 2.843 0 0 1 1.725-.54h1.139c.491 0 .977-.225 1.457-.676a12.456 12.456 0 0 0 1.472-1.69 46.014 46.014 0 0 1 1.571-2.008 9.469 9.469 0 0 1 1.76-1.68 3.447 3.447 0 0 1 2.053-.676c.846 0 1.505.214 1.978.643.472.428.709 1.027.709 1.792v4.289h5.752a3.14 3.14 0 0 1 1.654.413c.455.277.683.737.685 1.379 0 .857-.3 1.508-.9 1.953a5.035 5.035 0 0 1-2.166.885c-.786.138-1.584.21-2.384.214h-2.646v9.096a4.84 4.84 0 0 0 .472 2.127c.315.666.975.999 1.978.997a2.755 2.755 0 0 0 1.687-.516c.463-.345.901-.686 1.316-1.021a2.07 2.07 0 0 1 1.332-.508c.206-.007.41.046.578.153.17.107.296.261.36.438.163.325.254.676.267 1.033.027 1.462-.524 2.885-1.555 4.01l.007-.01Zm3.88-6.033a3.465 3.465 0 0 0-1.393-1.569 4.005 4.005 0 0 0-2.13-.572c-1.193.008-2.34.421-3.213 1.159-.236.194-.489.391-.749.591a2.633 2.633 0 0 1-.014-.277v-6.541a16.914 16.914 0 0 0 2.339-.2l.102-.015.288-.047a8.34 8.34 0 0 0 2.362-.766 7.39 7.39 0 0 0 1.059-.643c.88-.655 1.934-1.867 1.934-3.931 0-2.028-1.216-3.067-1.94-3.503a6.115 6.115 0 0 0-3.21-.844h-2.941v-1.756c0-1.822-.834-2.962-1.533-3.597-.7-.636-1.959-1.392-3.972-1.392-1.388.005-2.732.44-3.808 1.235a12.156 12.156 0 0 0-2.263 2.141 49.02 49.02 0 0 0-1.654 2.116c-.315.435-.666.848-1.051 1.234h-.676a5.865 5.865 0 0 0-3.496 1.109 4.33 4.33 0 0 0-1.288 1.467 13.688 13.688 0 0 0-3.62-2.069 18.566 18.566 0 0 0-6.777-1.242 22.41 22.41 0 0 0-4.725.478 86.08 86.08 0 0 1 2.877-9.208c1.916-5.069 3.74-8.351 4.725-9.664 8.446 4.403 18.149 5.865 18.576 5.927h.033c1.901.248 3.819.374 5.739.377 6.577 0 12.545-1.533 17.77-4.559a56.696 56.696 0 0 1 3.752 9.126h-7.31c-1.422-.032-2.813.38-3.94 1.168-.874.627-1.918 1.813-1.918 3.897 0 1.396.401 2.537 1.193 3.39a7.128 7.128 0 0 0 2.034 1.522c.11.056.218.117.321.184v16.555a3.588 3.588 0 0 1-.354.214c-.226.11-.445.231-.657.362a4.856 4.856 0 0 0-.472-1.857Zm38.853-5.683c-.009 3.024-.797 5.623-2.362 7.797-1.557 2.179-3.751 3.925-6.337 5.043a21.579 21.579 0 0 1-8.821 1.766h-17.54a3.715 3.715 0 0 1-2.204-.597c-.557-.398-.836-1.034-.836-1.906 0-.796.177-1.387.532-1.771a4.49 4.49 0 0 1 1.242-.94 6.116 6.116 0 0 0 1.24-.839c.358-.313.535-.801.535-1.458v-16.78c0-.672-.177-1.171-.534-1.499a5.546 5.546 0 0 0-1.24-.839 4.293 4.293 0 0 1-1.243-.93c-.355-.382-.532-.965-.532-1.747 0-.857.283-1.488.848-1.895a3.69 3.69 0 0 1 2.193-.608h15.106c3.78 0 7.176.693 10.189 2.079 2.644 1.185 4.911 2.96 6.591 5.158 1.679 2.197 2.715 4.745 3.01 7.405.036.268.064.54.088.814 0 .051 0 .105.011.156.017.214.029.429.038.656v.869l.026.066Zm2.58 2.904c.052-.308.095-.619.13-.936.174.123.355.237.543.341l.04.021a8.753 8.753 0 0 0-.72.574h.007Zm24.806-12.437a10.443 10.443 0 0 0-3.506-1.833 19.098 19.098 0 0 0-5.663-.794 41.86 41.86 0 0 0-5.273.357c-1.94.246-3.837.718-5.644 1.405-1.927.723-3.63 1.862-4.961 3.317-.19.204-.367.419-.529.642a16.933 16.933 0 0 0-2.044-4.1c-1.996-2.934-4.853-5.307-8.252-6.853-3.395-1.563-7.253-2.355-11.467-2.355h-.83c.461-1.766.652-3.58.567-5.392.212.153.433.296.662.428l.019.01.033.02c.07.04.142.075.217.107 6.143 3.013 12.004 4.069 17.206 4.069 9.582 0 16.935-3.591 19.72-5.182.267.529.472 1.045.669 1.548.583 1.482 1.134 2.882 3.054 3.897 2.573 1.36 4.635 4.568 6.126 8.456.196.497.378 1 .551 1.516a4.123 4.123 0 0 0-.669.737h.014Zm5.072-1.949h-.963a6.614 6.614 0 0 0-.912.105c-.334.061-.661.15-.976.266-.095-.276-.194-.55-.295-.822.274-3.332-.173-7.033-2.54-9.864-.104-.126-.22-.256-.343-.396-1.209-1.374-2.048-2.57-.945-4.297v-.013c1.654-1.745 3.433-2.398 5.167-1.885.473.142.916.355 1.309.632a4.9 4.9 0 0 1 .884.788c.362.408.65.865.852 1.356.141.33.229.677.26 1.03.284 3.56.258 8.747-1.512 13.1h.014Zm17.462 9.054a2.234 2.234 0 0 1-.218.625l-.63 1.189-.875-1.578a6.782 6.782 0 0 1-.25-.514c.225-.107.442-.226.65-.358.406.259.846.472 1.309.636h.014Z"/><path fill="#000" d="M103.588 75.775v.01l-.045-.01h.045Zm-37.914-8.75c.361 0 .654-.265.654-.593 0-.327-.293-.593-.654-.593-.362 0-.655.266-.655.593 0 .328.293.593.655.593Zm-3.352-2.392c.362 0 .655-.265.655-.593 0-.327-.293-.593-.655-.593-.361 0-.654.266-.654.593 0 .328.293.593.654.593Zm2.211 5.613c.362 0 .655-.265.655-.593 0-.328-.293-.593-.655-.593-.361 0-.654.266-.654.593 0 .328.293.593.654.593Zm12.907 2.043c.361 0 .654-.266.654-.593 0-.328-.293-.594-.654-.594-.362 0-.655.266-.655.594 0 .327.293.593.655.593Zm2.34-3.479c.36 0 .654-.266.654-.594 0-.327-.293-.593-.655-.593-.361 0-.654.266-.654.593 0 .328.293.593.654.593Zm-3.61.813c.361 0 .654-.266.654-.593 0-.328-.293-.594-.654-.594-.361 0-.654.266-.654.594 0 .327.293.593.654.593Z"/><path fill="#fff" d="M36.984 107.469a13.87 13.87 0 0 0-.789 1.221 15.136 15.136 0 0 0-1.89 6.285 9.73 9.73 0 0 1-1.654 1.257 14.876 14.876 0 0 1-4.55 1.768 24.8 24.8 0 0 1-5.273.551 21.885 21.885 0 0 1-4.13-.39v2.355c0 .735.201 1.264.608 1.585.422.331.9.599 1.417.792a4.52 4.52 0 0 1 1.418.857c.403.368.605.958.607 1.771 0 .872-.275 1.507-.825 1.905-.55.399-1.282.606-2.197.621H5.835a3.614 3.614 0 0 1-2.178-.608c-.558-.407-.837-1.038-.837-1.895 0-.781.169-1.367.506-1.758a4.117 4.117 0 0 1 1.193-.953 5.49 5.49 0 0 0 1.181-.856c.337-.323.506-.805.506-1.448v-16.773c0-.657-.169-1.151-.506-1.482a5.268 5.268 0 0 0-1.181-.856 4.226 4.226 0 0 1-1.193-.942c-.337-.384-.506-.96-.506-1.724 0-.857.28-1.489.837-1.895a3.625 3.625 0 0 1 2.178-.608h13.18c2.135.002 4.264.21 6.35.62a21.085 21.085 0 0 1 5.822 2.005c1.686.88 3.113 2.117 4.158 3.606.023.034.05.068.073.105a8.662 8.662 0 0 1 1.229 2.698c.187.717.3 1.449.337 2.186ZM38.127 111a9.202 9.202 0 0 1-.643 1.884c.162-.641.377-1.271.643-1.884Z"/><path fill="#000" d="M39.779 108.296c-.064.075-.126.152-.19.229a9.42 9.42 0 0 0-.49.683l-.029.045a10.033 10.033 0 0 0-.595 1.008c-.128.24-.246.487-.355.739-.266.613-.48 1.243-.642 1.885a14.563 14.563 0 0 0-.435 3.107 11.81 11.81 0 0 0 1.255-1.713 9.73 9.73 0 0 0 .902-1.96c.167-.491.297-.992.39-1.499a12.363 12.363 0 0 0 .22-2.004v-.58a.369.369 0 0 0-.031.06Zm-1.082-5.499v.068c.021.032.04.065.061.094a1.578 1.578 0 0 0-.068-.162h.007Z"/><path fill="#fff" d="M61.223 115.955c.777-.617 1.213-1.487 1.309-2.61a5.57 5.57 0 0 0 .021-.491v-.302a7.062 7.062 0 0 0-.052-.792v-.06a8.127 8.127 0 0 0-.14-.814 7.146 7.146 0 0 0-.49-1.486 3.87 3.87 0 0 1-.74-1.259 5.722 5.722 0 0 0-.208-.27c-1.102-1.351-2.587-2.407-4.297-3.055a15.436 15.436 0 0 0-5.67-1.035 18.075 18.075 0 0 0-5.392.752c-.335.103-.661.214-.98.345-.177.07-.354.145-.527.214a3.24 3.24 0 0 0-.434.214l-.142.071c-.114.058-.236.118-.338.18-.315.175-.625.364-.928.565a11.165 11.165 0 0 0-2.042 1.734c-.116.127-.236.255-.338.388a.42.42 0 0 0-.042.051c-.064.075-.125.152-.19.23a9.42 9.42 0 0 0-.49.683l-.029.045a9.738 9.738 0 0 0-.595 1.008 9.85 9.85 0 0 0-.355.739 12.27 12.27 0 0 0-.642 1.884 14.585 14.585 0 0 0-.435 3.107c-.01.223-.014.448-.014.675 0 2.437.57 4.555 1.71 6.353 1.116 1.777 2.764 3.231 4.754 4.193 2.027.999 4.366 1.499 7.019 1.499a17.131 17.131 0 0 0 4.12-.516 14.474 14.474 0 0 0 3.85-1.55 8.74 8.74 0 0 0 2.836-2.609 6.322 6.322 0 0 0 1.077-3.663 1.82 1.82 0 0 0-.33-1.071 1.123 1.123 0 0 0-.461-.367 1.265 1.265 0 0 0-.603-.104c-.255 0-.627.143-1.115.428-.491.285-1.06.617-1.71 1a14.22 14.22 0 0 1-2.08 1c-.7.278-1.454.423-2.218.428-1.876 0-3.312-.447-4.309-1.342-1.01-.917-1.728-2.065-2.076-3.321h10.205c1.453-.009 2.623-.365 3.511-1.069Zm-10.227-2.377c-.236.268-.676.402-1.318.401H47.04v-.634c0-.214.019-.484.045-.793a.243.243 0 0 1 0-.04c0-.103.017-.214.028-.326.012-.111.031-.285.052-.428a.462.462 0 0 1 0-.06c.04-.268.092-.54.159-.814.025-.113.054-.227.085-.342a3.76 3.76 0 0 1 .685-1.401 1.4 1.4 0 0 1 .53-.421c.212-.098.448-.147.686-.142.267-.004.528.062.755.188.227.126.41.308.526.525a4.38 4.38 0 0 1 .593 1.593v.015c.05.294.087.561.11.799v.06c.022.214.034.418.034.589v.203a1.976 1.976 0 0 1-.191.793 1.152 1.152 0 0 1-.142.235Z"/><path fill="#000" d="M51.352 112.349v.203a1.978 1.978 0 0 1-.191.793 1.177 1.177 0 0 1-.159.233c-.236.269-.675.402-1.318.401h-2.641v-.634c0-.214.019-.484.045-.793a.223.223 0 0 1 0-.04c0-.103.016-.214.028-.326.012-.111.03-.285.052-.428a.462.462 0 0 1 0-.06c.04-.268.092-.54.159-.814.026-.113.054-.227.084-.342.125-.503.358-.979.686-1.401a1.41 1.41 0 0 1 .53-.421c.212-.098.448-.147.686-.142.266-.004.528.062.755.188.227.126.41.308.526.525a4.38 4.38 0 0 1 .593 1.593v.015c.05.294.087.561.11.799v.06c.043.229.055.42.055.591Z"/><path fill="#fff" d="M85.994 120.125c.163.324.254.675.267 1.032.032 1.465-.517 2.892-1.548 4.021a10.207 10.207 0 0 1-3.865 2.619 12.545 12.545 0 0 1-4.65.919c-2.89 0-5.166-.609-6.83-1.827-1.662-1.218-2.5-3.208-2.51-5.972v-10.03c0-.643-.168-1.118-.473-1.433a4.109 4.109 0 0 0-1.115-.792 4.67 4.67 0 0 1-1.016-.668 7.952 7.952 0 0 0-.52-.885 2.629 2.629 0 0 1-.056-.567 1.66 1.66 0 0 1 .173-.82c.128-.257.32-.484.561-.662a2.842 2.842 0 0 1 1.725-.539h1.139c.491 0 .977-.226 1.457-.677a12.456 12.456 0 0 0 1.472-1.69 46.014 46.014 0 0 1 1.571-2.008 9.472 9.472 0 0 1 1.76-1.68 3.447 3.447 0 0 1 2.053-.676c.846 0 1.505.214 1.978.643.472.428.709 1.027.709 1.792v4.289h5.752a3.141 3.141 0 0 1 1.654.413c.455.277.683.737.685 1.379 0 .857-.3 1.508-.9 1.953a5.023 5.023 0 0 1-2.166.885c-.786.138-1.584.21-2.384.214H78.27v9.096a4.84 4.84 0 0 0 .472 2.127c.315.666.975.999 1.978.997a2.755 2.755 0 0 0 1.687-.516c.463-.345.901-.686 1.316-1.021a2.064 2.064 0 0 1 1.332-.507c.206-.008.41.045.579.152a.87.87 0 0 1 .359.439Zm41.431-7.476v-.137c0-.214-.021-.439-.038-.655 0-.052 0-.105-.012-.157a17.581 17.581 0 0 0-.087-.813c-.295-2.66-1.331-5.208-3.011-7.406-1.679-2.197-3.947-3.972-6.59-5.157-3.009-1.385-6.405-2.078-10.19-2.08H92.384a3.689 3.689 0 0 0-2.192.608c-.567.407-.85 1.039-.848 1.895 0 .781.177 1.364.531 1.748a4.3 4.3 0 0 0 1.243.929 5.55 5.55 0 0 1 1.24.84c.357.321.534.82.534 1.498v16.771c0 .658-.177 1.146-.534 1.459a6.1 6.1 0 0 1-1.24.839 4.491 4.491 0 0 0-1.243.94c-.354.383-.531.973-.531 1.771 0 .872.279 1.508.836 1.906a3.715 3.715 0 0 0 2.204.597h17.539a21.59 21.59 0 0 0 8.82-1.758c2.585-1.117 4.779-2.863 6.336-5.043 1.564-2.174 2.351-4.773 2.362-7.796v-.06a56.25 56.25 0 0 0-.016-.739Zm-13.015 3.407a13.732 13.732 0 0 1-.848 3.238 6.752 6.752 0 0 1-1.789 2.597c-.778.678-1.791 1.017-3.04 1.017-1.285 0-2.168-.337-2.649-1.013-.48-.675-.721-1.531-.723-2.569v-17.96h1.116c1.656 0 3.013.384 4.068 1.15a8.008 8.008 0 0 1 2.483 2.951 13.899 13.899 0 0 1 1.254 3.837c.095.541.17 1.069.225 1.583.033.276.056.546.078.813v.157c.014.214.026.439.033.655v.929a21.614 21.614 0 0 1-.208 2.615Z"/><path fill="#000" d="M114.635 112.649v-.137c0-.214-.019-.428-.033-.655v-.157a20.058 20.058 0 0 0-.078-.813 21.965 21.965 0 0 0-.224-1.583 13.868 13.868 0 0 0-1.255-3.837 7.999 7.999 0 0 0-2.483-2.951c-1.057-.766-2.413-1.15-4.068-1.15h-1.127v17.966c0 1.041.241 1.897.723 2.57.482.672 1.364 1.008 2.646 1.006 1.251 0 2.264-.344 3.041-1.034a6.75 6.75 0 0 0 1.788-2.597c.414-1.042.699-2.122.848-3.221a23.74 23.74 0 0 0 .225-2.606v-.334c.002-.159 0-.313-.003-.467Zm-6.452-8.463c.217.083.421.192.605.324a5.399 5.399 0 0 1 1.677 2.011 11.651 11.651 0 0 1 1.045 3.184 22.286 22.286 0 0 1 .26 1.995l.014.157h-3.601v-7.671Zm3.433 11.549a11.372 11.372 0 0 1-.709 2.685 4.163 4.163 0 0 1-1.105 1.636c-.104.092-.345.306-1.071.306a2.618 2.618 0 0 1-.385-.023 2.52 2.52 0 0 1-.167-1.007v-5.891h3.635a20.122 20.122 0 0 1-.198 2.294Z"/><path fill="#fff" d="M160.159 123.071c-.291.043-.58.102-.864.176h-.033a5.063 5.063 0 0 0-.473.148 1.65 1.65 0 0 0-.364-.923 1.24 1.24 0 0 0-.486-.357 1.396 1.396 0 0 0-.615-.104.99.99 0 0 0-.647.215.99.99 0 0 1-.645.214.802.802 0 0 1-.388-.064.716.716 0 0 1-.297-.236 1.193 1.193 0 0 1-.203-.687v-10.574a9.318 9.318 0 0 0-.106-1.407 4.407 4.407 0 0 1-.716-1.118 4.198 4.198 0 0 1-.366-1.499v-.171l-.036.12a1.004 1.004 0 0 0-.064-.082c-.872-1.047-2.079-1.825-3.456-2.229a15.974 15.974 0 0 0-4.739-.668 38.426 38.426 0 0 0-4.879.334c-1.699.214-3.36.627-4.942 1.229a9.96 9.96 0 0 0-3.891 2.596 5.015 5.015 0 0 0-.874 1.31 3.549 3.549 0 0 0-.343 1.516v.077c.001.273.029.545.083.814.009.053.021.105.038.156a2.732 2.732 0 0 0 .314.793c.188.313.451.584.77.792a2.2 2.2 0 0 0 .203.124 6.827 6.827 0 0 0 3.357.777 8.673 8.673 0 0 0 4.017-.905l.092-.048a3.295 3.295 0 0 0 1.07-.882c.158-.204.29-.424.392-.655.021-.051.043-.103.062-.156.102-.264.173-.537.212-.814.043-.27.064-.542.062-.814v-.963c.004-.378.068-.753.189-1.114.127-.392.452-.588.975-.587.523.002.882.254 1.078.758.162.43.252.879.267 1.332v5.975a8.08 8.08 0 0 0-1.142-.105h-1.141a22.258 22.258 0 0 0-3.952.368c-1.333.232-2.62.646-3.815 1.229a7.934 7.934 0 0 0-2.852 2.274c-.726.94-1.089 2.115-1.089 3.525 0 1.285.346 2.373 1.039 3.263a6.378 6.378 0 0 0 2.75 2.011 9.956 9.956 0 0 0 3.688.677 13.827 13.827 0 0 0 4.397-.748c1.422-.444 2.659-1.274 3.544-2.376a4.347 4.347 0 0 0 1.073 1.422 4.862 4.862 0 0 0 1.599.933c1.209.489 2.517.747 3.841.758a8.94 8.94 0 0 0 2.821-.465 7.384 7.384 0 0 0-.161 1.388c.375-.098.744-.216 1.103-.353.116-.045.237-.09.341-.14a8.663 8.663 0 0 0 1.611-.89c.458-.323.878-.69 1.252-1.092a5.127 5.127 0 0 0 1.349-2.784c.04-.27.06-.542.059-.814a3.017 3.017 0 0 0-.069-.48Z"/><path fill="#000" d="M143.005 118.321a1.402 1.402 0 0 0-.822.222 1.19 1.19 0 0 0-.494.635 4.102 4.102 0 0 0-.357 1.55 3.354 3.354 0 0 0 .473 1.735c.315.544.866.815 1.653.815.146.001.291-.014.433-.045v-4.751a2.536 2.536 0 0 0-.886-.161Zm0 0a1.402 1.402 0 0 0-.822.222 1.19 1.19 0 0 0-.494.635 4.102 4.102 0 0 0-.357 1.55 3.354 3.354 0 0 0 .473 1.735c.315.544.866.815 1.653.815.146.001.291-.014.433-.045v-4.751a2.536 2.536 0 0 0-.886-.161Zm0 0a1.402 1.402 0 0 0-.822.222 1.19 1.19 0 0 0-.494.635 4.102 4.102 0 0 0-.357 1.55 3.354 3.354 0 0 0 .473 1.735c.315.544.866.815 1.653.815.146.001.291-.014.433-.045v-4.751a2.536 2.536 0 0 0-.886-.161Zm0 0a1.402 1.402 0 0 0-.822.222 1.19 1.19 0 0 0-.494.635 4.102 4.102 0 0 0-.357 1.55 3.354 3.354 0 0 0 .473 1.735c.315.544.866.815 1.653.815.146.001.291-.014.433-.045v-4.751a2.536 2.536 0 0 0-.886-.161Zm0 0a1.402 1.402 0 0 0-.822.222 1.19 1.19 0 0 0-.494.635 4.102 4.102 0 0 0-.357 1.55 3.354 3.354 0 0 0 .473 1.735c.315.544.866.815 1.653.815.146.001.291-.014.433-.045v-4.751a2.536 2.536 0 0 0-.886-.161Zm0 0a1.402 1.402 0 0 0-.822.222 1.19 1.19 0 0 0-.494.635 4.102 4.102 0 0 0-.357 1.55 3.354 3.354 0 0 0 .473 1.735c.315.544.866.815 1.653.815.146.001.291-.014.433-.045v-4.751a2.536 2.536 0 0 0-.886-.161Zm18.569 4.66h-.092c-.165 0-.329 0-.487.013-.09 0-.177 0-.262.017a.632.632 0 0 0-.087 0l-.18.017-.3.036a8.13 8.13 0 0 0-.865.176h-.033a5.041 5.041 0 0 0-.472.148v.156a4.14 4.14 0 0 1-.215 1.349 3.977 3.977 0 0 1-.863 1.42 6.62 6.62 0 0 1-1.37 1.126c-.41.253-.847.468-1.304.642a9.035 9.035 0 0 1-.397.144 7.373 7.373 0 0 0-.16 1.388v.214c0 .372.018.734.054 1.09.469-.11.93-.247 1.38-.409l.222-.084a11.16 11.16 0 0 0 1.164-.522 9.63 9.63 0 0 0 2.573-1.955c.977-1.049 1.571-2.346 1.701-3.713a6.32 6.32 0 0 0 .038-.701 4.25 4.25 0 0 0-.045-.552Zm-3.945-14.814a7.35 7.35 0 0 0-.284-.857 5.157 5.157 0 0 0-.189-.447c-.071-.146-.111-.242-.175-.36a8.679 8.679 0 0 0-.179-.323 2.62 2.62 0 0 0-.033.415v.114c.014.289.094.573.236.833 0 .034-.017.066-.024.098l.055-.047c.133.228.308.434.517.608l.024.02.08.066a.952.952 0 0 0-.028-.12Zm-3.676-1.499-.036.12a.32.32 0 0 1 .04.051 4.6 4.6 0 0 1-.004-.169v-.002Zm-10.948 11.653a1.402 1.402 0 0 0-.822.222 1.19 1.19 0 0 0-.494.635 4.102 4.102 0 0 0-.357 1.55 3.354 3.354 0 0 0 .473 1.735c.315.544.866.815 1.653.815.146.001.291-.014.433-.045v-4.751a2.536 2.536 0 0 0-.886-.161Zm0 0a1.402 1.402 0 0 0-.822.222 1.19 1.19 0 0 0-.494.635 4.102 4.102 0 0 0-.357 1.55 3.354 3.354 0 0 0 .473 1.735c.315.544.866.815 1.653.815.146.001.291-.014.433-.045v-4.751a2.536 2.536 0 0 0-.886-.161Zm0 0a1.402 1.402 0 0 0-.822.222 1.19 1.19 0 0 0-.494.635 4.102 4.102 0 0 0-.357 1.55 3.354 3.354 0 0 0 .473 1.735c.315.544.866.815 1.653.815.146.001.291-.014.433-.045v-4.751a2.536 2.536 0 0 0-.886-.161Z"/><path fill="#fff" d="M188.481 105.032a2.925 2.925 0 0 0-1.786-.518h-7.401a3.087 3.087 0 0 0-1.786.494c-.473.33-.723.838-.723 1.527 0 .69.172 1.223.519 1.499.342.282.744.497 1.182.632a4.11 4.11 0 0 1 1.181.574c.346.247.52.691.52 1.332a4.575 4.575 0 0 1-.532 2.16l-3.1 5.893-3.446-6.231c-.22-.4-.406-.815-.558-1.24a3.853 3.853 0 0 1-.236-1.285.824.824 0 0 1 .104-.464.944.944 0 0 1 .352-.352c.333-.189.685-.35 1.051-.481.399-.147.758-.37 1.051-.656.304-.285.456-.737.456-1.355 0-.69-.236-1.201-.708-1.54a3.045 3.045 0 0 0-1.801-.505h-13.549a3.724 3.724 0 0 0-.753.071h-.021a2.68 2.68 0 0 0-.688.237c-.101.05-.196.107-.286.172a1.638 1.638 0 0 0-.453.447 1.738 1.738 0 0 0-.274.722 2.403 2.403 0 0 0-.033.415v.114c.014.289.094.573.236.833 0 .034-.017.066-.024.098l.054-.047c.133.228.308.434.518.608l.023.019.081.067c.014.051.028.103.04.156 0-.032.016-.066.026-.1l.035.027c.237.193.482.381.737.566l.303.214c.156.109.316.214.472.321.582.364 1.06.848 1.394 1.413l10.315 18.056a9.082 9.082 0 0 1-.964 1.724c-.153.241-.375.44-.642.578a1.86 1.86 0 0 1-.877.203 1.59 1.59 0 0 1-.684-.163 1.425 1.425 0 0 1-.521-.434 8.793 8.793 0 0 1-.961-1.482 18.951 18.951 0 0 0-1.066-1.758 5.455 5.455 0 0 0-1.495-1.471 4.09 4.09 0 0 0-2.294-.595h-.168c.134-.419.222-.85.262-1.285h-.094a7.402 7.402 0 0 0-1.338.116c-.55.099-1.078.28-1.564.535a4.494 4.494 0 0 0-1.389 1.133 5.62 5.62 0 0 0-.843 1.413 5.873 5.873 0 0 0-.418 1.681 6.366 6.366 0 0 0-.038.717c0 .232 0 .459.024.681l.222-.083c.399-.153.788-.327 1.164-.523.01 1.501.393 2.785 1.151 3.855.758 1.079 1.84 1.94 3.118 2.482a10.99 10.99 0 0 0 4.397.856c1.758 0 3.27-.38 4.536-1.139a11.593 11.593 0 0 0 3.27-2.917 25.193 25.193 0 0 0 2.421-3.813 1465.59 1465.59 0 0 1 1.989-3.825l6.894-13.186c.336-.675.731-1.325 1.181-1.942a11.27 11.27 0 0 1 1.654-1.643c.34-.272.656-.568.945-.884.218-.253.329-.643.329-1.182.003-.684-.228-1.198-.693-1.542Z"/><path fill="#000" d="M161.57 122.981h-.092c-.165 0-.328 0-.486.013-.09 0-.178 0-.263.017a.632.632 0 0 0-.087 0l-.18.017-.3.037c.026.161.039.324.038.488.001.272-.019.544-.059.814-.07.499-.218.987-.439 1.449a4.916 4.916 0 0 1 1.608-.285c.135-.419.223-.849.263-1.284.025-.233.038-.467.037-.701 0-.189-.014-.377-.04-.565Zm-3.917-14.705c.014.052.029.103.04.157 0-.032.017-.067.026-.101l-.066-.056Zm-.652-.745c0 .035-.016.067-.023.099l.054-.047c-.012-.017-.021-.035-.031-.052Zm4.569 15.45h-.092c-.165 0-.328 0-.486.013-.09 0-.178 0-.263.017a.632.632 0 0 0-.087 0l-.18.017-.3.037c.026.161.039.324.038.488.001.272-.019.544-.059.814-.07.499-.218.987-.439 1.449a4.916 4.916 0 0 1 1.608-.285c.135-.419.223-.849.263-1.284.025-.233.038-.467.037-.701 0-.189-.014-.377-.04-.565Zm-3.917-14.705c.014.052.029.103.04.157 0-.032.017-.067.026-.101l-.066-.056Zm-.652-.745c0 .035-.016.067-.023.099l.054-.047c-.012-.017-.021-.035-.031-.052Zm4.569 15.45h-.092c-.165 0-.328 0-.486.013-.09 0-.178 0-.263.017a.632.632 0 0 0-.087 0l-.18.017-.3.037c-.292.043-.58.101-.864.175h-.033a4.971 4.971 0 0 0-.473.148 5.988 5.988 0 0 0-2.733 1.88 6.883 6.883 0 0 0-1.418 2.957 7.468 7.468 0 0 0-.161 1.388v.214c0 .373.019.734.055 1.09.469-.11.929-.247 1.38-.409l.222-.084a11.16 11.16 0 0 0 1.164-.522v-.075a5.174 5.174 0 0 1 .237-1.608c.164-.52.429-1.009.784-1.443a3.137 3.137 0 0 1 1.377-.977 4.9 4.9 0 0 1 1.609-.285 5.96 5.96 0 0 0 .262-1.285c.026-.232.039-.466.038-.7a4.193 4.193 0 0 0-.038-.548Zm-3.917-14.705c.014.052.029.103.04.157 0-.032.017-.067.026-.101l-.066-.056Zm-.652-.745c0 .035-.016.067-.023.099l.054-.047c-.012-.017-.021-.035-.031-.052Zm4.569 15.45h-.092c-.165 0-.328 0-.486.013-.09 0-.178 0-.263.017a.632.632 0 0 0-.087 0l-.18.017-.3.037c.026.161.039.324.038.488.001.272-.019.544-.059.814-.07.499-.218.987-.439 1.449a4.916 4.916 0 0 1 1.608-.285c.135-.419.223-.849.263-1.284.025-.233.038-.467.037-.701 0-.189-.014-.377-.04-.565Zm-3.917-14.705c.014.052.029.103.04.157 0-.032.017-.067.026-.101l-.066-.056Zm-.652-.745c0 .035-.016.067-.023.099l.054-.047c-.012-.017-.021-.035-.031-.052Zm4.569 15.45h-.092c-.165 0-.328 0-.486.013-.09 0-.178 0-.263.017a.632.632 0 0 0-.087 0l-.18.017-.3.037c.026.161.039.324.038.488.001.272-.019.544-.059.814-.07.499-.218.987-.439 1.449a4.916 4.916 0 0 1 1.608-.285c.135-.419.223-.849.263-1.284.025-.233.038-.467.037-.701 0-.189-.014-.377-.04-.565Zm-3.917-14.705c.014.052.029.103.04.157 0-.032.017-.067.026-.101l-.066-.056Zm-.652-.745c0 .035-.016.067-.023.099l.054-.047c-.012-.017-.021-.035-.031-.052Zm.652.745c.014.052.029.103.04.157 0-.032.017-.067.026-.101l-.066-.056Zm-.652-.745c0 .035-.016.067-.023.099l.054-.047c-.012-.017-.021-.035-.031-.052Zm-133.545 7.945c-.589-.326-1.236-.587-1.756-.988a3.625 3.625 0 0 0-1.5-.734 3.85 3.85 0 0 0-1.706-.002 4.466 4.466 0 0 1-2.617-.214 3.03 3.03 0 0 1-1.182-.875 2.652 2.652 0 0 1-.57-1.283 2.543 2.543 0 0 1 .18-1.373c.186-.436.491-.823.886-1.125.456-.364 1.033-.599 1.543-.908.56-.342 1.108-.7 1.654-1.051.48-.347.985-.664 1.512-.949 1.805-.841 3.685-.379 4.8 1.163.282.361.502.758.653 1.178a7.6 7.6 0 0 0 1.308 2.343c.688.901.978 1.873.544 2.959-.6 1.518-1.959 2.178-3.75 1.859Zm-.328-13.157c-.31.471-.552 1-.945 1.407a2.05 2.05 0 0 1-.749.478c-.286.105-.595.15-.904.132a2.187 2.187 0 0 1-.876-.241 1.968 1.968 0 0 1-.672-.564c-1.035-1.31-.524-3.535 1.02-4.34.418-.239.92-.323 1.403-.236.484.088.912.34 1.197.704.557.664.715 1.621.526 2.66Zm5.474.792c-.345 1.071-.81 1.78-1.7 2.21a2.235 2.235 0 0 1-1.87.077 2.028 2.028 0 0 1-.757-.54 1.778 1.778 0 0 1-.4-.794c-.262-1.263.097-2.409 1.181-3.276 1.373-1.097 3.159-.527 3.5 1.103.056.404.072.813.046 1.22Zm-10.958 1.898c-.397 1.394-1.441 2.021-2.772 1.663a2.147 2.147 0 0 1-.754-.389 1.908 1.908 0 0 1-.514-.634 2.63 2.63 0 0 1-.26-1.757 2.81 2.81 0 0 1 .93-1.56 2.01 2.01 0 0 1 .731-.406 2.15 2.15 0 0 1 .852-.082c.288.03.564.118.809.256.245.139.453.326.609.547.254.343.42.733.483 1.142.064.409.025.826-.114 1.22Zm13.948 2.935a2.61 2.61 0 0 1-.532 1.038 2.933 2.933 0 0 1-.956.746c-1.453.694-3.053-.158-3.072-1.642-.011-.406.066-.81.229-1.188.162-.379.405-.724.716-1.016.764-.724 1.735-.925 2.552-.557.817.369 1.29 1.259 1.153 2.202l-.09.417Z"/></svg>