<svg xmlns="http://www.w3.org/2000/svg" width="239" height="239" fill="none" viewBox="0 0 239 239"><path fill="#6D73E6" fill-opacity="0.1" d="M191.075 163.072c-6.159 1.873-12.164 4.522-18.503 5.492-5.393.64-10.528 2.482-14.944 5.361-4.416 2.879-7.976 6.705-10.361 11.136-3.77 6.889-9.951 12.452-17.579 15.819-4.41 1.87-9.269 2.701-14.127 2.417-4.859-.284-9.56-1.674-13.668-4.042-4.108-2.368-7.492-5.637-9.836-9.504-2.345-3.868-3.576-8.209-3.578-12.622-.133-5.189 1.488-10.387 2.129-15.594.668-5.739 1.145-11.492 1.66-17.19.149-5.241.69-10.466 1.618-15.64 4.247-16.907 19.333-26.399 38.368-24.341a49.38 49.38 0 0 1 13.328 2.878c8.449 3.222 17.436 5.132 26.584 5.648 11.345.971 20.845 4.966 26.851 14.393 8.445 13.131 5.457 26.014-7.942 35.789ZM84.366 85.43c1.873 4.88 4.608 9.68 5.468 14.711.41 2.616.157 5.281-.739 7.795-.896 2.513-2.412 4.809-4.432 6.712-2.02 1.904-4.493 3.366-7.23 4.274a21.035 21.035 0 0 1-8.563.971c-16.707-1.181-31.321-18.01-28.36-32.996.633-4.172 3.007-7.965 6.633-10.598 3.627-2.632 8.23-3.904 12.86-3.552 8.664.38 17.243 5.15 24.363 12.683Zm39.497-30.987c6.43 8.748 9.25 16.09 7.274 24.524-.544 2.737-1.801 5.317-3.667 7.525-1.865 2.208-4.285 3.98-7.059 5.17a20.987 20.987 0 0 1-8.886 1.671 20.825 20.825 0 0 1-8.746-2.198c-11.646-5.947-18.587-15.243-18.914-27.593-.403-15.625 14.962-23.85 29.996-16.192a68.585 68.585 0 0 1 10.002 7.093Zm-51.355 83.169c8.689 11.049 7.35 21.682-3.562 28.212a20.979 20.979 0 0 1-7.675 2.572 21.65 21.65 0 0 1-8.166-.483c-6.1-1.425-11.545-4.563-15.557-8.964-4.012-4.402-6.384-9.841-6.776-15.539a15.238 15.238 0 0 1 1.202-7.238c.988-2.302 2.528-4.376 4.51-6.071 1.982-1.696 4.355-2.97 6.947-3.732 2.593-.761 5.34-.99 8.041-.67 4.271.418 8.383 1.706 12.026 3.77 3.643 2.063 6.723 4.847 9.01 8.143Zm107.969-73.425c2.425 2.895 4.141 6.226 5.033 9.77.892 3.543.939 7.219.139 10.78-3.288 13.709-19.771 19-31.698 10.124-3.301-2.384-6.044-5.34-8.072-8.695-2.027-3.355-3.297-7.042-3.736-10.847-1.133-9.38 3.153-16.95 11.042-20.061 7.888-3.112 17.844-.8 24.513 5.81.956 1.07 1.911 2.142 2.779 3.12Z"/></svg>