<svg xmlns="http://www.w3.org/2000/svg" width="239" height="239" fill="none" viewBox="0 0 239 239"><path fill="#6D73E6" fill-opacity="0.1" d="M47.66 162.869c6.158 1.873 12.163 4.522 18.502 5.492 5.394.64 10.528 2.482 14.944 5.361 4.416 2.879 7.976 6.705 10.361 11.136 3.77 6.889 9.952 12.452 17.579 15.819 4.41 1.87 9.269 2.701 14.128 2.417 4.858-.284 9.559-1.674 13.667-4.042 4.109-2.368 7.492-5.637 9.837-9.504 2.344-3.868 3.575-8.209 3.578-12.622.132-5.189-1.489-10.387-2.129-15.594-.668-5.739-1.146-11.492-1.66-17.19a105.43 105.43 0 0 0-1.619-15.64c-4.247-16.907-19.333-26.399-38.367-24.341a49.379 49.379 0 0 0-13.329 2.878c-8.448 3.222-17.435 5.132-26.584 5.648-11.344.971-20.845 4.966-26.85 14.393-8.446 13.131-5.458 26.014 7.942 35.789Zm106.708-77.642c-1.873 4.88-4.607 9.68-5.467 14.711a15.86 15.86 0 0 0 .738 7.795c.896 2.513 2.412 4.809 4.432 6.712 2.021 1.904 4.493 3.366 7.229 4.274a21.04 21.04 0 0 0 8.565.971c16.706-1.181 31.321-18.01 28.36-32.996-.633-4.172-3.008-7.965-6.634-10.598-3.626-2.632-8.229-3.904-12.859-3.552-8.665.38-17.243 5.15-24.364 12.683ZM114.872 54.24c-6.431 8.748-9.25 16.09-7.275 24.524.545 2.737 1.802 5.317 3.667 7.525 1.866 2.208 4.286 3.98 7.059 5.17a20.992 20.992 0 0 0 8.887 1.671 20.824 20.824 0 0 0 8.745-2.198c11.647-5.947 18.588-15.243 18.915-27.593.402-15.624-14.963-23.85-29.997-16.192a68.521 68.521 0 0 0-10.001 7.093Zm51.355 83.169c-8.689 11.049-7.351 21.683 3.562 28.212a20.978 20.978 0 0 0 7.675 2.572c2.729.36 5.511.195 8.166-.483 6.099-1.425 11.545-4.563 15.556-8.964 4.012-4.402 6.384-9.841 6.777-15.539a15.248 15.248 0 0 0-1.202-7.238c-.988-2.302-2.529-4.376-4.511-6.071-1.981-1.696-4.354-2.97-6.947-3.732a20.18 20.18 0 0 0-8.041-.67c-4.271.418-8.382 1.707-12.025 3.77-3.643 2.063-6.723 4.847-9.01 8.143ZM58.257 63.984c-2.425 2.895-4.14 6.226-5.033 9.77a23.215 23.215 0 0 0-.139 10.78c3.289 13.709 19.772 19 31.698 10.124 3.301-2.384 6.045-5.34 8.072-8.695 2.027-3.355 3.298-7.042 3.736-10.847 1.134-9.38-3.152-16.95-11.041-20.061-7.889-3.112-17.845-.8-24.514 5.81-.955 1.07-1.91 2.142-2.779 3.12Z"/></svg>