<svg xmlns="http://www.w3.org/2000/svg" width="154" height="153" fill="none" viewBox="0 0 154 153"><path fill="#6D73E6" fill-opacity="0.1" d="M122.927 103.944c-3.944 1.2-7.791 2.896-11.851 3.518-3.455.41-6.744 1.589-9.572 3.434-2.829 1.844-5.11 4.294-6.637 7.133-2.415 4.412-6.374 7.975-11.26 10.132a20.208 20.208 0 0 1-9.049 1.548c-3.112-.182-6.123-1.072-8.755-2.589-2.631-1.517-4.798-3.61-6.3-6.088-1.502-2.477-2.29-5.257-2.292-8.084-.085-3.324.954-6.653 1.364-9.989.428-3.676.734-7.36 1.063-11.01a67.554 67.554 0 0 1 1.037-10.019c2.72-10.829 12.383-16.91 24.575-15.591 2.933.22 5.811.842 8.538 1.844a56.8 56.8 0 0 0 17.028 3.617c7.267.622 13.352 3.182 17.199 9.22 5.409 8.41 3.495 16.662-5.088 22.924ZM54.574 54.211c1.2 3.127 2.95 6.2 3.502 9.424.262 1.675.1 3.382-.474 4.992a10.992 10.992 0 0 1-2.838 4.3 12.481 12.481 0 0 1-4.631 2.737 13.477 13.477 0 0 1-5.486.622c-10.7-.756-20.062-11.536-18.165-21.135.405-2.672 1.926-5.102 4.249-6.788 2.323-1.686 5.27-2.5 8.236-2.276 5.55.243 11.046 3.299 15.607 8.124Zm25.298-19.848c4.12 5.604 5.925 10.306 4.66 15.709a10.712 10.712 0 0 1-2.349 4.82c-1.195 1.414-2.745 2.55-4.521 3.311a13.446 13.446 0 0 1-5.692 1.07 13.334 13.334 0 0 1-5.602-1.408c-7.46-3.809-11.906-9.763-12.116-17.674-.258-10.008 9.584-15.276 19.214-10.371a43.895 43.895 0 0 1 6.406 4.543ZM46.978 87.636c5.566 7.077 4.708 13.888-2.282 18.07a13.43 13.43 0 0 1-4.916 1.648 13.85 13.85 0 0 1-5.23-.31c-3.907-.912-7.395-2.922-9.965-5.741-2.57-2.82-4.089-6.303-4.34-9.953a9.76 9.76 0 0 1 .77-4.636 10.673 10.673 0 0 1 2.888-3.89 12.072 12.072 0 0 1 4.45-2.39c1.66-.487 3.42-.634 5.151-.43a19.501 19.501 0 0 1 7.703 2.416c2.333 1.321 4.306 3.105 5.77 5.216Zm69.165-47.031c1.554 1.854 2.653 3.987 3.224 6.257a14.87 14.87 0 0 1 .089 6.906c-2.106 8.78-12.664 12.17-20.304 6.484-2.114-1.527-3.871-3.42-5.17-5.57a17.247 17.247 0 0 1-2.393-6.947c-.726-6.008 2.02-10.857 7.073-12.85 5.053-1.993 11.43-.512 15.701 3.722.612.686 1.224 1.372 1.78 1.998Z"/></svg>