<svg xmlns="http://www.w3.org/2000/svg" width="38" height="35" fill="none" viewBox="0 0 38 35"><path fill="#6D73E6" fill-opacity="0.1" d="M20.475 33.8c-1.173-.677-2.468-1.227-3.5-2.054a7.264 7.264 0 0 0-2.995-1.535 7.752 7.752 0 0 0-3.44-.065 8.997 8.997 0 0 1-5.273-.526 6.08 6.08 0 0 1-2.346-1.807 5.317 5.317 0 0 1-1.096-2.608 5.14 5.14 0 0 1 .423-2.764 5.698 5.698 0 0 1 1.838-2.238c.936-.719 2.109-1.173 3.152-1.777 1.145-.672 2.266-1.374 3.382-2.063a27.802 27.802 0 0 1 3.092-1.86c3.679-1.634 7.453-.634 9.637 2.517a8.49 8.49 0 0 1 1.264 2.4 15.26 15.26 0 0 0 2.54 4.773c1.348 1.843 1.892 3.815.968 5.99-1.277 3.042-4.046 4.325-7.646 3.617Zm-.091-26.558c-.645.94-1.159 1.998-1.968 2.805a4.149 4.149 0 0 1-1.531.937 4.5 4.5 0 0 1-1.83.235 4.41 4.41 0 0 1-1.759-.517 3.96 3.96 0 0 1-1.33-1.162C9.934 6.859 11.06 2.388 14.213.818a4.231 4.231 0 0 1 2.84-.424c.972.193 1.825.717 2.383 1.463 1.096 1.36 1.374 3.296.948 5.385Zm11.008 1.793c-.742 2.149-1.712 3.562-3.527 4.399a4.463 4.463 0 0 1-1.877.459 4.491 4.491 0 0 1-1.9-.37 4.071 4.071 0 0 1-1.503-1.117 3.575 3.575 0 0 1-.773-1.616c-.474-2.559.3-4.857 2.526-6.569 2.817-2.163 6.396-.95 7.012 2.35.098.819.112 1.644.042 2.464ZM9.198 12.474c-.861 2.799-2.995 4.028-5.663 3.259a4.318 4.318 0 0 1-1.506-.813 3.842 3.842 0 0 1-1.01-1.298 5.298 5.298 0 0 1-.446-3.555c.269-1.198.95-2.288 1.944-3.114a4.041 4.041 0 0 1 1.491-.792 4.322 4.322 0 0 1 1.723-.136 4.192 4.192 0 0 1 1.62.546c.49.29.901.673 1.206 1.124.498.701.814 1.495.925 2.323a5.037 5.037 0 0 1-.284 2.456Zm28.024 6.42a5.28 5.28 0 0 1-1.117 2.075 5.945 5.945 0 0 1-1.963 1.472c-2.962 1.348-6.152-.429-6.126-3.424a5.67 5.67 0 0 1 .512-2.388 6.168 6.168 0 0 1 1.49-2.024c1.572-1.433 3.54-1.805 5.173-1.033 1.633.773 2.548 2.587 2.23 4.483-.067.288-.136.577-.199.84Z"/></svg>