<svg xmlns="http://www.w3.org/2000/svg" width="202" height="202" fill="none" viewBox="0 0 202 202"><g fill="#000" clip-path="url(#a)"><path d="M67.17.167c.053.724.146 1.448.146 2.172v62.089c0 2.884 0 2.92-2.92 2.92H2.309c-.724 0-1.448-.094-2.172-.147C.156 45.363.153 23.53.13 1.703.13.395.393.133 1.7.133c21.824.054 43.647.065 65.47.034ZM33.455 57.391c7.223 0 14.452-.04 21.675 0 1.693 0 2.294-.472 2.283-2.236-.04-14.36-.04-28.73 0-43.11 0-1.66-.584-2.12-2.178-2.115a6599.52 6599.52 0 0 1-43.14 0c-1.595 0-2.173.473-2.167 2.12a6599.52 6599.52 0 0 1 0 43.14c0 1.752.584 2.242 2.295 2.225 7.071-.059 14.149-.03 21.232-.03v.006Zm168.164 9.781c-.724.053-1.448.146-2.172.146h-62.089c-2.878 0-2.919 0-2.919-2.92V2.31c0-.724.093-1.448.146-2.172 21.846.02 43.681.017 65.504-.006 1.302 0 1.571.263 1.565 1.57a20123.14 20123.14 0 0 0-.035 65.47Zm-33.722-9.786c7.229 0 14.452-.041 21.681 0 1.688 0 2.295-.462 2.289-2.231a4698.428 4698.428 0 0 1 0-43.134c0-1.653-.584-2.126-2.178-2.12-14.376.047-28.754.047-43.134 0-1.588 0-2.178.467-2.172 2.12.047 14.376.047 28.754 0 43.134 0 1.752.584 2.248 2.289 2.23 7.065-.029 14.148 0 21.225 0ZM.163 134.615c.724-.052 1.448-.146 2.172-.146h62.089c2.884 0 2.92 0 2.92 2.92v62.088c0 .724-.094 1.448-.146 2.172-21.824 0-43.647.012-65.47.035-1.308 0-1.576-.262-1.57-1.564.035-21.847.036-43.682.005-65.505Zm33.284 57.225c7.229 0 14.452-.041 21.68.029 1.688 0 2.296-.462 2.29-2.231a4691.255 4691.255 0 0 1 0-43.134c0-1.653-.584-2.126-2.178-2.12-14.376.047-28.754.047-43.134 0-1.589 0-2.179.467-2.173 2.12.047 14.376.047 28.754 0 43.134 0 1.752.584 2.248 2.29 2.231 7.065-.082 14.148-.035 21.225-.035v.006Zm43.358 9.78c-.052-4.671-.128-9.308-.146-13.956 0-7.427.047-14.849-.04-22.27 0-1.91.583-2.657 2.487-2.488 1.518.129 3.065-.082 4.584.047 1.944.169 2.832-.426 2.633-2.529-.163-1.751 0-3.503-.047-5.255-.052-1.425.584-1.933 1.945-1.903 2.546.058 5.092 0 7.643 0l.397.344c0 2.54 0 5.08-.04 7.62 0 1.209.472 1.705 1.681 1.682 2.54-.047 5.08-.029 7.62-.041l.38.374c0 2.406.053 4.811-.064 7.211-.076 1.659.584 2.19 2.172 2.108 1.892-.099 3.79 0 5.682 0 1.302-.035 1.845.502 1.81 1.81-.047 1.892.07 3.79 0 5.676-.082 1.583.438 2.26 2.102 2.178 2.4-.111 4.805-.047 7.211-.058l.345.403-.158 19.053h-19.269c-.053-2.528-.164-5.057-.135-7.591 0-1.396-.478-1.915-1.892-1.921-2.528 0-5.062.251-7.59-.164-.059-.87-.17-1.751-.176-2.604 0-4.811-.046-9.617 0-14.429 0-1.471-.42-2.148-1.99-2.067-1.887.1-3.79.059-5.682 0-1.215-.029-1.694.473-1.688 1.688.03 5.173.04 10.347 0 15.521 0 1.337.537 1.751 1.828 1.78 2.54.03 5.091-.233 7.632.164.291 3.195.303 6.409.035 9.605l-19.27.012Zm-47.952-95.751c-3.124-.106-6.26.216-9.383-.193-.42-5.512-.17-11.036-.14-16.549 0-2.037-.625-2.604-2.61-2.575-5.519.076-11.037-.058-16.555-.11v-9.635c3.574-.053 7.147-.135 10.715-.146 8.543 0 17.08.035 25.617-.035 1.798 0 2.476.584 2.388 2.382-.117 2.4 0 4.812 0 7.223l-.344.403c-2.394 0-4.8.053-7.194-.064-1.641-.076-2.15.555-2.126 2.155.082 5.6.047 11.2.058 16.799l-.426.345Zm172.765-.158c-2.464.053-4.934.193-7.398.123-1.647-.047-2.184.584-2.102 2.172.099 1.88 0 3.778 0 5.664.035 1.273-.45 1.868-1.752 1.833-2.178-.052-4.362-.029-6.54 0-1.057 0-1.629-.397-1.617-1.529.082-5.951-.234-11.907.175-17.85a27.897 27.897 0 0 1 6.727-.135c2.295.152 2.838-.718 2.768-2.867-.152-4.496-.053-9.004-.047-13.506 0-2.92 0-2.96 3.048-2.92 2.248 0 4.49.093 6.738.146v28.869Zm0 57.37c-2.535.053-5.069.17-7.591.135-1.425 0-1.957.519-1.892 1.921.076 1.67-.123 3.351.046 5.004.24 2.289-.735 2.92-2.861 2.768-2.242-.158-4.496-.035-6.744-.035l-.403-.345v-18.89l.403-.35c2.464 0 4.934-.053 7.398 0 1.437.041 1.939-.537 1.886-1.927-.076-1.81 0-3.632 0-5.442-.029-1.256.415-1.892 1.752-1.845 2.674.081 5.355.105 8.035.151l-.029 18.855ZM96.073.167l.158 19.06-.345.396h-9.255l-.35-.402c0-2.465-.053-4.935 0-7.399.04-1.43-.543-1.933-1.933-1.88-1.956.07-3.912 0-5.874 0-1.25.03-1.892-.415-1.846-1.752.082-2.68.106-5.36.152-8.04l19.293.017Zm19.306 28.875c-.409-4.087-.152-8.245-.17-12.367 0-5.501.082-11.007.135-16.508h9.634c.047 9.191.092 18.378.135 27.561 0 .987-.432 1.495-1.443 1.477-2.762-.052-5.535.228-8.291-.163ZM.167 105.711c6.423-.234 12.846-.292 19.24.035.403 5.944.088 11.9.17 17.85 0 1.133-.555 1.542-1.618 1.53-2.25-.023-4.502-.023-6.756 0-1.115 0-1.553-.531-1.547-1.6 0-1.962-.082-3.929 0-5.886.076-1.588-.456-2.219-2.108-2.172-2.464.07-4.928-.07-7.398-.122l.017-9.635Zm201.449 28.904c-5.905.047-11.81.097-17.716.152-1.168 0-1.752-.479-1.705-1.688.035-2.183.035-4.371 0-6.563 0-1.209.514-1.699 1.705-1.687 5.909.07 11.813.105 17.716.151v9.635Zm.002 57.371c-2.692.046-5.389.081-8.081.151-1.168.03-1.752-.478-1.705-1.687.035-2.184.035-4.372 0-6.563 0-1.209.514-1.717 1.705-1.682 2.692.07 5.389.099 8.081.146v9.635Zm-48.174 9.634a56.06 56.06 0 0 1 .035-9.6c2.756-.391 5.524-.111 8.286-.163 1.004 0 1.465.479 1.448 1.466-.047 2.767-.092 5.533-.135 8.297h-9.634Zm19.271 0c-.047-2.692-.076-5.389-.146-8.081-.035-1.168.473-1.752 1.682-1.705 2.192.035 4.379.035 6.563 0 1.209 0 1.717.514 1.688 1.705-.07 2.692-.105 5.389-.152 8.081h-9.635Z"/><path d="M144.217 163.046c-3.124.397-6.26.082-9.39.187l-.402-.344c0-2.476 0-4.958.046-7.434.029-1.243-.344-1.886-1.752-1.874-5.173.047-10.347.047-15.52 0-1.372 0-1.752.584-1.752 1.863.053 1.897-.07 3.795.029 5.687.082 1.641-.613 2.172-2.184 2.12-2.475-.076-4.957 0-7.433 0l-.379-.368c0-2.546 0-5.086.04-7.626 0-1.203-.467-1.705-1.675-1.682-2.541.053-5.086.035-7.626.041l-.398-.345.053-8.823.345-.403c8.828 0 17.651 0 26.475.053 1.43 0 2.125-.339 2.113-1.944-.058-8.245-.058-16.487 0-24.724 0-1.594-.642-2.014-2.096-1.968-2.406.088-4.811.041-7.217.053l-.351-.403c0-8.759.059-17.518-.035-26.276 0-2.003.584-2.733 2.616-2.61 2.336.145 4.672 0 7.007 0l.368.373c0 2.4.059 4.806 0 7.206-.046 1.454.386 2.108 1.968 2.084 5.022-.07 10.044-.07 15.065 0 1.583 0 2.032-.63 1.968-2.084-.082-1.892.035-3.79-.029-5.676-.047-1.425.555-1.944 1.944-1.91 2.4.059 4.8 0 7.206 0l.397.345c0 2.54 0 5.08-.041 7.62 0 1.21.473 1.705 1.682 1.682 2.54-.047 5.08-.03 7.62-.035l.345.397v9.209l-.374.367c-8.531 0-17.057.065-25.582-.046-2.073-.03-2.581.671-2.557 2.633.093 7.796.116 15.597 0 23.392-.035 2.178.712 2.82 2.762 2.645 1.751-.146 3.503 0 5.255 0 1.033 0 1.676.327 1.664 1.489-.088 9.074.234 18.108-.175 27.129Zm-67.629-47.543h-9.202l-.403-.344c0-.73.029-1.454.035-2.184 0-7.398 0-7.352-7.398-7.141-1.589.046-1.997.671-1.95 2.113.087 2.4.04 4.806.052 7.212l-.403.344c-2.248 0-4.502-.116-6.739 0-1.99.129-2.545-.712-2.417-2.54.117-1.752-.035-3.503.04-5.22.06-1.396-.46-1.968-1.891-1.921-2.464.07-4.928 0-7.392 0l-.403-.345V86.634l.344-.403c2.476 0 4.958.129 7.422.03 1.752-.07 2.335.642 2.23 2.306-.105 1.664.076 3.352-.046 5.016-.135 1.816.537 2.394 2.335 2.377 8.607-.065 17.203-.065 25.821-.065l.403.345v18.895l-.438.368Zm29.281-76.581c0 2.558-.053 5.11 0 7.661.035 1.419-.537 1.927-1.933 1.921a3072.3 3072.3 0 0 0-25.4 0c-1.431 0-1.904-.584-1.898-1.956.035-8.467.035-16.934 0-25.4 0-1.455.625-1.898 1.98-1.875 2.557.04 5.109-.03 7.66-.052l.35.402c0 5.606 0 11.212-.063 16.811 0 1.618.513 2.173 2.137 2.15 5.605-.088 11.211-.053 16.817-.065l.35.403ZM86.282 76.59v-9.208l.374-.367c2.406 0 4.817-.059 7.223 0 1.49.052 2.143-.433 2.067-1.997-.099-1.892 0-3.796-.035-5.688-.04-1.36.427-2.026 1.88-1.98 2.044.07 4.088.065 6.132 0 1.384-.04 1.956.474 1.95 1.904a6599.325 6599.325 0 0 0 0 35.036c0 1.401-.508 1.967-1.921 1.932-2.552-.058-5.11 0-7.661 0l-.397-.327c0-5.6 0-11.2.058-16.793 0-1.6-.473-2.237-2.12-2.16-2.394.11-4.793.046-7.193.058l-.357-.41Z"/><path d="M182.313 96.047c-5.419.415-10.844.076-16.262.187l-2.821.058-.344-.397c0-2.546 0-5.086.041-7.626 0-1.203-.468-1.705-1.676-1.681-2.54.052-5.086.035-7.626.04l-.397-.344c0-2.546.081-5.086.046-7.632 0-1.326.357-2.014 1.84-2.009 8.507.041 17.015 0 25.523 0 1.057 0 1.863.193 1.845 1.524-.076 5.968.24 11.924-.169 17.88Zm-105.691-.152c0-5.67.088-11.34.03-17.01 0-1.675.507-2.335 2.248-2.283 2.464.1 4.94 0 7.41-.035l.35.403v18.896l-.368.38h-9.296l-.374-.35Zm29.302-66.982c3.129.106 6.265-.204 9.389.193.391 2.727.093 5.477.169 8.216.041 1.308-.741 1.536-1.816 1.536-2.598 0-5.197.04-7.801.064l-.344-.403v-9.255l.403-.35Zm-9.635 76.64c2.552 0 5.109.053 7.655 0 1.407-.035 1.962.526 1.927 1.927-.058 2.552 0 5.11 0 7.661l-.339.403h-9.266l-.374-.379v-9.256l.397-.356Z"/><path d="M96.291 96.234v9.343l-.397.35c-2.604 0-5.208-.064-7.807 0-1.296 0-1.822-.502-1.804-1.799.035-2.604 0-5.208 0-7.807l.368-.38h9.243l.397.293Zm9.576 18.931h9.343l.35.402c0 2.605-.064 5.203 0 7.807 0 1.291-.502 1.822-1.798 1.805-2.604-.041-5.209 0-7.807 0l-.38-.374v-9.255l.292-.385Zm18.9-28.881c0-2.546.105-5.086.041-7.632-.041-1.524.584-2.067 2.055-2.014 2.108.081 4.216.046 6.324 0 1.098 0 1.582.478 1.571 1.57 0 2.254-.035 4.508 0 6.756 0 1.279-.66 1.606-1.752 1.606-2.616 0-5.255.035-7.848.058l-.391-.344Zm-57.439-4.467c-.082 5.489.706 4.73-4.724 4.77-5.22.041-5.255 0-5.215-5.15.047-5.488-.718-4.73 4.718-4.776 5.22-.035 5.22-.006 5.22 5.156Zm47.865-19.637c.081-5.495-.719-4.742 4.712-4.788 5.255-.041 5.255 0 5.22 5.144-.047 5.495.724 4.741-4.706 4.782-5.226.041-5.226.012-5.226-5.138Zm-28.909 5.202c-2.546 0-5.086-.099-7.632-.035-1.524.035-2.067-.584-2.015-2.061.082-2.102.047-4.21 0-6.318 0-1.098.48-1.583 1.571-1.57 2.254 0 4.508.028 6.756 0 1.279 0 1.606.653 1.606 1.75 0 2.617.035 5.256.058 7.849l-.344.385Zm9.608 77.084c-2.405 0-4.811-.158-7.205 0-1.98.111-2.575-.678-2.453-2.54.123-1.863 0-3.644.035-5.466.03-1.22-.49-1.705-1.693-1.676-1.822.047-3.65-.093-5.466.035-1.816.129-2.551-.519-2.522-2.464.093-5.605 0-11.217 0-16.828l.403-.345h18.901l.38.374c0 2.54 0 5.08-.047 7.62 0 1.209.473 1.705 1.682 1.682 2.54-.047 5.08-.029 7.62-.041l.38.374c0 2.335-.158 4.671 0 6.972.146 2.166-.713 2.832-2.757 2.656-1.664-.14-3.345.035-5.01-.04-1.407-.065-1.967.473-1.92 1.897.075 2.47.04 4.94.046 7.41l-.374.38ZM38.92 105.869c0 5.675-.094 11.357-.035 17.027 0 1.717-.584 2.336-2.272 2.26a47.252 47.252 0 0 0-5.454 0c-1.71.105-2.289-.549-2.271-2.26.058-5.676 0-11.352-.035-17.027l.403-.345h9.26l.404.345Zm28.464 9.634c0 2.546-.105 5.086-.04 7.627.035 1.518-.584 2.078-2.05 2.02a91.962 91.962 0 0 0-6.102 0c-1.29.035-1.834-.485-1.816-1.793 0-2.616-.035-5.226-.058-7.842l.402-.344h9.261l.403.332Zm105.114 57.371h-6.739c-2.82 0-2.82 0-2.832-2.92 0-1.524-.076-3.048 0-4.566.076-1.519-.449-2.19-2.096-2.167-2.453.035-4.923.246-7.369-.151-.391-2.739-.105-5.495-.17-8.245-.029-1.139.584-1.513 1.63-1.507 2.026 0 4.058-.058 6.084 0 1.401.047 1.968-.467 1.921-1.892-.076-2.336 0-4.636 0-6.96l.374-.368c5.658 0 11.316.052 16.974 0 1.7 0 2.336.549 2.26 2.26-.093 2.335 0 4.642.035 6.96l-.403.35c-2.394 0-4.799.053-7.194-.064-1.64-.076-2.148.584-2.125 2.155.082 5.6.047 11.199.058 16.799l-.408.316Zm-9.254-67.373c2.545 0 5.097.087 7.649.046 1.343 0 2.003.398 1.985 1.863a922.112 922.112 0 0 0 0 15.953c0 1.331-.584 1.787-1.845 1.781-5.321-.035-10.641-.035-15.959 0-1.319 0-1.816-.584-1.786-1.834.046-2.113.052-4.227 0-6.341-.035-1.331.584-1.81 1.839-1.781 2.038.047 4.087 0 6.12 0 1.208.029 1.716-.467 1.687-1.682-.058-2.546-.047-5.097-.064-7.649l.374-.356Zm-.324 38.959c-2.545 0-5.085-.099-7.631-.035-1.524.035-2.067-.584-2.015-2.061.082-2.102.047-4.21.029-6.318 0-1.098.479-1.583 1.571-1.571 2.254 0 4.508.029 6.756 0 1.279 0 1.606.654 1.606 1.752 0 2.616.035 5.255.058 7.848l-.374.385Zm-9.504 18.656c.391 2.751.105 5.518.164 8.28 0 .993-.462 1.46-1.454 1.454h-6.552c-.993 0-1.477-.461-1.454-1.454.053-2.762-.228-5.529.163-8.28a45.995 45.995 0 0 1 9.133 0Zm-18.833 19.2-9.448.245-.345-.397c0-5.658.07-11.317 0-16.975 0-1.658.479-2.371 2.225-2.295 2.464.105 4.934 0 7.398 0l.403.345c0 5.571-.035 11.141-.07 16.712.006.794-.105 1.582-.163 2.365Zm18.831 9.64c-5.839.409-11.643.094-17.471.164-.987 0-1.483-.45-1.46-1.448.053-2.762-.227-5.536.164-8.286 5.839-.409 11.643-.1 17.465-.17.993 0 1.483.456 1.466 1.454-.059 2.762.227 5.53-.164 8.286Z"/><path d="M182.564 172.874c0 2.545-.105 5.086-.041 7.626.035 1.518-.584 2.078-2.049 2.02a92.648 92.648 0 0 0-6.102 0c-1.291.035-1.834-.485-1.816-1.793 0-2.616-.035-5.226-.059-7.842l.403-.344h9.261l.403.333ZM96.23 19.226c2.617 0 5.227.082 7.837.053 1.296 0 1.816.508 1.804 1.804-.029 2.61 0 5.22.053 7.83l-.403.35c-2.598 0-5.203-.063-7.807 0-1.29 0-1.816-.507-1.798-1.798.035-2.604 0-5.208 0-7.812l.315-.427Zm-47.74 14.68c0 4.158-.053 8.315 0 12.473.035 1.629-.584 2.149-2.172 2.137-8.315-.055-16.63-.055-24.945 0-1.624 0-2.143-.584-2.138-2.172.055-8.315.055-16.63 0-24.945 0-1.624.584-2.143 2.178-2.138 8.308.055 16.62.055 24.94 0 1.629 0 2.166.584 2.137 2.178-.047 4.152 0 8.316 0 12.467Zm134.012.059c0 4.157-.041 8.315 0 12.472 0 1.466-.456 2.085-2.003 2.079-8.393-.055-16.78-.055-25.161 0-1.472 0-2.091-.456-2.079-2.003.047-8.393.047-16.78 0-25.161 0-1.472.461-2.09 2.009-2.079 8.385.047 16.772.047 25.161 0 1.687 0 2.102.7 2.079 2.23-.047 4.146-.006 8.304-.006 12.462ZM33.88 153.295c4.158 0 8.316.052 12.473 0 1.606-.029 2.172.543 2.16 2.154-.054 8.312-.054 16.625 0 24.94 0 1.6-.537 2.172-2.148 2.16-8.315-.054-16.63-.054-24.945 0-1.6 0-2.173-.537-2.16-2.149.054-8.315.054-16.63 0-24.945 0-1.6.536-2.189 2.154-2.16 4.151.052 8.315 0 12.466 0Z"/></g><defs><clipPath id="a"><path fill="#fff" d="M.13.132h201.523v201.523H.13z"/></clipPath></defs></svg>