<svg xmlns="http://www.w3.org/2000/svg" width="143" height="145" fill="none" viewBox="0 0 143 145"><path fill="#6D73E6" fill-opacity="0.1" d="M111.255 97.72c-3.543 1.571-7.008 3.647-10.643 4.632-3.09.717-6.048 2.212-8.608 4.352a22.943 22.943 0 0 0-6.063 7.915c-2.241 4.752-5.844 8.761-10.246 11.398-2.543 1.475-5.33 2.288-8.104 2.365-2.773.077-5.442-.585-7.76-1.924-2.317-1.339-4.21-3.313-5.5-5.737-1.291-2.425-1.94-5.224-1.885-8.136-.01-3.418.982-6.937 1.413-10.409.455-3.824.8-7.647 1.167-11.437a82.724 82.724 0 0 1 1.123-10.41c2.64-11.391 11.382-18.478 22.234-18.156a23.405 23.405 0 0 1 7.58 1.174c4.788 1.667 9.9 2.437 15.121 2.28 6.471.023 11.85 2.143 15.163 8.038 4.66 8.207 2.789 16.873-4.992 24.055ZM51.257 52.282c1.009 3.12 2.51 6.138 2.939 9.413a12.357 12.357 0 0 1-.521 5.184 13.4 13.4 0 0 1-2.618 4.672 12.828 12.828 0 0 1-4.185 3.215c-1.576.749-3.254 1.127-4.907 1.107-9.532.13-17.671-10.182-15.79-20.234.415-2.789 1.82-5.421 3.926-7.356 2.105-1.936 4.752-3.025 7.393-3.045 4.947-.222 9.79 2.46 13.763 7.044ZM74.22 29.68c3.565 5.424 5.083 10.117 3.847 15.791a13.319 13.319 0 0 1-2.19 5.167 13.151 13.151 0 0 1-4.1 3.797c-1.6.936-3.348 1.48-5.1 1.587-1.75.106-3.455-.228-4.97-.975-6.58-3.291-10.429-9.049-10.46-17.183-.032-10.29 8.853-16.556 17.347-12.32a33.654 33.654 0 0 1 5.627 4.136Zm-30.4 57.691c4.825 6.82 3.925 13.911-2.394 18.815a12.338 12.338 0 0 1-4.418 2.115c-1.565.387-3.152.43-4.66.126a14.627 14.627 0 0 1-8.778-5.069c-2.236-2.687-3.523-6.148-3.675-9.887a12.04 12.04 0 0 1 .778-4.843 12.844 12.844 0 0 1 2.654-4.253 12.153 12.153 0 0 1 4.018-2.841c1.49-.644 3.064-.945 4.604-.88 2.435.043 4.768.67 6.824 1.833a14.065 14.065 0 0 1 5.046 4.884Zm62.635-54.345c1.349 1.778 2.288 3.883 2.753 6.174.465 2.29.445 4.714-.057 7.108-2.053 9.227-11.54 13.617-18.243 8.408a15.937 15.937 0 0 1-4.503-5.3c-1.116-2.103-1.795-4.468-1.998-6.955-.529-6.13 2.016-11.36 6.564-13.843 4.548-2.483 10.208-1.5 13.935 2.5.533.655 1.066 1.31 1.549 1.908Z"/></svg>