<svg xmlns="http://www.w3.org/2000/svg" width="122" height="124" fill="none" viewBox="0 0 122 124"><path fill="#6D73E6" fill-opacity="0.1" d="M96.085 82.782c-3.089 1.321-6.107 3.069-9.278 3.895-2.697.6-5.274 1.858-7.501 3.662a19.28 19.28 0 0 0-5.262 6.676 22.437 22.437 0 0 1-8.902 9.613c-2.216 1.241-4.648 1.923-7.07 1.983-2.422.06-4.756-.504-6.786-1.639a12.476 12.476 0 0 1-4.83-4.857c-1.138-2.051-1.716-4.417-1.68-6.877-.024-2.888.828-5.86 1.19-8.792.381-3.23.667-6.46.97-9.66.118-2.93.432-5.868.938-8.795 2.259-9.62 9.865-15.591 19.345-15.3a21.146 21.146 0 0 1 6.627 1.005c4.19 1.417 8.658 2.077 13.218 1.953 5.653.031 10.36 1.831 13.279 6.818 4.106 6.942 2.508 14.26-4.258 20.315ZM43.481 44.286c.895 2.637 2.22 5.19 2.607 7.958.183 1.44.035 2.937-.433 4.38a11.125 11.125 0 0 1-2.267 3.942 11.062 11.062 0 0 1-3.642 2.709 9.955 9.955 0 0 1-4.282.926c-8.326.094-15.48-8.633-13.878-17.124.35-2.355 1.566-4.576 3.397-6.208 1.832-1.63 4.139-2.547 6.446-2.56 4.32-.178 8.562 2.096 12.052 5.977ZM63.445 25.23c3.137 4.588 4.483 8.555 3.427 13.348a10.977 10.977 0 0 1-1.892 4.36 11.234 11.234 0 0 1-3.565 3.202 10.24 10.24 0 0 1-4.448 1.331 8.886 8.886 0 0 1-4.345-.832c-5.763-2.792-9.15-7.663-9.21-14.536-.072-8.695 7.663-13.973 15.101-10.379 1.763 1 3.414 2.173 4.932 3.505ZM37.134 73.918c4.244 5.77 3.489 11.76-2.01 15.892a10.86 10.86 0 0 1-3.852 1.78 9.619 9.619 0 0 1-4.07.097c-3.032-.52-5.723-2.024-7.688-4.298-1.966-2.274-3.104-5.2-3.253-8.36a9.84 9.84 0 0 1 .66-4.09 10.704 10.704 0 0 1 2.3-3.59 10.52 10.52 0 0 1 3.497-2.393 9.436 9.436 0 0 1 4.018-.735c2.128.04 4.169.574 5.97 1.56 1.8.987 3.314 2.401 4.428 4.136ZM91.618 28.11a12.722 12.722 0 0 1 2.43 5.221c.416 1.936.41 3.984-.02 6.006-1.754 7.792-10.022 11.484-15.9 7.072a13.733 13.733 0 0 1-3.955-4.486 14.861 14.861 0 0 1-1.775-5.88c-.488-5.18 1.713-9.594 5.675-11.684 3.962-2.09 8.911-1.249 12.184 2.137.468.554.936 1.108 1.36 1.614Z"/></svg>