<svg xmlns="http://www.w3.org/2000/svg" width="83" height="87" fill="none" viewBox="0 0 83 87"><path fill="#6D73E6" fill-opacity="0.1" d="M69.488 52.51c-1.952 1.46-3.786 3.207-5.877 4.332-1.796.885-3.4 2.212-4.668 3.863a14.152 14.152 0 0 0-2.604 5.6 16.476 16.476 0 0 1-4.68 8.288c-1.352 1.254-2.948 2.15-4.639 2.608-1.69.458-3.422.462-5.033.012a8.863 8.863 0 0 1-4.185-2.588c-1.134-1.248-1.926-2.812-2.304-4.549-.488-2.027-.376-4.264-.6-6.389-.261-2.337-.588-4.658-.898-6.962-.397-2.08-.657-4.2-.78-6.346.014-7.154 4.378-12.66 11.083-14.082a15.22 15.22 0 0 1 4.817-.43c3.173.278 6.418-.025 9.6-.895 3.974-.947 7.574-.489 10.438 2.518 4.017 4.179 4.092 9.6.33 15.02ZM26.26 34.457c1.058 1.702 2.406 3.27 3.13 5.15a7.3 7.3 0 0 1 .412 3.155 8.149 8.149 0 0 1-.947 3.163 8.124 8.124 0 0 1-2.115 2.53 7.25 7.25 0 0 1-2.855 1.387c-5.83 1.494-12.28-3.417-12.543-9.664-.14-1.717.352-3.489 1.37-4.95 1.02-1.462 2.49-2.502 4.108-2.907 3.005-.866 6.354.005 9.44 2.136Zm10.904-16.828c2.952 2.69 4.545 5.25 4.588 8.801a8.022 8.022 0 0 1-.616 3.393 8.254 8.254 0 0 1-1.98 2.863 7.474 7.474 0 0 1-2.905 1.7 6.388 6.388 0 0 1-3.188.16c-4.502-.975-7.676-3.82-8.842-8.644-1.471-6.104 3.097-11.144 8.907-9.893a21.1 21.1 0 0 1 4.036 1.62ZM26.649 56.392c3.923 3.33 4.371 7.673 1.186 11.523a7.957 7.957 0 0 1-2.413 1.913 6.963 6.963 0 0 1-2.843.767c-2.213.155-4.349-.442-6.1-1.704-1.752-1.262-3.03-3.125-3.65-5.323a7.137 7.137 0 0 1-.206-2.99 7.848 7.848 0 0 1 3.093-5.203 6.866 6.866 0 0 1 2.701-1.206 9.257 9.257 0 0 1 4.446.073 8.695 8.695 0 0 1 3.786 2.15Zm30.765-41.57a9.067 9.067 0 0 1 2.56 3.255 10.39 10.39 0 0 1 .968 4.228c.042 5.782-5.16 9.798-10.008 7.703a9.758 9.758 0 0 1-3.511-2.477 10.625 10.625 0 0 1-2.207-3.832c-1.19-3.559-.366-7.042 2.075-9.192 2.44-2.15 6.052-2.407 8.904-.587l1.22.902Z"/></svg>