<svg xmlns="http://www.w3.org/2000/svg" width="120" height="116" fill="none" viewBox="0 0 120 116"><path fill="#6D73E6" fill-opacity="0.1" d="M46.401 96.769c-1.925-2.753-4.253-5.35-5.711-8.284-1.139-2.517-2.898-4.782-5.12-6.593a19.279 19.279 0 0 0-7.611-3.785 22.434 22.434 0 0 1-11.231-6.746c-1.668-1.915-2.834-4.156-3.388-6.514-.555-2.358-.48-4.759.216-6.978a12.473 12.473 0 0 1 3.766-5.722c1.774-1.533 3.971-2.583 6.387-3.053 2.822-.613 5.905-.388 8.85-.633 3.24-.288 6.46-.67 9.655-1.027a67.523 67.523 0 0 1 8.8-.883c9.877.243 17.28 6.466 18.935 15.806.48 2.23.606 4.487.372 6.692-.53 4.39-.262 8.9.793 13.338 1.126 5.54.327 10.516-3.956 14.394-5.956 5.439-13.446 5.373-20.757-.012Zm26.917-59.368c-2.399 1.415-4.627 3.234-7.256 4.18a10.094 10.094 0 0 1-4.376.472 11.126 11.126 0 0 1-4.323-1.412 11.061 11.061 0 0 1-3.396-3.01 9.956 9.956 0 0 1-1.784-4.002c-1.795-8.131 5.283-16.919 13.922-17.089 2.376-.139 4.8.597 6.772 2.056 1.971 1.458 3.34 3.529 3.824 5.785 1.059 4.193-.299 8.81-3.383 13.02Zm22.739 15.642c-3.85 4.009-7.458 6.138-12.365 6.086-1.578.03-3.174-.3-4.656-.96a11.233 11.233 0 0 1-3.863-2.834 10.239 10.239 0 0 1-2.214-4.081 8.885 8.885 0 0 1-.074-4.424c1.554-6.212 5.629-10.524 12.343-11.99 8.497-1.85 15.246 4.641 13.25 12.658a29.654 29.654 0 0 1-2.421 5.545ZM43.014 37.252c-4.78 5.335-10.797 5.821-15.967 1.284a10.86 10.86 0 0 1-2.53-3.405 9.619 9.619 0 0 1-.929-3.965c-.111-3.073.81-6.016 2.634-8.405 1.824-2.389 4.455-4.102 7.518-4.895a9.839 9.839 0 0 1 4.139-.191c1.404.23 2.765.748 3.983 1.518a10.52 10.52 0 0 1 3.058 2.933 9.435 9.435 0 0 1 1.543 3.783c.395 2.09.29 4.197-.307 6.162a12.237 12.237 0 0 1-3.142 5.18Zm55.988 43.957a12.723 12.723 0 0 1-4.614 3.447c-1.81.804-3.815 1.216-5.882 1.21-7.987-.122-13.293-7.46-10.176-14.117a13.733 13.733 0 0 1 3.58-4.79 14.863 14.863 0 0 1 5.394-2.94c4.97-1.538 9.741-.286 12.598 3.164 2.857 3.45 3.046 8.467.401 12.363-.446.572-.893 1.143-1.301 1.663Z"/></svg>