<svg width="109" height="99" viewBox="0 0 109 99" fill="none" xmlns="http://www.w3.org/2000/svg">
<g id="Group 334">
<path id="Vector" d="M58.6764 96.8568C55.3155 94.9148 51.6051 93.3383 48.6496 90.97C46.2328 88.8834 43.283 87.3723 40.0641 86.572C36.8453 85.7716 33.4577 85.707 30.2045 86.3838C25.1232 87.4092 19.8102 86.8799 15.0959 84.8787C12.4108 83.6917 10.0994 81.9101 8.37556 79.6986C6.65174 77.4872 5.57117 74.9173 5.23387 72.2268C4.89656 69.5364 5.31341 66.8123 6.44583 64.3066C7.57826 61.801 9.38968 59.5947 11.7125 57.8919C14.394 55.8336 17.7563 54.5305 20.7452 52.7996C24.0251 50.8757 27.2386 48.864 30.4377 46.8891C33.2548 44.9328 36.215 43.1519 39.2978 41.5584C49.8385 36.8767 60.6544 39.7429 66.9105 48.7711C68.4948 50.8841 69.7166 53.2025 70.5344 55.6473C72.0953 60.5449 74.5553 65.1692 77.8112 69.3259C81.6743 74.6086 83.2338 80.2593 80.5856 86.4923C76.9274 95.2094 68.9911 98.8843 58.6764 96.8568Z" fill="#6D73E6" fill-opacity="0.1"/>
<path id="Vector_2" d="M58.416 20.7524C56.5681 23.4447 55.0954 26.4781 52.7774 28.7905C51.5582 29.9762 50.0571 30.8947 48.388 31.4764C46.7189 32.058 44.9256 32.2875 43.1441 32.1475C41.3626 32.0074 39.6396 31.5015 38.1059 30.6681C36.5722 29.8346 35.268 28.6956 34.2923 27.3373C28.472 19.6544 31.6988 6.84229 40.7323 2.34453C43.1733 1.00963 46.0863 0.574212 48.8709 1.12799C51.6556 1.68176 54.0998 3.18254 55.7001 5.32111C58.8414 9.21618 59.6378 14.7668 58.416 20.7524Z" fill="#6D73E6" fill-opacity="0.1"/>
<path id="Vector_3" d="M89.961 25.8912C87.8338 32.0466 85.0547 36.0974 79.8515 38.4952C78.2003 39.315 76.357 39.7658 74.4749 39.8101C72.5928 39.8544 70.7263 39.491 69.0303 38.7501C67.3343 38.0091 65.8578 36.9121 64.7237 35.55C63.5895 34.1879 62.8303 32.6002 62.5092 30.9187C61.1498 23.587 63.3683 16.9996 69.7459 12.0958C77.8185 5.89663 88.0747 9.37222 89.8394 18.8291C90.1193 21.1747 90.16 23.5388 89.961 25.8912Z" fill="#6D73E6" fill-opacity="0.1"/>
<path id="Vector_4" d="M26.3624 35.7449C23.8944 43.7646 17.7788 47.2858 10.1326 45.0825C8.53038 44.5891 7.06057 43.7956 5.8187 42.7537C4.57682 41.7118 3.59068 40.4447 2.92433 39.0348C1.32256 35.8467 0.875042 32.2809 1.64588 28.8481C2.41672 25.4153 4.36638 22.2917 7.21558 19.9247C8.43707 18.8896 9.89732 18.1139 11.4905 17.6537C13.0837 17.1934 14.7699 17.0602 16.4269 17.2638C18.0839 17.4673 19.6702 18.0024 21.0708 18.8304C22.4714 19.6583 23.6512 20.7584 24.5247 22.0508C25.9515 24.0596 26.858 26.3352 27.1763 28.7068C27.4946 31.0785 27.2163 33.4846 26.3624 35.7449Z" fill="#6D73E6" fill-opacity="0.1"/>
<path id="Vector_5" d="M106.667 54.1427C106.078 56.3081 104.986 58.3347 103.464 60.0871C101.941 61.8395 100.024 63.2773 97.84 64.3045C89.353 68.1678 80.2111 63.0769 80.286 54.4948C80.2687 52.1476 80.7671 49.8207 81.7522 47.6499C82.7373 45.4791 84.1893 43.5077 86.0236 41.8508C90.5256 37.7438 96.1648 36.679 100.845 38.892C105.526 41.1049 108.147 46.3037 107.238 51.7375C107.043 52.5639 106.847 53.3903 106.667 54.1427Z" fill="#6D73E6" fill-opacity="0.1"/>
</g>
</svg>
