<svg width="120" height="115" viewBox="0 0 120 115" fill="none" xmlns="http://www.w3.org/2000/svg">
<g id="Group 356">
<path id="Vector" d="M45.8457 96.197C43.9378 93.4322 41.6266 90.8205 40.1876 87.8763C39.065 85.3523 37.3206 83.0758 35.1105 81.2506C32.9005 79.4255 30.2936 78.1085 27.5231 77.4176C23.2073 76.3137 19.2733 73.9159 16.336 70.599C14.6801 68.6732 13.5292 66.4254 12.9898 64.0636C12.4504 61.7017 12.54 59.302 13.2502 57.0867C13.9604 54.8714 15.2683 52.912 17.0529 51.3897C18.8376 49.8675 21.0412 48.8317 23.4599 48.378C26.2857 47.7825 29.3672 48.0279 32.3132 47.8015C35.5551 47.5341 38.7771 47.1736 41.9745 46.8363C44.8687 46.3707 47.8106 46.0947 50.78 46.0101C60.6558 46.3163 68.0181 52.5865 69.6135 61.9366C70.0801 64.1698 70.1911 66.427 69.9427 68.6313C69.385 73.018 69.6242 77.5287 70.6503 81.9741C71.741 87.5208 70.9101 92.4918 66.6018 96.3416C60.6118 101.743 53.1219 101.628 45.8457 96.197Z" fill="#6D73E6" fill-opacity="0.1"/>
<path id="Vector_2" d="M73.1424 37.0031C70.7348 38.4028 68.4953 40.2075 65.86 41.1364C64.4849 41.6012 62.9876 41.7531 61.4814 41.5806C59.9753 41.4081 58.5 40.9157 57.1674 40.1408C55.8347 39.3658 54.6797 38.3287 53.7901 37.108C52.9004 35.8873 52.2993 34.5151 52.0325 33.0955C50.2894 24.9531 57.4241 16.2108 66.0633 16.0963C68.4409 15.9725 70.8599 16.7237 72.822 18.195C74.784 19.6664 76.1396 21.7458 76.6093 24.0048C77.641 28.2041 76.2538 32.812 73.1424 37.0031Z" fill="#6D73E6" fill-opacity="0.1"/>
<path id="Vector_3" d="M95.7805 52.7901C91.9047 56.7745 88.2833 58.8808 83.3769 58.797C81.7986 58.8161 80.2046 58.4769 78.7272 57.8075C77.2499 57.1381 75.9319 56.1579 74.8828 54.9483C73.8337 53.7388 73.0837 52.3348 72.6953 50.853C72.3068 49.3712 72.291 47.8543 72.6492 46.4286C74.2428 40.227 78.3456 35.9414 85.0693 34.5184C93.577 32.7233 100.285 39.2574 98.2378 47.2607C97.6075 49.1869 96.785 51.0378 95.7805 52.7901Z" fill="#6D73E6" fill-opacity="0.1"/>
<path id="Vector_4" d="M42.8407 36.6595C38.0267 41.9641 32.0061 42.4115 26.8654 37.8413C25.7996 36.859 24.9451 35.6932 24.3573 34.4198C23.7695 33.1463 23.4617 31.7937 23.4537 30.4497C23.362 27.375 24.3029 24.4388 26.1418 22.0614C27.9806 19.684 30.6231 17.9875 33.6906 17.2149C35.013 16.868 36.4271 16.8116 37.8304 17.05C39.2337 17.2884 40.591 17.8155 41.8041 18.5932C43.0171 19.3709 44.0554 20.3796 44.8437 21.5463C45.632 22.7129 46.1506 24.0083 46.3618 25.3385C46.7438 27.432 46.6255 29.538 46.0157 31.4987C45.4058 33.4593 44.3204 35.2237 42.8407 36.6595Z" fill="#6D73E6" fill-opacity="0.1"/>
<path id="Vector_5" d="M98.5449 80.9745C97.305 82.4357 95.7247 83.6009 93.9097 84.3925C92.0946 85.184 90.0864 85.5835 88.0194 85.5644C80.0338 85.3907 74.7751 78.0189 77.9342 71.3827C78.7689 69.5536 79.9966 67.9331 81.5458 66.6158C83.0951 65.2985 84.9348 64.3107 86.9577 63.71C91.9372 62.2043 96.7004 63.4862 99.5351 66.9549C102.37 70.4236 102.527 75.4409 99.8573 79.3203C99.407 79.889 98.9567 80.4576 98.5449 80.9745Z" fill="#6D73E6" fill-opacity="0.1"/>
</g>
</svg>
