<svg width="48" height="46" viewBox="0 0 48 46" fill="none" xmlns="http://www.w3.org/2000/svg">
<g id="Group 390">
<path id="Vector" d="M17.6788 37.8347C16.9955 36.7264 16.1508 35.6704 15.655 34.5007C15.2735 33.5 14.643 32.5843 13.8199 31.8357C12.9969 31.0871 12.0069 30.5289 10.9386 30.211C9.27504 29.7051 7.79051 28.7032 6.717 27.362C6.11307 26.5842 5.71413 25.6903 5.55709 24.7629C5.40006 23.8356 5.49 22.9048 5.81859 22.0567C6.14718 21.2086 6.70381 20.4706 7.43696 19.911C8.17012 19.3514 9.05611 18.9882 10.013 18.8551C11.1323 18.6741 12.3325 18.8245 13.4905 18.7891C14.7652 18.743 16.0342 18.6604 17.2931 18.5864C18.4363 18.4571 19.5938 18.4024 20.7576 18.4225C24.6151 18.7177 27.3526 21.2854 27.763 24.9469C27.8945 25.8229 27.8863 26.7019 27.7387 27.554C27.4201 29.2485 27.4105 31.0054 27.7103 32.751C28.0102 34.9256 27.5714 36.8423 25.7975 38.2613C23.33 40.253 20.4017 40.075 17.6788 37.8347Z" fill="#6D73E6" fill-opacity="0.1"/>
<path id="Vector_2" d="M29.7139 15.321C28.7397 15.8219 27.8221 16.4832 26.7696 16.7971C26.221 16.9531 25.6316 16.9854 25.0461 16.8915C24.4607 16.7976 23.8947 16.58 23.3909 16.2551C22.8872 15.9302 22.459 15.5066 22.1388 15.0164C21.8186 14.5263 21.6147 13.9824 21.5428 13.426C21.047 10.2312 24.0388 6.96166 27.422 7.0713C28.3552 7.06564 29.2846 7.40067 30.0187 8.00737C30.7528 8.61406 31.2357 9.44621 31.3678 10.3323C31.6755 11.9824 31.0272 13.7481 29.7139 15.321Z" fill="#6D73E6" fill-opacity="0.1"/>
<path id="Vector_3" d="M38.2125 21.8586C36.6047 23.3376 35.1395 24.0914 33.2215 23.9713C32.6035 23.9505 31.9875 23.7903 31.4247 23.5038C30.8619 23.2174 30.3686 22.813 29.9857 22.3243C29.6029 21.8356 29.3415 21.2767 29.2234 20.694C29.1053 20.1113 29.1338 19.5217 29.3066 18.9741C30.0721 16.5929 31.7755 15.0009 34.4391 14.568C37.8093 14.0223 40.2845 16.6808 39.3005 19.754C39.0099 20.4912 38.6456 21.1957 38.2125 21.8586Z" fill="#6D73E6" fill-opacity="0.1"/>
<path id="Vector_4" d="M17.8674 14.6461C15.8623 16.6213 13.4962 16.6877 11.5891 14.8202C11.1946 14.4195 10.8868 13.9513 10.686 13.446C10.4851 12.9407 10.3956 12.4096 10.4232 11.8873C10.4577 10.691 10.893 9.56688 11.667 8.67596C12.4409 7.78504 13.5137 7.17301 14.7317 6.92755C15.2571 6.81633 15.8117 6.81968 16.3554 6.93734C16.8991 7.05501 17.4182 7.28404 17.875 7.60785C18.3319 7.93166 18.7151 8.34213 18.9969 8.80951C19.2787 9.27689 19.452 9.78947 19.5042 10.3101C19.6058 11.1303 19.5113 11.9465 19.2279 12.6974C18.9444 13.4484 18.4793 14.1146 17.8674 14.6461Z" fill="#6D73E6" fill-opacity="0.1"/>
<path id="Vector_5" d="M38.6467 32.8602C38.1281 33.4059 37.483 33.8304 36.7547 34.1056C36.0263 34.3808 35.2314 34.5002 34.423 34.4559C31.3021 34.2459 29.413 31.2877 30.801 28.7656C31.1694 28.0698 31.6869 27.462 32.3233 26.9778C32.9596 26.4936 33.7021 26.1426 34.5074 25.9453C36.4904 25.4491 38.325 26.0322 39.3548 27.4306C40.3847 28.8289 40.3313 30.7812 39.198 32.2409C39.0088 32.4539 38.8196 32.6668 38.6467 32.8602Z" fill="#6D73E6" fill-opacity="0.1"/>
</g>
</svg>
