<svg width="52" height="49" viewBox="0 0 52 49" fill="none" xmlns="http://www.w3.org/2000/svg">
<path d="M21.7025 42.1046C20.7521 40.9704 19.6288 39.9215 18.8793 38.6875C18.2859 37.6248 17.4266 36.6986 16.3781 35.9919C15.3296 35.2852 14.1246 34.8199 12.8711 34.6378C10.9172 34.342 9.08332 33.4591 7.65589 32.1271C6.84905 31.3515 6.25365 30.4118 5.9248 29.3947C5.59595 28.3776 5.54428 27.3161 5.77456 26.3085C6.00484 25.3008 6.50963 24.3795 7.24222 23.6298C7.97482 22.8801 8.91155 22.3262 9.96573 22.0194C11.1948 21.6321 12.5692 21.6041 13.8656 21.3742C15.2915 21.1131 16.705 20.8119 18.1086 20.522C19.3729 20.189 20.6656 19.9374 21.9777 19.7689C26.3642 19.4676 29.8642 21.9056 30.9268 25.9558C31.2185 26.9193 31.3536 27.9092 31.3275 28.8916C31.2474 30.8495 31.5251 32.8268 32.1489 34.7406C32.8432 37.1368 32.6644 39.3643 30.9024 41.2513C28.4546 43.8962 25.1324 44.1768 21.7025 42.1046Z" fill="#6D73E6" fill-opacity="0.1"/>
<path d="M31.5414 14.8108C30.5282 15.534 29.6049 16.4283 28.4728 16.954C27.8814 17.2196 27.2239 17.3527 26.5501 17.3433C25.8764 17.3338 25.2041 17.1819 24.5843 16.8993C23.9645 16.6166 23.4134 16.2106 22.9728 15.7119C22.5322 15.2133 22.2137 14.6351 22.0415 14.0213C20.9593 10.5099 23.7871 6.3419 27.6097 5.90976C28.6582 5.75017 29.7584 5.97434 30.6835 6.53608C31.6086 7.09782 32.2883 7.95434 32.5824 8.92916C33.1992 10.7342 32.7601 12.8263 31.5414 14.8108Z" fill="#6D73E6" fill-opacity="0.1"/>
<path d="M42.171 20.7673C40.6058 22.6945 39.0818 23.7827 36.9052 23.9626C36.2068 24.0407 35.4877 23.9616 34.8078 23.7319C34.1279 23.5022 33.5068 23.1284 32.996 22.6417C32.4852 22.155 32.0995 21.5694 31.871 20.9335C31.6425 20.2976 31.5778 19.6299 31.6822 18.9857C32.1521 16.1822 33.8064 14.1123 36.7306 13.1881C40.431 12.0211 43.651 14.6044 43.049 18.222C42.8432 19.0986 42.5493 19.9507 42.171 20.7673Z" fill="#6D73E6" fill-opacity="0.1"/>
<path d="M18.1073 15.9968C16.1767 18.5473 13.5267 19.0104 11.0756 17.2234C10.5661 16.8376 10.1431 16.3616 9.83429 15.8263C9.52544 15.2911 9.33758 14.7085 9.28289 14.1166C9.12521 12.7656 9.43025 11.43 10.1543 10.3011C10.8784 9.17212 11.9843 8.30773 13.3138 7.83172C13.8863 7.62038 14.5106 7.53309 15.1413 7.57615C15.772 7.61921 16.3934 7.79154 16.9603 8.08068C17.5273 8.36981 18.0256 8.76849 18.4192 9.24783C18.8128 9.72716 19.0919 10.2751 19.2361 10.852C19.485 11.7578 19.5127 12.6911 19.3172 13.5821C19.1217 14.4731 18.7081 15.2987 18.1073 15.9968Z" fill="#6D73E6" fill-opacity="0.1"/>
<path d="M44.4654 33.0679C43.9718 33.7666 43.3161 34.35 42.5422 34.779C41.7683 35.208 40.8939 35.4728 39.9776 35.5557C36.4335 35.832 33.8234 32.8155 34.9702 29.7513C35.2703 28.9083 35.7525 28.1399 36.3886 27.491C37.0247 26.842 37.8021 26.3253 38.6753 25.9712C40.8238 25.0877 42.9826 25.4422 44.3703 26.8457C45.758 28.2491 46.0185 30.4533 44.9838 32.2809C44.8059 32.5514 44.6281 32.8219 44.4654 33.0679Z" fill="#6D73E6" fill-opacity="0.1"/>
</svg>
