<svg width="86" height="79" viewBox="0 0 86 79" fill="none" xmlns="http://www.w3.org/2000/svg">
<g id="Group 319">
<path id="Vector" d="M42.3102 78.9363C31.1681 78.9363 20.0259 78.9363 8.88376 78.9363C3.51451 78.9363 0.548401 75.983 0.548401 70.6442C0.548401 56.5093 0.548401 42.3648 0.548401 28.2106C0.548401 22.7798 4.68289 18.7008 10.1849 18.6955C14.1681 18.6955 18.1512 18.6535 22.1343 18.7245C23.2549 18.7429 23.6984 18.4615 23.9028 17.3148C24.5083 13.867 25.5332 10.5191 27.2354 7.42898C30.8892 0.770033 36.7471 -1.4838 43.9937 0.956757C48.8425 2.5873 52.977 5.37238 56.8247 8.644C57.3239 9.07004 57.4355 9.5408 57.4328 10.1378C57.4142 12.5915 57.4753 15.0452 57.3983 17.5015C57.3664 18.5167 57.7037 18.7297 58.6729 18.7245C64.953 18.6797 71.2304 18.6955 77.5078 18.7034C82.3566 18.7034 85.474 21.7752 85.474 26.5669C85.474 40.9762 85.3519 55.3855 85.5484 69.7895C85.6095 74.4129 80.1606 79.0652 76.2544 78.9942C64.9503 78.8206 53.6302 78.9363 42.3102 78.9363Z" fill="#00036B"/>
<path id="Vector_2" d="M6.92314 20.0053C7.64276 19.4793 8.4978 19.4793 9.3316 19.4793C17.0323 19.4793 24.733 19.4793 32.4125 19.4451C33.3578 19.4451 33.4747 19.8212 33.4747 20.6049C33.4375 23.3637 33.4561 26.1277 33.4747 28.8839C33.4747 29.3546 33.3817 29.849 33.7402 30.2646C36.6638 33.7019 39.8503 36.8525 44.2398 38.3963C48.1565 39.7743 51.5793 38.7855 54.1923 35.5639C56.2768 32.9971 57.8116 30.2304 57.4558 26.7089C57.2487 24.6707 57.4558 22.5931 57.3974 20.5365C57.3735 19.6529 57.6895 19.4372 58.5418 19.4425C64.9972 19.474 71.4525 19.4425 77.9078 19.4688C81.952 19.4924 84.719 22.2565 84.7269 26.2645C84.7464 39.0546 84.7464 51.843 84.7269 64.6297C84.7269 66.5583 84.7269 68.4869 84.7269 70.4155C84.7512 71.4705 84.4532 72.5081 83.8719 73.3925C83.3478 73.728 82.7289 73.8883 82.106 73.8501C79.4506 73.8501 76.774 74.1131 74.1584 73.8002C64.0811 72.5983 53.9772 73.4557 43.8866 73.2873C33.796 73.119 23.7399 73.2426 13.6679 73.2558C10.3672 73.7002 6.72664 69.9999 6.76381 66.4575C6.85144 54.515 6.79833 42.5752 6.79568 30.6328C6.79568 30.0253 6.878 29.4046 6.55669 28.8365C5.99374 27.4558 6.29115 26.012 6.22742 24.5945C6.19024 23.6004 6.20883 22.601 6.22742 21.6069C6.23804 20.981 6.3416 20.3945 6.92314 20.0053Z" fill="#C3C8FF"/>
<path id="Vector_3" d="M39.0336 0.841052C42.6104 0.788454 45.7305 2.23491 48.763 3.86808C51.2664 5.26313 53.6321 6.88765 55.8291 8.72028C56.1471 8.94795 56.403 9.25021 56.5741 9.59996C56.7451 9.94971 56.8258 10.336 56.8089 10.7243C56.7611 16.6758 56.9922 22.6378 56.708 28.5788C56.5301 32.2449 54.3182 35.122 51.2644 37.1575C48.609 38.9327 45.7889 38.4331 43.0698 37.1312C39.6177 35.4797 36.9623 32.8603 34.4689 30.0541C34.0175 29.5439 34.0573 28.9259 34.0573 28.3131C34.0573 22.622 34.0573 16.9317 34.0573 11.2424C34.0573 10.6743 34.0095 10.1062 33.9829 9.54081C33.4784 8.92015 33.5767 8.21007 33.7572 7.53418C34.2246 5.61317 35.1456 3.82943 36.4445 2.32958C37.1588 1.53272 38.0909 1.19872 39.0336 0.841052Z" fill="#6D73E6"/>
<path id="Vector_4" d="M13.4828 72.9086C14.0563 72.8928 14.6299 72.8613 15.2035 72.8613C33.6746 72.8613 52.1483 72.6877 70.6168 72.9849C75.0168 73.0559 79.4487 73.2689 83.8673 73.3925C81.9714 76.1986 79.6797 78.2263 75.9622 78.2184C53.5062 78.1728 31.0501 78.1649 8.59414 78.1947C4.04541 78.1947 1.31032 75.5122 1.30767 71.044C1.30767 56.64 1.37671 42.2333 1.25191 27.8319C1.21473 24.5366 3.91529 21.3018 6.92123 20.0052C6.36624 22.0645 6.76987 24.1658 6.68224 26.246C6.64772 27.0534 6.46184 27.9081 6.94778 28.6761C6.70083 29.1758 6.81236 29.7123 6.81236 30.2304C6.81236 42.0992 6.9053 53.9706 6.75128 65.8368C6.70083 69.729 9.67224 73.4635 14.2714 73.3978C15.9072 73.3741 17.5429 73.3978 19.1786 73.3978H69.8361C51.6376 73.3978 33.44 73.3925 15.2433 73.382C14.6458 73.3741 13.8891 73.7081 13.4828 72.9086Z" fill="#6D73E6"/>
<path id="Vector_5" d="M39.0334 0.841046C36.5001 2.28224 34.9972 4.46244 34.1979 7.21333C33.9669 8.0023 34.0572 8.76761 33.9801 9.5408C33.1835 9.6197 33.465 10.2404 33.4491 10.6533C33.4252 12.9702 33.4039 15.2898 33.4491 17.6067C33.4703 18.4694 33.1835 18.7402 32.3205 18.7218C29.9811 18.6692 27.6417 18.6982 25.2996 18.7061C24.7685 18.7061 24.3091 18.6692 24.4605 17.9302C25.4005 13.3673 26.5848 8.89121 29.5934 5.16199C31.9965 2.19019 35.0689 0.525456 39.0334 0.841046Z" fill="#6D73E6"/>
<path id="Vector_6" d="M26.4275 68.9874C23.0233 68.9874 19.6217 69.0005 16.2201 68.9874C12.5025 68.9663 10.0967 66.5679 10.0914 62.8965C10.0914 56.2901 10.0914 49.682 10.0914 43.0722C10.0914 39.4666 12.4281 36.9971 16.0793 36.9629C22.9728 36.8945 29.8663 36.8945 36.7598 36.9629C40.3632 37.0024 42.7185 39.5192 42.7291 43.1274C42.7468 49.6917 42.7468 56.2568 42.7291 62.8229C42.7291 66.5389 40.2543 68.969 36.4995 68.9847C33.1431 68.9979 29.784 68.9874 26.4275 68.9874Z" fill="#00036B"/>
<path id="Vector_7" d="M13.4821 72.9086C14.0291 73.1715 14.6133 73.0427 15.1816 73.0427C33.658 73.0427 52.1362 73.0497 70.6161 73.0637C71.1339 73.0637 72.0819 72.7797 72.0819 73.3714C72.0819 74.0105 71.1499 73.7002 70.64 73.7002C51.9866 73.7194 33.3314 73.7238 14.6744 73.7133C9.32373 73.7133 6.38949 70.8046 6.38949 65.5211C6.38949 53.697 6.39569 41.8747 6.40808 30.0541C6.40808 29.5833 5.99914 28.8522 6.92323 28.676C7.23657 29.202 7.11442 29.7885 7.11442 30.3487C7.11442 42.2166 7.11442 54.0845 7.11442 65.9524C7.11442 69.3713 8.85372 71.7593 11.8942 72.7218C12.4046 72.8928 12.9455 72.9564 13.4821 72.9086Z" fill="#00036B"/>
<path id="Vector_8" d="M64.9 51.8771C60.1698 51.8771 55.4414 51.8771 50.7147 51.8771C48.9064 51.8771 47.7938 50.9935 47.7752 49.5681C47.7566 48.1427 48.8745 47.1643 50.643 47.1617C60.2309 47.1512 69.8205 47.1512 79.4119 47.1617C81.0264 47.1617 82.0673 47.9244 82.2532 49.171C82.3402 49.7167 82.2275 50.2752 81.9353 50.7459C81.6432 51.2165 81.1909 51.5683 80.6599 51.7377C80.1903 51.8523 79.7064 51.8984 79.2233 51.8745C74.4489 51.8815 69.6744 51.8824 64.9 51.8771Z" fill="#00036B"/>
<path id="Vector_9" d="M64.9433 61.8629C60.0838 61.8629 55.2244 61.8629 50.3623 61.8629C49.0081 61.8629 48.0707 61.1449 47.8078 60.022C47.7096 59.5015 47.7904 58.9634 48.0374 58.4938C48.2844 58.0242 48.6832 57.6502 49.1701 57.4315C49.7941 57.1685 50.4632 57.1843 51.1298 57.1869C56.0759 57.1869 61.0239 57.1869 65.9736 57.1869H78.8311C79.2745 57.1729 79.7184 57.1922 80.1588 57.2448C81.5104 57.4447 82.3336 58.4046 82.2831 59.6617C82.2637 60.2604 82.006 60.8273 81.5663 61.2387C81.1266 61.65 80.5405 61.8725 79.9358 61.8576C77.198 61.9024 74.4576 61.8761 71.7172 61.8761C69.4566 61.8708 67.1986 61.8664 64.9433 61.8629Z" fill="#00036B"/>
<path id="Vector_10" d="M26.4321 68.2011C22.9801 68.2011 19.528 68.2195 16.076 68.2011C12.8682 68.1827 10.8846 66.2076 10.8767 63.0333C10.8661 56.3323 10.8661 49.6304 10.8767 42.9276C10.8767 39.7875 13.0169 37.6678 16.1875 37.6546C22.9978 37.6371 29.8081 37.6371 36.6183 37.6546C39.7703 37.6546 41.9132 39.8401 41.9292 42.9828C41.9292 49.6453 41.9292 56.3034 41.9292 62.957C41.9292 66.1918 39.919 68.18 36.6369 68.2011C33.2433 68.2169 29.8364 68.2037 26.4321 68.2011Z" fill="#FFD529"/>
<path id="Vector_11" d="M65.0211 51.1144C60.2945 51.1144 55.5687 51.1144 50.8438 51.1144C50.4041 51.1521 49.9612 51.1138 49.5347 51.0014C49.23 50.877 48.9717 50.6622 48.7955 50.3864C48.6192 50.1106 48.5336 49.7875 48.5505 49.4615C48.5674 49.1355 48.6859 48.8228 48.8898 48.5663C49.0936 48.3099 49.3728 48.1223 49.6887 48.0296C50.1208 47.941 50.5627 47.9092 51.0031 47.9349H79.0922C79.3577 47.9349 79.6233 47.9217 79.8888 47.9349C80.9271 48.019 81.5591 48.5608 81.5139 49.6154C81.4714 50.5937 80.8633 51.1039 79.8623 51.1066H73.237L65.0211 51.1144Z" fill="#C3C8FF"/>
<path id="Vector_12" d="M64.9304 61.1371H50.7531C50.1344 61.1371 49.5157 61.1608 49.0191 60.6769C48.8285 60.4945 48.6868 60.268 48.6069 60.0177C48.527 59.7675 48.5114 59.5014 48.5615 59.2437C48.6116 58.986 48.7258 58.7447 48.8938 58.5417C49.0618 58.3387 49.2783 58.1804 49.5236 58.0812C49.9404 57.9343 50.3839 57.877 50.8248 57.9128H79.1793C79.3997 57.9128 79.6228 57.9128 79.8406 57.9128C80.8523 58.0102 81.5347 58.4993 81.5108 59.5671C81.4869 60.6348 80.8045 61.1161 79.7689 61.1187C76.6779 61.1187 73.587 61.1187 70.4935 61.1187L64.9304 61.1371Z" fill="#C3C8FF"/>
</g>
</svg>
