<svg width="72" height="81" viewBox="0 0 72 81" fill="none" xmlns="http://www.w3.org/2000/svg">
<g id="Group 361">
<path id="Vector" d="M31.612 1.24174C34.2378 2.1237 36.3133 3.75446 38.0194 5.88524C38.4204 6.41097 38.9715 6.80263 39.5999 7.00843C42.2885 7.91552 44.957 8.87789 47.6406 9.77242C48.4572 10.0438 48.8367 10.4031 48.809 11.3554C48.7311 14.0742 48.7236 16.798 48.809 19.5168C48.8442 20.6299 48.5175 21.2556 47.417 21.4289C46.4496 21.5847 46.4119 22.1099 46.6632 22.9516C47.6638 26.3154 48.9352 29.5927 50.4649 32.7513C55.5356 43.1011 62.5486 51.9736 71.0164 59.7303C71.7703 60.4088 71.8356 60.7354 70.8632 61.2103C69.2425 61.9842 67.6821 62.8788 66.0664 63.6577C65.398 63.9793 65.4432 64.2407 65.8754 64.7281C67.5439 66.6051 69.1621 68.5248 70.8431 70.3893C71.4763 71.0928 71.9034 71.8241 71.5969 72.7613C71.2903 73.6985 70.4385 73.985 69.5314 74.1458C67.3102 74.5353 65.104 75.0127 62.8777 75.3469C61.1791 75.5982 59.5333 76.2062 57.7292 75.4449C55.3119 74.4398 52.759 73.7413 50.294 72.8342C49.9351 72.6822 49.5458 72.6158 49.1568 72.6402C48.7678 72.6646 48.3898 72.7792 48.0527 72.9749C43.0624 75.5906 38.037 78.1486 33.0492 80.7643C32.318 81.1488 31.8984 81.0684 31.3481 80.4829C29.5976 78.6782 27.95 76.7764 26.4131 74.7865C25.981 74.2061 25.6593 74.0956 24.9834 74.4297C22.7446 75.5504 20.4605 76.563 18.2167 77.6963C17.9351 77.8607 17.6143 77.9459 17.2883 77.9428C16.9623 77.9397 16.6431 77.8485 16.3648 77.6787C12.1216 75.5228 7.85922 73.4012 3.57754 71.314C2.66794 70.8717 2.33877 70.3516 2.34128 69.3164C2.38149 56.6347 2.35887 43.953 2.384 31.2713C2.384 30.3918 2.29103 29.7184 1.34373 29.4345C0.682889 29.236 0.808525 28.6806 0.808525 28.1781C0.808525 25.6654 0.871343 23.1527 0.778373 20.6399C0.735656 19.5394 1.00954 18.9062 2.13022 18.7077C3.29863 18.5016 3.60267 17.9312 3.47452 16.6422C3.10013 12.76 5.23343 8.41807 10.985 9.31762C12.4927 9.55382 14.0732 10.0187 15.0632 11.1017C17.0357 13.2601 19.0082 12.745 21.2319 11.7524C23.0964 10.9207 23.1366 11.0112 22.9381 8.93317C22.9054 8.60149 22.8778 8.2673 22.8451 7.92809C22.5159 2.62373 26.5589 -0.45435 31.612 1.24174ZM61.2294 74.8644C63.33 74.49 65.4608 74.2237 67.5112 73.6885C68.368 73.4649 68.8781 72.5226 69.0766 71.5728C69.4988 70.3767 69.1847 69.4244 68.2876 68.5198C67.1544 67.374 66.1468 66.1051 64.8578 64.6327C65.0286 67.1881 64.4708 69.2862 63.6341 71.3265C62.8476 72.4899 62.0938 73.6609 61.2294 74.8745V74.8644ZM27.0363 64.708C27.0212 64.7306 27.1041 64.8136 27.1418 64.8714C28.1896 66.8489 30.0692 67.6152 32.1673 66.8815C34.0166 66.2433 35.3735 65.007 36.356 63.3386C37.9993 60.9088 38.6174 58.2478 38.0546 55.3632C37.4038 52.1093 35.067 50.7951 31.7024 51.9082C33.6523 52.6244 34.4111 54.0139 34.489 55.8708C34.5325 57.5888 34.161 59.292 33.406 60.8359C33.1799 61.3259 32.9035 61.7908 32.6522 62.2682C32.0567 62.8335 31.6019 63.5245 30.9185 64.0271C29.8078 64.8312 28.6269 65.1327 27.2951 64.7181C27.2072 64.6402 27.1192 64.5749 27.0363 64.708ZM37.3912 68.4193C36.7605 68.2032 36.1047 68.0424 35.4966 67.771C34.978 67.5199 34.4146 67.3742 33.8393 67.3423C33.2639 67.3103 32.6879 67.3929 32.1447 67.5851C29.6847 68.3992 27.5841 67.4544 26.3956 65.1201C26.246 64.7802 26.0179 64.4807 25.73 64.2461C25.4422 64.0116 25.1027 63.8487 24.7397 63.7708C24.1341 63.6225 23.5713 63.2934 22.9632 63.1728C20.664 62.718 19.5459 61.2028 19.7368 58.2704C19.9102 55.612 20.9128 53.245 22.9129 51.373C24.1492 50.2197 25.5337 49.79 27.167 50.4609C27.7072 50.682 28.2876 50.8102 28.8228 51.0388C29.3224 51.281 29.8698 51.4085 30.4249 51.412C30.9801 51.4154 31.529 51.2948 32.0316 51.0589C34.293 50.0815 36.65 50.9182 37.8887 53.0364C38.2668 53.7236 38.8977 54.2365 39.6476 54.4662C47.4723 57.1322 55.327 59.7102 63.0863 62.5546C64.8452 63.1954 66.0714 63.017 67.4961 62.1275C68.4836 61.5144 69.554 61.0344 70.6722 60.449C68.4484 58.3433 66.3101 56.2879 64.315 54.0893C56.9528 45.9556 50.8971 37.0028 47.1104 26.6353C46.693 25.4996 46.3349 24.3431 46.0375 23.1702C45.8189 22.3109 45.5098 22.0621 44.5977 22.3888C36.6223 25.2332 28.6344 28.0592 20.6339 30.8667C17.8699 31.8366 15.1235 32.8116 12.357 33.7513C11.5353 34.0302 11.2011 34.3971 11.3117 35.3695C12.5351 46.3678 16.0634 56.9846 21.6666 66.5272C24.3957 71.2345 27.6762 75.5998 31.4386 79.5306C31.8984 80.0105 32.2577 80.3547 33.0216 79.9527C37.8284 77.4224 42.6629 74.9448 47.4873 72.4472C47.6576 72.3276 47.8196 72.1966 47.9723 72.0552L37.3912 68.4193ZM3.09259 31.6406C3.09259 44.102 3.08672 56.5626 3.075 69.0224C3.075 69.8666 3.26345 70.3566 4.08009 70.7511C7.95219 72.6231 11.7967 74.5504 15.6386 76.5027C16.601 77.0053 16.8573 76.8545 16.7417 75.7489C16.0658 69.3968 15.2542 63.0496 14.8421 56.6774C14.5456 52.2851 12.8847 48.2648 12.0102 44.0158C11.3748 41.1223 10.8901 38.1977 10.5579 35.2539C10.48 34.4624 10.1986 33.9976 9.45731 33.6307C7.36673 32.6256 5.31886 31.515 3.09259 30.3642V31.6406ZM34.4539 66.6277C36.7153 67.4017 38.8788 68.1354 41.0322 68.8716C46.7888 70.8516 52.553 72.8116 58.292 74.8343C59.1388 75.1333 59.669 74.97 60.2821 74.382C63.1089 71.6658 64.5311 68.452 63.9959 64.4769C63.98 64.169 63.8653 63.8745 63.6689 63.6369C63.4725 63.3993 63.2048 63.2312 62.9054 63.1577C55.0087 60.4775 47.1163 57.7821 39.228 55.0718C39.1021 55.0582 38.9749 55.065 38.8511 55.0919C39.4944 59.6801 38.0094 63.4592 34.4539 66.6277ZM26.5639 19.2931C25.2774 19.7957 24.0035 20.3208 22.7019 20.7706C22.046 20.9967 21.948 21.3159 22.0385 21.9842C22.4229 24.61 21.8475 26.9594 19.8022 28.8138C18.875 29.6455 17.885 29.7284 16.8045 29.1681C15.4878 28.4847 15.2617 27.08 16.3849 26.1051C16.7519 25.7917 17.0522 25.4079 17.268 24.9762C17.4838 24.5446 17.6108 24.074 17.6412 23.5924C17.7015 22.9768 17.5156 22.7381 16.8497 23.0094C15.2617 23.6527 13.6661 24.2658 12.0504 24.8437C11.4172 25.0674 11.3996 25.4945 11.3896 26.0197C11.3519 28.3967 11.4398 30.7788 11.1886 33.3518C12.7691 32.8266 14.2516 32.3467 15.7115 31.8442C26.1828 28.1588 36.6525 24.4635 47.1205 20.758C47.8391 20.5068 48.0854 20.165 48.0728 19.4162C48.0326 16.8231 48.0452 14.23 48.0728 11.6268C48.0728 11.0212 47.9823 10.6217 47.319 10.4157C44.7836 9.58397 42.2709 8.68944 39.5295 7.73963C40.2331 9.32265 40.8864 10.7273 41.2633 12.2299C41.3563 12.6068 41.6729 12.6093 41.9744 12.5163C42.276 12.4233 42.5147 12.2927 42.7911 12.2022C43.1705 12.0791 43.7233 11.7374 43.9017 12.2022C44.1128 12.755 43.4218 12.8028 43.0725 12.8706C41.7357 13.1395 41.4669 13.941 41.4945 15.2175C41.5425 16.2252 41.3457 17.2296 40.9207 18.1446C40.4958 19.0596 39.8555 19.8581 39.0546 20.4716C38.4245 20.974 37.6226 21.2094 36.8208 21.1274C35.9615 21.0746 35.3534 20.6575 35.1197 19.871C34.886 19.0846 34.8911 18.278 35.6926 17.7403C36.4942 17.2025 36.8259 16.4362 36.9867 15.2577L26.5639 19.2931ZM1.54978 27.8213C1.53219 28.4269 1.68295 28.8264 2.27344 29.1103C4.66304 30.3089 7.03002 31.5502 9.39449 32.7965C10.0403 33.1382 10.4297 33.2789 10.4373 32.2688C10.4523 30.1807 10.5277 28.0927 10.6433 26.0071C10.6835 25.2533 10.4121 24.8839 9.76637 24.5623C8.23613 23.8085 6.75111 22.9567 5.24348 22.14C4.9922 22.0069 4.59017 21.8888 4.74093 21.537C4.92687 21.1249 5.32388 21.3334 5.60531 21.4842C7.19335 22.3235 8.78139 23.1652 10.3493 24.0447C10.8192 24.2959 11.2137 24.4266 11.7514 24.203C13.3696 23.5296 15.0029 22.8863 16.6512 22.2933C17.3623 22.042 17.493 21.6903 17.2844 20.9842C16.7111 19.0547 15.69 17.2881 14.3043 15.8281C13.9249 15.4235 13.5782 15.2828 12.9902 15.5065C9.43972 16.8558 5.87166 18.1549 2.29103 19.4439C1.72567 19.6474 1.51963 19.9464 1.53721 20.547C1.5749 21.8033 1.53721 23.0597 1.53721 24.316C1.55983 25.4794 1.58244 26.6554 1.54978 27.8213ZM31.1722 52.5967C29.7174 52.0766 28.2324 51.6369 26.7775 51.1192C25.584 50.6946 24.4985 50.9107 23.624 51.7399C21.1967 54.044 20.071 56.8457 20.659 60.2178C20.7187 60.6772 20.9126 61.1087 21.2166 61.4583C21.5206 61.8079 21.921 62.0599 22.3677 62.1827C24.0336 62.728 25.6945 63.2959 27.3429 63.9014C28.6746 64.404 29.7953 64.0899 30.7978 63.1476C32.5427 61.5346 33.6037 59.3146 33.7629 56.9437C33.7629 54.137 33.2201 53.3254 31.1722 52.5967ZM21.5033 19.5042C21.6842 20.1474 22.0888 20.2153 22.6617 19.9917C27.1728 18.2361 31.6899 16.4898 36.2128 14.7526C36.8309 14.5164 37.0394 14.2325 36.9063 13.549C36.5298 11.6561 35.7033 9.88156 34.4966 8.37535C34.2302 8.03362 34.0468 7.77732 33.4915 7.98588C28.451 9.86791 23.3979 11.7047 18.1865 13.6068C19.6112 15.5215 20.8852 17.3282 21.5033 19.5042ZM30.3757 1.60608C26.6267 0.729141 23.6291 3.22176 23.526 7.34011C23.5166 8.09309 23.601 8.84431 23.7773 9.57643C23.8627 9.94329 23.6894 10.78 24.5588 10.476C25.1317 10.275 25.8528 10.2247 25.6417 9.17691C25.2799 7.37277 25.4558 5.57869 27.1846 4.49571C28.9133 3.41273 30.6245 4.08111 32.1045 5.11133C35.5067 7.47831 37.5721 10.682 37.7631 14.9109C37.8209 16.2276 37.4013 17.3985 36.2982 18.2051C36.0671 18.353 35.8931 18.5751 35.805 18.8349C35.7169 19.0948 35.7198 19.3769 35.8132 19.6348C35.9942 20.2605 36.5671 20.3711 37.1249 20.3887C38.3812 20.4314 39.1049 19.572 39.7281 18.685C40.4982 17.5406 40.8626 16.1712 40.7633 14.7954C40.7055 8.99097 35.8434 2.88506 30.3757 1.60608ZM10.3141 9.89806C7.61549 9.42064 4.98718 11.2524 4.36654 14.0667C4.15297 14.8793 4.09332 15.7247 4.19065 16.5593C4.25598 16.9739 3.9846 17.7704 4.69319 17.7051C5.3264 17.6473 6.12042 17.5593 6.15308 16.4211C6.2561 12.8606 8.73113 11.3956 11.8921 13.0716C15.7341 15.127 17.797 18.5142 18.3951 22.7732C18.5835 24.1276 18.2468 25.4694 17.1387 26.4267C16.5859 26.9067 16.0457 27.3564 16.6362 28.055C17.2266 28.7535 17.9754 29.0726 18.8448 28.5374C20.5258 27.4997 21.149 25.8589 21.3576 24.0145C21.3839 23.723 21.394 23.4302 21.3877 23.1376C21.3651 17.1799 16.1261 10.9283 10.3141 9.90308V9.89806ZM17.6186 77.1611C20.1087 75.9751 22.4355 74.867 24.7648 73.7614C25.6216 73.3568 24.9759 72.9372 24.7397 72.6005C22.5977 69.612 20.6811 66.4683 19.0056 63.1954C17.9 60.9967 16.8925 58.7504 15.8421 56.5241H15.5306C16.2216 63.3411 16.91 70.1707 17.6186 77.1611ZM28.8002 4.75703C28.3373 4.73645 27.8793 4.85969 27.4893 5.10985C27.0992 5.36 26.7961 5.72479 26.6217 6.1541C26.1329 7.18562 26.0697 8.36804 26.4458 9.44577C26.6066 9.91565 26.9484 9.59151 27.172 9.51361C29.2475 8.7598 31.313 8.00598 33.5267 7.18181C32.0617 5.82745 30.7074 4.76457 28.8002 4.75703ZM9.89955 13.1571C8.12305 12.8681 6.58778 14.5566 6.83403 16.3909C6.92449 17.0593 7.26622 16.8357 7.61297 16.7201C8.00496 16.5844 8.39443 16.4387 8.7839 16.2929L13.0329 14.6999C12.1726 13.8748 11.0781 13.3359 9.89955 13.1571ZM70.8883 72.5477C71.1948 71.7085 70.7426 71.1456 69.9837 70.6381C69.9485 71.6281 69.6169 72.4196 69.1168 73.2865C69.9938 73.4623 70.6119 73.2739 70.8883 72.5477Z" fill="#00036B"/>
<path id="Vector_2" d="M47.976 72.0552L37.3899 68.4193C36.7592 68.2032 36.1034 68.0424 35.4953 67.771C34.9767 67.5199 34.4134 67.3741 33.838 67.3422C33.2626 67.3103 32.6866 67.3928 32.1434 67.585C29.6834 68.3992 27.5828 67.4544 26.3943 65.1201C26.2447 64.7802 26.0166 64.4807 25.7287 64.2461C25.4409 64.0115 25.1015 63.8486 24.7384 63.7707C24.1328 63.6225 23.57 63.2933 22.9619 63.1727C20.6628 62.7179 19.5446 61.2027 19.7356 58.2704C19.9089 55.6119 20.9115 53.2449 22.9116 51.373C24.1479 50.2196 25.5324 49.79 27.1657 50.4609C27.7059 50.682 28.2864 50.8101 28.8216 51.0388C29.3211 51.2809 29.8685 51.4084 30.4237 51.4119C30.9788 51.4154 31.5277 51.2948 32.0303 51.0589C34.2918 50.0814 36.6487 50.9182 37.8875 53.0364C38.2655 53.7236 38.8964 54.2364 39.6464 54.4661C47.471 57.1321 55.3257 59.7102 63.085 62.5546C64.8439 63.1953 66.0701 63.0169 67.4948 62.1274C68.4823 61.5143 69.5528 61.0344 70.6709 60.4489C68.4472 58.3433 66.3088 56.2879 64.3137 54.0892C56.9515 45.9555 50.8958 37.0027 47.1091 26.6352C46.6917 25.4996 46.3336 24.343 46.0362 23.1702C45.8176 22.3108 45.5085 22.0621 44.5964 22.3887C36.621 25.2331 28.6331 28.0591 20.6326 30.8667C17.8686 31.8366 15.1222 32.8115 12.3557 33.7513C11.5341 34.0302 11.1999 34.397 11.3104 35.3695C12.5338 46.3677 16.0622 56.9845 21.6653 66.5272C24.3944 71.2345 27.6749 75.5997 31.4373 79.5305C31.8971 80.0104 32.2565 80.3547 33.0203 79.9527C37.8272 77.4223 42.6616 74.9448 47.486 72.4472C47.6581 72.3277 47.8218 72.1968 47.976 72.0552Z" fill="#C3C8FF"/>
<path id="Vector_3" d="M3.09281 30.3643V31.6407C3.09281 44.1021 3.08695 56.5627 3.07523 69.0225C3.07523 69.8667 3.26368 70.3567 4.08031 70.7512C7.95242 72.6232 11.7969 74.5504 15.6388 76.5028C16.6012 77.0054 16.8575 76.8546 16.7419 75.749C16.066 69.3969 15.2544 63.0497 14.8423 56.6775C14.5458 52.2852 12.8849 48.2649 12.0105 44.0159C11.3751 41.1223 10.8903 38.1978 10.5581 35.254C10.4802 34.4625 10.1988 33.9976 9.45754 33.6308C7.36695 32.6182 5.31909 31.5151 3.09281 30.3643Z" fill="#939EFF"/>
<path id="Vector_4" d="M38.8599 55.092C39.4957 59.6803 38.0106 63.4594 34.4627 66.6279C36.7241 67.4019 38.8876 68.1356 41.041 68.8718C46.7976 70.8518 52.5618 72.8117 58.3009 74.8345C59.1476 75.1335 59.6778 74.9702 60.2909 74.3822C63.1177 71.6659 64.5399 68.4522 64.0047 64.477C63.9888 64.1692 63.8741 63.8746 63.6777 63.637C63.4813 63.3994 63.2136 63.2314 62.9142 63.1579C55.0176 60.4776 47.1251 57.7823 39.2368 55.0719C39.1109 55.0584 38.9837 55.0652 38.8599 55.092Z" fill="#FFD529"/>
<path id="Vector_5" d="M36.9864 15.2655L26.5637 19.2858C25.2771 19.7884 24.0032 20.3136 22.7016 20.7633C22.0458 20.9895 21.9478 21.3086 22.0382 21.977C22.4227 24.6028 21.8473 26.9522 19.8019 28.8065C18.8747 29.6458 17.8847 29.7287 16.8043 29.1684C15.4876 28.4849 15.2614 27.0803 16.3846 26.1054C16.7516 25.792 17.052 25.4081 17.2678 24.9765C17.4836 24.5449 17.6105 24.0743 17.641 23.5927C17.7013 22.977 17.5154 22.7383 16.8495 23.0097C15.2614 23.653 13.6659 24.2661 12.0502 24.844C11.417 25.0676 11.3994 25.4948 11.3893 26.0199C11.3517 28.397 11.4396 30.779 11.1883 33.3521C12.7688 32.8269 14.2513 32.347 15.7112 31.8444C26.1826 28.1591 36.6522 24.4637 47.1202 20.7583C47.8389 20.507 48.0851 20.1653 48.0725 19.4165C48.0323 16.8234 48.0449 14.2303 48.0725 11.6271C48.0725 11.0215 47.9821 10.622 47.3187 10.4159C44.7834 9.58424 42.2707 8.68971 39.5293 7.7399C40.2329 9.32291 40.8862 10.7275 41.2631 12.2301C41.356 12.607 41.6726 12.6096 41.9742 12.5166C42.2757 12.4236 42.5144 12.2929 42.7908 12.2025C43.1702 12.0794 43.723 11.7376 43.9014 12.2025C44.1125 12.7553 43.4215 12.803 43.0722 12.8709C41.7355 13.1397 41.4666 13.9413 41.4942 15.2178C41.5423 16.2255 41.3454 17.2298 40.9205 18.1449C40.4956 19.0599 39.8553 19.8583 39.0544 20.4719C38.4242 20.9742 37.6223 21.2097 36.8206 21.1277C35.9612 21.0749 35.3532 20.6578 35.1195 19.8713C34.8858 19.0848 34.8908 18.2782 35.6924 17.7405C36.4939 17.2028 36.8256 16.444 36.9864 15.2655Z" fill="#6D73E6"/>
<path id="Vector_6" d="M1.55808 24.3084C1.55808 25.4794 1.5807 26.6528 1.55808 27.8263C1.54049 28.4318 1.69126 28.8313 2.28175 29.1153C4.67134 30.3138 7.03833 31.5551 9.4028 32.8014C10.0486 33.1432 10.438 33.2839 10.4456 32.2738C10.4607 30.1857 10.536 28.0976 10.6516 26.0121C10.6918 25.2583 10.4204 24.8889 9.77468 24.5673C8.24443 23.8134 6.75941 22.9616 5.25178 22.145C5.00051 22.0118 4.59847 21.8937 4.74924 21.5419C4.93518 21.1299 5.33219 21.3384 5.61361 21.4892C7.20165 22.3284 8.78969 23.1702 10.3576 24.0496C10.8275 24.3009 11.222 24.4316 11.7597 24.2079C13.3779 23.5345 15.0112 22.8913 16.6595 22.2983C17.3706 22.047 17.5013 21.6952 17.2927 20.9891C16.7172 19.057 15.6925 17.2884 14.3026 15.828C13.9232 15.4235 13.5764 15.2828 12.9884 15.5064C9.43797 16.8557 5.86991 18.1548 2.28928 19.4438C1.72392 19.6473 1.51788 19.9464 1.53547 20.5469C1.58321 21.7982 1.55808 23.0546 1.55808 24.3084Z" fill="#6D73E6"/>
<path id="Vector_7" d="M30.7979 63.1501C29.7928 64.0899 28.6746 64.3914 27.3429 63.9039C25.6946 63.2983 24.0337 62.7305 22.3677 62.1852C21.9211 62.0624 21.5206 61.8103 21.2166 61.4608C20.9127 61.1112 20.7187 60.6797 20.6591 60.2203C20.0711 56.8482 21.1968 54.0465 23.6241 51.7423C24.4985 50.9131 25.584 50.697 26.7775 51.1217C28.2324 51.6393 29.7174 52.079 31.1723 52.5992C33.2202 53.3279 33.7629 54.1395 33.7629 56.9487C33.6031 59.3187 32.5422 61.5376 30.7979 63.1501ZM25.5538 60.5243C25.3428 60.7756 24.8 61.057 25.1895 61.4188C25.579 61.7807 25.8453 61.248 26.0639 60.9917C27.7472 59.0433 28.6581 56.5457 28.6244 53.9711C28.6244 53.6018 28.6847 53.0841 28.1796 52.9057C27.956 52.8253 27.8781 53.1168 27.946 54.1621C27.8228 56.3808 27.1519 58.6146 25.5538 60.5243Z" fill="#6D73E6"/>
<path id="Vector_8" d="M18.1872 13.6069C19.6119 15.5216 20.8858 17.3282 21.504 19.5042C21.6849 20.1475 22.0894 20.2153 22.6623 19.9917C27.1735 18.2361 31.6905 16.4898 36.2134 14.7527C36.8315 14.5165 37.0401 14.2325 36.9069 13.5491C36.5305 11.6561 35.704 9.88161 34.4972 8.37539C34.2309 8.03366 34.0475 7.77737 33.4921 7.98592C28.4516 9.86795 23.3985 11.7047 18.1872 13.6069Z" fill="#6D73E6"/>
<path id="Vector_9" d="M40.7592 14.8054C40.7064 8.99101 35.8443 2.8851 30.3766 1.60613C26.6277 0.729189 23.63 3.22181 23.527 7.34016C23.5176 8.09314 23.602 8.84436 23.7782 9.57648C23.8637 9.94333 23.6903 10.7801 24.5597 10.476C25.1326 10.275 25.8537 10.2248 25.6427 9.17696C25.2808 7.37282 25.4567 5.57874 27.1855 4.49576C28.9142 3.41278 30.6254 4.08116 32.1054 5.11137C35.5076 7.47836 37.5731 10.6821 37.764 14.911C37.8218 16.2276 37.4022 17.3986 36.2991 18.2052C36.068 18.353 35.8941 18.5752 35.8059 18.835C35.7178 19.0948 35.7207 19.3769 35.8142 19.6349C35.9951 20.2606 36.568 20.3711 37.1258 20.3887C38.3822 20.4314 39.1058 19.5721 39.729 18.6851C40.4951 17.5428 40.8577 16.1773 40.7592 14.8054Z" fill="#B1AEFC"/>
<path id="Vector_10" d="M21.3882 23.1375C21.3731 17.1924 16.1341 10.9407 10.3322 9.91553C7.63355 9.43811 5.00524 11.2699 4.3846 14.0841C4.17104 14.8968 4.11138 15.7422 4.20871 16.5768C4.27404 16.9913 4.00267 17.7879 4.71125 17.7226C5.34446 17.6648 6.13848 17.5768 6.17114 16.4386C6.27417 12.878 8.7492 11.4131 11.9102 13.0891C15.7346 15.1269 17.7975 18.5141 18.3955 22.7731C18.584 24.1275 18.2473 25.4693 17.1392 26.4266C16.5864 26.9065 16.0461 27.3563 16.6366 28.0549C17.2271 28.7534 17.9759 29.0725 18.8453 28.5373C20.5263 27.4995 21.1495 25.8587 21.358 24.0144C21.3844 23.7229 21.3945 23.4301 21.3882 23.1375Z" fill="#B1AEFC"/>
<path id="Vector_11" d="M15.5292 56.5269C16.2202 63.3414 16.9087 70.1709 17.6173 77.1613C20.1074 75.9753 22.4342 74.8672 24.7635 73.7616C25.6203 73.3571 24.9746 72.9374 24.7384 72.6007C22.5964 69.6123 20.6798 66.4685 19.0043 63.1956C17.8987 60.997 16.8911 58.7506 15.8408 56.5244L15.5292 56.5269Z" fill="#939EFF"/>
<path id="Vector_12" d="M36.3567 63.3412C38.0001 60.9114 38.6182 58.2504 38.0553 55.3658C37.4045 52.1118 35.0677 50.7977 31.7032 51.9108C33.6531 52.6269 34.4119 54.0165 34.4898 55.8734C34.5333 57.5914 34.1618 59.2946 33.4068 60.8385C33.1807 61.3285 32.9043 61.7933 32.653 62.2707C33.9018 62.5572 34.9546 63.5924 36.3567 63.3412Z" fill="#C3C8FF"/>
<path id="Vector_13" d="M36.3584 63.3412C34.9462 63.5924 33.9035 62.5522 32.6446 62.2708C32.0466 62.8361 31.5918 63.5271 30.9083 64.0297C29.7977 64.8337 28.6167 65.1353 27.285 64.7207L27.1417 64.8639C28.1895 66.8414 30.0691 67.6078 32.1672 66.8741C34.0191 66.2509 35.3759 65.0146 36.3584 63.3412Z" fill="#939EFF"/>
<path id="Vector_14" d="M69.0874 71.583C69.5095 70.387 69.1955 69.4346 68.2984 68.5301C67.1652 67.3843 66.1576 66.1153 64.8685 64.6429C65.0394 67.1983 64.4816 69.2964 63.6449 71.3368C65.4716 71.1609 67.2632 71.7137 69.0874 71.583Z" fill="#C3C8FF"/>
<path id="Vector_15" d="M69.085 71.583C67.2608 71.7136 65.4692 71.1608 63.6425 71.3317C62.851 72.4851 62.0871 73.656 61.2278 74.8696C63.3284 74.4952 65.4592 74.2289 67.5096 73.6937C68.3739 73.4751 68.8765 72.5328 69.085 71.583Z" fill="#939EFF"/>
<path id="Vector_16" d="M69.1058 73.2865C69.9928 73.4624 70.6134 73.274 70.8647 72.5478C71.1713 71.7085 70.719 71.1457 69.9601 70.6381C69.9375 71.6332 69.6058 72.4196 69.1058 73.2865Z" fill="#C3C8FF"/>
<path id="Vector_17" d="M27.2846 64.7283C27.2067 64.6403 27.1187 64.575 27.0333 64.7082C27.0182 64.7308 27.1011 64.8137 27.1388 64.8715L27.2846 64.7283Z" fill="#B1AEFC"/>
<path id="Vector_18" d="M27.9461 54.1522C27.8229 56.3809 27.152 58.6148 25.5539 60.5244C25.3429 60.7757 24.8001 61.0571 25.1896 61.419C25.5791 61.7808 25.8454 61.2481 26.064 60.9918C27.7473 59.0434 28.6582 56.5458 28.6245 53.9712C28.6245 53.6019 28.6848 53.0843 28.1797 52.9059C27.9561 52.8254 27.8782 53.1169 27.9461 54.1522Z" fill="#00036B"/>
</g>
</svg>
