<svg width="86" height="78" viewBox="0 0 86 78" fill="none" xmlns="http://www.w3.org/2000/svg">
<g id="Group 317">
<path id="Vector" d="M85.3157 24.9181C84.2148 41.9389 78.8976 57.2515 66.7583 69.6944C62.8325 73.7206 58.1331 76.5587 52.478 77.6147C48.218 78.457 43.8001 77.9101 39.8741 76.0544C27.059 69.9822 16.1131 61.6262 8.30101 49.5715C4.60485 43.8688 2.06243 37.6778 1.14631 30.9296C0.111386 23.3076 1.10407 16.0262 5.79026 9.61866C9.63955 4.32524 15.0307 1.5848 21.3669 0.465393C32.2785 -1.43549 41.1678 2.64084 48.927 9.88003C49.8564 10.7433 50.4319 10.7513 51.4668 10.144C56.2718 7.27688 61.2854 4.84534 66.8956 4.03482C72.1758 3.26919 76.9914 4.14571 80.6242 8.48869C82.8894 11.1895 83.9771 14.4157 84.6213 17.8136C85.0505 20.1582 85.2827 22.5347 85.3157 24.9181Z" fill="#00036B"/>
<path id="Vector_2" d="M46.7132 8.8979C50.3803 11.7756 53.2792 15.345 55.9166 19.1468C56.0428 19.3771 56.1885 19.5962 56.3523 19.8016C56.97 20.4325 57.0044 19.9547 57.007 19.4399C56.6981 18.9409 56.9885 18.5237 57.1918 18.0987C58.8762 14.5451 60.5025 10.9704 61.8146 7.25839C62.0153 6.69077 62.1843 6.07562 62.802 5.77201C67.7628 4.14306 72.6972 3.57279 77.3807 6.56404C81.0769 8.91638 82.7349 12.6363 83.6536 16.7205C85.2615 23.8673 84.5038 30.9587 82.8431 37.9814C80.5436 47.7154 76.6072 56.7261 70.4056 64.628C66.2738 69.8924 61.4028 74.2829 54.8289 76.329C50.4226 77.7045 46.0189 77.649 41.6838 75.9462C38.1619 73.8341 35.1469 71.062 32.1794 68.2898C29.4891 65.7791 26.8253 63.2208 24.4518 60.3853C23.6461 59.4641 23.0017 58.4136 22.5456 57.2779C18.897 51.6492 16.3282 45.5849 15.3196 38.9265C14.3798 32.7249 14.8101 26.6474 17.6271 20.9474C20.0613 16.0236 23.7865 12.3538 28.9294 10.2338C29.5531 10.0207 30.1617 9.76577 30.7511 9.4708C31.8731 8.45964 33.341 8.41476 34.6954 8.15075C37.9839 7.55514 41.3497 7.52389 44.6486 8.05834C45.3932 8.16659 46.0426 8.57052 46.7132 8.8979Z" fill="#C3C8FF"/>
<path id="Vector_3" d="M46.7119 8.89787C44.032 8.2661 41.2789 7.99968 38.5276 8.10583C36.2674 8.25264 34.0249 8.60165 31.827 9.14868C31.3306 9.2622 31.2224 9.76646 30.8052 9.91167C30.1716 9.44437 29.6119 9.89319 29.0892 10.115C24.6775 11.9868 21.1477 14.9147 18.6766 19.0412C15.2946 24.6831 14.4075 30.8134 15.0992 37.2843C15.8464 44.2886 18.3756 50.6143 22.077 56.5281C22.2698 56.837 22.2909 57.4944 22.972 57.1829C23.4103 59.1101 24.8201 60.3985 26.0926 61.7318C30.8448 66.7638 35.9086 71.4711 41.4766 75.6108C41.5659 75.7066 41.6391 75.8162 41.6931 75.9356C38.1527 74.795 35.003 72.8651 31.8586 70.9563C23.3601 65.7949 15.9493 59.419 10.2335 51.203C6.05419 45.1783 3.05239 38.6176 1.95146 31.3388C0.773969 23.4792 1.76137 16.0024 6.81454 9.50509C10.4394 4.84002 15.3579 2.35831 21.0711 1.26003C30.3432 -0.52733 38.3797 2.28439 45.6295 7.94743C46.007 8.24048 46.3502 8.57841 46.7119 8.89787Z" fill="#6D73E6"/>
<path id="Vector_4" d="M62.8027 5.77203C61.0946 10.4213 59.1066 14.9517 57.0077 19.4399C55.2362 16.8763 53.425 14.3471 51.1994 12.1426C50.8087 11.7572 50.5658 11.4509 51.2417 11.0602C54.9325 8.92697 58.663 6.90728 62.8027 5.77203Z" fill="#6D73E6"/>
<path id="Vector_5" d="M68.3327 59.3478C68.3327 59.6541 68.3327 59.963 68.3327 60.2692C68.2535 62.8935 66.9018 63.9944 64.3963 63.3027C62.7082 62.8292 61.0536 62.2435 59.4434 61.5497C55.3037 59.7861 51.2591 60.0448 47.2065 61.8454C45.2027 62.7351 43.2464 63.7251 41.1343 64.3667C40.5957 64.5494 40.0429 64.6871 39.4816 64.7785C38.0242 64.9712 36.9735 64.2875 36.6566 62.8433C36.0204 59.9603 36.6566 57.1592 37.4936 54.4346C39.1067 49.1913 41.7811 44.5949 46.3802 41.4109C51.1799 38.0896 56.6766 38.5913 60.9747 42.5567C65.3837 46.6383 68.3116 53.3099 68.3327 59.3478Z" fill="#00036B"/>
<path id="Vector_6" d="M22.9699 57.1828C22.9488 57.431 23.0729 57.7848 22.7482 57.8561C22.3759 57.9405 22.265 57.5525 22.1066 57.3043C19.6223 53.3943 17.5973 49.2731 16.2693 44.8218C14.2364 38.0341 13.7084 31.1989 15.8786 24.3583C18.1359 17.23 22.7429 12.2138 29.7418 9.49715C30.0771 9.36778 30.9114 8.65759 30.7979 9.91957C22.4419 12.7946 17.6475 18.8141 15.8918 27.2836C14.1361 35.7531 16.0185 43.7235 19.6381 51.3825C20.5938 53.3996 21.6288 55.3849 22.9699 57.1828Z" fill="#00036B"/>
<path id="Vector_7" d="M50.7073 30.2115C50.7073 32.1678 50.1793 33.9446 48.8592 35.4231C46.8184 37.7121 43.843 37.7833 41.6676 35.6184C38.8427 32.8014 38.6499 27.4077 41.2636 24.4006C43.212 22.1592 46.095 21.9902 48.2362 24.0389C49.9892 25.7127 50.7179 27.8222 50.7073 30.2115Z" fill="#00036B"/>
<path id="Vector_8" d="M41.1901 41.0254C41.1901 44.344 38.9618 46.6568 35.7462 46.6621C31.8282 46.6621 28.5123 43.3065 28.4964 39.3146C28.4808 38.5791 28.6131 37.8478 28.8853 37.1643C29.1576 36.4808 29.5643 35.8589 30.0813 35.3355C30.5983 34.812 31.2152 34.3977 31.8953 34.1171C32.5754 33.8365 33.3049 33.6952 34.0406 33.7018C37.8873 33.7176 41.1848 37.1022 41.1901 41.0254Z" fill="#00036B"/>
<path id="Vector_9" d="M65.4559 30.8319C65.3345 32.68 64.9939 34.4515 63.6791 35.9036C61.8654 37.9074 59.3969 38.0473 57.4009 36.2494C54.4572 33.5935 54.3437 27.7007 57.1845 24.8969C58.8556 23.2495 61.2476 23.1835 62.9742 24.7702C64.7008 26.3569 65.382 28.4822 65.4559 30.8319Z" fill="#00036B"/>
<path id="Vector_10" d="M74.6956 40.4789C74.6421 41.5722 74.3083 42.6334 73.7262 43.5604C73.1441 44.4875 72.3333 45.2492 71.3717 45.7723C68.9508 47.1742 66.1417 46.3003 64.8797 43.8028C63.1795 40.4472 65.4077 35.6844 69.059 34.8449C72.0555 34.1558 74.6956 36.5742 74.6956 40.4789Z" fill="#00036B"/>
<path id="Vector_11" d="M67.5459 57.8666C67.6488 62.7931 66.7301 63.4373 63.2451 62.2202C60.8902 61.3991 58.6144 60.3721 56.1564 59.8177C53.0807 59.1339 50.2373 59.8916 47.4441 61.0005C45.4878 61.7766 43.5684 62.6426 41.6358 63.4478C41.1468 63.6403 40.6437 63.7948 40.131 63.9099C38.1958 64.3719 37.2691 63.7013 37.1978 61.7027C37.042 57.2805 38.3304 53.22 40.4187 49.3813C42.0028 46.4534 44.0251 43.8635 46.8184 41.989C51.193 39.0294 56.3571 39.3489 60.2829 42.9051C64.5531 46.7613 67.1574 52.1261 67.5459 57.8666Z" fill="#FFD529"/>
<path id="Vector_12" d="M49.9423 30.2537C50.0352 31.9734 49.4569 33.6621 48.3292 34.9637C46.7213 36.8118 44.3426 36.9807 42.4972 35.3914C39.6115 32.9097 39.3475 27.4315 41.9691 24.6778C43.5532 23.0146 45.8924 22.9037 47.6163 24.4561C49.2955 25.9556 49.9713 27.8908 49.9423 30.2537Z" fill="#FFD529"/>
<path id="Vector_13" d="M29.2372 39.2433C29.2247 38.6047 29.3423 37.9703 29.5827 37.3786C29.8232 36.787 30.1816 36.2504 30.636 35.8017C31.0905 35.3529 31.6315 35.0013 32.2262 34.7683C32.8208 34.5353 33.4567 34.4257 34.095 34.4462C37.4664 34.4673 40.5263 37.588 40.5527 41.028C40.5738 43.845 38.4221 46.0073 35.6474 45.9518C32.1255 45.8832 29.2134 42.8339 29.2372 39.2433Z" fill="#FFD529"/>
<path id="Vector_14" d="M64.7122 30.89C64.6567 32.548 64.2766 34.1426 63.107 35.46C61.5889 37.1734 59.5666 37.2738 57.8954 35.724C55.4032 33.4245 55.1655 28.2235 57.4387 25.6916C58.999 23.9491 61.082 23.8778 62.7374 25.549C64.1815 26.9984 64.6858 28.8254 64.7122 30.89Z" fill="#FFD529"/>
<path id="Vector_15" d="M73.961 40.2254C73.8607 42.1949 73.0079 43.9876 71.0569 45.1149C68.5197 46.5828 65.6816 45.2179 65.1853 42.3243C64.7681 39.9033 65.5364 37.9048 67.4637 36.4104C68.7837 35.394 70.2886 35.1458 71.7882 35.9273C73.3802 36.7642 73.9425 38.2559 73.961 40.2254Z" fill="#FFD529"/>
</g>
</svg>
