<svg width="79" height="79" viewBox="0 0 79 79" fill="none" xmlns="http://www.w3.org/2000/svg">
<g id="Group 255">
<path id="Vector" d="M78.5746 45.3134C78.5746 51.8089 78.5746 58.3068 78.5746 64.8023C78.5746 69.591 76.3461 72.8948 71.9914 74.7772C69.3532 75.9158 66.6809 76.9716 64.0256 78.0761C61.3704 79.1806 58.6274 78.7588 55.8892 78.2785C48.0722 76.9033 40.2495 75.5542 32.4211 74.231C25.6331 73.0753 18.8401 71.9537 12.052 70.7931C10.0234 70.4468 7.93628 70.3054 6.08321 69.2692C2.61359 67.3381 0.611795 64.4293 0.592289 60.433C0.533771 47.6858 0.533771 34.9371 0.592289 22.1867C0.606919 18.4952 2.29906 15.4913 5.52729 13.7894C9.27957 11.7916 13.2297 10.1899 17.3138 9.01042C19.2132 8.47157 21.1028 9.02505 22.99 9.17866C23.463 9.21767 23.8336 9.27375 24.1335 8.79586C26.6352 4.79714 30.4364 2.70025 34.8789 1.66399C39.1458 0.666753 43.4639 0.408299 47.7772 1.40554C53.2364 2.66611 57.179 6.99643 58.0519 12.7604C58.1812 13.6138 58.5688 13.843 59.2711 13.9332C62.5676 14.3502 65.8543 14.8427 69.163 15.1743C74.4857 15.7083 78.5356 19.9923 78.5649 25.3369C78.599 31.9957 78.5746 38.6546 78.5746 45.3134ZM57.6472 20.0362C57.5545 17.376 57.8276 14.711 57.1595 12.0607C55.8209 6.67215 52.6 3.2391 47.1359 2.02242C43.3932 1.18854 39.6505 1.45187 35.92 2.15896C33.238 2.62862 30.6889 3.67154 28.4468 5.21652C25.1015 7.56942 23.3265 10.8684 22.7145 14.85C22.0391 14.8817 22.1878 14.4282 22.2073 14.0235C22.261 12.8726 22.6657 11.829 23.0705 10.7611C23.2168 10.3758 23.4557 9.98572 22.7657 9.88087C20.4372 9.53221 18.0989 9.21036 15.8289 10.1125C12.8396 11.304 9.86005 12.5345 6.89027 13.804C5.64205 14.2939 4.54763 15.1088 3.72056 16.1642C2.01379 17.9051 1.28231 20.0362 1.28231 22.4354C1.28231 35.0151 1.28231 47.5932 1.28231 60.1697C1.28231 64.9779 4.51298 68.7547 9.27731 69.5983C12.7835 70.2201 16.297 70.8175 19.8081 71.4075C25.7932 72.4267 31.7791 73.4426 37.7658 74.4553C43.2299 75.3916 48.6842 76.4059 54.1605 77.2593C56.5085 77.6299 58.8273 78.3809 61.2582 78.0322C61.3781 78.047 61.4993 78.047 61.6191 78.0322C65.5811 76.8742 69.4195 75.329 73.0788 73.4191C76.2851 71.783 77.848 68.8766 77.8529 65.2485C77.8692 51.9812 77.8692 38.7139 77.8529 25.4466C77.8529 20.5701 74.4662 16.6836 69.6141 15.974C66.1298 15.4669 62.6285 15.0475 59.1418 14.5428C58.3835 14.4331 58.3396 14.7354 58.4104 15.3328C58.5359 16.6263 58.5188 17.9296 58.3592 19.2193C58.3177 19.6631 58.3494 20.1629 57.6472 20.0362Z" fill="#00036B"/>
<path id="Vector_2" d="M61.2652 78.0324C58.827 78.381 56.5155 77.6301 54.1675 77.2594C48.6912 76.3987 43.2368 75.3917 37.7727 74.4555C31.786 73.4314 25.8001 72.4155 19.8151 71.4077C16.304 70.8103 12.7905 70.2202 9.2843 69.5985C4.51265 68.7548 1.28442 64.978 1.28442 60.1698C1.26329 47.5901 1.26329 35.012 1.28442 22.4355C1.28442 20.0363 2.01589 17.9053 3.72266 16.1644C6.62905 16.5496 9.51105 17.1226 12.454 17.2006C12.5101 18.0369 13.205 17.8029 13.6585 17.8638C17.6743 18.3905 21.7047 18.8733 25.7181 19.395C32.4281 20.2679 39.1373 21.1522 45.8458 22.0478C48.4181 22.3868 51.0295 22.5355 53.5506 23.1182C58.0955 24.1472 60.9141 27.9289 60.9214 32.7152C60.9361 43.8791 60.9417 55.043 60.9385 66.2069C60.9385 66.6945 60.6947 67.2773 61.2555 67.6698C61.262 71.1224 61.2652 74.5766 61.2652 78.0324ZM28.2977 67.6284C35.6417 67.6284 40.6572 66.046 45.007 62.8957C56.023 54.9178 56.5862 39.9153 46.1969 31.1474C36.7828 23.2011 22.0583 23.6181 13.1001 32.0861C5.29777 39.4642 4.49315 50.8216 11.3422 59.0921C16.1723 64.9244 22.6191 67.4601 28.2977 67.6284Z" fill="#C3C9FF"/>
<path id="Vector_3" d="M12.4537 17.2003C9.51075 17.1223 6.62875 16.5493 3.71992 16.1641C4.547 15.1086 5.64142 14.2937 6.88964 13.8039C9.8578 12.536 12.8422 11.3047 15.8429 10.1099C18.1129 9.20777 20.4512 9.52962 22.7797 9.87829C23.4697 9.98313 23.2307 10.3659 23.0845 10.7585C22.6797 11.8143 22.275 12.87 22.2213 14.0209C22.2042 14.4281 22.0555 14.8791 22.7382 14.8474C23.7598 16.9321 25.4203 17.2174 27.1636 15.6106C27.9244 15.8983 27.9536 15.3497 28.0146 14.8572C28.1609 13.6746 28.6168 12.6091 29.1532 11.5582C29.4873 10.8999 29.9481 10.7487 30.6162 10.839C35.9413 11.5582 41.2664 12.2873 46.5989 12.9456C47.4742 13.0529 47.7839 13.4332 47.8521 14.2135C47.974 15.6228 48.1984 17.0248 48.0374 18.4463C47.9911 18.8413 47.8692 19.3094 48.5397 19.2875C48.8591 19.4557 49.181 19.6166 49.4931 19.7971C52.1751 21.3405 54.8792 21.6648 57.6466 20.0409C58.3488 20.1701 58.3171 19.6703 58.3634 19.2168C58.523 17.927 58.5402 16.6237 58.4146 15.3302C58.3439 14.7328 58.3878 14.4305 59.1461 14.5402C62.6328 15.0449 66.1341 15.4643 69.6183 15.9715C74.4704 16.681 77.8523 20.5578 77.8572 25.444C77.8767 38.7097 77.8767 51.977 77.8572 65.2459C77.8572 68.874 76.2894 71.7804 73.0831 73.4165C69.4238 75.3265 65.5854 76.8716 61.6233 78.0296C61.5035 78.0444 61.3823 78.0444 61.2625 78.0296C61.2625 74.5755 61.2625 71.1197 61.2625 67.6622C61.7501 67.4574 61.6697 67.0137 61.6697 66.6211C61.6697 55.1809 61.7209 43.7431 61.6453 32.3028C61.6014 27.3873 58.4853 23.4496 53.6283 22.4743C49.1907 21.5867 44.6605 21.1503 40.1644 20.5602C33.4177 19.6727 26.6711 18.7949 19.9269 17.9757C17.435 17.6831 14.9797 17.0882 12.4537 17.2003Z" fill="#939EFF"/>
<path id="Vector_4" d="M57.6516 20.036C54.8842 21.6672 52.1729 21.3429 49.4981 19.7922C49.186 19.6118 48.8642 19.4509 48.5448 19.2826C49.0666 17.5247 48.8813 15.7496 48.5448 14.0038C47.8523 10.3465 46.1236 7.47909 42.3102 6.37701C40.5376 5.86497 38.7333 5.97226 36.8997 6.14781C31.5356 6.66228 27.7758 10.2441 27.1468 15.6058C25.401 17.2126 23.7332 16.9273 22.7213 14.8426C23.3358 10.8609 25.1084 7.56199 28.4537 5.20909C30.7005 3.6639 33.2548 2.62257 35.9415 2.15641C39.6647 1.44932 43.4074 1.18111 47.1574 2.01986C52.6215 3.23899 55.8424 6.66959 57.181 12.0581C57.8321 14.7085 57.559 17.3735 57.6516 20.036Z" fill="#6D73E6"/>
<path id="Vector_5" d="M28.2973 67.6283C22.6187 67.4601 16.1719 64.9243 11.3418 59.0945C4.49276 50.824 5.29494 39.4666 13.0998 32.0885C22.0554 23.618 36.7824 23.206 46.1965 31.1473C56.5858 39.925 56.0226 54.9178 45.0066 62.8957C40.6568 66.0459 35.6413 67.6381 28.2973 67.6283ZM29.8749 66.9408C37.4871 66.7676 43.6631 64.2587 48.4592 58.6507C54.0452 52.1357 54.4109 42.3145 49.2565 35.463C45.526 30.4915 40.5276 27.5192 34.4124 26.5683C25.7664 25.2273 18.2396 27.4802 12.2659 34.0415C6.47993 40.3932 5.75089 49.6463 10.5225 56.7611C15.1942 63.7369 22.0237 66.6969 29.8749 66.9408Z" fill="#00036B"/>
<path id="Vector_6" d="M12.4589 17.2004C14.9849 17.0883 17.4402 17.6881 19.9224 17.9831C26.6763 18.8024 33.4229 19.6899 40.1598 20.5677C44.6559 21.1577 49.1813 21.5942 53.6238 22.4817C58.4808 23.457 61.5968 27.3874 61.631 32.3054C61.7066 43.7456 61.6578 55.1834 61.6553 66.6236C61.6553 67.0162 61.748 67.46 61.2482 67.6648C60.6874 67.282 60.9312 66.6895 60.9312 66.2018C60.9166 55.0379 60.9109 43.874 60.9141 32.7101C60.9141 27.919 58.098 24.1372 53.5458 23.1083C51.0246 22.5378 48.4132 22.3768 45.8409 22.0379C39.1309 21.1504 32.4216 20.2661 25.7132 19.3851C21.695 18.8633 17.667 18.3806 13.6536 17.8539C13.2099 17.8027 12.515 18.0368 12.4589 17.2004Z" fill="#00036B"/>
<path id="Vector_7" d="M27.1601 15.6106C27.7794 10.2465 31.5367 6.66712 36.9131 6.15265C38.7466 5.97709 40.5509 5.86981 42.3235 6.38184C46.1369 7.48393 47.8657 10.3586 48.5581 14.0087C48.8897 15.7545 49.075 17.5295 48.5581 19.2875C47.8876 19.3094 48.0095 18.8413 48.0558 18.4463C48.2168 17.0248 47.9924 15.6228 47.8705 14.2135C47.8023 13.4284 47.4926 13.0529 46.6173 12.9456C41.2848 12.2873 35.9597 11.5582 30.6346 10.839C29.9592 10.7487 29.4984 10.8999 29.1716 11.5582C28.6352 12.6091 28.1793 13.6746 28.033 14.8572C27.9501 15.3497 27.9208 15.891 27.1601 15.6106ZM30.2689 10.1392L47.3634 12.3336C46.2784 9.22484 44.3278 7.39859 41.2336 6.87681C38.7008 6.46359 36.1034 6.73984 33.7141 7.67655C32.3521 8.14781 31.1556 9.00308 30.2689 10.1392Z" fill="#00036B"/>
<path id="Vector_8" d="M29.8771 66.9405C22.0259 66.6966 15.1964 63.7366 10.5247 56.7681C5.75308 49.6484 6.48211 40.4002 12.2681 34.0486C18.2418 27.4872 25.7686 25.2343 34.4146 26.5753C40.5297 27.5262 45.5281 30.4985 49.2587 35.47C54.4131 42.3337 54.0474 52.1428 48.4614 58.6577C43.6653 64.2535 37.4893 66.7673 29.8771 66.9405ZM33.1736 37.8693H33.276C33.276 36.6916 33.276 35.5139 33.276 34.3363C33.276 31.7468 31.4668 29.8401 29.0212 29.8353C26.622 29.8353 24.7665 31.7859 24.7129 34.3363C24.6665 36.6063 24.5861 38.8787 24.5251 41.1487C24.5251 41.6364 24.5251 41.9875 23.7936 41.8802C21.9455 41.6364 20.0875 41.473 18.2296 41.3121C17.4688 41.2462 16.7008 41.1438 15.9449 41.4364C14.3357 42.0557 13.5945 43.387 13.731 45.4668C13.8359 47.0737 15.194 48.7512 16.7544 49.034C18.866 49.4192 20.9872 49.7655 23.1158 50.0215C24.0643 50.1361 24.3179 50.5091 24.291 51.4259C24.2155 53.8203 24.1764 56.2195 24.2325 58.6139C24.2886 61.0911 26.6439 63.2246 29.1651 63.2075C31.4595 63.1929 32.642 61.7153 32.7176 58.7943C32.7737 56.6462 32.8663 54.4957 32.9029 52.3451C32.9175 51.6137 33.1467 51.4991 33.8782 51.6137C36.7139 52.1013 39.5544 52.5475 42.4121 52.9157C45.7598 53.3473 48.3492 50.4116 47.369 47.3711C46.6254 45.0645 44.6138 43.6967 41.7464 43.4699C39.1619 43.2651 36.5822 42.9823 33.9977 42.7701C33.3686 42.7189 33.1638 42.4898 33.1809 41.8704C33.2004 40.5489 33.1736 39.2079 33.1736 37.8693Z" fill="#6D73E6"/>
<path id="Vector_9" d="M33.1708 37.8696C33.1708 39.2081 33.1976 40.5516 33.1708 41.8878C33.1537 42.5071 33.3585 42.7363 33.9876 42.7875C36.5721 42.9947 39.1518 43.2751 41.7363 43.4873C44.6037 43.7165 46.6128 45.0843 47.3589 47.3885C48.3342 50.4289 45.7497 53.3646 42.402 52.933C39.5492 52.5648 36.7087 52.1162 33.8681 51.631C33.1537 51.5066 32.9196 51.6188 32.8928 52.3625C32.8562 54.513 32.7636 56.6635 32.7075 58.8116C32.6319 61.7375 31.4494 63.2005 29.155 63.2248C26.6338 63.2419 24.2785 61.1084 24.2224 58.6312C24.1663 56.2368 24.2053 53.8376 24.2809 51.4433C24.3078 50.5362 24.0542 50.1534 23.1057 50.0388C20.9844 49.7828 18.8632 49.4293 16.7516 49.0513C15.1912 48.7685 13.8257 47.1007 13.7282 45.4842C13.5917 43.3995 14.3329 42.0706 15.9421 41.4538C16.698 41.1612 17.466 41.2636 18.2268 41.3294C20.0847 41.4903 21.9427 41.6488 23.7908 41.8975C24.5223 41.9951 24.5077 41.6391 24.5223 41.1661C24.5833 38.8961 24.6637 36.6236 24.7101 34.3536C24.7637 31.8008 26.6192 29.8477 29.0184 29.8526C31.4567 29.8526 33.2683 31.7642 33.2732 34.3536C33.2732 35.5313 33.2732 36.709 33.2732 37.8866L33.1708 37.8696ZM32.4271 38.2182H32.5563V34.4438C32.5563 32.1763 31.1617 30.6231 29.0818 30.5792C27.002 30.5353 25.5171 32.069 25.4489 34.3122C25.3757 36.787 25.2635 39.2594 25.2318 41.7342C25.2318 42.5827 24.9368 42.7265 24.1298 42.6339C21.8354 42.3705 19.5312 42.1657 17.2247 42.0341C15.6154 41.9414 14.5426 42.9801 14.4158 44.582C14.2378 46.6838 15.5715 48.2394 17.8293 48.5369C19.836 48.8148 21.8354 49.1367 23.8445 49.3756C24.8637 49.4951 25.1587 49.9267 25.0953 50.9629C24.9466 53.35 24.9295 55.7492 24.9124 58.1435C24.9002 59.9381 25.8146 61.2377 27.3507 62.0642C29.7328 63.3443 31.9468 62.035 32.0004 59.3432C32.037 57.5169 32.0004 55.6858 32.0662 53.862C32.215 49.8998 31.5981 50.6923 35.4481 51.1799C37.779 51.475 40.0808 51.9236 42.4239 52.1845C44.8841 52.46 46.8127 50.9068 46.8493 48.7539C46.8908 46.7886 45.2474 44.7722 43.0603 44.4699C39.8906 44.0334 36.6965 43.7604 33.5072 43.4946C32.5856 43.419 32.3515 43.1191 32.4125 42.2267C32.4929 40.9003 32.4271 39.5568 32.4271 38.2182Z" fill="#00036B"/>
<path id="Vector_10" d="M32.4262 38.2183C32.4262 39.5569 32.4945 40.9003 32.4018 42.2341C32.3409 43.1264 32.5749 43.4264 33.4966 43.5019C36.6858 43.7604 39.8799 44.0335 43.0496 44.4772C45.244 44.7796 46.8801 46.796 46.8387 48.7612C46.7948 50.9142 44.8734 52.4674 42.4132 52.1918C40.0798 51.9309 37.7684 51.4823 35.4374 51.1873C31.5874 50.6996 32.2043 49.9072 32.0556 53.8694C31.9898 55.6956 32.0263 57.5267 31.9898 59.3505C31.9361 62.0326 29.7222 63.3517 27.34 62.0716C25.8039 61.245 24.8896 59.9455 24.9018 58.1509C24.9188 55.7566 24.9359 53.3573 25.0846 50.9703C25.148 49.934 24.8408 49.5073 23.8338 49.383C21.8247 49.1392 19.8254 48.8222 17.8187 48.5442C15.5706 48.2346 14.2369 46.6912 14.4051 44.5894C14.5417 42.9875 15.6048 41.9488 17.214 42.0414C19.5206 42.1731 21.8247 42.3779 24.1191 42.6412C24.9262 42.7339 25.209 42.59 25.2212 41.7415C25.2529 39.2667 25.365 36.7943 25.4382 34.3195C25.5065 32.0763 26.9962 30.5402 29.0712 30.5866C31.1461 30.6329 32.5481 32.1836 32.5457 34.4512V38.2256L32.4262 38.2183Z" fill="#FFD529"/>
</g>
</svg>
