<svg width="81" height="78" viewBox="0 0 81 78" fill="none" xmlns="http://www.w3.org/2000/svg">
<g id="Group 360">
<g id="Group 359">
<path id="Vector" d="M44.0713 77.4929C35.8844 77.4929 27.6975 77.4578 19.5106 77.5079C15.767 77.533 12.6627 76.2938 10.2806 73.3663C10.018 73.0452 9.65028 72.8274 9.24254 72.7517C3.76121 71.4623 0.0225672 66.8239 0.0150448 61.1897C-0.00501494 45.0194 -0.00501494 28.8491 0.0150448 12.6789C0.0250747 5.98848 5.24814 0.798246 11.9556 0.785703C28.0787 0.770651 44.2017 0.770651 60.3247 0.785703C61.9569 0.755063 63.5769 1.07229 65.0771 1.71631C66.5773 2.36034 67.9233 3.3164 69.0257 4.52097C69.4663 5.01178 70.0571 5.34261 70.7057 5.46168C73.3738 5.96576 75.7828 7.38446 77.5182 9.47365C79.2537 11.5628 80.2069 14.1919 80.214 16.9083C80.2491 33.4983 80.2491 50.0867 80.214 66.6734C80.199 72.7517 75.5025 77.4302 69.3842 77.4728C60.9466 77.5305 52.509 77.4879 44.0713 77.4879V77.4929ZM56.4181 6.55542C43.9459 6.55542 31.4713 6.44254 19.0016 6.56797C13.7359 6.62065 9.35287 11.3016 9.30021 16.6324C9.21747 24.853 9.27764 33.0761 9.26761 41.2967C9.26761 41.7733 9.33532 42.1471 9.76911 42.4882C11.8324 44.2141 14.1117 45.6637 16.5493 46.8005C20.8421 49.0582 25.3806 50.0616 30.1975 49.1736C35.4281 48.2153 39.3723 45.1423 42.627 41.1261C45.7087 37.3256 49.2768 34.215 53.9808 32.6245C60.6307 30.3668 67.2052 31.0642 73.7096 33.2918C75.4649 33.8939 77.1699 34.6339 78.9753 35.3363C78.9753 29.3559 79.0405 23.4682 78.9352 17.5856C78.9026 15.7795 78.6845 13.9181 77.8043 12.2449C75.9262 8.6551 72.8571 6.74858 68.9229 6.55542C64.763 6.35223 60.583 6.53535 56.4181 6.55542ZM64.422 76.1734C66.1321 76.1934 67.8421 76.2386 69.5497 76.2235C71.5242 76.2187 73.4471 75.5922 75.0457 74.4328C76.6444 73.2733 77.8376 71.6399 78.4563 69.764C79.3765 67.0447 78.8951 64.225 78.9352 61.4455C78.9486 53.5134 78.9653 45.5821 78.9854 37.6517C78.9854 37.0597 78.7998 36.7336 78.2632 36.5128C77.0722 36.0236 75.9112 35.4592 74.7126 34.9901C69.625 32.9958 64.3568 32.04 58.9156 32.7324C52.5942 33.5351 47.7097 36.8314 43.7428 41.7633C38.1311 48.6995 31.0926 52.1864 21.9705 50.1896C21.1706 50.0165 20.4208 49.5474 19.5508 49.7054C16.0227 48.0422 12.4245 46.4994 9.31024 43.6848V59.9354C9.31024 62.6948 9.29018 65.4542 9.29269 68.1936C9.31726 68.4366 9.37636 68.6748 9.46821 68.901C10.9827 73.7777 14.2792 76.2169 19.3577 76.2185C28.9529 76.2185 38.549 76.2185 48.146 76.2185C53.5696 76.2035 58.9933 76.1809 64.4144 76.1658L64.422 76.1734ZM8.91155 71.2541C8.31542 69.7743 8.0016 68.196 7.9863 66.6007C8.01137 49.9287 8.02391 33.2584 8.02391 16.5897C8.02177 16.0007 8.07465 15.4128 8.18188 14.8337C9.24254 9.1819 14.0544 5.22588 19.9419 5.22086C35.4013 5.20079 50.8582 5.19327 66.3126 5.19828C66.7414 5.19828 67.2153 5.36887 67.7118 4.97C65.6936 3.0456 62.9995 1.99308 60.2119 2.03999C44.2945 2.03999 28.3787 2.03999 12.4646 2.03999C5.73208 2.03999 1.26878 6.53034 1.26878 13.2909C1.26878 21.1043 1.26878 28.9185 1.26878 36.7336C1.26878 44.8814 1.25374 53.0393 1.26878 61.1796C1.29386 65.8983 4.52599 70.2406 8.91155 71.2541Z" fill="#00036B"/>
<path id="Vector_2" d="M8.91035 71.2542C4.52478 70.2508 1.29265 65.8984 1.27761 61.1797C1.25504 53.0319 1.27761 44.874 1.27761 36.7337C1.27761 28.9186 1.27761 21.1044 1.27761 13.2911C1.26758 6.53046 5.73088 2.04011 12.4634 2.04011C28.3792 2.04011 44.295 2.04011 60.2107 2.04011C62.9956 1.9972 65.6857 3.05136 67.7005 4.97514C67.199 5.374 66.7301 5.20342 66.3014 5.20342C50.8453 5.2168 35.3884 5.22433 19.9307 5.226C14.0431 5.226 9.23131 9.18704 8.17065 14.8389C8.06709 15.4167 8.01757 16.0028 8.02271 16.5898C8.00766 33.2618 7.99596 49.9347 7.9876 66.6083C8.00304 68.2009 8.316 69.7766 8.91035 71.2542Z" fill="#939EFF"/>
<path id="Vector_3" d="M33.3481 23.9875C33.3623 25.1375 33.1484 26.2789 32.7186 27.3456C32.2889 28.4124 31.6519 29.3832 30.8445 30.2019C30.0371 31.0206 29.0754 31.6709 28.0151 32.1152C26.9547 32.5595 25.8168 32.7889 24.6672 32.7901C19.567 32.7901 15.9261 28.824 15.8735 24.0101C15.8183 19.2488 19.7902 15.3354 24.5468 15.3053C25.6966 15.2897 26.838 15.5027 27.9049 15.932C28.9717 16.3613 29.9427 16.9982 30.7615 17.8059C31.5802 18.6136 32.2305 19.576 32.6745 20.6372C33.1186 21.6983 33.3475 22.8371 33.3481 23.9875ZM32.0392 23.832C32.167 19.9612 28.4811 16.4693 24.8176 16.6073C20.3669 16.4267 16.8313 20.2899 17.21 24.3839C17.5059 28.4904 20.2841 31.2473 24.3136 31.433C28.5387 31.8343 32.2573 28.1743 32.0367 23.832H32.0392Z" fill="#00036B"/>
<path id="Vector_4" d="M78.9273 61.4379V60.7857C78.9273 60.7455 78.9273 60.7054 78.9273 60.6653V56.6842C78.9273 50.3291 78.9415 43.9824 78.9699 37.6441C78.9726 37.5032 78.9583 37.3626 78.9273 37.2252V35.3262H78.9574C78.9574 29.3457 79.0226 23.4581 78.9173 17.5755C78.8847 15.7693 78.6665 13.908 77.7864 12.2347C75.9259 8.655 72.8567 6.74848 68.9225 6.55532C64.7626 6.35213 60.5826 6.53526 56.4102 6.55532C43.938 6.55532 31.4634 6.44244 18.9937 6.56787C13.728 6.62055 9.34497 11.3015 9.29231 16.6323C9.29231 17.0211 9.29231 17.4099 9.29231 17.7988C9.24819 18.0396 9.22554 18.2839 9.22461 18.5287V60.6728C9.22436 60.9569 9.25377 61.2402 9.31237 61.5182C9.31237 63.7458 9.31237 65.9726 9.31237 68.1985C9.33694 68.4415 9.39604 68.6797 9.4879 68.9059C11.0024 73.7826 14.2989 76.2218 19.3774 76.2234C28.9726 76.2234 38.5687 76.2234 48.1656 76.2234C53.5893 76.2234 59.013 76.1984 64.4341 76.1833C66.1442 76.2034 67.8543 76.2485 69.5619 76.2335C71.5365 76.229 73.4595 75.6026 75.0582 74.4432C76.6569 73.2837 77.8501 71.65 78.4684 69.7739C79.3686 67.037 78.8872 64.2174 78.9273 61.4379Z" fill="#C3C8FF"/>
<path id="Vector_5" d="M66.9491 75.4333C67.0368 75.8146 66.9992 76.1081 66.5052 76.1081C66.3723 76.1081 66.2395 76.1081 66.1066 76.1081H35.6057C35.4728 76.1081 35.3399 76.0931 35.207 76.0856C35.1844 75.2603 35.1292 74.4349 35.0791 73.6121C34.9964 72.25 34.7657 70.8527 35.2346 69.4955C35.5104 69.6812 35.7812 69.8718 36.062 70.0499C40.7986 73.0878 47.2403 70.1578 48.0202 64.6088C48.291 62.6973 48.301 62.7675 50.2769 62.4791C53.4839 62.0074 56.5004 61.0065 58.9151 58.7162C59.4166 58.2546 59.5295 58.5205 59.7501 58.8868C60.7612 60.5704 61.6762 62.31 62.4908 64.0971C64.0309 67.5278 65.2839 71.0804 66.2369 74.7184C66.3197 75.0596 66.2194 75.7018 66.9491 75.4333Z" fill="#C3C8FF"/>
<path id="Vector_6" d="M66.9496 75.4333C66.1973 75.7017 66.3102 75.0596 66.2174 74.7134C65.2643 71.0754 64.0113 67.5228 62.4712 64.0921C61.6567 62.3049 60.7417 60.5654 59.7306 58.8818C59.5099 58.5155 59.3845 58.2496 58.8956 58.7112C56.4809 61.0065 53.4644 62.0074 50.2573 62.474C48.2789 62.7625 48.2689 62.6923 48.0006 64.6038C47.2208 70.1528 40.7791 73.0828 36.0425 70.0449C35.7616 69.8668 35.4908 69.6762 35.215 69.4905C34.9392 69.2045 34.6458 68.9311 34.39 68.6276C32.4016 66.2645 31.8826 63.6104 32.8856 60.6904C33.0034 60.3417 33.3394 59.9579 32.7853 59.6594C30.7372 58.5812 28.9262 57.1029 27.4594 55.3121C24.5934 62.0626 23.1215 68.896 23.3196 76.0705C22.7128 76.5948 22.7754 76.0454 22.7654 75.7043C22.6847 73.503 22.7862 71.2988 23.0688 69.1142C23.7258 64.3053 24.8943 59.6444 26.9353 55.2243C27.011 55.0797 27.0471 54.9178 27.0401 54.7548C27.0331 54.5918 26.9831 54.4335 26.8952 54.2961C25.6891 52.091 25.5713 49.8609 26.83 47.6333C26.9226 47.5176 26.9701 47.3722 26.9637 47.2241C26.9572 47.076 26.8972 46.9353 26.7949 46.8281C26.7225 46.7586 26.6616 46.6782 26.6144 46.5897C25.9474 44.8814 24.8266 44.1288 22.8707 43.9984C20.7268 43.8529 19.1572 42.3151 17.9536 40.5466C16.0028 37.6793 15.2204 34.4257 15.0023 31.0266C14.7917 27.7328 15.0825 24.4892 16.5068 21.4513C17.4847 19.3767 18.8688 17.7462 21.286 17.3097C22.1446 17.1583 23.0272 17.2203 23.8562 17.4903C24.4028 17.6634 24.5683 17.4677 24.7563 17.0688C25.2974 15.8468 26.0466 14.728 26.9704 13.7625C28.7633 11.9514 30.7843 11.7256 32.9357 13.0978C33.9401 13.7698 34.84 14.5863 35.6062 15.5211C35.8343 15.787 35.9948 16.0479 36.4988 15.9049C41.2806 14.5527 46.0573 14.8237 50.7914 16.103C51.3782 16.2611 51.6891 16.1332 52.0828 15.7318C53.5271 14.2567 55.0917 12.9974 57.3259 12.9949C58.8304 12.9949 60.0214 13.6421 61.1172 14.5578C62.5189 15.7293 63.5143 17.2319 64.427 18.7897C64.6327 19.1409 64.7781 19.4445 65.2996 19.4445C70.9791 19.462 73.5743 23.2926 74.4469 27.1082C75.9514 33.7785 74.8581 40.0072 70.4349 45.3555C67.426 48.9829 63.4993 49.6703 59.1212 48.135C59.0084 48.0773 58.8705 48.0272 58.7953 48.1551C58.7727 48.1877 58.8705 48.3006 58.9106 48.3759C60.1643 49.881 61.1548 51.5166 61.22 53.5611C61.2739 54.837 60.9142 56.0962 60.1944 57.1508C59.8334 57.6827 59.871 58.0414 60.1944 58.5657C63.3814 63.8111 65.5303 69.4805 66.9496 75.4333ZM52 16.7678C51.5637 16.9459 51.1525 16.7929 50.7463 16.6775C46.6516 15.5336 42.5042 15.2175 38.3243 16.0579C33.6328 16.9986 29.7613 19.2262 27.2287 23.4406C25.5738 25.9492 24.8792 28.7638 24.4705 31.6863C23.9013 35.8079 24.0191 39.8718 25.7242 43.7275C28.0487 49.008 32.364 51.7725 37.8027 53.0393C38.1187 53.1145 38.4898 53.0393 38.6126 53.4733C38.3368 53.7718 38.0184 53.6664 37.6849 53.5962C33.9237 52.8236 30.6489 51.1704 28.011 48.3508C27.5447 47.849 27.324 47.8766 27.0607 48.4938C26.2232 50.463 26.4639 52.3394 27.5196 54.1355C28.7558 56.2402 30.6088 57.6776 32.6749 58.9018C33.2717 59.253 33.5551 59.248 34.029 58.651C36.055 56.1248 38.728 55.0512 41.91 55.7335C44.959 56.3857 46.97 58.3249 47.8176 61.3452C48.0207 62.0651 48.3893 62.1454 48.966 62.0702C51.8621 61.6964 54.6705 61.0316 57.1453 59.386C61.052 56.8022 61.6839 52.964 58.8755 49.2965C58.4242 48.712 58.1634 48.6292 57.5842 49.1711C55.2501 51.388 52.3492 52.9167 49.2017 53.5887C48.9008 53.6514 48.625 53.7743 48.3868 53.4758C48.6626 52.8737 49.2869 52.9891 49.7608 52.8562C52.696 52.0563 55.3774 50.5172 57.549 48.3859C58.0104 47.9343 58.2336 47.691 57.4738 47.2545C55.7558 46.2592 54.4289 44.7069 53.7126 42.8545C52.2708 39.3425 52.4137 35.6975 52.9353 32.0425C53.4619 28.3424 54.5652 24.7902 55.8615 21.2958L56.3179 21.0801C56.4884 21.3761 56.373 21.642 56.2677 21.933C55.516 23.9286 54.8789 25.9655 54.3595 28.0338C53.4042 32.0751 52.7197 36.129 53.5471 40.2957C54.3646 44.4098 56.7542 47.0388 60.8188 48.0196C64.7831 48.9729 68.0002 47.6258 70.4324 44.47C73.6922 40.223 74.6951 35.3087 74.3742 30.0532C74.2074 28.1273 73.6845 26.2492 72.8321 24.5143C71.3803 21.6069 68.1782 19.7304 65.3172 20.1368C65.2119 20.4354 65.43 20.6385 65.5379 20.8744C66.6953 23.3791 67.6496 25.973 68.3914 28.6309C68.4616 28.8817 68.7574 29.263 68.3412 29.4035C67.925 29.544 67.9225 29.1025 67.8397 28.8316C67.3322 27.0046 66.721 25.2081 66.0093 23.4507C64.7931 20.5206 63.4767 17.6408 61.1523 15.3781C58.7577 13.0451 56.1373 12.9548 53.5822 15.1272C53.003 15.6139 52.4062 16.103 52 16.7678ZM24.9193 43.6447C24.9144 43.5238 24.8976 43.4036 24.8692 43.286C23.1315 38.4394 23.2819 33.5176 24.4529 28.6083C25.807 22.9314 29.0792 18.7897 34.5731 16.542C34.8238 16.4392 35.1749 16.4417 35.3253 16.0629C34.5505 15.1047 33.6448 14.2602 32.6348 13.5543C30.9874 12.4782 29.4879 12.5308 27.9208 13.7124C27.0231 14.3922 26.4163 15.3078 25.8646 16.2661C24.3752 18.8675 23.5477 21.7122 22.8557 24.6021C22.7905 24.878 22.8406 25.3547 22.4545 25.2744C21.9906 25.1866 22.2037 24.725 22.284 24.4365C22.6726 22.9891 23.0362 21.5366 23.5101 20.1143C24.1771 18.0296 23.8336 17.5931 21.5643 17.844C21.4 17.8692 21.2375 17.9052 21.0779 17.9519C18.7835 18.5063 17.6151 20.2246 16.8152 22.2164C15.3308 25.9141 15.2405 29.7422 15.9125 33.6254C16.3613 36.2118 17.1963 38.6677 18.8462 40.7648C20.3758 42.724 22.3442 43.7751 24.9068 43.6447H24.9193ZM37.7676 70.1453C37.2661 68.5724 36.8925 67.0948 36.8424 65.5596C36.8094 65.2635 36.6768 64.9875 36.4662 64.7769C35.4281 63.4147 35.5184 61.6813 36.6643 60.6127C37.2234 60.1018 37.9532 59.8186 38.7104 59.8186C39.4676 59.8186 40.1974 60.1018 40.7565 60.6127C41.8849 61.6638 41.9877 63.4298 40.9446 64.7794C40.6937 65.0873 40.57 65.4795 40.5985 65.8757C40.659 67.2413 40.9542 68.5863 41.4711 69.8518C41.6818 70.3836 41.9325 70.5391 42.5268 70.3535C46.0673 69.2372 48.294 65.231 47.3236 61.6763C46.3933 58.2973 43.2389 55.9066 40.0293 56.1324C36.2681 56.4033 33.5526 58.942 33.041 62.6396C32.5972 65.7904 34.7461 69.2999 37.7551 70.1453H37.7676ZM40.2124 70.7122C40.9371 70.8326 41.2455 70.6093 40.8342 69.7539C40.6043 69.2721 40.4431 68.7604 40.3553 68.2337C40.1046 66.7637 39.5554 65.3112 40.7966 63.9039C41.5163 63.0861 41.1 61.6763 40.2224 60.9438C39.7866 60.6044 39.2492 60.4218 38.6969 60.4255C38.1446 60.4291 37.6097 60.6188 37.1784 60.9639C36.2581 61.744 35.9096 63.0786 36.6769 63.9917C37.399 64.8471 37.4492 65.7803 37.557 66.7512C37.6624 67.5767 37.8386 68.3916 38.0836 69.187C38.4672 70.5592 38.6753 70.6996 40.1999 70.7122H40.2124Z" fill="#00036B"/>
<path id="Vector_7" d="M23.3202 76.0705C23.1196 68.896 24.5915 62.0626 27.4751 55.3171C28.9419 57.108 30.7529 58.5863 32.801 59.6644C33.3551 59.963 33.0191 60.3468 32.9013 60.6955C31.8983 63.6255 32.3998 66.2695 34.4058 68.6326C34.6565 68.9361 34.9549 69.2096 35.2307 69.4955C34.7618 70.8502 34.9925 72.255 35.0753 73.6121C35.1254 74.4349 35.1806 75.2602 35.2031 76.0856L23.3202 76.0705Z" fill="#6D73E6"/>
<path id="Vector_8" d="M38.6156 53.4834C38.4927 53.0594 38.1141 53.1247 37.8057 53.0494C32.367 51.7826 28.0516 49.0181 25.7272 43.7376C24.0246 39.8719 23.9068 35.808 24.4735 31.6964C24.8747 28.7739 25.5692 25.9518 27.2317 23.4507C28.4378 22.9114 29.6489 22.3821 30.8475 21.8252C35.7069 19.5675 40.7545 18.2254 46.1656 18.4261C48.9595 18.5071 51.7072 19.1594 54.2397 20.3426C54.6885 20.5533 55.0947 20.882 55.6313 20.8443L55.8821 21.3009C54.5832 24.7953 53.4799 28.3475 52.9533 32.0476C52.4318 35.7026 52.2888 39.34 53.7306 42.8596C54.4469 44.712 55.7738 46.2643 57.4918 47.2596C58.2441 47.6961 58.0285 47.9394 57.5671 48.391C55.3954 50.5223 52.7141 52.0613 49.7789 52.8613C49.305 52.9942 48.6806 52.8788 48.4048 53.4809C45.135 53.8622 41.8753 53.6414 38.6156 53.4834ZM34.8544 38.9964C33.9467 39.8894 32.0811 39.7113 31.1308 38.7455C30.3184 37.9252 30.3134 36.8064 29.8545 35.8607C29.6037 35.3589 29.5185 34.6666 28.8214 34.6891C28.182 34.7067 27.7984 35.216 27.6128 35.8306C27.2643 35.7352 27.1414 35.9008 27.1113 36.2319C26.7753 38.9914 29.0822 42.0744 31.7903 42.4105C33.2496 42.5912 34.6262 42.1798 35.9803 41.7006C36.3438 41.5727 36.6322 41.4874 36.9707 41.8035C40.5413 45.1399 47.6676 42.9449 49.6886 37.6718C49.8165 37.3382 49.8917 37.0999 49.4379 37.0196C49.4379 36.8867 49.4379 36.7512 49.4379 36.6182C49.3977 36.2119 49.5958 35.6976 49.0392 35.4969C48.4825 35.2962 48.149 35.5973 47.818 35.966C47.3165 36.533 46.7624 37.0598 46.2759 37.6593C45.0222 39.2221 43.4776 40.3661 41.3111 40.045C39.8292 39.8267 38.4677 39.3501 37.8182 37.8023C38.5955 37.4235 39.3854 37.0773 40.0474 36.4953C41.5519 35.1683 41.3788 33.9867 39.5058 33.3345C37.249 32.5393 34.9146 32.582 32.6102 33.1439C31.379 33.4424 31.1057 34.3555 31.7878 35.4492C32.3494 36.3423 33.1493 37.0071 33.9843 37.6141C34.2212 37.7672 34.4219 37.9702 34.5721 38.209C34.7224 38.4477 34.8188 38.7165 34.8544 38.9964Z" fill="#C3C8FF"/>
<path id="Vector_9" d="M74.398 30.0535C74.7315 35.3215 73.7285 40.2232 70.4562 44.4702C68.024 47.626 64.8069 48.9857 60.8426 48.0199C56.7679 47.039 54.3783 44.41 53.5709 40.296C52.7435 36.1292 53.428 32.0754 54.3833 28.0341C54.9027 25.9657 55.5398 23.9288 56.2915 21.9332C56.3968 21.6422 56.5122 21.3763 56.3417 21.0778C58.1997 20.3528 59.9299 20.5434 61.4344 21.9382C62.2424 22.6342 62.9444 23.4447 63.5181 24.3439C64.323 25.7186 65.1605 27.0783 66.0406 28.4103C67.1439 30.081 68.4803 30.5878 70.4236 30.0836C71.7451 29.7374 73.064 29.5668 74.398 30.0535Z" fill="#939EFF"/>
<path id="Vector_10" d="M24.9055 43.6448C22.3429 43.7752 20.3745 42.7242 18.8449 40.7775C17.195 38.6803 16.36 36.2244 15.9112 33.6381C15.2392 29.7649 15.3295 25.9267 16.8139 22.2291C17.6213 20.2222 18.7898 18.5064 21.0766 17.9645C21.2359 17.9136 21.3984 17.8734 21.563 17.8441C23.8198 17.5933 24.1683 18.0297 23.4762 20.1219C23.0073 21.5443 22.6388 22.9967 22.2501 24.4442C22.1724 24.7327 21.9567 25.1967 22.4206 25.282C22.8068 25.3548 22.7566 24.8857 22.8218 24.6097C23.5164 21.7199 24.3438 18.8751 25.8308 16.2737C26.3774 15.3155 26.9892 14.3998 27.8869 13.72C29.4541 12.5385 30.9535 12.4858 32.6009 13.562C33.6109 14.2678 34.5166 15.1123 35.2915 16.0706C35.151 16.4493 34.79 16.4468 34.5392 16.5497C29.0453 18.8074 25.7631 22.939 24.4191 28.6159C23.2481 33.5252 23.0976 38.447 24.8353 43.2936C24.87 43.4081 24.8936 43.5257 24.9055 43.6448Z" fill="#6D73E6"/>
<path id="Vector_11" d="M38.6139 53.4835C41.8737 53.6415 45.1334 53.8622 48.3931 53.4835C48.6313 53.782 48.9071 53.6591 49.208 53.5963C52.3556 52.9244 55.2564 51.3957 57.5905 49.1787C58.1697 48.6369 58.4305 48.7197 58.8818 49.3042C61.6977 52.9592 61.0583 56.8098 57.1467 59.4087C54.6718 61.0543 51.8634 61.7191 48.9673 62.0929C48.3906 62.1681 48.022 62.0929 47.8189 61.3679C46.9713 58.3576 44.9604 56.4085 41.9113 55.7562C38.7293 55.0739 36.0563 56.1476 34.0303 58.6737C33.5564 59.2632 33.278 59.2682 32.6763 58.9245C30.6101 57.7029 28.7571 56.2655 27.5209 54.1583C26.4652 52.3621 26.2245 50.4857 27.062 48.5165C27.3128 47.8994 27.546 47.8743 28.0124 48.3735C30.6502 51.1931 33.9325 52.8463 37.6862 53.6189C38.0121 53.6766 38.3306 53.782 38.6139 53.4835Z" fill="#939EFF"/>
<path id="Vector_12" d="M74.3971 30.0534C73.0632 29.5668 71.7442 29.7373 70.4102 30.0835C68.467 30.5852 67.1305 30.0835 66.0272 28.4103C65.1471 27.0783 64.3096 25.7186 63.5047 24.3439C62.9348 23.4455 62.2371 22.6351 61.4335 21.9382C59.929 20.5434 58.2114 20.3578 56.3433 21.0777L55.887 21.296L55.6362 20.8394C54.5079 19.4146 52.9883 18.3309 52.0179 16.768C52.4267 16.1032 53.0209 15.6141 53.6027 15.1224C56.1603 12.96 58.7781 13.0503 61.1727 15.3732C63.4972 17.631 64.8136 20.5158 66.0297 23.4458C66.7415 25.2032 67.3526 26.9998 67.8602 28.8267C67.9404 29.0977 67.9504 29.5392 68.3616 29.3987C68.7729 29.2582 68.482 28.8719 68.4118 28.626C67.6703 25.9665 66.716 23.3709 65.5583 20.8645C65.4505 20.6337 65.2323 20.4255 65.3376 20.127C68.1987 19.7206 71.4007 21.597 72.8751 24.5045C73.7217 26.2438 74.2379 28.1254 74.3971 30.0534Z" fill="#6D73E6"/>
<path id="Vector_13" d="M37.7554 70.1455C34.7465 69.3001 32.59 65.7906 33.0289 62.6373C33.5303 58.9397 36.2685 56.401 40.0172 56.1301C43.2267 55.8968 46.3811 58.295 47.3114 61.674C48.2918 65.2287 46.0577 69.2349 42.5146 70.3512C41.9203 70.5393 41.6696 70.3838 41.459 69.8495C40.942 68.5841 40.6469 67.239 40.5864 65.8734C40.5578 65.4772 40.6816 65.085 40.9324 64.7771C41.9755 63.4275 41.8727 61.6615 40.7443 60.6104C40.1853 60.0995 39.4554 59.8163 38.6982 59.8163C37.9411 59.8163 37.2112 60.0995 36.6521 60.6104C35.5062 61.679 35.416 63.4125 36.4541 64.7746C36.6646 64.9852 36.7973 65.2613 36.8302 65.5573C36.8803 67.0951 37.2565 68.5726 37.7554 70.1455Z" fill="#FFD529"/>
<path id="Vector_14" d="M51.9987 16.7678C52.9691 18.3331 54.4887 19.4143 55.617 20.8392C55.0804 20.8718 54.6742 20.5432 54.2254 20.3375C51.6929 19.1542 48.9452 18.502 46.1513 18.4209C40.7402 18.2203 35.6927 19.5648 30.8332 21.8201C29.6346 22.377 28.4235 22.9063 27.2174 23.4456C29.75 19.2312 33.6215 17.0036 38.313 16.0629C42.4929 15.2225 46.6403 15.5386 50.735 16.6825C51.1512 16.7929 51.5624 16.9459 51.9987 16.7678Z" fill="#6D73E6"/>
<path id="Vector_15" d="M40.2007 70.7123C38.6762 70.6997 38.4681 70.5593 38.0719 69.1821C37.8269 68.3867 37.6508 67.5718 37.5453 66.7462C37.4375 65.7804 37.3874 64.8472 36.6652 63.9868C35.8979 63.0737 36.2465 61.7291 37.1667 60.959C37.598 60.6139 38.133 60.4242 38.6853 60.4206C39.2375 60.4169 39.7749 60.5995 40.2108 60.9389C41.0884 61.6714 41.5046 63.0812 40.785 63.899C39.5312 65.3063 40.103 66.7588 40.3437 68.2288C40.4314 68.7555 40.5926 69.2672 40.8226 69.749C41.2338 70.6094 40.9254 70.8327 40.2007 70.7123Z" fill="#FFD529"/>
<path id="Vector_16" d="M58.9251 48.376C58.885 48.3008 58.7872 48.1879 58.8098 48.1553C58.895 48.0274 59.0229 48.0775 59.1358 48.1352L58.9251 48.376Z" fill="#F6F6F6"/>
<path id="Vector_17" d="M37.7985 37.81C38.4479 39.3577 39.8044 39.8344 41.2914 40.0526C43.4578 40.3737 44.9949 39.2298 46.2562 37.667C46.7426 37.0674 47.2892 36.5406 47.7983 35.9737C48.1292 35.6049 48.5004 35.3189 49.0194 35.5046C49.5384 35.6902 49.378 36.2195 49.4181 36.6259C49.4181 36.7589 49.4181 36.8943 49.4181 37.0273C49.2777 37.2781 49.1222 37.529 48.9993 37.8049C48.1775 39.6448 46.7151 41.1231 44.8846 41.9642C40.6896 43.9334 36.7177 42.4282 35.2734 38.264L37.7985 37.81Z" fill="#B5BBFF"/>
<path id="Vector_18" d="M37.7977 37.8097L35.2727 38.2638C36.717 42.428 40.6888 43.9331 44.8838 41.9639C46.7153 41.1233 48.1786 39.645 49.0011 37.8047C49.124 37.5388 49.2794 37.2854 49.4198 37.027C49.8687 37.1073 49.7934 37.3456 49.6706 37.6793C47.6496 42.9473 40.5233 45.1473 36.9527 41.8109C36.6142 41.4948 36.3258 41.5801 35.9622 41.708C34.6082 42.1872 33.2316 42.5986 31.7722 42.418C29.0642 42.0818 26.7573 39.0113 27.0933 36.2393C27.1334 35.9082 27.2563 35.7376 27.5948 35.838C27.6725 36.43 27.7302 37.027 27.8455 37.614C28.3947 40.6996 30.4985 42.2123 33.5676 41.7331C34.0259 41.6618 34.4797 41.5638 34.9266 41.4396C36.1327 41.1085 36.1302 41.101 35.4582 40.0173C35.2501 39.6786 35.0495 39.3374 34.8464 38.9963C34.8089 38.7171 34.7109 38.4494 34.5593 38.212C34.4077 37.9745 34.2062 37.7731 33.9688 37.6216C33.1338 37.0145 32.3339 36.3497 31.7722 35.4567C31.0802 34.3629 31.3635 33.4498 32.5947 33.1513C34.8991 32.5969 37.2235 32.5467 39.4902 33.3419C41.3633 33.9992 41.5363 35.1757 40.0319 36.5027C39.3674 37.0847 38.575 37.4309 37.7977 37.8097ZM35.6062 33.3971C34.7988 33.4398 33.7607 33.3771 32.7627 33.7057C32.3389 33.8437 31.9277 33.9942 32.0105 34.5812C32.1183 35.3914 34.4327 37.6266 35.2702 37.5915C37.0254 37.5137 38.6879 37.0747 39.9792 35.7577C40.7314 34.9826 40.6437 34.5034 39.6357 34.0218C38.4145 33.4523 37.1107 33.3971 35.6062 33.3971Z" fill="#00036B"/>
<path id="Vector_19" d="M34.854 38.9963C35.0571 39.3375 35.2577 39.6787 35.4658 40.0173C36.1378 41.101 36.1403 41.1086 34.9342 41.4397C34.4873 41.5639 34.0335 41.6619 33.5752 41.7332C30.506 42.2123 28.4022 40.6997 27.8531 37.6141C27.7478 37.0271 27.6901 36.4301 27.6024 35.838C27.7879 35.2234 28.1716 34.7142 28.811 34.6966C29.508 34.6741 29.5958 35.3639 29.844 35.8682C30.3029 36.8139 30.3079 37.9327 31.1203 38.753C32.0682 39.7113 33.9337 39.8894 34.854 38.9963Z" fill="#B5BBFF"/>
<path id="Vector_20" d="M35.6051 33.3973C37.1221 33.3973 38.4185 33.4475 39.617 34.0219C40.62 34.5036 40.7203 34.9827 39.9606 35.7579C38.6692 37.0749 37.0143 37.5139 35.2515 37.5916C34.4216 37.6268 32.1072 35.3916 31.9918 34.5814C31.9141 33.9943 32.3253 33.8438 32.7441 33.7059C33.7546 33.3823 34.7927 33.445 35.6051 33.3973Z" fill="#FFD529"/>
</g>
</g>
</svg>
