<svg width="76" height="81" viewBox="0 0 76 81" fill="none" xmlns="http://www.w3.org/2000/svg">
<g id="Group 348">
<path id="Vector" d="M67.038 45.0533C65.3156 46.7782 63.7521 48.7706 61.844 50.1849C60.1944 51.3182 58.7978 52.8621 57.7793 54.6786C56.7608 56.495 56.1521 58.5273 56.0076 60.5937C55.763 63.8163 54.5534 66.9373 52.5679 69.469C51.409 70.9036 49.9587 72.0207 48.3514 72.7168C46.744 73.4129 45.0315 73.6656 43.3723 73.4514C41.713 73.2373 40.1607 72.5633 38.8589 71.4917C37.5571 70.4201 36.548 68.9857 35.9248 67.321C35.1502 65.3849 34.94 63.1556 34.4122 61.0851C33.8185 58.8091 33.1611 56.5595 32.5234 54.3243C31.8324 52.3223 31.2699 50.2613 30.8398 48.1554C29.8256 41.074 33.3534 34.9979 39.7838 32.6271C41.309 31.9999 42.8955 31.623 44.4893 31.5093C47.6691 31.3283 50.8374 30.5628 53.8613 29.2449C57.658 27.7356 61.2861 27.6722 64.5528 30.2361C69.129 33.7943 69.9818 39.1493 67.038 45.0533Z" fill="#6D73E6" fill-opacity="0.1"/>
<path id="Vector_2" d="M21.6634 33.3995C22.9559 34.9315 24.5147 36.29 25.5018 38.0464C26.0028 38.9654 26.2972 40.013 26.3627 41.1095C26.4282 42.2061 26.263 43.3228 25.8797 44.3752C25.4964 45.4275 24.905 46.3878 24.1505 47.1831C23.3959 47.9784 22.4979 48.5879 21.5247 48.9654C15.969 51.2822 8.8811 47.3487 7.7228 41.2044C7.33861 39.5256 7.5696 37.7018 8.36817 36.1089C9.16674 34.516 10.4721 33.2753 12.0152 32.6424C14.8639 31.3529 18.3039 31.7341 21.6634 33.3995Z" fill="#6D73E6" fill-opacity="0.1"/>
<path id="Vector_3" d="M30.0362 15.1789C33.3444 17.4166 35.2893 19.7206 35.8416 23.2297C36.0519 24.3525 36.0101 25.5337 35.7197 26.6753C35.4293 27.8168 34.8987 28.8858 34.1719 29.7933C33.4451 30.7008 32.5431 31.4207 31.5409 31.8932C30.5387 32.3656 29.4653 32.5769 28.4097 32.5096C23.814 32.1914 20.264 29.8317 18.4168 25.2257C16.0833 19.3968 19.8798 13.7527 25.8095 14.1563C27.2537 14.3516 28.6686 14.6939 30.0362 15.1789Z" fill="#6D73E6" fill-opacity="0.1"/>
<path id="Vector_4" d="M25.2008 55.0504C29.562 57.7828 30.6298 62.0163 28.0304 66.2842C27.4668 67.1736 26.7468 67.9366 25.9172 68.5237C25.0876 69.1107 24.1669 69.5086 23.215 69.6915C21.0465 70.1625 18.8473 69.879 16.9325 68.8815C15.0176 67.8841 13.4854 66.224 12.5551 64.1389C12.1443 63.2418 11.928 62.2411 11.9221 61.2091C11.9161 60.1772 12.1206 59.1399 12.5208 58.1725C12.9209 57.2051 13.5067 56.3318 14.2356 55.6159C14.9645 54.8999 15.8183 54.3594 16.7351 54.0333C18.1717 53.4848 19.6797 53.2914 21.1458 53.4675C22.612 53.6437 23.9983 54.1848 25.2008 55.0504Z" fill="#6D73E6" fill-opacity="0.1"/>
<path id="Vector_5" d="M49.6731 9.49085C50.8636 10.1821 51.8869 11.1551 52.6743 12.3448C53.4618 13.5344 53.9955 14.9134 54.2397 16.3896C55.1121 22.1059 50.541 26.8276 45.442 25.4506C44.0411 25.0968 42.7391 24.4352 41.612 23.5045C40.4848 22.5737 39.5551 21.3924 38.877 20.0294C37.1886 16.6778 37.5037 13.1127 39.6096 10.6342C41.7155 8.15569 45.2533 7.38201 48.3366 8.77341C48.796 9.01945 49.2553 9.2655 49.6731 9.49085Z" fill="#6D73E6" fill-opacity="0.1"/>
</g>
</svg>
