<svg width="72" height="79" viewBox="0 0 72 79" fill="none" xmlns="http://www.w3.org/2000/svg">
<g id="Group 347">
<path id="Vector" d="M65.433 41.8427C63.8956 43.7164 62.5388 45.8477 60.7904 47.4223C59.2707 48.6933 58.0374 50.3592 57.2008 52.271C56.3643 54.1828 55.9507 56.2807 55.997 58.3773C56.0501 61.6484 55.1446 64.8915 53.4219 67.5997C52.4124 69.137 51.0873 70.3762 49.5693 71.2028C48.0513 72.0293 46.3894 72.4165 44.7373 72.3284C43.0853 72.2403 41.4965 71.6798 40.118 70.6989C38.7394 69.7179 37.6157 68.3481 36.8508 66.7162C35.9121 64.8221 35.5021 62.5884 34.794 60.5396C34.0022 58.2884 33.1504 56.0688 32.3191 53.8623C31.4567 51.8952 30.7154 49.8586 30.1001 47.7665C28.4566 40.6981 31.3736 34.2939 37.4843 31.4051C38.9278 30.6544 40.4544 30.1517 42.0122 29.914C45.1243 29.4859 48.1719 28.4689 51.0269 26.9055C54.6249 25.0893 58.1889 24.7455 61.6367 27.0808C66.4637 30.3187 67.7911 35.6572 65.433 41.8427Z" fill="#6D73E6" fill-opacity="0.1"/>
<path id="Vector_2" d="M19.7272 33.5828C21.1386 35.0291 22.7962 36.2799 23.9276 37.9763C24.5043 38.8651 24.8895 39.8996 25.0539 41.0012C25.2183 42.1028 25.1576 43.2426 24.8764 44.3342C24.5952 45.4258 24.101 46.4405 23.4311 47.3014C22.7611 48.1622 21.9332 48.8467 21.01 49.3027C15.755 52.0696 8.42252 48.6467 6.72265 42.5352C6.19157 40.8706 6.25256 39.0122 6.89304 37.343C7.53352 35.6738 8.7047 34.321 10.1653 33.5632C12.8506 32.042 16.27 32.1613 19.7272 33.5828Z" fill="#6D73E6" fill-opacity="0.1"/>
<path id="Vector_3" d="M26.3 14.5484C29.759 16.5514 31.8826 18.7266 32.746 22.2254C33.0553 23.3423 33.1219 24.5376 32.9403 25.7121C32.7586 26.8866 32.334 28.0063 31.7016 28.9783C31.0692 29.9502 30.2474 30.7464 29.3045 31.3005C28.3615 31.8546 27.3246 32.1507 26.2799 32.1642C21.7291 32.1977 18.0211 30.0901 15.7836 25.5843C12.9563 19.8818 16.1771 13.8928 22.0481 13.8426C23.4868 13.9282 24.9102 14.1645 26.3 14.5484Z" fill="#6D73E6" fill-opacity="0.1"/>
<path id="Vector_4" d="M25.1778 55.1601C29.718 57.5811 31.1546 61.7712 28.9862 66.279C28.5127 67.2201 27.8739 68.0457 27.1112 68.7021C26.3484 69.3586 25.4788 69.8312 24.5589 70.0893C22.4683 70.7319 20.2786 70.6154 18.3037 69.7566C16.3287 68.8977 14.6697 67.3405 13.5644 65.308C13.0783 64.4344 12.7743 63.4411 12.6744 62.4002C12.5744 61.3592 12.6811 60.2966 12.9866 59.2894C13.2921 58.2822 13.7888 57.3556 14.4407 56.5769C15.0925 55.7981 15.8833 55.1867 16.7556 54.7868C18.1191 54.1224 19.5852 53.8109 21.0438 53.8755C22.5024 53.9402 23.9157 54.3793 25.1778 55.1601Z" fill="#6D73E6" fill-opacity="0.1"/>
<path id="Vector_5" d="M45.1065 7.29252C46.341 7.89829 47.4364 8.80125 48.3197 9.94111C49.203 11.081 49.8538 12.4315 50.2286 13.9025C51.6082 19.604 47.5412 24.7219 42.3988 23.7257C40.9881 23.4767 39.6468 22.9095 38.4529 22.0572C37.259 21.2048 36.2365 20.0843 35.4451 18.7611C33.4783 15.509 33.4632 11.8867 35.3093 9.22291C37.1553 6.55908 40.5656 5.5053 43.7262 6.67159C44.2005 6.88446 44.6749 7.09732 45.1065 7.29252Z" fill="#6D73E6" fill-opacity="0.1"/>
</g>
</svg>
