<svg width="90" height="88" viewBox="0 0 90 88" fill="none" xmlns="http://www.w3.org/2000/svg">
<g id="Group 353">
<path id="Vector" d="M30.1654 69.5458C29.1327 67.3377 27.7945 65.1876 27.1172 62.9111C26.6157 60.9735 25.6418 59.1335 24.2827 57.5557C22.9235 55.9779 21.2215 54.7114 19.3288 53.8696C16.3837 52.5387 13.8638 50.3356 12.1628 47.6046C11.2105 46.0252 10.6561 44.2806 10.5511 42.5322C10.446 40.7837 10.7936 39.0879 11.5618 37.6017C12.3299 36.1155 13.4938 34.8868 14.9456 34.0295C16.3975 33.1722 18.0904 32.7138 19.8678 32.6969C21.952 32.6304 24.119 33.1945 26.2453 33.4059C28.5872 33.6255 30.926 33.7763 33.2445 33.9406C35.3621 33.9752 37.4913 34.1508 39.6175 34.466C46.6193 35.9323 51.1244 41.3237 51.1555 48.1772C51.2239 49.8249 51.036 51.4447 50.5983 52.9815C49.682 56.0317 49.319 59.271 49.5245 62.5632C49.6458 66.647 48.4657 70.0785 44.9401 72.2726C40.0325 75.3577 34.7083 74.3297 30.1654 69.5458Z" fill="#6D73E6" fill-opacity="0.1"/>
<path id="Vector_2" d="M56.6205 30.8834C54.7392 31.5747 52.9298 32.5756 50.9419 32.9032C49.907 33.06 48.8219 32.9788 47.769 32.6657C46.716 32.3526 45.7229 31.8158 44.8648 31.096C44.0068 30.3762 43.3064 29.4924 42.8167 28.5115C42.327 27.5306 42.061 26.4785 42.0388 25.4348C41.7595 19.4218 47.878 14.1044 54.0483 15.1151C55.7573 15.3276 57.3924 16.1678 58.6167 17.4625C59.8409 18.7573 60.561 20.408 60.6286 22.0745C60.8671 25.1923 59.3335 28.2951 56.6205 30.8834Z" fill="#6D73E6" fill-opacity="0.1"/>
<path id="Vector_3" d="M70.8841 44.9777C67.6508 47.3222 64.8209 48.3629 61.3343 47.683C60.2072 47.4971 59.1113 47.0542 58.1377 46.3913C57.164 45.7283 56.3407 44.8644 55.7361 43.8712C55.1315 42.8781 54.7631 41.7845 54.6615 40.6812C54.5599 39.5779 54.7281 38.4968 55.152 37.5278C57.0212 33.3174 60.4518 30.7872 65.4118 30.6248C71.6871 30.4233 75.6944 35.9197 73.2892 41.3546C72.6123 42.6452 71.8072 43.858 70.8841 44.9777Z" fill="#6D73E6" fill-opacity="0.1"/>
<path id="Vector_4" d="M35.064 26.8106C31.006 29.9758 26.6624 29.5329 23.5395 25.6318C22.8961 24.7982 22.425 23.8609 22.1567 22.8806C21.8885 21.9004 21.8291 20.8991 21.9824 19.942C22.2806 17.7431 23.2985 15.7731 24.8901 14.3143C26.4817 12.8554 28.5655 11.9826 30.8429 11.8207C31.8264 11.7411 32.8408 11.8798 33.8127 12.2268C34.7845 12.5737 35.6895 13.1203 36.462 13.8269C37.2345 14.5335 37.8551 15.3824 38.2789 16.312C38.7027 17.2417 38.9191 18.2288 38.9123 19.2018C38.937 20.7394 38.6035 22.2227 37.9371 23.5404C37.2706 24.8582 36.2884 25.9762 35.064 26.8106Z" fill="#6D73E6" fill-opacity="0.1"/>
<path id="Vector_5" d="M69.5207 65.3761C68.4643 66.2589 67.2003 66.8881 65.8131 67.2217C64.426 67.5554 62.9476 67.5857 61.4768 67.3109C55.8065 66.1778 52.9307 60.2686 55.9669 55.9469C56.7781 54.7511 57.8447 53.7535 59.1045 53.0122C60.3644 52.2709 61.7923 51.8007 63.3049 51.6291C67.0317 51.1874 70.2746 52.7016 71.8844 55.5276C73.4943 58.3536 73.0127 61.9428 70.6516 64.3652C70.2634 64.7128 69.8752 65.0604 69.5207 65.3761Z" fill="#6D73E6" fill-opacity="0.1"/>
</g>
</svg>
