<svg width="209" height="70" viewBox="0 0 209 70" fill="none" xmlns="http://www.w3.org/2000/svg">
<g id="Group 314">
<rect id="Rectangle 9994" x="0.904755" width="207.905" height="69.3016" rx="10.3952" fill="black"/>
<g id="Vector">
<path d="M45.437 34.2404C45.458 32.6467 45.8916 31.084 46.6975 29.6978C47.5034 28.3116 48.6553 27.1469 50.0461 26.3122C49.1625 25.0802 47.9969 24.0664 46.6419 23.3512C45.2868 22.636 43.7796 22.2391 42.24 22.1921C38.9556 21.8555 35.7716 24.1108 34.098 24.1108C32.3919 24.1108 29.8151 22.2255 27.0403 22.2812C25.2455 22.3379 23.4963 22.8474 21.9631 23.7603C20.43 24.6731 19.1652 25.9581 18.292 27.4901C14.5094 33.8838 17.3309 43.2805 20.9543 48.4488C22.7671 50.9795 24.8858 53.8064 27.6582 53.7062C30.371 53.5963 31.3843 52.0173 34.6589 52.0173C37.9032 52.0173 38.8538 53.7062 41.6824 53.6424C44.5934 53.5963 46.4275 51.1004 48.1768 48.5457C49.4793 46.7425 50.4816 44.7495 51.1466 42.6406C49.4553 41.9423 48.0121 40.7733 46.9967 39.2795C45.9814 37.7857 45.439 36.0332 45.437 34.2404Z" fill="white"/>
<path d="M40.0944 18.7931C41.6816 16.9329 42.4636 14.5419 42.2742 12.1278C39.8493 12.3765 37.6094 13.5079 36.0007 15.2968C35.2142 16.1707 34.6118 17.1874 34.2279 18.2887C33.8441 19.3901 33.6864 20.5545 33.7638 21.7153C34.9767 21.7275 36.1766 21.4709 37.2731 20.9647C38.3697 20.4585 39.3343 19.716 40.0944 18.7931Z" fill="white"/>
<path d="M66.3774 12.9966H69.9634C73.0622 12.9966 74.5697 14.8391 74.5697 18.1815C74.5697 21.524 73.047 23.3893 69.9634 23.3893H66.3774V12.9966ZM68.1057 14.4508V21.9351H69.7731C71.8288 21.9351 72.7957 20.6941 72.7957 18.2044C72.7957 15.6995 71.8211 14.4508 69.7731 14.4508H68.1057Z" fill="white"/>
<path d="M80.0363 15.2046C82.1377 15.2046 83.6072 16.5674 83.6072 18.8287V19.8718C83.6072 22.2092 82.1377 23.5264 80.0363 23.5264C77.9045 23.5264 76.4503 22.2244 76.4503 19.8794V18.8363C76.4503 16.636 77.9273 15.2046 80.0363 15.2046ZM80.0439 16.5674C78.841 16.5674 78.1557 17.5724 78.1557 18.9201V19.8185C78.1557 21.1661 78.7953 22.1635 80.0439 22.1635C81.2774 22.1635 81.9093 21.1737 81.9093 19.8185V18.9201C81.9093 17.5724 81.2469 16.5674 80.0439 16.5674Z" fill="white"/>
<path d="M96.0175 15.3416L93.9009 23.3893H92.1802L90.4976 17.4506H90.4519L88.7997 23.3893H87.0714L84.8634 15.3416H86.6831L87.9774 21.4783H88.0536L89.6753 15.3416H91.2665L92.9339 21.4783H93.0101L94.3272 15.3416H96.0175Z" fill="white"/>
<path d="M97.6925 23.3893V15.3416H99.3523V16.7882H99.436C99.6416 16.1563 100.228 15.2198 101.857 15.2198C103.479 15.2198 104.568 16.1182 104.568 17.9531V23.3893H102.877V18.448C102.877 17.2222 102.238 16.6588 101.286 16.6588C100.038 16.6588 99.3827 17.6181 99.3827 18.9201V23.3893H97.6925Z" fill="white"/>
<path d="M107.126 23.3893V12.4484H108.816V23.3893H107.126Z" fill="white"/>
<path d="M114.618 15.2046C116.719 15.2046 118.189 16.5674 118.189 18.8287V19.8718C118.189 22.2092 116.719 23.5264 114.618 23.5264C112.486 23.5264 111.032 22.2244 111.032 19.8794V18.8363C111.032 16.636 112.509 15.2046 114.618 15.2046ZM114.625 16.5674C113.422 16.5674 112.737 17.5724 112.737 18.9201V19.8185C112.737 21.1661 113.377 22.1635 114.625 22.1635C115.859 22.1635 116.491 21.1737 116.491 19.8185V18.9201C116.491 17.5724 115.828 16.5674 114.625 16.5674Z" fill="white"/>
<path d="M122.566 23.5111C121.006 23.5111 119.932 22.5518 119.932 21.0519C119.932 19.6281 120.922 18.6688 122.78 18.6688H124.812V17.9151C124.812 16.9938 124.226 16.5598 123.297 16.5598C122.384 16.5598 121.973 16.9405 121.843 17.4735H120.237C120.336 16.1258 121.348 15.2198 123.351 15.2198C125.071 15.2198 126.495 15.9355 126.495 17.9379V23.3893H124.889V22.3462H124.812C124.455 22.9629 123.754 23.5111 122.566 23.5111ZM123.092 22.2016C124.051 22.2016 124.812 21.5468 124.812 20.6712V19.8033H123.046C122.064 19.8033 121.63 20.2982 121.63 20.9682C121.63 21.8057 122.33 22.2016 123.092 22.2016Z" fill="white"/>
<path d="M131.703 15.235C132.837 15.235 133.705 15.7375 134.017 16.5522H134.101V12.4484H135.791V23.3893H134.147V22.1026H134.063C133.82 22.9173 132.853 23.4959 131.68 23.4959C129.83 23.4959 128.627 22.1787 128.627 20.0545V18.6764C128.627 16.5522 129.853 15.235 131.703 15.235ZM132.175 16.6207C131.048 16.6207 130.348 17.4582 130.348 18.9201V19.8033C130.348 21.2727 131.056 22.1102 132.213 22.1102C133.355 22.1102 134.101 21.2803 134.101 19.9099V18.6917C134.101 17.4506 133.287 16.6207 132.175 16.6207Z" fill="white"/>
<path d="M145.073 15.2046C147.174 15.2046 148.643 16.5674 148.643 18.8287V19.8718C148.643 22.2092 147.174 23.5264 145.073 23.5264C142.941 23.5264 141.487 22.2244 141.487 19.8794V18.8363C141.487 16.636 142.964 15.2046 145.073 15.2046ZM145.08 16.5674C143.877 16.5674 143.192 17.5724 143.192 18.9201V19.8185C143.192 21.1661 143.832 22.1635 145.08 22.1635C146.314 22.1635 146.946 21.1737 146.946 19.8185V18.9201C146.946 17.5724 146.283 16.5674 145.08 16.5674Z" fill="white"/>
<path d="M150.821 23.3893V15.3416H152.481V16.7882H152.564C152.77 16.1563 153.356 15.2198 154.986 15.2198C156.607 15.2198 157.696 16.1182 157.696 17.9531V23.3893H156.006V18.448C156.006 17.2222 155.366 16.6588 154.415 16.6588C153.166 16.6588 152.511 17.6181 152.511 18.9201V23.3893H150.821Z" fill="white"/>
<path d="M164.236 15.3949V13.3849H165.888V15.3949H167.693V16.7197H165.888V20.991C165.888 21.8666 166.216 22.1102 167.122 22.1102C167.35 22.1102 167.655 22.095 167.784 22.0798V23.3741C167.647 23.3969 167.084 23.4426 166.703 23.4426C164.746 23.4426 164.213 22.7422 164.213 21.128V16.7197H162.988V15.3949H164.236Z" fill="white"/>
<path d="M169.825 23.3893V12.4484H171.507V16.7882H171.591C171.766 16.2172 172.421 15.2198 174.035 15.2198C175.604 15.2198 176.723 16.1258 176.723 17.9607V23.3893H175.04V18.4556C175.04 17.2298 174.362 16.6588 173.403 16.6588C172.193 16.6588 171.507 17.6105 171.507 18.9201V23.3893H169.825Z" fill="white"/>
<path d="M182.395 23.5264C180.202 23.5264 178.839 22.1787 178.839 19.9099V18.8211C178.839 16.537 180.332 15.2046 182.296 15.2046C184.314 15.2046 185.737 16.6055 185.737 18.8211V19.7652H180.514V20.1611C180.514 21.3184 181.2 22.1711 182.387 22.1711C183.27 22.1711 183.88 21.7524 183.994 21.2499H185.646C185.547 22.1787 184.565 23.5264 182.395 23.5264ZM180.514 18.6612H184.085V18.5546C184.085 17.344 183.377 16.537 182.304 16.537C181.23 16.537 180.514 17.344 180.514 18.5546V18.6612Z" fill="white"/>
<path d="M68.829 51.1099H65.3114L72.4683 30.3245H76.3361L83.4777 51.1099H79.8231L77.9806 45.354H70.6867L68.829 51.1099ZM74.4174 33.9182H74.2804L71.4633 42.7044H77.204L74.4174 33.9182Z" fill="white"/>
<path d="M93.1856 51.3384C91.0994 51.3384 89.5158 50.3486 88.663 48.8715H88.5412V56.4548H85.1607V35.0146H88.4498V37.3748H88.5717C89.4548 35.8369 91.0994 34.8014 93.2617 34.8014C96.8706 34.8014 99.444 37.5271 99.444 42.339V43.7703C99.444 48.5517 96.901 51.3384 93.1856 51.3384ZM92.409 48.5517C94.556 48.5517 96.0179 46.831 96.0179 43.5876V42.4608C96.0179 39.3392 94.6474 37.5576 92.3481 37.5576C89.9878 37.5576 88.5107 39.4762 88.5107 42.4456V43.5876C88.5107 46.6331 90.003 48.5517 92.409 48.5517Z" fill="white"/>
<path d="M110.37 51.3384C108.284 51.3384 106.7 50.3486 105.848 48.8715H105.726V56.4548H102.345V35.0146H105.634V37.3748H105.756C106.639 35.8369 108.284 34.8014 110.446 34.8014C114.055 34.8014 116.629 37.5271 116.629 42.339V43.7703C116.629 48.5517 114.086 51.3384 110.37 51.3384ZM109.593 48.5517C111.741 48.5517 113.202 46.831 113.202 43.5876V42.4608C113.202 39.3392 111.832 37.5576 109.533 37.5576C107.172 37.5576 105.695 39.4762 105.695 42.4456V43.5876C105.695 46.6331 107.188 48.5517 109.593 48.5517Z" fill="white"/>
<path d="M123.634 45.3388H127.014C127.167 47.1356 128.75 48.6736 131.689 48.6736C134.384 48.6736 135.983 47.4097 135.983 45.4454C135.983 43.8617 134.917 43.009 132.694 42.476L129.283 41.6233C126.603 40.999 124.197 39.4001 124.197 36.0196C124.197 32.0452 127.669 29.8677 131.704 29.8677C135.74 29.8677 139.105 32.0452 139.181 35.9282H135.861C135.709 34.1619 134.354 32.7 131.659 32.7C129.283 32.7 127.669 33.8269 127.669 35.7607C127.669 37.116 128.613 38.0905 130.547 38.5321L133.943 39.3696C137.064 40.131 139.44 41.6081 139.44 45.1408C139.44 49.2217 136.136 51.5211 131.43 51.5211C125.644 51.5211 123.71 48.1406 123.634 45.3388Z" fill="white"/>
<path d="M143.559 35.0146V31.1011H146.879V35.0146H150.016V37.7251H146.879V46.3133C146.879 48.0645 147.534 48.5517 149.346 48.5517C149.635 48.5517 149.909 48.5517 150.107 48.5213V51.1099C149.833 51.1556 149.193 51.2165 148.508 51.2165C144.595 51.2165 143.514 49.8156 143.514 46.5874V37.7251H141.29V35.0146H143.559Z" fill="white"/>
<path d="M159.145 34.7405C163.774 34.7405 166.287 37.9992 166.287 42.3846V43.679C166.287 48.2167 163.789 51.384 159.145 51.384C154.501 51.384 151.973 48.2167 151.973 43.679V42.3846C151.973 38.0144 154.516 34.7405 159.145 34.7405ZM159.145 37.451C156.632 37.451 155.384 39.5067 155.384 42.4303V43.6637C155.384 46.5417 156.617 48.6583 159.145 48.6583C161.673 48.6583 162.891 46.557 162.891 43.6637V42.4303C162.891 39.4914 161.657 37.451 159.145 37.451Z" fill="white"/>
<path d="M169.142 51.1099V35.0146H172.523V37.1312H172.644C173.056 36.1262 174.258 34.7862 176.497 34.7862C176.938 34.7862 177.319 34.8166 177.639 34.8775V37.8621C177.35 37.786 176.756 37.7403 176.192 37.7403C173.482 37.7403 172.568 39.4153 172.568 41.5776V51.1099H169.142Z" fill="white"/>
<path d="M185.839 51.384C181.53 51.384 178.789 48.5365 178.789 43.7703V42.141C178.789 37.6489 181.469 34.7405 185.702 34.7405C189.996 34.7405 192.585 37.7555 192.585 42.2933V43.8313H182.124V44.2119C182.124 46.9224 183.586 48.7192 185.885 48.7192C187.606 48.7192 188.778 47.8665 189.189 46.4808H192.402C191.915 49.0847 189.814 51.384 185.839 51.384ZM182.124 41.471H189.281V41.4405C189.281 39.1564 187.865 37.3596 185.717 37.3596C183.54 37.3596 182.124 39.1564 182.124 41.4405V41.471Z" fill="white"/>
</g>
</g>
</svg>
