<svg width="208" height="70" viewBox="0 0 208 70" fill="none" xmlns="http://www.w3.org/2000/svg">
<g id="Group 314">
<rect id="Rectangle 9994" y="0.606567" width="207.905" height="69.3016" rx="10.3952" fill="white"/>
<g id="Vector">
<path d="M44.5322 34.847C44.5533 33.2532 44.9869 31.6906 45.7928 30.3044C46.5986 28.9182 47.7505 27.7535 49.1413 26.9187C48.2578 25.6868 47.0922 24.673 45.7372 23.9578C44.3821 23.2426 42.8749 22.8457 41.3352 22.7987C38.0509 22.4621 34.8669 24.7174 33.1932 24.7174C31.4872 24.7174 28.9104 22.8321 26.1355 22.8878C24.3407 22.9444 22.5915 23.454 21.0584 24.3668C19.5252 25.2797 18.2604 26.5647 17.3872 28.0966C13.6047 34.4904 16.4261 43.8871 20.0495 49.0553C21.8624 51.5861 23.9811 54.413 26.7534 54.3127C29.4663 54.2029 30.4795 52.6238 33.7542 52.6238C36.9984 52.6238 37.949 54.3127 40.7776 54.249C43.6887 54.2029 45.5227 51.707 47.272 49.1523C48.5746 47.3491 49.5769 45.3561 50.2418 43.2472C48.5506 42.5488 47.1073 41.3799 46.092 39.8861C45.0767 38.3923 44.5342 36.6398 44.5322 34.847Z" fill="black"/>
<path d="M39.1896 19.3997C40.7769 17.5394 41.5588 15.1484 41.3695 12.7344C38.9446 12.983 36.7046 14.1145 35.096 15.9034C34.3094 16.7773 33.707 17.794 33.3232 18.8953C32.9394 19.9966 32.7817 21.161 32.859 22.3219C34.0719 22.3341 35.2718 22.0774 36.3684 21.5713C37.465 21.0651 38.4296 20.3226 39.1896 19.3997Z" fill="black"/>
<path d="M65.4726 13.6032H69.0587C72.1574 13.6032 73.665 15.4457 73.665 18.7881C73.665 22.1305 72.1422 23.9959 69.0587 23.9959H65.4726V13.6032ZM67.2009 15.0574V22.5417H68.8683C70.924 22.5417 71.891 21.3006 71.891 18.811C71.891 16.306 70.9164 15.0574 68.8683 15.0574H67.2009Z" fill="black"/>
<path d="M79.1316 15.8112C81.233 15.8112 82.7024 17.174 82.7024 19.4353V20.4784C82.7024 22.8158 81.233 24.1329 79.1316 24.1329C76.9998 24.1329 75.5455 22.831 75.5455 20.486V19.4429C75.5455 17.2425 77.0226 15.8112 79.1316 15.8112ZM79.1392 17.174C77.9362 17.174 77.251 18.179 77.251 19.5266V20.4251C77.251 21.7727 77.8906 22.7701 79.1392 22.7701C80.3726 22.7701 81.0046 21.7803 81.0046 20.4251V19.5266C81.0046 18.179 80.3422 17.174 79.1392 17.174Z" fill="black"/>
<path d="M95.1127 15.9482L92.9961 23.9959H91.2754L89.5928 18.0572H89.5471L87.895 23.9959H86.1666L83.9587 15.9482H85.7784L87.0727 22.0848H87.1488L88.7705 15.9482H90.3618L92.0292 22.0848H92.1053L93.4225 15.9482H95.1127Z" fill="black"/>
<path d="M96.7878 23.9959V15.9482H98.4475V17.3948H98.5313C98.7369 16.7629 99.3231 15.8264 100.952 15.8264C102.574 15.8264 103.663 16.7248 103.663 18.5597V23.9959H101.973V19.0546C101.973 17.8288 101.333 17.2654 100.381 17.2654C99.1328 17.2654 98.478 18.2247 98.478 19.5266V23.9959H96.7878Z" fill="black"/>
<path d="M106.221 23.9959V13.055H107.911V23.9959H106.221Z" fill="black"/>
<path d="M113.713 15.8112C115.814 15.8112 117.284 17.174 117.284 19.4353V20.4784C117.284 22.8158 115.814 24.1329 113.713 24.1329C111.581 24.1329 110.127 22.831 110.127 20.486V19.4429C110.127 17.2425 111.604 15.8112 113.713 15.8112ZM113.721 17.174C112.518 17.174 111.832 18.179 111.832 19.5266V20.4251C111.832 21.7727 112.472 22.7701 113.721 22.7701C114.954 22.7701 115.586 21.7803 115.586 20.4251V19.5266C115.586 18.179 114.924 17.174 113.721 17.174Z" fill="black"/>
<path d="M121.662 24.1177C120.101 24.1177 119.027 23.1584 119.027 21.6585C119.027 20.2347 120.017 19.2754 121.875 19.2754H123.908V18.5216C123.908 17.6004 123.322 17.1664 122.393 17.1664C121.479 17.1664 121.068 17.5471 120.938 18.08H119.332C119.431 16.7324 120.444 15.8264 122.446 15.8264C124.167 15.8264 125.59 16.5421 125.59 18.5445V23.9959H123.984V22.9528H123.908C123.55 23.5695 122.849 24.1177 121.662 24.1177ZM122.187 22.8081C123.146 22.8081 123.908 22.1534 123.908 21.2778V20.4098H122.141C121.159 20.4098 120.725 20.9047 120.725 21.5747C120.725 22.4122 121.426 22.8081 122.187 22.8081Z" fill="black"/>
<path d="M130.798 15.8416C131.933 15.8416 132.801 16.3441 133.113 17.1588H133.196V13.055H134.887V23.9959H133.242V22.7092H133.158C132.915 23.5238 131.948 24.1025 130.775 24.1025C128.925 24.1025 127.722 22.7853 127.722 20.6611V19.283C127.722 17.1588 128.948 15.8416 130.798 15.8416ZM131.27 17.2273C130.143 17.2273 129.443 18.0648 129.443 19.5266V20.4098C129.443 21.8793 130.151 22.7168 131.308 22.7168C132.45 22.7168 133.196 21.8869 133.196 20.5164V19.2982C133.196 18.0572 132.382 17.2273 131.27 17.2273Z" fill="black"/>
<path d="M144.168 15.8112C146.269 15.8112 147.739 17.174 147.739 19.4353V20.4784C147.739 22.8158 146.269 24.1329 144.168 24.1329C142.036 24.1329 140.582 22.831 140.582 20.486V19.4429C140.582 17.2425 142.059 15.8112 144.168 15.8112ZM144.175 17.174C142.972 17.174 142.287 18.179 142.287 19.5266V20.4251C142.287 21.7727 142.927 22.7701 144.175 22.7701C145.409 22.7701 146.041 21.7803 146.041 20.4251V19.5266C146.041 18.179 145.378 17.174 144.175 17.174Z" fill="black"/>
<path d="M149.916 23.9959V15.9482H151.576V17.3948H151.66C151.865 16.7629 152.452 15.8264 154.081 15.8264C155.703 15.8264 156.791 16.7248 156.791 18.5597V23.9959H155.101V19.0546C155.101 17.8288 154.462 17.2654 153.51 17.2654C152.261 17.2654 151.606 18.2247 151.606 19.5266V23.9959H149.916Z" fill="black"/>
<path d="M163.331 16.0015V13.9915H164.984V16.0015H166.788V17.3263H164.984V21.5976C164.984 22.4731 165.311 22.7168 166.217 22.7168C166.446 22.7168 166.75 22.7016 166.879 22.6863V23.9807C166.742 24.0035 166.179 24.0492 165.798 24.0492C163.842 24.0492 163.309 23.3487 163.309 21.7346V17.3263H162.083V16.0015H163.331Z" fill="black"/>
<path d="M168.92 23.9959V13.055H170.603V17.3948H170.686C170.861 16.8238 171.516 15.8264 173.13 15.8264C174.699 15.8264 175.818 16.7324 175.818 18.5673V23.9959H174.135V19.0622C174.135 17.8364 173.458 17.2654 172.498 17.2654C171.288 17.2654 170.603 18.2171 170.603 19.5266V23.9959H168.92Z" fill="black"/>
<path d="M181.49 24.1329C179.297 24.1329 177.935 22.7853 177.935 20.5164V19.4277C177.935 17.1436 179.427 15.8112 181.391 15.8112C183.409 15.8112 184.833 17.2121 184.833 19.4277V20.3718H179.61V20.7677C179.61 21.925 180.295 22.7777 181.483 22.7777C182.366 22.7777 182.975 22.3589 183.089 21.8564H184.741C184.642 22.7853 183.66 24.1329 181.49 24.1329ZM179.61 19.2678H183.18V19.1612C183.18 17.9506 182.472 17.1436 181.399 17.1436C180.325 17.1436 179.61 17.9506 179.61 19.1612V19.2678Z" fill="black"/>
<path d="M67.9242 51.7165H64.4067L71.5636 30.9311H75.4313L82.573 51.7165H78.9184L77.0759 45.9606H69.782L67.9242 51.7165ZM73.5127 34.5248H73.3756L70.5586 43.311H76.2993L73.5127 34.5248Z" fill="black"/>
<path d="M92.2808 51.9449C90.1947 51.9449 88.611 50.9551 87.7583 49.4781H87.6365V57.0613H84.256V35.6212H87.5451V37.9814H87.6669C88.5501 36.4434 90.1947 35.408 92.357 35.408C95.9659 35.408 98.5393 38.1337 98.5393 42.9455V44.3769C98.5393 49.1583 95.9963 51.9449 92.2808 51.9449ZM91.5042 49.1583C93.6513 49.1583 95.1131 47.4376 95.1131 44.1942V43.0674C95.1131 39.9457 93.7427 38.1641 91.4433 38.1641C89.0831 38.1641 87.606 40.0828 87.606 43.0521V44.1942C87.606 47.2397 89.0983 49.1583 91.5042 49.1583Z" fill="black"/>
<path d="M109.465 51.9449C107.379 51.9449 105.796 50.9551 104.943 49.4781H104.821V57.0613H101.44V35.6212H104.73V37.9814H104.851C105.735 36.4434 107.379 35.408 109.541 35.408C113.15 35.408 115.724 38.1337 115.724 42.9455V44.3769C115.724 49.1583 113.181 51.9449 109.465 51.9449ZM108.689 49.1583C110.836 49.1583 112.298 47.4376 112.298 44.1942V43.0674C112.298 39.9457 110.927 38.1641 108.628 38.1641C106.268 38.1641 104.791 40.0828 104.791 43.0521V44.1942C104.791 47.2397 106.283 49.1583 108.689 49.1583Z" fill="black"/>
<path d="M122.729 45.9453H126.11C126.262 47.7422 127.846 49.2801 130.784 49.2801C133.48 49.2801 135.079 48.0163 135.079 46.0519C135.079 44.4683 134.013 43.6155 131.789 43.0826L128.378 42.2298C125.698 41.6055 123.293 40.0066 123.293 36.6262C123.293 32.6518 126.764 30.4743 130.8 30.4743C134.835 30.4743 138.2 32.6518 138.276 36.5348H134.957C134.804 34.7684 133.449 33.3066 130.754 33.3066C128.378 33.3066 126.764 34.4334 126.764 36.3673C126.764 37.7225 127.708 38.6971 129.642 39.1387L133.038 39.9762C136.16 40.7376 138.535 42.2146 138.535 45.7474C138.535 49.8283 135.231 52.1277 130.526 52.1277C124.739 52.1277 122.805 48.7472 122.729 45.9453Z" fill="black"/>
<path d="M142.655 35.6212V31.7077H145.974V35.6212H149.111V38.3316H145.974V46.9199C145.974 48.671 146.629 49.1583 148.441 49.1583C148.73 49.1583 149.004 49.1583 149.202 49.1279V51.7165C148.928 51.7622 148.289 51.8231 147.603 51.8231C143.69 51.8231 142.609 50.4222 142.609 47.194V38.3316H140.386V35.6212H142.655Z" fill="black"/>
<path d="M158.24 35.3471C162.869 35.3471 165.382 38.6057 165.382 42.9912V44.2855C165.382 48.8233 162.885 51.9906 158.24 51.9906C153.596 51.9906 151.068 48.8233 151.068 44.2855V42.9912C151.068 38.621 153.611 35.3471 158.24 35.3471ZM158.24 38.0575C155.728 38.0575 154.479 40.1132 154.479 43.0369V44.2703C154.479 47.1483 155.712 49.2649 158.24 49.2649C160.768 49.2649 161.986 47.1635 161.986 44.2703V43.0369C161.986 40.098 160.753 38.0575 158.24 38.0575Z" fill="black"/>
<path d="M168.237 51.7165V35.6212H171.618V37.7378H171.74C172.151 36.7328 173.354 35.3927 175.592 35.3927C176.034 35.3927 176.414 35.4232 176.734 35.4841V38.4687C176.445 38.3925 175.851 38.3469 175.288 38.3469C172.577 38.3469 171.663 40.0219 171.663 42.1842V51.7165H168.237Z" fill="black"/>
<path d="M184.935 51.9906C180.625 51.9906 177.884 49.1431 177.884 44.3769V42.7476C177.884 38.2555 180.564 35.3471 184.798 35.3471C189.092 35.3471 191.68 38.3621 191.68 42.8999V44.4378H181.219V44.8185C181.219 47.529 182.681 49.3258 184.98 49.3258C186.701 49.3258 187.873 48.4731 188.285 47.0874H191.498C191.01 49.6913 188.909 51.9906 184.935 51.9906ZM181.219 42.0776H188.376V42.0471C188.376 39.763 186.96 37.9662 184.813 37.9662C182.635 37.9662 181.219 39.763 181.219 42.0471V42.0776Z" fill="black"/>
</g>
</g>
</svg>
