<svg width="76" height="74" viewBox="0 0 76 74" fill="none" xmlns="http://www.w3.org/2000/svg">
<g id="Group 341">
<path id="Vector" d="M62.3993 48.1792C60.5364 48.982 58.7544 50.0241 56.7965 50.5486C55.123 50.9363 53.5815 51.694 52.3101 52.7539C51.0387 53.8138 50.077 55.1428 49.511 56.622C48.6115 58.9238 46.8961 60.8907 44.6328 62.2153C43.3209 62.9567 41.8238 63.3863 40.2802 63.4642C38.7365 63.5421 37.1961 63.2659 35.8015 62.661C34.4069 62.0561 33.2031 61.1422 32.3016 60.0038C31.4001 58.8653 30.83 57.5392 30.644 56.148C30.3845 54.5166 30.6773 52.822 30.6607 51.1583C30.6305 49.3259 30.5396 47.4957 30.4626 45.6815C30.2897 44.0242 30.2409 42.3582 30.3166 40.6949C30.9462 35.2184 35.3039 31.7056 41.3912 31.6981C42.8489 31.6487 44.3064 31.7997 45.7141 32.1461C48.5129 32.8707 51.4263 33.1628 54.3322 33.0101C57.9496 32.9252 61.1125 33.8573 63.4014 36.6221C66.615 40.4708 66.2135 44.6353 62.3993 48.1792Z" fill="white" fill-opacity="0.2"/>
<path id="Vector_2" d="M25.4981 27.3799C26.2934 28.854 27.3568 30.2727 27.8391 31.8294C28.0781 32.6398 28.1103 33.4888 27.9333 34.3121C27.7563 35.1355 27.3748 35.9115 26.8177 36.5813C26.2606 37.2511 25.5425 37.7971 24.718 38.1779C23.8934 38.5588 22.984 38.7644 22.0587 38.7792C16.7421 38.983 11.4283 34.1811 11.733 29.3543C11.7575 28.0172 12.3468 26.7395 13.3797 25.7845C14.4125 24.8295 15.8101 24.27 17.2845 24.2212C20.0323 24.0422 22.9371 25.2501 25.4981 27.3799Z" fill="white" fill-opacity="0.2"/>
<path id="Vector_3" d="M36.6513 16.2491C39.0458 18.7855 40.2427 21.003 39.9739 23.7302C39.9171 24.6118 39.629 25.4684 39.1335 26.2289C38.638 26.9893 37.9495 27.6316 37.1251 28.1023C36.3007 28.5731 35.3642 28.8587 34.3936 28.9355C33.4229 29.0123 32.4461 28.878 31.5442 28.5439C27.6228 27.0705 25.0444 24.3792 24.4231 20.4968C23.6404 15.5847 28.1393 12.4619 33.2004 14.3577C34.4124 14.8907 35.5676 15.5239 36.6513 16.2491Z" fill="white" fill-opacity="0.2"/>
<path id="Vector_4" d="M23.9467 44.2413C27.1498 47.4252 27.174 50.8237 24.0076 53.2583C23.3288 53.7598 22.5411 54.1262 21.6958 54.3337C20.8505 54.5413 19.9665 54.5853 19.1012 54.463C17.1184 54.2241 15.2699 53.4226 13.8204 52.1733C12.371 50.924 11.3949 49.2909 11.032 47.508C10.8666 46.7381 10.8923 45.9445 11.1072 45.1847C11.3221 44.4249 11.7207 43.718 12.2744 43.1151C12.828 42.5122 13.5226 42.0286 14.308 41.6992C15.0934 41.3698 15.9497 41.2029 16.8151 41.2106C18.1791 41.1951 19.5293 41.4597 20.7644 41.9845C21.9995 42.5094 23.0875 43.2809 23.9467 44.2413Z" fill="white" fill-opacity="0.2"/>
<path id="Vector_5" d="M54.9078 17.3694C55.7939 18.1985 56.4746 19.1893 56.9045 20.2758C57.3344 21.3623 57.5036 22.5194 57.4008 23.6699C56.9393 28.1052 51.9647 30.3414 47.8322 27.9544C46.6916 27.3166 45.7025 26.4793 44.9225 25.4914C44.1426 24.5036 43.5874 23.3848 43.2894 22.2005C42.5385 19.2826 43.5721 16.7481 45.9286 15.4951C48.2851 14.2421 51.521 14.6279 53.9007 16.4818C54.247 16.7865 54.5932 17.0912 54.9078 17.3694Z" fill="white" fill-opacity="0.2"/>
</g>
</svg>
