<svg width="68" height="66" viewBox="0 0 68 66" fill="none" xmlns="http://www.w3.org/2000/svg">
<path d="M27.523 55.4619C26.2973 54.0456 24.8407 52.7488 23.8833 51.1929C23.1277 49.8501 22.0166 48.6979 20.6495 47.8396C19.2824 46.9812 17.7019 46.4434 16.0493 46.2743C13.4739 45.9951 11.0731 44.9505 9.22198 43.3037C8.17627 42.3436 7.41464 41.1599 7.00757 39.8622C6.6005 38.5645 6.56115 37.1946 6.89314 35.8795C7.22512 34.5643 7.91774 33.3463 8.90688 32.3381C9.89603 31.33 11.1497 30.5643 12.552 30.1118C14.1878 29.546 16.0058 29.4371 17.7263 29.0712C19.6188 28.6582 21.4961 28.1939 23.3599 27.7448C25.0407 27.2472 26.7569 26.8535 28.4965 26.5663C34.3047 25.9445 38.8662 28.9119 40.1607 34.0927C40.5202 35.3232 40.6718 36.596 40.6104 37.8677C40.4511 40.4036 40.7643 42.9457 41.5369 45.3872C42.3896 48.449 42.0923 51.3387 39.7111 53.8718C36.4022 57.4214 32.0017 57.9599 27.523 55.4619Z" fill="white" fill-opacity="0.2"/>
<path d="M41.2775 19.6476C39.918 20.6363 38.6727 21.8415 37.1615 22.5813C36.3722 22.956 35.4992 23.1629 34.6086 23.1863C33.718 23.2096 32.8332 23.0489 32.0213 22.7162C31.2095 22.3835 30.4918 21.8876 29.9229 21.2662C29.3539 20.6447 28.9486 19.9139 28.7376 19.1293C27.4025 14.6461 31.2553 9.10717 36.3216 8.34615C37.7123 8.08432 39.1609 8.31598 40.3689 8.99339C41.5769 9.67081 42.4521 10.7424 42.8144 11.9873C43.5808 14.2887 42.9431 17.017 41.2775 19.6476Z" fill="white" fill-opacity="0.2"/>
<path d="M55.1666 26.789C53.0444 29.3637 50.9996 30.8514 48.1166 31.1991C47.191 31.3371 46.2424 31.2729 45.3496 31.0119C44.4569 30.7508 43.6458 30.3004 42.9836 29.698C42.3215 29.0957 41.8276 28.3589 41.5428 27.5488C41.258 26.7386 41.1906 25.8786 41.3463 25.0401C42.0441 21.3902 44.2879 18.6262 48.1798 17.2765C53.1046 15.5717 57.2918 18.7417 56.3971 23.4512C56.101 24.5957 55.6891 25.713 55.1666 26.789Z" fill="white" fill-opacity="0.3"/>
<path d="M23.4748 21.8932C20.8525 25.2932 17.3359 26.0323 14.1435 23.8513C13.4803 23.3793 12.9341 22.7862 12.5403 22.1105C12.1466 21.4347 11.9141 20.6914 11.8579 19.9289C11.6863 18.1904 12.1261 16.4472 13.1143 14.9491C14.1025 13.451 15.5885 12.2748 17.3593 11.589C18.1222 11.2854 18.95 11.1395 19.7828 11.1618C20.6156 11.1841 21.4325 11.3741 22.1742 11.718C22.916 12.0618 23.564 12.551 24.0714 13.15C24.5788 13.7489 24.9328 14.4427 25.1078 15.181C25.4122 16.339 25.4234 17.5444 25.1406 18.7069C24.8578 19.8694 24.2882 20.9587 23.4748 21.8932Z" fill="white" fill-opacity="0.3"/>
<path d="M57.8643 42.5688C57.1925 43.4984 56.3096 44.2874 55.2746 44.8831C54.2396 45.4787 53.0762 45.8674 51.8623 46.0231C47.1686 46.5678 43.7996 42.8054 45.3996 38.7826C45.8194 37.6767 46.4779 36.6577 47.3368 35.7848C48.1956 34.912 49.2375 34.2028 50.4019 33.6988C53.2669 32.4426 56.1117 32.7868 57.9083 34.5281C59.705 36.2694 59.9893 39.1058 58.5712 41.5237C58.3286 41.8829 58.0861 42.2421 57.8643 42.5688Z" fill="white" fill-opacity="0.3"/>
</svg>
