<svg width="79" height="78" viewBox="0 0 79 78" fill="none" xmlns="http://www.w3.org/2000/svg">
<path d="M56.0456 60.5453C53.8593 60.4443 51.6155 60.6038 49.4952 60.1995C47.7165 59.7973 45.8556 59.801 44.0788 60.2103C42.3021 60.6196 40.665 61.4217 39.3139 62.5448C37.1942 64.2839 34.4985 65.3376 31.6482 65.5411C30.0106 65.6345 28.3735 65.352 26.8884 64.7197C25.4033 64.0875 24.1181 63.1259 23.1517 61.924C22.1854 60.7221 21.5692 59.3187 21.36 57.8436C21.1509 56.3686 21.3556 54.8695 21.9552 53.4852C22.6198 51.8429 23.8354 50.3938 24.7447 48.8323C25.7353 47.107 26.6678 45.3561 27.6045 43.6264C28.3643 41.9994 29.2449 40.421 30.2403 38.902C33.8728 34.0744 39.8959 32.7836 45.5857 35.5569C46.9747 36.1764 48.2521 36.9831 49.3744 37.9496C51.5857 39.9047 54.1445 41.5081 56.9436 42.6926C60.3695 44.2655 62.8055 46.5806 63.4064 50.2084C64.2684 55.2709 61.5782 58.9773 56.0456 60.5453Z" fill="white" fill-opacity="0.2"/>
<path d="M33.1415 24.2657C33.0648 26.0058 33.2694 27.8165 32.8545 29.4909C32.6272 30.3569 32.1852 31.1646 31.5622 31.8528C30.9392 32.541 30.1515 33.0915 29.2588 33.4627C28.366 33.8339 27.3918 34.0159 26.4099 33.9951C25.4281 33.9742 24.4643 33.7509 23.5918 33.3421C18.5127 31.1043 16.2191 24.1923 19.187 19.823C19.9531 18.5853 21.2139 17.6611 22.7095 17.2409C24.2051 16.8206 25.8216 16.9363 27.2258 17.5641C29.8918 18.6518 31.9334 21.1068 33.1415 24.2657Z" fill="white" fill-opacity="0.2"/>
<path d="M49.7462 18.9629C50.5726 22.4256 50.4579 25.0434 48.6907 27.4679C48.1475 28.2655 47.4021 28.934 46.5166 29.4179C45.631 29.9019 44.6309 30.1873 43.5992 30.2505C42.5675 30.3137 41.534 30.1528 40.5847 29.7812C39.6354 29.4096 38.7976 28.838 38.141 28.114C35.2974 24.9469 34.3853 21.2556 35.9633 17.3455C37.963 12.4001 43.9012 11.538 47.5744 15.6203C48.4101 16.6716 49.1371 17.7906 49.7462 18.9629Z" fill="white" fill-opacity="0.2"/>
<path d="M22.3182 39.3081C23.5399 43.7448 21.6732 46.9302 17.3622 47.7581C16.4494 47.9164 15.51 47.8989 14.6051 47.7067C13.7001 47.5145 12.85 47.1518 12.1098 46.6424C10.3906 45.5137 9.10963 43.9209 8.45032 42.092C7.79101 40.2631 7.78719 38.2919 8.4394 36.461C8.71294 35.6663 9.17812 34.9368 9.80121 34.3252C10.4243 33.7137 11.1897 33.2355 12.0419 32.9252C12.8942 32.615 13.8119 32.4805 14.7286 32.5315C15.6452 32.5825 16.5379 32.8178 17.3419 33.2202C18.6245 33.8287 19.7385 34.6925 20.6003 35.7468C21.4622 36.8012 22.0494 38.0187 22.3182 39.3081Z" fill="white" fill-opacity="0.2"/>
<path d="M66.1764 28.3473C66.5432 29.5263 66.6281 30.7627 66.4257 31.9739C66.2232 33.185 65.7379 34.3431 65.0023 35.3707C62.1056 39.3026 56.216 39.1193 53.6832 35.0023C52.9724 33.8857 52.514 32.6519 52.3347 31.373C52.1554 30.0941 52.2588 28.7956 52.6388 27.5533C53.5596 24.4849 55.934 22.5898 58.8316 22.4957C61.7292 22.4016 64.5371 24.2398 65.7292 27.0583C65.8832 27.501 66.0373 27.9437 66.1764 28.3473Z" fill="white" fill-opacity="0.2"/>
</svg>
