<svg width="77" height="77" viewBox="0 0 77 77" fill="none" xmlns="http://www.w3.org/2000/svg">
<path d="M60.174 54.0904C58.1694 54.5311 56.19 55.221 54.1552 55.3717C52.4295 55.4412 50.7497 55.8973 49.2661 56.6992C47.7825 57.5012 46.5414 58.6239 45.6538 59.9671C44.2542 62.0536 42.1314 63.6611 39.6172 64.5384C38.1658 65.0212 36.6035 65.1643 35.0749 64.9546C33.5462 64.7449 32.1006 64.1891 30.8719 63.3386C29.6431 62.4881 28.6709 61.3704 28.0452 60.089C27.4194 58.8076 27.1604 57.4038 27.292 56.0076C27.4059 54.3625 28.0748 52.7579 28.4337 51.1263C28.8174 49.327 29.1412 47.5186 29.4749 45.7284C29.6794 44.0741 30.0074 42.4342 30.4565 40.82C32.3079 35.5758 37.3658 32.9445 43.3262 34.0651C44.7643 34.2867 46.157 34.7046 47.4569 35.3045C50.0331 36.5324 52.8192 37.3581 55.6981 37.747C59.2583 38.3341 62.1442 39.8325 63.7612 42.963C66.0391 47.3258 64.7069 51.328 60.174 54.0904Z" fill="white" fill-opacity="0.2"/>
<path d="M28.7403 26.8932C29.1864 28.4836 29.9074 30.0693 30.0285 31.6825C30.0796 32.5201 29.9197 33.3571 29.5608 34.1303C29.2019 34.9035 28.6534 35.5924 27.957 36.1448C27.2606 36.6973 26.4346 37.0987 25.5415 37.3187C24.6485 37.5388 23.7119 37.5716 22.8028 37.4147C17.5525 36.6291 13.4339 30.9441 14.8206 26.2756C15.1461 24.9713 16.0112 23.8298 17.2376 23.0863C18.464 22.3429 19.9583 22.0541 21.4125 22.2795C24.1426 22.6133 26.7137 24.3339 28.7403 26.8932Z" fill="white" fill-opacity="0.2"/>
<path d="M42.1658 18.0639C43.9377 20.9904 44.6093 23.3828 43.7312 26.0026C43.4767 26.8551 43.0015 27.6403 42.345 28.2928C41.6885 28.9454 40.8696 29.4465 39.9565 29.7546C39.0433 30.0627 38.0622 30.1688 37.0947 30.0642C36.1273 29.9595 35.2013 29.6471 34.3938 29.1529C30.8875 26.9841 28.9705 23.8719 29.2378 19.9564C29.5794 15.003 34.6876 12.7796 39.2143 15.5731C40.2805 16.3194 41.2685 17.1532 42.1658 18.0639Z" fill="white" fill-opacity="0.2"/>
<path d="M23.4236 43.1117C25.841 46.8219 25.0983 50.1531 21.4497 51.9497C20.6721 52.3148 19.8184 52.5276 18.9441 52.5741C18.0699 52.6207 17.1946 52.5 16.3751 52.2199C14.4881 51.6187 12.8594 50.4917 11.7223 49.0002C10.5852 47.5087 9.99797 45.7293 10.0448 43.9168C10.0566 43.1325 10.2607 42.3604 10.6424 41.6565C11.024 40.9525 11.5737 40.3344 12.2516 39.8468C12.9295 39.3592 13.7186 39.0145 14.5616 38.8375C15.4047 38.6606 16.2807 38.6559 17.126 38.8237C18.4647 39.0613 19.7267 39.5705 20.8174 40.3131C21.908 41.0557 22.799 42.0125 23.4236 43.1117Z" fill="white" fill-opacity="0.2"/>
<path d="M59.7871 22.5429C60.4675 23.5186 60.9104 24.6147 61.0862 25.7579C61.262 26.9011 61.1666 28.0651 60.8065 29.1723C59.3545 33.4284 53.9806 34.6957 50.4737 31.5935C49.501 30.7578 48.7216 29.755 48.1809 28.6435C47.6402 27.5319 47.3491 26.334 47.3245 25.1194C47.2474 22.124 48.8308 19.8346 51.4201 19.0446C54.0094 18.2547 57.09 19.2318 59.0014 21.4875C59.2716 21.8499 59.5418 22.2123 59.7871 22.5429Z" fill="white" fill-opacity="0.2"/>
</svg>
