<svg width="66" height="65" viewBox="0 0 66 65" fill="none" xmlns="http://www.w3.org/2000/svg">
<path d="M41.6244 12.1337C42.5945 13.5654 43.7928 14.9086 44.4977 16.4438C45.0405 17.762 45.9353 18.9377 47.1021 19.8656C48.2689 20.7936 49.6712 21.445 51.1837 21.7614C53.5391 22.269 55.6426 23.4695 57.1655 25.1754C58.0223 26.1667 58.5894 27.3379 58.8143 28.5805C59.0392 29.8232 58.9147 31.0972 58.4522 32.2847C57.9897 33.4722 57.2043 34.5347 56.1686 35.3741C55.1328 36.2134 53.8802 36.8023 52.5267 37.0865C50.9434 37.4532 49.2448 37.3786 47.6064 37.5517C45.8029 37.7519 44.0075 38.0011 42.2265 38.2376C40.6093 38.5366 38.9717 38.736 37.3248 38.8343C31.8658 38.8499 27.9849 35.6577 27.3935 30.7286C27.2049 29.5528 27.2139 28.358 27.4203 27.1847C27.8661 24.8485 27.8745 22.461 27.4452 20.1224C27.0144 17.2009 27.6298 14.55 30.1356 12.431C33.6212 9.45919 37.765 9.38478 41.6244 12.1337Z" fill="white" fill-opacity="0.2"/>
<path d="M24.664 44.0152C26.0409 43.2297 27.3373 42.2324 28.8256 41.6924C29.6015 41.4211 30.4354 41.3136 31.264 41.3779C32.0926 41.4422 32.8941 41.6768 33.6079 42.0637C34.3216 42.4506 34.9287 42.9797 35.3833 43.6109C35.8378 44.2422 36.1278 44.959 36.2312 45.7069C36.9421 49.993 32.7184 54.7572 27.931 54.9735C26.6106 55.082 25.2945 54.7273 24.254 53.9825C23.2135 53.2376 22.5279 52.1595 22.3383 50.9701C21.8982 48.762 22.8102 46.2936 24.664 44.0152Z" fill="white" fill-opacity="0.2"/>
<path d="M12.6253 36.0512C14.8959 33.8686 16.967 32.6865 19.6812 32.6426C20.5557 32.604 21.4278 32.7551 22.2249 33.0834C23.0221 33.4118 23.7213 33.9078 24.2644 34.5302C24.8076 35.1527 25.179 35.8837 25.3479 36.6624C25.5167 37.4411 25.4781 38.2451 25.2352 39.0076C24.1591 42.3247 21.7534 44.6711 17.9858 45.5468C13.2187 46.6519 9.70865 43.3081 11.092 39.0274C11.5011 37.9947 12.0144 36.9984 12.6253 36.0512Z" fill="white" fill-opacity="0.2"/>
<path d="M41.4374 43.6509C44.2687 40.7514 47.6165 40.4057 50.3203 42.7364C50.8798 43.2381 51.3166 43.8408 51.6023 44.5055C51.888 45.1702 52.0162 45.8819 51.9786 46.5944C51.9334 48.2231 51.3207 49.797 50.2282 51.0907C49.1357 52.3844 47.6195 53.3316 45.8968 53.7966C45.1538 54.0044 44.369 54.0597 43.5994 53.9586C42.8297 53.8575 42.0946 53.6024 41.4472 53.2119C40.7998 52.8214 40.2564 52.3052 39.8563 51.7008C39.4562 51.0964 39.2095 50.4188 39.1341 49.7173C38.9879 48.6141 39.1192 47.4953 39.5181 46.4447C39.917 45.394 40.5732 44.4389 41.4374 43.6509Z" fill="white" fill-opacity="0.2"/>
<path d="M11.9756 21.1574C12.7078 20.3603 13.6193 19.7139 14.6491 19.2615C15.6789 18.8091 16.8033 18.5611 17.9473 18.534C22.3637 18.4822 25.0454 22.2964 23.0889 25.8721C22.5696 26.8571 21.8391 27.7384 20.9401 28.4649C20.0411 29.1913 18.9916 29.7482 17.8527 30.1032C15.0483 30.9913 12.4508 30.3974 10.9895 28.6092C9.52821 26.8209 9.59802 24.1634 11.1973 22.0582C11.4644 21.7486 11.7315 21.4389 11.9756 21.1574Z" fill="white" fill-opacity="0.2"/>
</svg>
