<svg width="50" height="46" viewBox="0 0 50 46" fill="none" xmlns="http://www.w3.org/2000/svg">
<path d="M27.1159 44.8056C25.5891 43.9143 23.9021 43.1888 22.561 42.104C21.4647 41.1486 20.1242 40.4544 18.6594 40.0835C17.1946 39.7127 15.6513 39.6767 14.1674 39.9788C11.8497 40.4362 9.43012 40.1848 7.28675 39.2639C6.06609 38.7179 5.0171 37.9016 4.23684 36.8906C3.45658 35.8797 2.97026 34.7066 2.82288 33.4801C2.6755 32.2536 2.87183 31.0131 3.3937 29.8736C3.91556 28.7341 4.7461 27.7323 5.80846 26.961C7.03514 26.0283 8.5702 25.441 9.93611 24.6581C11.4351 23.7878 12.9041 22.8774 14.3663 21.9837C15.6545 21.0978 17.0075 20.292 18.4159 19.5719C23.2297 17.459 28.1512 18.7858 30.9806 22.9116C31.6975 23.8774 32.2487 24.9361 32.6156 26.0517C33.3153 28.2862 34.4254 30.398 35.8992 32.2983C37.647 34.7127 38.3443 37.2905 37.123 40.1254C35.4357 44.0902 31.8109 45.7493 27.1159 44.8056Z" fill="white" fill-opacity="0.2"/>
<path d="M27.1748 10.1273C26.3265 11.3505 25.6483 12.7298 24.5867 13.779C24.0284 14.3169 23.3423 14.7325 22.5804 14.9943C21.8185 15.2561 21.0009 15.3572 20.1895 15.2899C19.3781 15.2227 18.5942 14.9889 17.8973 14.6062C17.2005 14.2234 16.6089 13.7019 16.1675 13.0812C13.5335 9.56926 15.0339 3.73772 19.1605 1.70576C20.2759 1.10222 21.6042 0.909443 22.8717 1.16714C24.1392 1.42483 25.2494 2.11337 25.9735 3.09088C27.3957 4.8717 27.7455 7.40233 27.1748 10.1273Z" fill="white" fill-opacity="0.2"/>
<path d="M41.5371 12.5304C40.5534 15.331 39.2777 17.1714 36.9012 18.2539C36.1469 18.6242 35.306 18.8261 34.4483 18.8426C33.5906 18.8592 32.741 18.69 31.97 18.3491C31.1989 18.0083 30.5288 17.5055 30.0152 16.8827C29.5016 16.2599 29.1594 15.535 29.017 14.7682C28.4148 11.425 29.4412 8.42776 32.3586 6.20567C36.0514 3.3966 40.7164 5.00001 41.4983 9.31237C41.6203 10.3817 41.6333 11.4589 41.5371 12.5304Z" fill="white" fill-opacity="0.2"/>
<path d="M12.5349 16.8976C11.3916 20.547 8.59675 22.1396 5.11799 21.1209C4.38909 20.893 3.72123 20.5286 3.15783 20.0515C2.59442 19.5743 2.14807 18.9951 1.84776 18.3514C1.1254 16.8957 0.929861 15.27 1.28915 13.7074C1.64844 12.1448 2.54412 10.7253 3.8479 9.65224C4.40689 9.18298 5.07406 8.83233 5.80107 8.6257C6.52808 8.41907 7.2967 8.36163 8.05123 8.45756C8.80575 8.5535 9.52728 8.80039 10.1635 9.18035C10.7997 9.5603 11.3347 10.0638 11.7297 10.6544C12.3751 11.5724 12.7828 12.611 12.9223 13.6923C13.0617 14.7735 12.9293 15.8693 12.5349 16.8976Z" fill="white" fill-opacity="0.2"/>
<path d="M49.0798 25.4344C48.8063 26.4199 48.3039 27.3412 47.6061 28.1367C46.9084 28.9322 46.0315 29.5837 45.0339 30.0475C41.1577 31.7914 37.0042 29.4542 37.0585 25.5439C37.0561 24.4744 37.2887 23.4151 37.7426 22.4279C38.1966 21.4407 38.8628 20.5453 39.7025 19.7938C41.7634 17.9312 44.3354 17.4569 46.4629 18.4742C48.5904 19.4916 49.7727 21.8654 49.3456 24.3396C49.2546 24.7157 49.1637 25.0919 49.0798 25.4344Z" fill="white" fill-opacity="0.2"/>
</svg>
