<svg width="63" height="60" viewBox="0 0 63 60" fill="none" xmlns="http://www.w3.org/2000/svg">
<path d="M28.3937 53.5541C26.964 52.3106 25.3247 51.2143 24.1385 49.7988C23.1846 48.5681 21.909 47.5709 20.4258 46.8965C18.9426 46.222 17.2981 45.8913 15.6394 45.934C13.052 45.9851 10.5188 45.2579 8.43572 43.8659C7.25433 43.0501 6.31904 41.9774 5.7164 40.7471C5.11376 39.5168 4.86325 38.1685 4.98803 36.8271C5.11281 35.4857 5.60886 34.1945 6.43028 33.073C7.2517 31.9515 8.37194 31.0359 9.68736 30.411C11.2159 29.6444 12.9951 29.306 14.6382 28.7262C16.444 28.078 18.2269 27.381 19.9987 26.7008C21.5824 25.9959 23.2169 25.3891 24.8911 24.8846C30.5331 23.5331 35.4977 25.8856 37.5771 30.8394C38.1222 32.0094 38.4687 33.2475 38.6045 34.5116C38.839 37.0371 39.5411 39.5086 40.6816 41.8226C41.997 44.7391 42.1498 47.6316 40.1887 50.4363C37.4683 54.3629 33.2042 55.4535 28.3937 53.5541Z" fill="white" fill-opacity="0.2"/>
<path d="M36.452 16.4301C35.2617 17.5794 34.2177 18.9282 32.839 19.8508C32.1172 20.3211 31.2867 20.6363 30.4105 20.7725C29.5343 20.9086 28.6353 20.8621 27.7819 20.6365C26.9285 20.4109 26.1429 20.0121 25.4848 19.4703C24.8267 18.9286 24.3134 18.2581 23.9837 17.5098C21.9722 13.2503 24.9225 7.28936 29.8099 5.89449C31.1435 5.4593 32.6103 5.50429 33.9083 6.02019C35.2063 6.53608 36.2366 7.48358 36.7868 8.66746C37.8995 10.8438 37.691 13.62 36.452 16.4301Z" fill="white" fill-opacity="0.2"/>
<path d="M51.2759 21.7214C49.5772 24.5343 47.7869 26.2636 44.9926 26.973C44.0995 27.2268 43.1524 27.2838 42.2301 27.1392C41.3079 26.9946 40.437 26.6526 39.6898 26.1416C38.9427 25.6306 38.3408 24.9654 37.9343 24.2012C37.5278 23.437 37.3284 22.5959 37.3526 21.7478C37.4781 18.0536 39.2677 15.0381 42.904 13.2108C47.5058 10.9016 52.1321 13.5017 51.9758 18.2678C51.8601 19.436 51.6258 20.5921 51.2759 21.7214Z" fill="white" fill-opacity="0.2"/>
<path d="M19.213 20.908C17.1478 24.5996 13.7879 25.7761 10.2972 24.0267C9.56914 23.6447 8.93789 23.1281 8.44448 22.5104C7.95107 21.8928 7.60653 21.188 7.43325 20.4419C6.9951 18.7462 7.16026 16.9683 7.90507 15.3629C8.64987 13.7575 9.93612 12.4069 11.5796 11.5046C12.2863 11.1079 13.0816 10.8587 13.9077 10.775C14.7339 10.6913 15.5703 10.7753 16.3562 11.0209C17.1421 11.2664 17.8579 11.6674 18.4517 12.1947C19.0454 12.7221 19.5023 13.3625 19.7892 14.0697C20.2689 15.175 20.4662 16.3645 20.3664 17.5487C20.2666 18.733 19.8723 19.8815 19.213 20.908Z" fill="white" fill-opacity="0.2"/>
<path d="M56.3808 36.9677C55.8608 37.9713 55.1105 38.8629 54.18 39.5827C53.2496 40.3025 52.1604 40.8342 50.9851 41.142C46.4324 42.2759 42.5229 38.9867 43.482 34.8095C43.7259 33.6637 44.219 32.5734 44.9326 31.6021C45.6462 30.6308 46.566 29.798 47.6383 29.1522C50.2746 27.5476 53.1382 27.5266 55.1821 29.0188C57.226 30.511 57.9451 33.2769 56.9177 35.8456C56.7336 36.2312 56.5495 36.6168 56.3808 36.9677Z" fill="white" fill-opacity="0.2"/>
</svg>
