<svg width="1179" height="462" viewBox="0 0 1179 462" fill="none" xmlns="http://www.w3.org/2000/svg">
<path d="M1127.05 160.545C1124.86 160.444 1122.62 160.604 1120.5 160.2C1118.72 159.797 1116.86 159.801 1115.08 160.21C1113.3 160.62 1111.66 161.422 1110.31 162.545C1108.19 164.284 1105.5 165.338 1102.65 165.541C1101.01 165.634 1099.37 165.352 1097.89 164.72C1096.4 164.087 1095.12 163.126 1094.15 161.924C1093.19 160.722 1092.57 159.319 1092.36 157.844C1092.15 156.369 1092.36 154.87 1092.96 153.485C1093.62 151.843 1094.84 150.394 1095.74 148.832C1096.74 147.107 1097.67 145.356 1098.6 143.626C1099.36 141.999 1100.24 140.421 1101.24 138.902C1104.87 134.074 1110.9 132.784 1116.59 135.557C1117.97 136.176 1119.25 136.983 1120.37 137.95C1122.59 139.905 1125.14 141.508 1127.94 142.693C1131.37 144.266 1133.81 146.581 1134.41 150.208C1135.27 155.271 1132.58 158.977 1127.05 160.545Z" fill="white" fill-opacity="0.2"/>
<path d="M1104.14 124.266C1104.06 126.006 1104.27 127.817 1103.85 129.491C1103.63 130.357 1103.19 131.165 1102.56 131.853C1101.94 132.541 1101.15 133.092 1100.26 133.463C1099.37 133.834 1098.39 134.016 1097.41 133.995C1096.43 133.974 1095.46 133.751 1094.59 133.342C1089.51 131.104 1087.22 124.192 1090.19 119.823C1090.95 118.585 1092.21 117.661 1093.71 117.241C1095.21 116.821 1096.82 116.936 1098.23 117.564C1100.89 118.652 1102.93 121.107 1104.14 124.266Z" fill="white" fill-opacity="0.2"/>
<path d="M1120.75 118.963C1121.57 122.426 1121.46 125.043 1119.69 127.468C1119.15 128.265 1118.4 128.934 1117.52 129.418C1116.63 129.902 1115.63 130.187 1114.6 130.25C1113.57 130.314 1112.53 130.153 1111.58 129.781C1110.64 129.41 1109.8 128.838 1109.14 128.114C1106.3 124.947 1105.39 121.256 1106.96 117.346C1108.96 112.4 1114.9 111.538 1118.57 115.62C1119.41 116.672 1120.14 117.791 1120.75 118.963Z" fill="white" fill-opacity="0.2"/>
<path d="M1093.32 139.308C1094.54 143.745 1092.67 146.93 1088.36 147.758C1087.45 147.916 1086.51 147.899 1085.61 147.707C1084.7 147.514 1083.85 147.152 1083.11 146.642C1081.39 145.514 1080.11 143.921 1079.45 142.092C1078.79 140.263 1078.79 138.292 1079.44 136.461C1079.71 135.666 1080.18 134.937 1080.8 134.325C1081.42 133.714 1082.19 133.235 1083.04 132.925C1083.89 132.615 1084.81 132.481 1085.73 132.532C1086.65 132.583 1087.54 132.818 1088.34 133.22C1089.62 133.829 1090.74 134.692 1091.6 135.747C1092.46 136.801 1093.05 138.019 1093.32 139.308Z" fill="white" fill-opacity="0.2"/>
<path d="M1137.18 128.347C1137.54 129.526 1137.63 130.763 1137.43 131.974C1137.22 133.185 1136.74 134.343 1136 135.371C1133.11 139.303 1127.22 139.119 1124.68 135.002C1123.97 133.886 1123.51 132.652 1123.33 131.373C1123.16 130.094 1123.26 128.796 1123.64 127.553C1124.56 124.485 1126.93 122.59 1129.83 122.496C1132.73 122.402 1135.54 124.24 1136.73 127.058C1136.88 127.501 1137.04 127.944 1137.18 128.347Z" fill="white" fill-opacity="0.2"/>
<path d="M81.6244 409.134C82.5945 410.565 83.7928 411.909 84.4977 413.444C85.0405 414.762 85.9353 415.938 87.1021 416.866C88.2689 417.794 89.6712 418.445 91.1837 418.761C93.5391 419.269 95.6426 420.47 97.1655 422.175C98.0223 423.167 98.5894 424.338 98.8143 425.581C99.0392 426.823 98.9147 428.097 98.4522 429.285C97.9897 430.472 97.2043 431.535 96.1686 432.374C95.1328 433.213 93.8802 433.802 92.5267 434.086C90.9434 434.453 89.2448 434.379 87.6064 434.552C85.8029 434.752 84.0075 435.001 82.2265 435.238C80.6093 435.537 78.9717 435.736 77.3248 435.834C71.8658 435.85 67.9849 432.658 67.3935 427.729C67.2049 426.553 67.2139 425.358 67.4203 424.185C67.8661 421.849 67.8745 419.461 67.4452 417.122C67.0144 414.201 67.6298 411.55 70.1356 409.431C73.6212 406.459 77.765 406.385 81.6244 409.134Z" fill="white" fill-opacity="0.2"/>
<path d="M64.664 441.015C66.0409 440.23 67.3373 439.232 68.8256 438.692C69.6015 438.421 70.4354 438.314 71.264 438.378C72.0926 438.442 72.8941 438.677 73.6079 439.064C74.3216 439.451 74.9287 439.98 75.3833 440.611C75.8378 441.242 76.1278 441.959 76.2312 442.707C76.9421 446.993 72.7184 451.757 67.931 451.974C66.6106 452.082 65.2945 451.727 64.254 450.982C63.2135 450.238 62.5279 449.159 62.3383 447.97C61.8982 445.762 62.8102 443.294 64.664 441.015Z" fill="white" fill-opacity="0.2"/>
<path d="M52.6253 433.051C54.8959 430.869 56.967 429.687 59.6812 429.643C60.5557 429.604 61.4278 429.755 62.2249 430.083C63.0221 430.412 63.7213 430.908 64.2644 431.53C64.8076 432.153 65.179 432.884 65.3479 433.662C65.5167 434.441 65.4781 435.245 65.2352 436.008C64.1591 439.325 61.7534 441.671 57.9858 442.547C53.2187 443.652 49.7086 440.308 51.092 436.027C51.5011 434.995 52.0144 433.998 52.6253 433.051Z" fill="white" fill-opacity="0.2"/>
<path d="M81.4374 440.651C84.2687 437.751 87.6165 437.406 90.3203 439.736C90.8798 440.238 91.3166 440.841 91.6023 441.505C91.888 442.17 92.0162 442.882 91.9786 443.594C91.9334 445.223 91.3207 446.797 90.2282 448.091C89.1357 449.384 87.6195 450.332 85.8968 450.797C85.1538 451.004 84.369 451.06 83.5994 450.959C82.8297 450.857 82.0946 450.602 81.4472 450.212C80.7998 449.821 80.2564 449.305 79.8563 448.701C79.4562 448.096 79.2095 447.419 79.1341 446.717C78.9879 445.614 79.1192 444.495 79.5181 443.445C79.917 442.394 80.5732 441.439 81.4374 440.651Z" fill="white" fill-opacity="0.2"/>
<path d="M51.9756 418.157C52.7078 417.36 53.6193 416.714 54.6491 416.262C55.6789 415.809 56.8033 415.561 57.9473 415.534C62.3637 415.482 65.0454 419.296 63.0889 422.872C62.5696 423.857 61.8391 424.738 60.9401 425.465C60.0411 426.191 58.9916 426.748 57.8527 427.103C55.0483 427.991 52.4508 427.397 50.9895 425.609C49.5282 423.821 49.598 421.163 51.1973 419.058C51.4644 418.749 51.7315 418.439 51.9756 418.157Z" fill="white" fill-opacity="0.2"/>
<path d="M493.116 419.806C491.589 418.914 489.902 418.189 488.561 417.104C487.465 416.149 486.124 415.454 484.659 415.084C483.195 414.713 481.651 414.677 480.167 414.979C477.85 415.436 475.43 415.185 473.287 414.264C472.066 413.718 471.017 412.902 470.237 411.891C469.457 410.88 468.97 409.707 468.823 408.48C468.676 407.254 468.872 406.013 469.394 404.874C469.916 403.734 470.746 402.732 471.808 401.961C473.035 401.028 474.57 400.441 475.936 399.658C477.435 398.788 478.904 397.877 480.366 396.984C481.655 396.098 483.007 395.292 484.416 394.572C489.23 392.459 494.151 393.786 496.981 397.912C497.697 398.877 498.249 399.936 498.616 401.052C499.315 403.286 500.425 405.398 501.899 407.298C503.647 409.713 504.344 412.29 503.123 415.125C501.436 419.09 497.811 420.749 493.116 419.806Z" fill="white" fill-opacity="0.2"/>
<path d="M493.175 385.127C492.326 386.35 491.648 387.73 490.587 388.779C490.028 389.317 489.342 389.732 488.58 389.994C487.819 390.256 487.001 390.357 486.189 390.29C485.378 390.223 484.594 389.989 483.897 389.606C483.2 389.223 482.609 388.702 482.167 388.081C479.534 384.569 481.034 378.738 485.161 376.706C486.276 376.102 487.604 375.909 488.872 376.167C490.139 376.425 491.249 377.113 491.973 378.091C493.396 379.872 493.746 382.402 493.175 385.127Z" fill="white" fill-opacity="0.2"/>
<path d="M507.537 387.53C506.553 390.331 505.278 392.171 502.901 393.254C502.147 393.624 501.306 393.826 500.448 393.843C499.591 393.859 498.741 393.69 497.97 393.349C497.199 393.008 496.529 392.506 496.015 391.883C495.502 391.26 495.159 390.535 495.017 389.768C494.415 386.425 495.441 383.428 498.359 381.206C502.051 378.397 506.716 380 507.498 384.312C507.62 385.382 507.633 386.459 507.537 387.53Z" fill="white" fill-opacity="0.2"/>
<path d="M478.535 391.898C477.392 395.547 474.597 397.14 471.118 396.121C470.389 395.893 469.721 395.529 469.158 395.051C468.594 394.574 468.148 393.995 467.848 393.351C467.125 391.896 466.93 390.27 467.289 388.707C467.648 387.145 468.544 385.725 469.848 384.652C470.407 384.183 471.074 383.832 471.801 383.626C472.528 383.419 473.297 383.362 474.051 383.458C474.806 383.553 475.527 383.8 476.164 384.18C476.8 384.56 477.335 385.064 477.73 385.654C478.375 386.572 478.783 387.611 478.922 388.692C479.062 389.774 478.929 390.869 478.535 391.898Z" fill="white" fill-opacity="0.2"/>
<path d="M515.08 400.434C514.806 401.42 514.304 402.341 513.606 403.137C512.908 403.932 512.031 404.584 511.034 405.048C507.158 406.791 503.004 404.454 503.059 400.544C503.056 399.474 503.289 398.415 503.743 397.428C504.197 396.441 504.863 395.545 505.702 394.794C507.763 392.931 510.335 392.457 512.463 393.474C514.59 394.492 515.773 396.865 515.346 399.34C515.255 399.716 515.164 400.092 515.08 400.434Z" fill="white" fill-opacity="0.2"/>
<path d="M625.174 272.09C623.169 272.531 621.19 273.221 619.155 273.372C617.43 273.441 615.75 273.897 614.266 274.699C612.783 275.501 611.541 276.624 610.654 277.967C609.254 280.054 607.131 281.661 604.617 282.538C603.166 283.021 601.603 283.164 600.075 282.955C598.546 282.745 597.101 282.189 595.872 281.339C594.643 280.488 593.671 279.37 593.045 278.089C592.419 276.808 592.16 275.404 592.292 274.008C592.406 272.363 593.075 270.758 593.434 269.126C593.817 267.327 594.141 265.519 594.475 263.728C594.679 262.074 595.007 260.434 595.457 258.82C597.308 253.576 602.366 250.945 608.326 252.065C609.764 252.287 611.157 252.705 612.457 253.304C615.033 254.532 617.819 255.358 620.698 255.747C624.258 256.334 627.144 257.832 628.761 260.963C631.039 265.326 629.707 269.328 625.174 272.09Z" fill="white" fill-opacity="0.2"/>
<path d="M593.74 244.893C594.186 246.484 594.907 248.069 595.029 249.683C595.08 250.52 594.92 251.357 594.561 252.13C594.202 252.903 593.653 253.592 592.957 254.145C592.261 254.697 591.435 255.099 590.542 255.319C589.649 255.539 588.712 255.572 587.803 255.415C582.553 254.629 578.434 248.944 579.821 244.276C580.146 242.971 581.011 241.83 582.238 241.086C583.464 240.343 584.958 240.054 586.413 240.279C589.143 240.613 591.714 242.334 593.74 244.893Z" fill="white" fill-opacity="0.2"/>
<path d="M607.166 236.064C608.938 238.99 609.609 241.383 608.731 244.003C608.477 244.855 608.001 245.64 607.345 246.293C606.688 246.945 605.87 247.447 604.956 247.755C604.043 248.063 603.062 248.169 602.095 248.064C601.127 247.959 600.201 247.647 599.394 247.153C595.888 244.984 593.97 241.872 594.238 237.956C594.579 233.003 599.688 230.78 604.214 233.573C605.28 234.319 606.269 235.153 607.166 236.064Z" fill="white" fill-opacity="0.2"/>
<path d="M588.424 261.112C590.841 264.822 590.098 268.153 586.45 269.95C585.672 270.315 584.818 270.528 583.944 270.574C583.07 270.621 582.195 270.5 581.375 270.22C579.488 269.619 577.859 268.492 576.722 267C575.585 265.509 574.998 263.729 575.045 261.917C575.057 261.133 575.261 260.36 575.642 259.656C576.024 258.953 576.574 258.334 577.252 257.847C577.93 257.359 578.719 257.014 579.562 256.838C580.405 256.661 581.281 256.656 582.126 256.824C583.465 257.061 584.727 257.57 585.817 258.313C586.908 259.056 587.799 260.013 588.424 261.112Z" fill="white" fill-opacity="0.2"/>
<path d="M624.787 240.543C625.467 241.519 625.91 242.615 626.086 243.758C626.262 244.901 626.167 246.065 625.807 247.172C624.355 251.428 618.981 252.696 615.474 249.593C614.501 248.758 613.722 247.755 613.181 246.643C612.64 245.532 612.349 244.334 612.324 243.119C612.247 240.124 613.831 237.835 616.42 237.045C619.009 236.255 622.09 237.232 624.001 239.487C624.272 239.85 624.542 240.212 624.787 240.543Z" fill="white" fill-opacity="0.2"/>
<path d="M62.3993 97.1792C60.5364 97.982 58.7544 99.0241 56.7965 99.5486C55.123 99.9363 53.5815 100.694 52.3101 101.754C51.0387 102.814 50.077 104.143 49.511 105.622C48.6115 107.924 46.8961 109.891 44.6328 111.215C43.3209 111.957 41.8238 112.386 40.2802 112.464C38.7365 112.542 37.1961 112.266 35.8015 111.661C34.4069 111.056 33.2031 110.142 32.3016 109.004C31.4001 107.865 30.83 106.539 30.644 105.148C30.3845 103.517 30.6773 101.822 30.6607 100.158C30.6305 98.3259 30.5396 96.4957 30.4626 94.6815C30.2897 93.0242 30.2409 91.3582 30.3166 89.6949C30.9462 84.2184 35.3039 80.7056 41.3912 80.6981C42.8489 80.6487 44.3064 80.7997 45.7141 81.1461C48.5129 81.8707 51.4263 82.1628 54.3322 82.0101C57.9496 81.9252 61.1125 82.8573 63.4014 85.6221C66.615 89.4708 66.2135 93.6353 62.3993 97.1792Z" fill="white" fill-opacity="0.2"/>
<path d="M25.4981 76.3799C26.2934 77.854 27.3568 79.2727 27.8391 80.8294C28.0781 81.6398 28.1103 82.4888 27.9333 83.3121C27.7563 84.1355 27.3748 84.9115 26.8177 85.5813C26.2606 86.2511 25.5425 86.7971 24.718 87.1779C23.8934 87.5588 22.984 87.7644 22.0587 87.7792C16.7421 87.983 11.4283 83.1811 11.733 78.3543C11.7575 77.0172 12.3468 75.7395 13.3797 74.7845C14.4125 73.8295 15.8101 73.27 17.2845 73.2212C20.0323 73.0422 22.9371 74.2501 25.4981 76.3799Z" fill="white" fill-opacity="0.2"/>
<path d="M36.6513 65.2491C39.0458 67.7855 40.2427 70.003 39.9739 72.7302C39.9171 73.6118 39.629 74.4684 39.1335 75.2289C38.638 75.9893 37.9495 76.6316 37.1251 77.1023C36.3007 77.5731 35.3642 77.8587 34.3936 77.9355C33.4229 78.0123 32.4461 77.878 31.5442 77.5439C27.6228 76.0705 25.0444 73.3792 24.4231 69.4968C23.6404 64.5847 28.1393 61.4619 33.2004 63.3577C34.4124 63.8907 35.5676 64.5239 36.6513 65.2491Z" fill="white" fill-opacity="0.2"/>
<path d="M23.9467 93.2413C27.1498 96.4252 27.174 99.8237 24.0076 102.258C23.3288 102.76 22.5411 103.126 21.6958 103.334C20.8505 103.541 19.9665 103.585 19.1012 103.463C17.1184 103.224 15.2699 102.423 13.8204 101.173C12.371 99.924 11.3949 98.2909 11.032 96.508C10.8666 95.7381 10.8923 94.9445 11.1072 94.1847C11.3221 93.4249 11.7207 92.718 12.2744 92.1151C12.828 91.5122 13.5226 91.0286 14.308 90.6992C15.0934 90.3698 15.9497 90.2029 16.8151 90.2106C18.1791 90.1951 19.5293 90.4597 20.7644 90.9845C21.9995 91.5094 23.0875 92.2809 23.9467 93.2413Z" fill="white" fill-opacity="0.2"/>
<path d="M54.9078 66.3694C55.7939 67.1985 56.4746 68.1893 56.9045 69.2758C57.3344 70.3623 57.5036 71.5194 57.4008 72.6699C56.9393 77.1052 51.9647 79.3414 47.8322 76.9544C46.6916 76.3166 45.7025 75.4793 44.9225 74.4914C44.1426 73.5036 43.5874 72.3848 43.2894 71.2005C42.5385 68.2826 43.5721 65.7481 45.9286 64.4951C48.2851 63.2421 51.521 63.6279 53.9007 65.4818C54.247 65.7865 54.5932 66.0912 54.9078 66.3694Z" fill="white" fill-opacity="0.2"/>
<path d="M783.523 55.4619C782.297 54.0456 780.841 52.7488 779.883 51.1929C779.128 49.8501 778.017 48.6979 776.65 47.8396C775.282 46.9812 773.702 46.4434 772.049 46.2743C769.474 45.9951 767.073 44.9505 765.222 43.3037C764.176 42.3436 763.415 41.1599 763.008 39.8622C762.601 38.5645 762.561 37.1946 762.893 35.8795C763.225 34.5643 763.918 33.3463 764.907 32.3381C765.896 31.33 767.15 30.5643 768.552 30.1118C770.188 29.546 772.006 29.4371 773.726 29.0712C775.619 28.6582 777.496 28.1939 779.36 27.7448C781.041 27.2472 782.757 26.8535 784.497 26.5663C790.305 25.9445 794.866 28.9119 796.161 34.0927C796.52 35.3232 796.672 36.596 796.61 37.8677C796.451 40.4036 796.764 42.9457 797.537 45.3872C798.39 48.449 798.092 51.3387 795.711 53.8718C792.402 57.4214 788.002 57.9599 783.523 55.4619Z" fill="white" fill-opacity="0.2"/>
<path d="M797.277 19.6476C795.918 20.6363 794.673 21.8415 793.161 22.5813C792.372 22.956 791.499 23.1629 790.609 23.1863C789.718 23.2096 788.833 23.0489 788.021 22.7162C787.209 22.3835 786.492 21.8876 785.923 21.2662C785.354 20.6447 784.949 19.9139 784.738 19.1293C783.403 14.6461 787.255 9.10717 792.322 8.34615C793.712 8.08432 795.161 8.31598 796.369 8.99339C797.577 9.67081 798.452 10.7424 798.814 11.9873C799.581 14.2887 798.943 17.017 797.277 19.6476Z" fill="white" fill-opacity="0.2"/>
<path d="M811.167 26.789C809.044 29.3637 807 30.8514 804.117 31.1991C803.191 31.3371 802.242 31.2729 801.35 31.0119C800.457 30.7508 799.646 30.3004 798.984 29.698C798.322 29.0957 797.828 28.3589 797.543 27.5488C797.258 26.7386 797.191 25.8786 797.346 25.0401C798.044 21.3902 800.288 18.6262 804.18 17.2765C809.105 15.5717 813.292 18.7417 812.397 23.4512C812.101 24.5957 811.689 25.713 811.167 26.789Z" fill="white" fill-opacity="0.3"/>
<path d="M779.475 21.8932C776.852 25.2932 773.336 26.0323 770.144 23.8513C769.48 23.3793 768.934 22.7862 768.54 22.1105C768.147 21.4347 767.914 20.6914 767.858 19.9289C767.686 18.1904 768.126 16.4472 769.114 14.9491C770.103 13.451 771.588 12.2748 773.359 11.589C774.122 11.2854 774.95 11.1395 775.783 11.1618C776.616 11.1841 777.432 11.3741 778.174 11.718C778.916 12.0618 779.564 12.551 780.071 13.15C780.579 13.7489 780.933 14.4427 781.108 15.181C781.412 16.339 781.423 17.5444 781.141 18.7069C780.858 19.8694 780.288 20.9587 779.475 21.8932Z" fill="white" fill-opacity="0.3"/>
<path d="M813.864 42.5688C813.192 43.4984 812.31 44.2874 811.275 44.8831C810.24 45.4787 809.076 45.8674 807.862 46.0231C803.169 46.5678 799.8 42.8054 801.4 38.7826C801.819 37.6767 802.478 36.6577 803.337 35.7848C804.196 34.912 805.238 34.2028 806.402 33.6988C809.267 32.4426 812.112 32.7868 813.908 34.5281C815.705 36.2694 815.989 39.1058 814.571 41.5237C814.329 41.8829 814.086 42.2421 813.864 42.5688Z" fill="white" fill-opacity="0.3"/>
<path d="M1144.39 404.554C1142.96 403.311 1141.32 402.214 1140.14 400.799C1139.18 399.568 1137.91 398.571 1136.43 397.896C1134.94 397.222 1133.3 396.891 1131.64 396.934C1129.05 396.985 1126.52 396.258 1124.44 394.866C1123.25 394.05 1122.32 392.977 1121.72 391.747C1121.11 390.517 1120.86 389.168 1120.99 387.827C1121.11 386.486 1121.61 385.195 1122.43 384.073C1123.25 382.952 1124.37 382.036 1125.69 381.411C1127.22 380.644 1129 380.306 1130.64 379.726C1132.44 379.078 1134.23 378.381 1136 377.701C1137.58 376.996 1139.22 376.389 1140.89 375.885C1146.53 374.533 1151.5 376.886 1153.58 381.839C1154.12 383.009 1154.47 384.248 1154.6 385.512C1154.84 388.037 1155.54 390.509 1156.68 392.823C1158 395.739 1158.15 398.632 1156.19 401.436C1153.47 405.363 1149.2 406.453 1144.39 404.554Z" fill="white" fill-opacity="0.2"/>
<path d="M1152.45 367.43C1151.26 368.579 1150.22 369.928 1148.84 370.851C1148.12 371.321 1147.29 371.636 1146.41 371.772C1145.53 371.909 1144.64 371.862 1143.78 371.637C1142.93 371.411 1142.14 371.012 1141.48 370.47C1140.83 369.929 1140.31 369.258 1139.98 368.51C1137.97 364.25 1140.92 358.289 1145.81 356.894C1147.14 356.459 1148.61 356.504 1149.91 357.02C1151.21 357.536 1152.24 358.484 1152.79 359.667C1153.9 361.844 1153.69 364.62 1152.45 367.43Z" fill="white" fill-opacity="0.2"/>
<path d="M1167.28 372.721C1165.58 375.534 1163.79 377.264 1160.99 377.973C1160.1 378.227 1159.15 378.284 1158.23 378.139C1157.31 377.995 1156.44 377.653 1155.69 377.142C1154.94 376.631 1154.34 375.965 1153.93 375.201C1153.53 374.437 1153.33 373.596 1153.35 372.748C1153.48 369.054 1155.27 366.038 1158.9 364.211C1163.51 361.902 1168.13 364.502 1167.98 369.268C1167.86 370.436 1167.63 371.592 1167.28 372.721Z" fill="white" fill-opacity="0.2"/>
<path d="M1135.21 371.908C1133.15 375.6 1129.79 376.776 1126.3 375.027C1125.57 374.645 1124.94 374.128 1124.44 373.51C1123.95 372.893 1123.61 372.188 1123.43 371.442C1123 369.746 1123.16 367.968 1123.91 366.363C1124.65 364.757 1125.94 363.407 1127.58 362.505C1128.29 362.108 1129.08 361.859 1129.91 361.775C1130.73 361.691 1131.57 361.775 1132.36 362.021C1133.14 362.266 1133.86 362.667 1134.45 363.195C1135.05 363.722 1135.5 364.363 1135.79 365.07C1136.27 366.175 1136.47 367.364 1136.37 368.549C1136.27 369.733 1135.87 370.881 1135.21 371.908Z" fill="white" fill-opacity="0.2"/>
<path d="M1172.38 387.968C1171.86 388.971 1171.11 389.863 1170.18 390.583C1169.25 391.303 1168.16 391.834 1166.99 392.142C1162.43 393.276 1158.52 389.987 1159.48 385.809C1159.73 384.664 1160.22 383.573 1160.93 382.602C1161.65 381.631 1162.57 380.798 1163.64 380.152C1166.27 378.548 1169.14 378.527 1171.18 380.019C1173.23 381.511 1173.95 384.277 1172.92 386.846C1172.73 387.231 1172.55 387.617 1172.38 387.968Z" fill="white" fill-opacity="0.2"/>
</svg>
