<svg width="18" height="18" viewBox="0 0 18 18" fill="none" xmlns="http://www.w3.org/2000/svg">
<path d="M8.99997 12.8219C11.0841 12.8219 12.7735 11.1325 12.7735 9.04837C12.7735 6.96427 11.0841 5.27478 8.99997 5.27478C6.91587 5.27478 5.22638 6.96427 5.22638 9.04837C5.22638 11.1325 6.91587 12.8219 8.99997 12.8219Z" stroke="#8E8E8E" stroke-width="1.5" stroke-linecap="round" stroke-linejoin="round"/>
<path d="M12.7497 8.74263C12.7497 8.74263 12.185 13.122 15.2103 12.5389C15.2103 12.5389 17.1811 12.2517 16.9865 9.04834C16.7191 4.63847 13.4079 1.04834 8.99344 1.04834C7.72006 1.04836 6.46511 1.35284 5.3331 1.93643C4.20108 2.52001 3.22475 3.36581 2.4854 4.4034C1.74605 5.44098 1.26509 6.64033 1.08255 7.90157C0.90002 9.1628 1.0212 10.4494 1.436 11.6543C1.8508 12.8592 2.54722 13.9475 3.46726 14.8285C4.38731 15.7096 5.50436 16.3579 6.7254 16.7195C7.94644 17.0811 9.23614 17.1456 10.4871 16.9075C11.738 16.6694 12.9141 16.1356 13.9172 15.3506" stroke="#8E8E8E" stroke-width="1.5" stroke-linecap="round" stroke-linejoin="round"/>
</svg>
