<svg width="70" height="65" viewBox="0 0 70 65" fill="none" xmlns="http://www.w3.org/2000/svg">
<path d="M44.0746 56.9567C42.0361 56.3978 39.8616 56.081 37.9803 55.24C36.4218 54.4728 34.6585 54.0846 32.8482 54.1101C31.0379 54.1355 29.237 54.5738 27.6067 55.3858C25.056 56.6371 22.1742 57.0981 19.4117 56.6967C17.8319 56.443 16.3701 55.8226 15.1614 54.8928C13.9527 53.9629 13.0363 52.7536 12.497 51.3769C11.9576 50.0002 11.8127 48.5005 12.0757 47.0165C12.3386 45.5326 13.001 44.1123 14.0014 42.8873C15.144 41.424 16.748 40.2654 18.097 38.9325C19.5742 37.4569 21.0044 35.9441 22.4319 34.4527C23.6599 33.0245 24.987 31.6692 26.4042 30.3959C31.3527 26.4481 37.4593 26.4562 41.9802 30.3613C43.1018 31.2585 44.0592 32.315 44.8199 33.4947C46.3026 35.8688 48.2244 37.9728 50.5046 39.7184C53.257 41.9751 54.8401 44.748 54.2752 48.4158C53.5093 53.5391 49.8036 56.5909 44.0746 56.9567Z" fill="white" fill-opacity="0.2"/>
<path d="M33.7271 16.7176C33.1106 18.4002 32.7385 20.2108 31.8223 21.7579C31.3364 22.5554 30.6654 23.2509 29.8604 23.7915C29.0554 24.3321 28.1375 24.7037 27.1762 24.878C26.2149 25.0524 25.2355 25.025 24.3123 24.7979C23.3891 24.5708 22.5463 24.1499 21.8479 23.5672C17.738 20.3133 17.7264 13.0831 21.9022 9.44282C23.0145 8.39591 24.4972 7.75918 26.0447 7.66382C27.5922 7.56846 29.0867 8.02174 30.2201 8.93026C32.4046 10.5534 33.5705 13.3796 33.7271 16.7176Z" fill="white" fill-opacity="0.2"/>
<path d="M51.1094 15.0378C50.8097 18.592 49.8829 21.1232 47.4518 23.1179C46.6882 23.7821 45.7735 24.2777 44.7837 24.5637C43.794 24.8497 42.7577 24.9177 41.7611 24.7622C40.7644 24.6066 39.8361 24.232 39.0534 23.6694C38.2706 23.1068 37.656 22.3725 37.2605 21.5274C35.5578 17.8371 35.8478 14.0417 38.564 10.557C42.0031 6.15043 47.8954 6.55913 50.0977 11.3175C50.5604 12.5198 50.8991 13.7652 51.1094 15.0378Z" fill="white" fill-opacity="0.2"/>
<path d="M18.7793 29.1233C18.5495 33.7115 15.7864 36.428 11.4457 36.3285C10.5318 36.2908 9.64778 36.076 8.851 35.6978C8.05422 35.3197 7.36253 34.7867 6.82086 34.1335C5.54576 32.6698 4.83065 30.8452 4.77796 28.921C4.72526 26.9969 5.33769 25.072 6.52752 23.4219C7.03488 22.7038 7.70336 22.0896 8.48449 21.6238C9.26562 21.158 10.1398 20.8523 11.0438 20.7289C11.9477 20.6055 12.8587 20.6674 13.7107 20.9102C14.5628 21.153 15.3345 21.5706 15.97 22.1327C16.9944 22.9967 17.7792 24.0745 18.2658 25.2852C18.7523 26.4959 18.9279 27.808 18.7793 29.1233Z" fill="white" fill-opacity="0.2"/>
<path d="M63.7313 27.658C63.7101 28.8861 63.4041 30.1109 62.8339 31.2506C62.2636 32.3903 61.4422 33.4186 60.4245 34.2669C56.4527 37.4951 50.9333 36.0762 49.8216 31.5241C49.4976 30.2843 49.4491 28.9835 49.6791 27.6973C49.909 26.4111 50.4127 25.1653 51.1609 24.0326C52.9917 21.2312 55.8323 19.8812 58.6054 20.3994C61.3786 20.9176 63.4628 23.3032 63.7107 26.3055C63.7182 26.7701 63.7257 27.2347 63.7313 27.658Z" fill="white" fill-opacity="0.2"/>
</svg>
