<svg width="58" height="58" viewBox="0 0 58 58" fill="none" xmlns="http://www.w3.org/2000/svg">
<path d="M43.3074 41.3512C41.8022 41.7459 40.2962 42.3458 38.7911 42.5016C37.5192 42.5856 36.2511 42.988 35.1005 43.6727C33.9499 44.3574 32.9525 45.3031 32.1977 46.4251C31.0099 48.1686 29.3281 49.5279 27.4152 50.2907C26.3128 50.7115 25.1551 50.8538 24.0492 50.7044C22.9433 50.5549 21.9251 50.1186 21.0886 49.4358C20.2522 48.753 19.6246 47.8458 19.2639 46.798C18.9032 45.7503 18.821 44.5959 19.0251 43.4418C19.2352 42.0825 19.8496 40.7481 20.2386 39.3961C20.6587 37.9054 21.0354 36.4082 21.4181 34.9258C21.6955 33.5575 22.0624 32.1992 22.5163 30.8603C24.2786 26.5042 28.1935 24.2547 32.4821 25.0872C33.5206 25.2478 34.5106 25.5711 35.4186 26.046C37.215 27.0194 39.1964 27.6577 41.2796 27.9341C43.8475 28.3635 45.8504 29.5554 46.7965 32.1136C48.1327 35.6785 46.847 39.0017 43.3074 41.3512Z" fill="white" fill-opacity="0.2"/>
<path d="M22.3305 19.3943C22.5356 20.6998 22.9428 21.9971 22.9076 23.3265C22.8807 24.0168 22.6989 24.71 22.3759 25.3536C22.053 25.9971 21.5975 26.5741 21.0438 27.0407C20.4902 27.5074 19.853 27.8514 19.1806 28.0468C18.5082 28.2421 17.8182 28.2837 17.163 28.1683C13.3699 27.6012 10.7842 22.9737 12.1612 19.0999C12.5005 18.0186 13.2233 17.0633 14.1806 16.4308C15.138 15.7983 16.257 15.5369 17.307 15.7005C19.2852 15.9337 21.0399 17.3138 22.3305 19.3943Z" fill="white" fill-opacity="0.2"/>
<path d="M32.8622 11.9013C33.9375 14.2888 34.2464 16.2526 33.4003 18.428C33.1479 19.1354 32.7387 19.7907 32.2067 20.3393C31.6746 20.888 31.035 21.3141 30.3411 21.5825C29.6471 21.8508 28.9189 21.9536 28.2168 21.8822C27.5147 21.8108 26.8591 21.5673 26.3045 21.1719C23.8978 19.4366 22.7301 16.8981 23.2276 13.6629C23.8594 9.57014 27.7798 7.65643 30.8874 9.89162C31.6126 10.491 32.2736 11.1637 32.8622 11.9013Z" fill="white" fill-opacity="0.2"/>
<path d="M17.178 32.86C18.6669 35.8841 17.8655 38.6445 15.0492 40.1835C14.4504 40.4968 13.8074 40.6855 13.1622 40.7375C12.5169 40.7894 11.8837 40.7033 11.3038 40.4849C9.96501 40.018 8.85627 39.1132 8.13639 37.9C7.41651 36.6868 7.12243 35.2276 7.29627 33.7312C7.36522 33.0838 7.57444 32.4436 7.90875 31.8568C8.24306 31.27 8.69409 30.7514 9.22916 30.3386C9.76422 29.9258 10.3699 29.6291 11.0023 29.47C11.6347 29.311 12.278 29.2935 12.8856 29.419C13.8499 29.5943 14.737 29.9949 15.4804 30.5909C16.2238 31.1868 16.8042 31.9626 17.178 32.86Z" fill="white" fill-opacity="0.2"/>
<path d="M45.4495 15.3249C45.8738 16.1195 46.1146 17.0171 46.1556 17.9577C46.1967 18.8984 46.0372 19.8604 45.6877 20.7796C44.2945 24.3141 40.2527 25.443 37.9173 22.9373C37.2677 22.2627 36.7727 21.4473 36.4614 20.5384C36.1501 19.6296 36.0285 18.6455 36.1039 17.6437C36.2778 15.1731 37.6161 13.2594 39.5774 12.5675C41.5387 11.8756 43.7246 12.6343 44.954 14.4661C45.1245 14.761 45.2949 15.0558 45.4495 15.3249Z" fill="white" fill-opacity="0.2"/>
</svg>
