<svg width="57" height="55" viewBox="0 0 57 55" fill="none" xmlns="http://www.w3.org/2000/svg">
<path d="M20.9653 45.1919C20.1335 43.8557 19.1096 42.582 18.5012 41.1725C18.0317 39.9667 17.2657 38.8625 16.2717 37.9589C15.2777 37.0552 14.0867 36.3802 12.8054 35.9941C10.8099 35.3799 9.02171 34.1693 7.72036 32.5516C6.98795 31.6134 6.49903 30.5361 6.29884 29.4194C6.09865 28.3027 6.19367 27.1826 6.57509 26.1628C6.95651 25.143 7.61201 24.2564 8.48094 23.5851C9.34987 22.9138 10.4042 22.4794 11.5462 22.3222C12.882 22.1079 14.3187 22.2926 15.7026 22.2536C17.2258 22.2022 18.7417 22.1068 20.2457 22.0217C21.6105 21.8696 22.9935 21.8074 24.3851 21.8353C29.0005 22.2027 32.3075 25.302 32.8473 29.7106C33.0163 30.7655 33.0183 31.8235 32.8533 32.8486C32.4952 34.8873 32.5073 37.0021 32.8892 39.1042C33.277 41.7227 32.7781 44.0285 30.6765 45.7309C27.7535 48.1205 24.2505 47.8971 20.9653 45.1919Z" fill="white" fill-opacity="0.2"/>
<path d="M35.0499 18.1294C33.8921 18.7292 32.8041 19.5223 31.5501 19.8968C30.8963 20.083 30.1921 20.12 29.491 20.0051C28.7899 19.8903 28.1103 19.6265 27.5038 19.2339C26.8972 18.8412 26.3796 18.33 25.9902 17.739C25.6008 17.1479 25.3499 16.4926 25.2564 15.8227C24.6207 11.9755 28.1534 8.04942 32.1993 8.19203C33.3148 8.18814 34.4304 8.59433 35.3161 9.32692C36.2018 10.0595 36.7903 11.0627 36.9601 12.1297C37.3501 14.1168 36.5989 16.2402 35.0499 18.1294Z" fill="white" fill-opacity="0.2"/>
<path d="M45.2956 26.0267C43.3935 27.8019 41.652 28.7046 39.3575 28.554C38.6184 28.5271 37.8798 28.3323 37.2032 27.9857C36.5266 27.6392 35.9314 27.1509 35.4672 26.5614C35.0029 25.972 34.683 25.2984 34.5339 24.5966C34.3849 23.8949 34.4111 23.1852 34.6103 22.5266C35.4934 19.6628 37.5084 17.7519 40.6867 17.2391C44.7083 16.5929 47.703 19.8007 46.568 23.4968C46.2304 24.3832 45.8045 25.2301 45.2956 26.0267Z" fill="white" fill-opacity="0.2"/>
<path d="M20.875 17.2811C18.5046 19.6523 15.6769 19.7248 13.372 17.471C12.8949 16.9874 12.5208 16.4229 12.2739 15.814C12.027 15.2052 11.9128 14.5656 11.9388 13.937C11.9639 12.4971 12.4693 11.1454 13.3825 10.0754C14.2958 9.00545 15.57 8.27213 17.0228 7.98049C17.6494 7.84827 18.3125 7.85404 18.964 7.99738C19.6155 8.14072 20.2391 8.41803 20.7896 8.80924C21.3401 9.20044 21.8038 9.69573 22.1469 10.2592C22.49 10.8227 22.7041 11.4402 22.7735 12.067C22.906 13.0547 22.804 14.0368 22.4752 14.9398C22.1464 15.8428 21.5994 16.6432 20.875 17.2811Z" fill="white" fill-opacity="0.2"/>
<path d="M45.964 39.2676C45.3514 39.9227 44.586 40.4318 43.7189 40.7607C42.8519 41.0896 41.9032 41.2308 40.9362 41.175C37.2026 40.9124 34.9045 37.3457 36.5299 34.3142C36.961 33.4778 37.5715 32.7479 38.3257 32.1671C39.0799 31.5863 39.9628 31.1661 40.9229 30.9311C43.2867 30.3401 45.4877 31.0477 46.7376 32.7342C47.9876 34.4206 47.95 36.7703 46.6148 38.5239C46.3915 38.7796 46.1681 39.0352 45.964 39.2676Z" fill="white" fill-opacity="0.2"/>
</svg>
