<svg width="80" height="69" viewBox="0 0 80 69" fill="none" xmlns="http://www.w3.org/2000/svg">
<path d="M20.3671 23.1108C22.3985 22.5254 24.4243 21.6612 26.4631 21.4002C28.1876 21.2443 29.8966 20.6562 31.4373 19.6886C32.9779 18.7211 34.3022 17.4042 35.2915 15.8557C36.849 13.4493 39.0895 11.5482 41.6627 10.4495C43.1463 9.84182 44.7138 9.61055 46.2202 9.77708C47.7266 9.94362 49.1231 10.5026 50.2806 11.4022C51.4381 12.3019 52.3191 13.5132 52.8422 14.924C53.3652 16.3348 53.5134 17.8996 53.273 19.4736C53.0308 21.3262 52.2389 23.1584 51.7537 25.0069C51.2306 27.0449 50.7666 29.0903 50.294 31.1159C49.9608 32.983 49.5058 34.8394 48.932 36.6724C46.6774 42.6454 41.4329 45.8286 35.583 44.8393C34.1678 44.6553 32.8132 44.2489 31.5652 43.6339C29.0949 42.3712 26.3842 41.5696 23.5467 41.2628C20.0461 40.7642 17.2886 39.2117 15.9227 35.769C13.9951 30.9723 15.6354 26.4176 20.3671 23.1108Z" fill="white" fill-opacity="0.2"/>
<path d="M49.5497 52.2358C49.2298 50.4699 48.6356 48.7217 48.6412 46.9154C48.6559 45.9772 48.8807 45.0299 49.2988 44.1454C49.7168 43.2609 50.3171 42.4625 51.054 41.8106C51.791 41.1588 52.6453 40.6707 53.5521 40.3833C54.4589 40.0959 55.3945 40.0168 56.2879 40.1519C61.4565 40.7972 65.1145 46.9957 63.3677 52.3011C62.9413 53.7806 61.9902 55.1016 60.7104 55.9919C59.4305 56.8821 57.9194 57.2739 56.4883 57.0864C53.7948 56.8347 51.3683 55.0185 49.5497 52.2358Z" fill="white" fill-opacity="0.2"/>
<path d="M35.4828 62.7574C33.9467 59.5508 33.4649 56.8944 34.5448 53.9126C34.865 52.9438 35.3998 52.0406 36.1049 51.2781C36.8099 50.5156 37.6649 49.9159 38.5986 49.5287C39.5324 49.1415 40.518 48.978 41.4736 49.0519C42.4292 49.1258 43.3271 49.4348 44.0929 49.9534C47.416 52.2307 49.0821 55.6392 48.5093 60.0486C47.7814 65.6268 42.5188 68.3543 38.2281 65.4214C37.2244 64.6314 36.3054 63.7396 35.4828 62.7574Z" fill="white" fill-opacity="0.2"/>
<path d="M56.1179 33.7811C54.0001 29.7236 55.0007 25.9491 58.7759 23.7668C59.5791 23.3216 60.4461 23.0442 61.3207 22.9524C62.1952 22.8607 63.0577 22.9567 63.8521 23.2343C65.6849 23.8242 67.2191 25.0164 68.2352 26.6401C69.2512 28.2637 69.6969 30.2356 69.5083 32.2731C69.4353 33.1544 69.1715 34.0307 68.7362 34.8385C68.3009 35.6463 67.7049 36.3653 66.9915 36.9435C66.278 37.5216 65.465 37.9444 64.6113 38.1812C63.7576 38.4179 62.8847 38.4628 62.0557 38.3124C60.7408 38.1061 59.5234 37.5912 58.4951 36.8064C57.4667 36.0217 56.654 34.9874 56.1179 33.7811Z" fill="white" fill-opacity="0.2"/>
<path d="M18.2798 58.5217C17.6783 57.4567 17.3229 56.2458 17.2373 54.9699C17.1516 53.694 17.3377 52.3824 17.783 51.1228C19.5626 46.2775 25.015 44.6117 28.2657 47.9373C29.1693 48.8319 29.8672 49.923 30.3188 51.1468C30.7705 52.3707 30.9668 53.7029 30.8962 55.0658C30.7385 58.4262 28.9821 61.0687 26.3408 62.0728C23.6996 63.0768 20.7074 62.1185 18.9798 59.6715C18.739 59.2768 18.4982 58.882 18.2798 58.5217Z" fill="white" fill-opacity="0.2"/>
</svg>
