<svg width="41" height="40" viewBox="0 0 41 40" fill="none" xmlns="http://www.w3.org/2000/svg">
<g id="Group 408">
<path id="Vector" d="M29.5457 30.0809C28.4567 30.2063 27.35 30.4734 26.2811 30.4339C25.3819 30.3676 24.4586 30.5215 23.594 30.8819C22.7294 31.2423 21.9504 31.7979 21.3267 32.499C20.347 33.5868 19.0532 34.3612 17.6474 34.701C16.8387 34.8838 16.0147 34.8689 15.2515 34.6577C14.4884 34.4464 13.8107 34.0455 13.2814 33.4923C12.752 32.939 12.3879 32.2511 12.2229 31.4923C12.0579 30.7335 12.0973 29.9283 12.3373 29.1512C12.5989 28.2331 13.142 27.3716 13.5283 26.476C13.9482 25.4876 14.3382 24.4905 14.7312 23.5042C15.0407 22.5864 15.4121 21.6842 15.8429 20.804C17.4449 17.968 20.3799 16.7972 23.3183 17.7913C24.0332 18.0037 24.7005 18.3237 25.2975 18.7404C26.4759 19.5882 27.8121 20.2227 29.2502 20.6172C31.0154 21.1647 32.3202 22.1835 32.7689 24.0427C33.4069 26.6351 32.2259 28.8043 29.5457 30.0809Z" fill="white" fill-opacity="0.1"/>
<path id="Vector_2" d="M16.6776 12.8671C16.7117 13.7886 16.8884 14.7244 16.7521 15.6389C16.6752 16.113 16.4895 16.574 16.2089 16.9868C15.9283 17.3997 15.5603 17.7536 15.1328 18.0217C14.7052 18.2899 14.2294 18.4652 13.7413 18.5344C13.2533 18.6036 12.7658 18.5648 12.3159 18.4211C9.70283 17.6587 8.27778 14.2104 9.56904 11.6698C9.89783 10.9562 10.4851 10.3672 11.2097 10.024C11.9343 9.68078 12.7412 9.60963 13.4641 9.82519C14.8321 10.1796 15.947 11.3042 16.6776 12.8671Z" fill="white" fill-opacity="0.1"/>
<path id="Vector_3" d="M24.6975 8.72069C25.2513 10.4746 25.303 11.8609 24.5268 13.2805C24.2904 13.7443 23.9483 14.1568 23.529 14.4837C23.1097 14.8106 22.6253 15.0424 22.116 15.1599C21.6067 15.2773 21.0872 15.2771 20.6008 15.1592C20.1143 15.0413 19.6749 14.809 19.319 14.4818C17.7766 13.0482 17.1708 11.181 17.7914 8.99547C18.5783 6.23089 21.489 5.29251 23.4811 7.13981C23.9394 7.62458 24.3466 8.15378 24.6975 8.72069Z" fill="white" fill-opacity="0.1"/>
<path id="Vector_4" d="M11.9318 21.6602C12.7222 23.8941 11.9282 25.722 9.82353 26.5095C9.37715 26.6674 8.9103 26.7349 8.45331 26.7077C7.99633 26.6805 7.55942 26.5592 7.17099 26.3516C6.27111 25.8983 5.56938 25.1651 5.16631 24.257C4.76325 23.3488 4.67952 22.3123 4.92713 21.296C5.02987 20.8557 5.2304 20.4339 5.51419 20.0614C5.79798 19.6888 6.15791 19.3748 6.5679 19.142C6.97789 18.9092 7.42766 18.7636 7.88462 18.7155C8.34159 18.6675 8.79429 18.7183 9.20991 18.8644C9.8716 19.0797 10.4602 19.4431 10.9316 19.9273C11.403 20.4115 11.745 21.0039 11.9318 21.6602Z" fill="white" fill-opacity="0.1"/>
<path id="Vector_5" d="M33.2395 12.3167C33.4704 12.9069 33.5639 13.5503 33.5137 14.2039C33.4635 14.8575 33.2708 15.5062 32.9485 16.1068C31.6744 18.4115 28.7444 18.796 27.3167 16.8374C26.9177 16.3081 26.639 15.6966 26.497 15.0385C26.3549 14.3804 26.3523 13.689 26.4893 13.0045C26.8188 11.3154 27.9183 10.1247 29.3521 9.83854C30.786 9.55242 32.2556 10.29 32.9641 11.6752C33.0589 11.8955 33.1537 12.1157 33.2395 12.3167Z" fill="white" fill-opacity="0.1"/>
</g>
</svg>
