<svg width="208" height="70" viewBox="0 0 208 70" fill="none" xmlns="http://www.w3.org/2000/svg">
<g id="Group 313">
<rect id="Rectangle 9995" width="207.905" height="69.3016" rx="10.3952" fill="black"/>
<g id="Vector">
<path d="M32.5783 30.8075L15.7463 49.0758C15.7479 49.079 15.7479 49.0839 15.7494 49.0871C16.2664 51.0708 18.037 52.5306 20.1396 52.5306C20.9807 52.5306 21.7696 52.2978 22.4462 51.8904L22.4999 51.8581L41.4456 40.6789L32.5783 30.8075Z" fill="#EA4335"/>
<path d="M49.6062 27.6967L49.5903 27.6854L41.4107 22.837L32.1955 31.2227L41.4439 40.6769L49.5793 35.8771C51.0053 35.0881 51.9744 33.5507 51.9744 31.7788C51.9744 30.0166 51.0195 28.4873 49.6062 27.6967Z" fill="#FBBC04"/>
<path d="M15.746 14.4032C15.6448 14.7847 15.591 15.1856 15.591 15.5995V47.8811C15.591 48.295 15.6435 48.6959 15.7463 49.0758L33.1566 31.2747L15.746 14.4032Z" fill="#4285F4"/>
<path d="M32.7026 31.74L41.4134 22.8338L22.4899 11.6141C21.8022 11.1922 20.9991 10.9497 20.1406 10.9497C18.038 10.9497 16.2642 12.4128 15.7473 14.398C15.7473 14.3996 15.746 14.4016 15.746 14.4032L32.7026 31.74Z" fill="#34A853"/>
<path d="M77.2868 17.3774C77.2868 19.1099 76.7728 20.4902 75.7448 21.5182C74.5898 22.7425 73.0709 23.3547 71.1882 23.3547C69.3864 23.3547 67.8618 22.7309 66.6143 21.4835C65.3669 20.2361 64.7432 18.6999 64.7432 16.875C64.7432 15.05 65.3669 13.5138 66.6143 12.2664C67.8618 11.019 69.3864 10.3953 71.1882 10.3953C72.1007 10.3953 72.9612 10.557 73.7697 10.8804C74.5782 11.2038 75.2424 11.66 75.7621 12.2491L74.6187 13.3926C74.2375 12.9305 73.7408 12.5725 73.1287 12.3184C72.5281 12.0527 71.8812 11.9199 71.1882 11.9199C69.8368 11.9199 68.6934 12.3877 67.7578 13.3233C66.8338 14.2704 66.3718 15.4543 66.3718 16.875C66.3718 18.2956 66.8338 19.4795 67.7578 20.4267C68.6934 21.3622 69.8368 21.83 71.1882 21.83C72.4241 21.83 73.4521 21.4835 74.2722 20.7905C75.0922 20.0975 75.5658 19.1446 75.6928 17.9318H71.1882V16.4418H77.2001C77.2579 16.7652 77.2868 17.0771 77.2868 17.3774Z" fill="white"/>
<path d="M86.4654 10.6725V12.1971H80.8174V16.13H85.911V17.62H80.8174V21.5528H86.4654V23.0775H79.2234V10.6725H86.4654Z" fill="white"/>
<path d="M92.841 12.1971V23.0775H91.2471V12.1971H87.782V10.6725H96.3061V12.1971H92.841Z" fill="white"/>
<path d="M103.371 23.0775H101.777V10.6725H103.371V23.0775Z" fill="white"/>
<path d="M110.099 12.1971V23.0775H108.505V12.1971H105.04V10.6725H113.564V12.1971H110.099Z" fill="white"/>
<path d="M130.841 16.875C130.841 18.7115 130.229 20.2476 129.005 21.4835C127.769 22.7309 126.256 23.3547 124.466 23.3547C122.664 23.3547 121.151 22.7309 119.926 21.4835C118.702 20.2476 118.09 18.7115 118.09 16.875C118.09 15.0385 118.702 13.5023 119.926 12.2664C121.151 11.019 122.664 10.3953 124.466 10.3953C126.267 10.3953 127.781 11.0248 129.005 12.2837C130.229 13.5196 130.841 15.05 130.841 16.875ZM119.718 16.875C119.718 18.3072 120.169 19.4911 121.07 20.4267C121.982 21.3622 123.114 21.83 124.466 21.83C125.817 21.83 126.943 21.3622 127.844 20.4267C128.757 19.5026 129.213 18.3187 129.213 16.875C129.213 15.4312 128.757 14.2473 127.844 13.3233C126.943 12.3877 125.817 11.9199 124.466 11.9199C123.114 11.9199 121.982 12.3877 121.07 13.3233C120.169 14.2588 119.718 15.4427 119.718 16.875Z" fill="white"/>
<path d="M134.316 23.0775H132.722V10.6725H134.663L140.692 20.3227H140.761L140.692 17.9318V10.6725H142.286V23.0775H140.623L134.316 12.9594H134.247L134.316 15.3503V23.0775Z" fill="white"/>
<path d="M163.755 51.5078H166.577V32.43H163.755V51.5078ZM189.172 39.302L185.937 47.5735H185.84L182.483 39.302H179.443L184.478 50.8623L181.609 57.2933H184.55L192.31 39.302H189.172ZM173.169 49.3408C172.243 49.3408 170.955 48.8753 170.955 47.72C170.955 46.2489 172.559 45.6842 173.946 45.6842C175.186 45.6842 175.771 45.9543 176.525 46.3221C176.305 48.0894 174.798 49.3408 173.169 49.3408ZM173.509 38.8854C171.466 38.8854 169.349 39.7934 168.475 41.8064L170.979 42.8609C171.514 41.8064 172.511 41.4615 173.557 41.4615C175.017 41.4615 176.5 42.3451 176.525 43.917V44.1123C176.013 43.8178 174.92 43.3767 173.582 43.3767C170.882 43.3767 168.133 44.8738 168.133 47.6712C168.133 50.2244 170.347 51.8695 172.827 51.8695C174.725 51.8695 175.771 51.0103 176.428 50.0031H176.525V51.4758H179.248V44.1611C179.248 40.7747 176.744 38.8854 173.509 38.8854ZM156.069 41.6248H152.055V35.0854H156.069C158.179 35.0854 159.376 36.848 159.376 38.3543C159.376 39.8331 158.179 41.6248 156.069 41.6248ZM155.996 32.43H149.235V51.5078H152.055V44.2802H155.996C159.124 44.2802 162.198 41.9941 162.198 38.3543C162.198 34.7145 159.124 32.43 155.996 32.43ZM119.125 49.3438C117.175 49.3438 115.544 47.6971 115.544 45.4354C115.544 43.1493 117.175 41.4767 119.125 41.4767C121.05 41.4767 122.559 43.1493 122.559 45.4354C122.559 47.6971 121.05 49.3438 119.125 49.3438ZM122.366 40.3703H122.267C121.634 39.6088 120.416 38.9205 118.881 38.9205C115.664 38.9205 112.717 41.7713 112.717 45.4354C112.717 49.0737 115.664 51.9016 118.881 51.9016C120.416 51.9016 121.634 51.2133 122.267 50.4258H122.366V51.3613C122.366 53.8443 121.05 55.172 118.93 55.172C117.199 55.172 116.127 53.9176 115.689 52.86L113.228 53.8931C113.934 55.6146 115.811 57.7282 118.93 57.7282C122.243 57.7282 125.045 55.7611 125.045 50.9676V39.3127H122.366V40.3703ZM126.995 51.5078H129.821V32.4284H126.995V51.5078ZM133.986 45.2142C133.914 42.7068 135.911 41.4279 137.348 41.4279C138.47 41.4279 139.42 41.9925 139.736 42.8044L133.986 45.2142ZM142.758 43.0501C142.222 41.6003 140.589 38.9205 137.251 38.9205C133.938 38.9205 131.185 41.55 131.185 45.411C131.185 49.0493 133.914 51.9016 137.567 51.9016C140.516 51.9016 142.222 50.0824 142.928 49.0249L140.736 47.5491C140.005 48.6311 139.006 49.3438 137.567 49.3438C136.131 49.3438 135.107 48.68 134.449 47.3782L143.049 43.7873L142.758 43.0501ZM74.2377 40.9121V43.6652H80.7663C80.5713 45.2142 80.0601 46.345 79.2812 47.131C78.33 48.0909 76.8434 49.1485 74.2377 49.1485C70.2164 49.1485 67.0738 45.878 67.0738 41.8216C67.0738 37.7637 70.2164 34.4948 74.2377 34.4948C76.4063 34.4948 77.9897 35.3555 79.1587 36.4619L81.0839 34.5192C79.4506 32.9458 77.2835 31.7402 74.2377 31.7402C68.7313 31.7402 64.1021 36.2651 64.1021 41.8216C64.1021 47.3782 68.7313 51.9016 74.2377 51.9016C77.2094 51.9016 79.4506 50.9172 81.2049 49.0737C83.0091 47.2546 83.5687 44.6983 83.5687 42.632C83.5687 41.9925 83.5203 41.4035 83.422 40.9121H74.2377ZM90.9926 49.3438C89.0432 49.3438 87.3615 47.7216 87.3615 45.411C87.3615 43.0746 89.0432 41.4767 90.9926 41.4767C92.9405 41.4767 94.6222 43.0746 94.6222 45.411C94.6222 47.7216 92.9405 49.3438 90.9926 49.3438ZM90.9926 38.9205C87.4341 38.9205 84.535 41.6492 84.535 45.411C84.535 49.1485 87.4341 51.9016 90.9926 51.9016C94.5496 51.9016 97.4487 49.1485 97.4487 45.411C97.4487 41.6492 94.5496 38.9205 90.9926 38.9205ZM105.077 49.3438C103.127 49.3438 101.446 47.7216 101.446 45.411C101.446 43.0746 103.127 41.4767 105.077 41.4767C107.026 41.4767 108.706 43.0746 108.706 45.411C108.706 47.7216 107.026 49.3438 105.077 49.3438ZM105.077 38.9205C101.52 38.9205 98.6207 41.6492 98.6207 45.411C98.6207 49.1485 101.52 51.9016 105.077 51.9016C108.634 51.9016 111.533 49.1485 111.533 45.411C111.533 41.6492 108.634 38.9205 105.077 38.9205Z" fill="white"/>
</g>
</g>
</svg>
