<svg width="208" height="70" viewBox="0 0 208 70" fill="none" xmlns="http://www.w3.org/2000/svg">
<g id="Group 313">
<rect id="Rectangle 9995" y="0.304932" width="207.905" height="69.3016" rx="10.3952" fill="white"/>
<g id="Vector">
<path d="M32.5783 31.1124L15.7463 49.3807C15.7479 49.384 15.7479 49.3888 15.7494 49.3921C16.2664 51.3757 18.037 52.8356 20.1396 52.8356C20.9807 52.8356 21.7696 52.6028 22.4462 52.1954L22.4999 52.163L41.4456 40.9838L32.5783 31.1124Z" fill="#EA4335"/>
<path d="M49.6062 28.0017L49.5903 27.9903L41.4107 23.142L32.1955 31.5276L41.4439 40.9819L49.5793 36.182C51.0053 35.3931 51.9744 33.8556 51.9744 32.0837C51.9744 30.3216 51.0195 28.7922 49.6062 28.0017Z" fill="#FBBC04"/>
<path d="M15.746 14.7081C15.6448 15.0896 15.591 15.4906 15.591 15.9044V48.186C15.591 48.5999 15.6435 49.0008 15.7463 49.3807L33.1566 31.5796L15.746 14.7081Z" fill="#4285F4"/>
<path d="M32.7026 32.0449L41.4134 23.1387L22.4899 11.9191C21.8022 11.4971 20.9991 11.2546 20.1406 11.2546C18.038 11.2546 16.2642 12.7177 15.7473 14.703C15.7473 14.7046 15.746 14.7065 15.746 14.7081L32.7026 32.0449Z" fill="#34A853"/>
<path d="M77.2868 17.6823C77.2868 19.4149 76.7728 20.7951 75.7448 21.8231C74.5898 23.0474 73.0709 23.6596 71.1882 23.6596C69.3864 23.6596 67.8618 23.0359 66.6143 21.7885C65.3669 20.541 64.7432 19.0048 64.7432 17.1799C64.7432 15.355 65.3669 13.8188 66.6143 12.5713C67.8618 11.3239 69.3864 10.7002 71.1882 10.7002C72.1007 10.7002 72.9612 10.8619 73.7697 11.1853C74.5782 11.5087 75.2424 11.9649 75.7621 12.554L74.6187 13.6975C74.2375 13.2355 73.7408 12.8774 73.1287 12.6233C72.5281 12.3577 71.8812 12.2248 71.1882 12.2248C69.8368 12.2248 68.6934 12.6926 67.7578 13.6282C66.8338 14.5753 66.3718 15.7592 66.3718 17.1799C66.3718 18.6006 66.8338 19.7845 67.7578 20.7316C68.6934 21.6672 69.8368 22.135 71.1882 22.135C72.4241 22.135 73.4521 21.7885 74.2722 21.0954C75.0922 20.4024 75.5658 19.4495 75.6928 18.2367H71.1882V16.7468H77.2001C77.2579 17.0702 77.2868 17.382 77.2868 17.6823Z" fill="black"/>
<path d="M86.4654 10.9774V12.502H80.8174V16.4349H85.911V17.9249H80.8174V21.8578H86.4654V23.3824H79.2234V10.9774H86.4654Z" fill="black"/>
<path d="M92.841 12.502V23.3824H91.2471V12.502H87.782V10.9774H96.3061V12.502H92.841Z" fill="black"/>
<path d="M103.371 23.3824H101.777V10.9774H103.371V23.3824Z" fill="black"/>
<path d="M110.099 12.502V23.3824H108.505V12.502H105.04V10.9774H113.564V12.502H110.099Z" fill="black"/>
<path d="M130.841 17.1799C130.841 19.0164 130.229 20.5526 129.005 21.7885C127.769 23.0359 126.256 23.6596 124.466 23.6596C122.664 23.6596 121.151 23.0359 119.926 21.7885C118.702 20.5526 118.09 19.0164 118.09 17.1799C118.09 15.3434 118.702 13.8072 119.926 12.5713C121.151 11.3239 122.664 10.7002 124.466 10.7002C126.267 10.7002 127.781 11.3297 129.005 12.5887C130.229 13.8245 130.841 15.355 130.841 17.1799ZM119.718 17.1799C119.718 18.6121 120.169 19.796 121.07 20.7316C121.982 21.6672 123.114 22.135 124.466 22.135C125.817 22.135 126.943 21.6672 127.844 20.7316C128.757 19.8076 129.213 18.6237 129.213 17.1799C129.213 15.7361 128.757 14.5522 127.844 13.6282C126.943 12.6926 125.817 12.2248 124.466 12.2248C123.114 12.2248 121.982 12.6926 121.07 13.6282C120.169 14.5638 119.718 15.7477 119.718 17.1799Z" fill="black"/>
<path d="M134.316 23.3824H132.722V10.9774H134.663L140.692 20.6276H140.761L140.692 18.2367V10.9774H142.286V23.3824H140.623L134.316 13.2644H134.247L134.316 15.6553V23.3824Z" fill="black"/>
<path d="M163.755 51.8128H166.577V32.7349H163.755V51.8128ZM189.172 39.607L185.937 47.8785H185.84L182.483 39.607H179.443L184.478 51.1672L181.609 57.5982H184.55L192.31 39.607H189.172ZM173.169 49.6457C172.243 49.6457 170.955 49.1802 170.955 48.025C170.955 46.5538 172.559 45.9891 173.946 45.9891C175.186 45.9891 175.771 46.2593 176.525 46.627C176.305 48.3943 174.798 49.6457 173.169 49.6457ZM173.509 39.1903C171.466 39.1903 169.349 40.0984 168.475 42.1113L170.979 43.1658C171.514 42.1113 172.511 41.7664 173.557 41.7664C175.017 41.7664 176.5 42.65 176.525 44.2219V44.4172C176.013 44.1227 174.92 43.6817 173.582 43.6817C170.882 43.6817 168.133 45.1788 168.133 47.9761C168.133 50.5293 170.347 52.1745 172.827 52.1745C174.725 52.1745 175.771 51.3153 176.428 50.308H176.525V51.7807H179.248V44.4661C179.248 41.0796 176.744 39.1903 173.509 39.1903ZM156.069 41.9297H152.055V35.3903H156.069C158.179 35.3903 159.376 37.153 159.376 38.6592C159.376 40.138 158.179 41.9297 156.069 41.9297ZM155.996 32.7349H149.235V51.8128H152.055V44.5851H155.996C159.124 44.5851 162.198 42.299 162.198 38.6592C162.198 35.0195 159.124 32.7349 155.996 32.7349ZM119.125 49.6487C117.175 49.6487 115.544 48.0021 115.544 45.7404C115.544 43.4543 117.175 41.7817 119.125 41.7817C121.05 41.7817 122.559 43.4543 122.559 45.7404C122.559 48.0021 121.05 49.6487 119.125 49.6487ZM122.366 40.6752H122.267C121.634 39.9137 120.416 39.2254 118.881 39.2254C115.664 39.2254 112.717 42.0762 112.717 45.7404C112.717 49.3786 115.664 52.2065 118.881 52.2065C120.416 52.2065 121.634 51.5182 122.267 50.7308H122.366V51.6663C122.366 54.1492 121.05 55.477 118.93 55.477C117.199 55.477 116.127 54.2225 115.689 53.1649L113.228 54.1981C113.934 55.9195 115.811 58.0332 118.93 58.0332C122.243 58.0332 125.045 56.066 125.045 51.2725V39.6176H122.366V40.6752ZM126.995 51.8128H129.821V32.7334H126.995V51.8128ZM133.986 45.5191C133.914 43.0117 135.911 41.7328 137.348 41.7328C138.47 41.7328 139.42 42.2975 139.736 43.1094L133.986 45.5191ZM142.758 43.3551C142.222 41.9053 140.589 39.2254 137.251 39.2254C133.938 39.2254 131.185 41.8549 131.185 45.716C131.185 49.3542 133.914 52.2065 137.567 52.2065C140.516 52.2065 142.222 50.3874 142.928 49.3298L140.736 47.854C140.005 48.9361 139.006 49.6487 137.567 49.6487C136.131 49.6487 135.107 48.9849 134.449 47.6831L143.049 44.0922L142.758 43.3551ZM74.2377 41.217V43.9701H80.7663C80.5713 45.5191 80.0601 46.6499 79.2812 47.4359C78.33 48.3958 76.8434 49.4534 74.2377 49.4534C70.2164 49.4534 67.0738 46.183 67.0738 42.1266C67.0738 38.0686 70.2164 34.7997 74.2377 34.7997C76.4063 34.7997 77.9897 35.6604 79.1587 36.7669L81.0839 34.8241C79.4506 33.2507 77.2835 32.0451 74.2377 32.0451C68.7313 32.0451 64.1021 36.57 64.1021 42.1266C64.1021 47.6831 68.7313 52.2065 74.2377 52.2065C77.2094 52.2065 79.4506 51.2222 81.2049 49.3786C83.0091 47.5595 83.5687 45.0033 83.5687 42.9369C83.5687 42.2975 83.5203 41.7084 83.422 41.217H74.2377ZM90.9926 49.6487C89.0432 49.6487 87.3615 48.0265 87.3615 45.716C87.3615 43.3795 89.0432 41.7817 90.9926 41.7817C92.9405 41.7817 94.6222 43.3795 94.6222 45.716C94.6222 48.0265 92.9405 49.6487 90.9926 49.6487ZM90.9926 39.2254C87.4341 39.2254 84.535 41.9541 84.535 45.716C84.535 49.4534 87.4341 52.2065 90.9926 52.2065C94.5496 52.2065 97.4487 49.4534 97.4487 45.716C97.4487 41.9541 94.5496 39.2254 90.9926 39.2254ZM105.077 49.6487C103.127 49.6487 101.446 48.0265 101.446 45.716C101.446 43.3795 103.127 41.7817 105.077 41.7817C107.026 41.7817 108.706 43.3795 108.706 45.716C108.706 48.0265 107.026 49.6487 105.077 49.6487ZM105.077 39.2254C101.52 39.2254 98.6207 41.9541 98.6207 45.716C98.6207 49.4534 101.52 52.2065 105.077 52.2065C108.634 52.2065 111.533 49.4534 111.533 45.716C111.533 41.9541 108.634 39.2254 105.077 39.2254Z" fill="black"/>
</g>
</g>
</svg>
