<svg width="30" height="29" viewBox="0 0 30 29" fill="none" xmlns="http://www.w3.org/2000/svg">
<path id="Icon" d="M6.9 25.417H10.4239C10.8833 25.417 11.34 25.4717 11.7854 25.581L15.5088 26.4858C16.3167 26.6826 17.1584 26.7018 17.9747 26.5432L22.0915 25.7423C23.179 25.5304 24.1794 25.0097 24.9635 24.247L27.8762 21.4136C28.7079 20.6059 28.7079 19.2951 27.8762 18.486C27.1273 17.7575 25.9414 17.6755 25.0941 18.2932L21.6995 20.7699C21.2134 21.1252 20.6218 21.3166 20.0134 21.3166H16.7354L18.8219 21.3165C19.998 21.3165 20.9506 20.3898 20.9506 19.2458V18.8317C20.9506 17.8817 20.286 17.0535 19.339 16.8238L16.1186 16.0407C15.5945 15.9136 15.0578 15.8493 14.5182 15.8493C13.2157 15.8493 10.8581 16.9277 10.8581 16.9277L6.9 18.5829M1.5 18.0093L1.5 25.8393C1.5 26.5954 1.5 26.9734 1.64714 27.2622C1.77657 27.5162 1.98309 27.7228 2.23711 27.8522C2.52589 27.9993 2.90393 27.9993 3.66 27.9993H4.74C5.49607 27.9993 5.87411 27.9993 6.16289 27.8522C6.41691 27.7228 6.62343 27.5162 6.75286 27.2622C6.9 26.9734 6.9 26.5954 6.9 25.8393V18.0093C6.9 17.2533 6.9 16.8752 6.75286 16.5864C6.62343 16.3324 6.41691 16.1259 6.16289 15.9965C5.87411 15.8493 5.49607 15.8493 4.74 15.8493H3.66C2.90393 15.8493 2.52589 15.8493 2.23711 15.9965C1.98309 16.1259 1.77657 16.3324 1.64714 16.5864C1.5 16.8752 1.5 17.2533 1.5 18.0093ZM22.0084 3.14887C21.2026 1.46291 19.3451 0.569734 17.5386 1.43183C15.7321 2.29392 14.9625 4.33839 15.7188 6.13314C16.1863 7.24234 17.5255 9.39633 18.4804 10.88C18.8333 11.4282 19.0097 11.7023 19.2673 11.8627C19.4884 12.0002 19.765 12.0744 20.0252 12.0658C20.3286 12.0557 20.6184 11.9065 21.1981 11.6082C22.7669 10.8007 25.0037 9.60497 25.9631 8.87809C27.5155 7.70196 27.9 5.54015 26.7378 3.89675C25.5756 2.25335 23.5491 2.09164 22.0084 3.14887Z" stroke="white" stroke-width="1.5" stroke-linecap="round" stroke-linejoin="round"/>
</svg>
