<svg width="239" height="239" viewBox="0 0 239 239" fill="none" xmlns="http://www.w3.org/2000/svg">
<path d="M191.075 163.072C184.916 164.945 178.911 167.594 172.572 168.564C167.179 169.204 162.044 171.046 157.628 173.925C153.212 176.804 149.652 180.63 147.267 185.061C143.497 191.95 137.316 197.513 129.688 200.88C125.278 202.75 120.419 203.581 115.561 203.297C110.702 203.013 106.001 201.623 101.893 199.255C97.7846 196.887 94.4015 193.618 92.0568 189.751C89.7121 185.883 88.4815 181.542 88.4789 177.129C88.3464 171.94 89.9673 166.742 90.6075 161.535C91.2759 155.796 91.7533 150.043 92.2675 144.345C92.4166 139.104 92.9574 133.879 93.8861 128.705C98.1334 111.798 113.219 102.306 132.254 104.364C136.831 104.707 141.325 105.678 145.582 107.242C154.031 110.464 163.018 112.374 172.166 112.89C183.511 113.861 193.011 117.856 199.017 127.283C207.462 140.414 204.474 153.297 191.075 163.072Z" fill="#6D73E6" fill-opacity="0.1"/>
<path d="M84.3663 85.4301C86.2393 90.3108 88.9736 95.1096 89.8338 100.141C90.2436 102.757 89.9909 105.422 89.095 107.936C88.199 110.449 86.6834 112.745 84.6629 114.648C82.6425 116.552 80.1703 118.014 77.4339 118.922C74.6975 119.831 71.7687 120.163 68.8697 119.893C52.1633 118.712 37.5486 101.883 40.5097 86.8968C41.1427 82.7249 43.517 78.9319 47.1434 76.2993C50.7699 73.6668 55.3722 72.3953 60.0021 72.7468C68.6671 73.1265 77.2459 77.8961 84.3663 85.4301Z" fill="#6D73E6" fill-opacity="0.1"/>
<path d="M123.863 54.4427C130.293 63.1912 133.113 70.533 131.137 78.9674C130.593 81.7043 129.336 84.284 127.47 86.4919C125.605 88.6999 123.185 90.4725 120.411 91.6624C117.638 92.8523 114.592 93.4252 111.525 93.3335C108.458 93.2417 105.46 92.488 102.779 91.1349C91.1329 85.1881 84.1918 75.8924 83.8648 63.5421C83.462 47.9175 98.827 39.6922 113.861 47.3498C117.428 49.4305 120.776 51.8048 123.863 54.4427Z" fill="#6D73E6" fill-opacity="0.1"/>
<path d="M72.5076 137.612C81.1967 148.661 79.8582 159.294 68.9457 165.824C66.6146 167.159 63.9996 168.036 61.2705 168.396C58.5413 168.755 55.7592 168.591 53.1048 167.913C47.0054 166.488 41.5598 163.35 37.5481 158.949C33.5364 154.547 31.1643 149.108 30.7718 143.41C30.5751 140.946 30.9857 138.474 31.9736 136.172C32.9616 133.87 34.5022 131.796 36.4839 130.101C38.4656 128.405 40.8387 127.131 43.4311 126.369C46.0235 125.608 48.7704 125.379 51.4725 125.699C55.7434 126.117 59.8545 127.405 63.4976 129.469C67.1406 131.532 70.2209 134.316 72.5076 137.612Z" fill="#6D73E6" fill-opacity="0.1"/>
<path d="M180.477 64.1873C182.902 67.0821 184.618 70.4126 185.51 73.9564C186.402 77.5002 186.449 81.1757 185.649 84.7374C182.361 98.446 165.878 103.737 153.951 94.861C150.65 92.477 147.907 89.5212 145.879 86.1661C143.852 82.811 142.582 79.1236 142.143 75.3189C141.01 65.9397 145.296 58.3695 153.185 55.2577C161.073 52.1459 171.029 54.4582 177.698 61.068C178.654 62.1389 179.609 63.2098 180.477 64.1873Z" fill="#6D73E6" fill-opacity="0.1"/>
</svg>
