<svg width="239" height="239" viewBox="0 0 239 239" fill="none" xmlns="http://www.w3.org/2000/svg">
<path d="M47.6599 162.869C53.8181 164.742 59.823 167.391 66.1623 168.361C71.5559 169.001 76.6904 170.843 81.1064 173.722C85.5224 176.601 89.0821 180.427 91.4673 184.858C95.2372 191.747 101.419 197.31 109.046 200.677C113.456 202.547 118.315 203.378 123.174 203.094C128.032 202.81 132.733 201.42 136.841 199.052C140.95 196.684 144.333 193.415 146.678 189.548C149.022 185.68 150.253 181.339 150.256 176.926C150.388 171.737 148.767 166.539 148.127 161.332C147.459 155.593 146.981 149.84 146.467 144.142C146.318 138.901 145.777 133.676 144.848 128.502C140.601 111.595 125.515 102.103 106.481 104.161C101.903 104.504 97.4091 105.475 93.1521 107.039C84.7037 110.261 75.7167 112.171 66.5683 112.687C55.2235 113.658 45.723 117.653 39.7176 127.08C31.2721 140.211 34.2604 153.094 47.6599 162.869Z" fill="#6D73E6" fill-opacity="0.1"/>
<path d="M154.368 85.2271C152.495 90.1078 149.761 94.9066 148.901 99.9384C148.491 102.554 148.744 105.219 149.639 107.733C150.535 110.246 152.051 112.542 154.071 114.445C156.092 116.349 158.564 117.811 161.3 118.719C164.037 119.628 166.966 119.96 169.865 119.69C186.571 118.509 201.186 101.68 198.225 86.6938C197.592 82.5219 195.217 78.7289 191.591 76.0963C187.965 73.4638 183.362 72.1923 178.732 72.5438C170.067 72.9235 161.489 77.6931 154.368 85.2271Z" fill="#6D73E6" fill-opacity="0.1"/>
<path d="M114.872 54.2397C108.441 62.9882 105.622 70.33 107.597 78.7644C108.142 81.5013 109.399 84.081 111.264 86.2889C113.13 88.4969 115.55 90.2695 118.323 91.4594C121.096 92.6493 124.143 93.2222 127.21 93.1305C130.276 93.0387 133.274 92.285 135.955 90.9319C147.602 84.9851 154.543 75.6894 154.87 63.3391C155.272 47.7145 139.907 39.4892 124.873 47.1468C121.306 49.2275 117.958 51.6018 114.872 54.2397Z" fill="#6D73E6" fill-opacity="0.1"/>
<path d="M166.227 137.409C157.538 148.458 158.876 159.092 169.789 165.621C172.12 166.956 174.735 167.833 177.464 168.193C180.193 168.553 182.975 168.388 185.63 167.71C191.729 166.285 197.175 163.147 201.186 158.746C205.198 154.344 207.57 148.905 207.963 143.207C208.159 140.744 207.749 138.271 206.761 135.969C205.773 133.667 204.232 131.593 202.25 129.898C200.269 128.202 197.896 126.928 195.303 126.166C192.711 125.405 189.964 125.176 187.262 125.496C182.991 125.914 178.88 127.203 175.237 129.266C171.594 131.329 168.514 134.113 166.227 137.409Z" fill="#6D73E6" fill-opacity="0.1"/>
<path d="M58.2573 63.9843C55.8321 66.8791 54.1162 70.2096 53.2243 73.7534C52.3324 77.2972 52.2849 80.9727 53.0852 84.5344C56.3738 98.243 72.8569 103.534 84.7834 94.658C88.084 92.274 90.8279 89.3182 92.8552 85.9631C94.8825 82.608 96.1526 78.9206 96.5914 75.1159C97.7248 65.7367 93.4386 58.1665 85.5498 55.0547C77.661 51.9429 67.7051 54.2552 61.0365 60.865C60.0808 61.9359 59.1251 63.0068 58.2573 63.9843Z" fill="#6D73E6" fill-opacity="0.1"/>
</svg>
