<svg width="154" height="153" viewBox="0 0 154 153" fill="none" xmlns="http://www.w3.org/2000/svg">
<g id="Group 333">
<path id="Vector" d="M122.927 103.944C118.983 105.144 115.136 106.84 111.076 107.462C107.621 107.872 104.332 109.051 101.504 110.896C98.6751 112.74 96.3949 115.19 94.8671 118.029C92.4524 122.441 88.4928 126.004 83.6074 128.161C80.7826 129.359 77.6702 129.891 74.5581 129.709C71.4461 129.527 68.4349 128.637 65.8034 127.12C63.1718 125.603 61.0049 123.51 59.503 121.032C58.0011 118.555 57.2129 115.775 57.2112 112.948C57.1263 109.624 58.1646 106.295 58.5747 102.959C59.0028 99.2832 59.3086 95.5984 59.638 91.9483C59.7334 88.5916 60.0798 85.2446 60.6747 81.9303C63.3952 71.1011 73.0583 65.0209 85.2504 66.339C88.1827 66.5591 91.0612 67.1807 93.788 68.1826C99.1995 70.2467 104.956 71.4697 110.816 71.8002C118.083 72.4224 124.168 74.9816 128.015 81.0195C133.424 89.4304 131.51 97.6823 122.927 103.944Z" fill="#6D73E6" fill-opacity="0.1"/>
<path id="Vector_2" d="M54.5735 54.2114C55.7732 57.3377 57.5246 60.4114 58.0756 63.6345C58.3381 65.3097 58.1762 67.017 57.6023 68.627C57.0285 70.237 56.0576 71.7074 54.7635 72.9268C53.4693 74.1461 51.8858 75.0823 50.133 75.6644C48.3803 76.2464 46.5043 76.4591 44.6474 76.2861C33.9463 75.5299 24.5851 64.7501 26.4818 55.1509C26.8872 52.4786 28.408 50.049 30.7309 48.3628C33.0538 46.6766 36.0017 45.8621 38.9673 46.0873C44.5176 46.3305 50.0126 49.3856 54.5735 54.2114Z" fill="#6D73E6" fill-opacity="0.1"/>
<path id="Vector_3" d="M79.8724 34.3629C83.9914 39.9666 85.7973 44.6693 84.532 50.0718C84.1832 51.8249 83.3779 53.4773 82.183 54.8916C80.988 56.3059 79.438 57.4413 77.6616 58.2035C75.8852 58.9656 73.9338 59.3326 71.9696 59.2738C70.0053 59.2151 68.0848 58.7323 66.3678 57.8655C58.9077 54.0564 54.4617 48.1022 54.2523 40.1914C53.9943 30.1833 63.8361 24.9147 73.4659 29.8197C75.7509 31.1524 77.8955 32.6733 79.8724 34.3629Z" fill="#6D73E6" fill-opacity="0.1"/>
<path id="Vector_4" d="M46.9778 87.6358C52.5435 94.7133 51.6861 101.524 44.6963 105.706C43.2031 106.562 41.5281 107.123 39.78 107.354C38.0319 107.584 36.2499 107.479 34.5496 107.044C30.6427 106.132 27.1546 104.122 24.585 101.303C22.0153 98.4835 20.496 94.9995 20.2445 91.3497C20.1185 89.7716 20.3815 88.188 21.0143 86.7135C21.6472 85.239 22.634 83.9106 23.9034 82.8246C25.1727 81.7385 26.6927 80.9221 28.3533 80.4344C30.0138 79.9467 31.7733 79.8 33.5041 80.0049C36.2398 80.2726 38.8731 81.0982 41.2065 82.4197C43.54 83.7413 45.5131 85.5246 46.9778 87.6358Z" fill="#6D73E6" fill-opacity="0.1"/>
<path id="Vector_5" d="M116.143 40.6047C117.697 42.4589 118.796 44.5922 119.367 46.8621C119.938 49.1321 119.969 51.4864 119.456 53.7678C117.35 62.5486 106.792 65.9374 99.1524 60.2523C97.0383 58.7252 95.2807 56.832 93.9821 54.6829C92.6836 52.5338 91.87 50.1719 91.589 47.7349C90.8629 41.7272 93.6084 36.8782 98.6615 34.885C103.715 32.8918 110.092 34.3729 114.363 38.6067C114.975 39.2926 115.587 39.9786 116.143 40.6047Z" fill="#6D73E6" fill-opacity="0.1"/>
</g>
</svg>
