<svg width="38" height="35" viewBox="0 0 38 35" fill="none" xmlns="http://www.w3.org/2000/svg">
<g id="Group 334">
<path id="Vector" d="M20.475 33.8004C19.3022 33.1227 18.0073 32.5725 16.9759 31.7461C16.1325 31.0179 15.1031 30.4906 13.9798 30.2113C12.8565 29.932 11.6744 29.9094 10.5391 30.1456C8.76585 30.5035 6.91177 30.3187 5.26659 29.6204C4.32957 29.2062 3.52296 28.5844 2.92139 27.8127C2.31982 27.0409 1.94273 26.1441 1.82502 25.2052C1.70731 24.2663 1.85278 23.3157 2.24796 22.4413C2.64315 21.5669 3.27529 20.7969 4.08588 20.2027C5.02167 19.4844 6.19501 19.0297 7.23804 18.4257C8.38265 17.7543 9.50408 17.0522 10.6205 16.363C11.6036 15.6804 12.6366 15.0588 13.7124 14.5028C17.3908 12.869 21.1653 13.8692 23.3485 17.0198C23.9014 17.7572 24.3277 18.5662 24.6131 19.4194C25.1578 21.1286 26.0163 22.7423 27.1525 24.1929C28.5007 26.0364 29.0449 28.0083 28.1207 30.1835C26.8441 33.2255 24.0745 34.5079 20.475 33.8004Z" fill="#6D73E6" fill-opacity="0.1"/>
<path id="Vector_2" d="M20.3841 7.24202C19.7392 8.18156 19.2253 9.24012 18.4163 10.0471C17.9909 10.4609 17.467 10.7814 16.8846 10.9844C16.3021 11.1874 15.6763 11.2675 15.0546 11.2186C14.4329 11.1697 13.8316 10.9932 13.2964 10.7023C12.7612 10.4115 12.306 10.014 11.9655 9.53996C9.9344 6.85885 11.0605 2.38777 14.2129 0.81817C15.0648 0.352325 16.0813 0.200377 17.0531 0.393629C18.0249 0.586881 18.8778 1.11061 19.4363 1.85691C20.5325 3.21619 20.8104 5.15319 20.3841 7.24202Z" fill="#6D73E6" fill-opacity="0.1"/>
<path id="Vector_3" d="M31.3925 9.03546C30.6501 11.1835 29.6803 12.5971 27.8645 13.4339C27.2883 13.72 26.645 13.8773 25.9882 13.8928C25.3314 13.9083 24.68 13.7814 24.0882 13.5229C23.4963 13.2643 22.9811 12.8814 22.5853 12.4061C22.1895 11.9308 21.9246 11.3767 21.8125 10.7899C21.3381 8.23135 22.1123 5.93255 24.3379 4.22125C27.155 2.0579 30.7342 3.27079 31.35 6.57097C31.4477 7.38954 31.4619 8.21452 31.3925 9.03546Z" fill="#6D73E6" fill-opacity="0.1"/>
<path id="Vector_4" d="M9.19825 12.4741C8.337 15.2728 6.20282 16.5016 3.53452 15.7327C2.97537 15.5605 2.46245 15.2836 2.02907 14.92C1.59569 14.5564 1.25155 14.1142 1.01902 13.6222C0.460041 12.5096 0.303869 11.2653 0.572872 10.0673C0.841874 8.86938 1.52225 7.77933 2.51655 6.9533C2.94281 6.5921 3.4524 6.32138 4.00838 6.16077C4.56436 6.00017 5.1528 5.95368 5.73104 6.02471C6.30929 6.09574 6.86286 6.28248 7.35163 6.57142C7.84039 6.86036 8.25211 7.24424 8.55694 7.69525C9.05486 8.39628 9.37122 9.19039 9.48229 10.018C9.59335 10.8457 9.49625 11.6854 9.19825 12.4741Z" fill="#6D73E6" fill-opacity="0.1"/>
<path id="Vector_5" d="M37.2225 18.8944C37.0169 19.6501 36.6357 20.3573 36.1045 20.9688C35.5733 21.5803 34.9043 22.0821 34.142 22.4406C31.1803 23.7888 27.99 22.0122 28.0162 19.0172C28.0101 18.1981 28.1841 17.3861 28.5278 16.6286C28.8716 15.871 29.3783 15.1831 30.0184 14.6049C31.5895 13.1716 33.5574 12.8 35.1908 13.5723C36.8243 14.3446 37.7391 16.1588 37.4217 18.055C37.3536 18.3434 37.2854 18.6318 37.2225 18.8944Z" fill="#6D73E6" fill-opacity="0.1"/>
</g>
</svg>
