<svg width="202" height="202" viewBox="0 0 202 202" fill="none" xmlns="http://www.w3.org/2000/svg">
<g id="&#195;&#144;&#194;&#168;&#195;&#144;&#194;&#176;&#195;&#145;&#226;&#130;&#172;_1" clip-path="url(#clip0_0_323)">
<path id="Vector" d="M67.1701 0.167115C67.2227 0.891178 67.3161 1.61524 67.3161 2.3393C67.3161 23.0413 67.3161 43.7374 67.3161 64.4277C67.3161 67.3123 67.3161 67.3473 64.3965 67.3473C43.7023 67.3473 23.0061 67.3473 2.30806 67.3473C1.584 67.3473 0.859938 67.2539 0.135875 67.2013C0.155339 45.3627 0.153392 23.5298 0.130035 1.70283C0.130035 0.394845 0.3928 0.13208 1.70079 0.13208C23.5239 0.186579 45.347 0.198258 67.1701 0.167115ZM33.4545 57.3914C40.6776 57.3914 47.9065 57.3506 55.1296 57.3914C56.823 57.3914 57.4245 56.9185 57.4128 55.155C57.3738 40.7944 57.3738 26.4241 57.4128 12.0441C57.4128 10.3857 56.8289 9.92445 55.2347 9.93029C40.8508 9.977 26.4708 9.977 12.0946 9.93029C10.5005 9.93029 9.92241 10.4033 9.92825 12.0499C9.97496 26.4339 9.97496 40.8139 9.92825 55.1901C9.92825 56.9418 10.5122 57.4323 12.2231 57.4148C19.2944 57.3564 26.3715 57.3856 33.4545 57.3856V57.3914Z" fill="black"/>
<path id="Vector_2" d="M201.619 67.1721C200.895 67.2247 200.171 67.3181 199.447 67.3181C178.752 67.3181 158.056 67.3181 137.358 67.3181C134.48 67.3181 134.439 67.3181 134.439 64.3985C134.439 43.7043 134.439 23.0082 134.439 2.31011C134.439 1.58605 134.532 0.861982 134.585 0.137919C156.431 0.157383 178.266 0.155437 200.089 0.13208C201.391 0.13208 201.66 0.394845 201.654 1.70283C201.607 23.5259 201.595 45.349 201.619 67.1721ZM167.897 57.3856C175.126 57.3856 182.349 57.3447 189.578 57.3856C191.266 57.3856 191.873 56.9243 191.867 55.155C191.801 40.7789 191.801 26.4008 191.867 12.0207C191.867 10.3682 191.283 9.89525 189.689 9.90109C175.313 9.94781 160.935 9.94781 146.555 9.90109C144.967 9.90109 144.377 10.3682 144.383 12.0207C144.43 26.3969 144.43 40.775 144.383 55.155C144.383 56.9068 144.967 57.4031 146.672 57.3856C153.737 57.3564 160.82 57.3856 167.897 57.3856Z" fill="black"/>
<path id="Vector_3" d="M0.163311 134.615C0.887374 134.563 1.61144 134.469 2.3355 134.469H64.4239C67.3085 134.469 67.3435 134.469 67.3435 137.389C67.3435 158.087 67.3435 178.783 67.3435 199.477C67.3435 200.201 67.2501 200.925 67.1975 201.649C45.3744 201.649 23.5513 201.661 1.72822 201.684C0.420236 201.684 0.151632 201.422 0.157471 200.12C0.192507 178.273 0.194453 156.438 0.163311 134.615ZM33.4469 191.84C40.6758 191.84 47.8989 191.799 55.1279 191.869C56.8154 191.869 57.4227 191.407 57.4168 189.638C57.3507 175.262 57.3507 160.884 57.4168 146.504C57.4168 144.851 56.8329 144.378 55.2388 144.384C40.8627 144.431 26.4846 144.431 12.1045 144.384C10.5162 144.384 9.92648 144.851 9.93232 146.504C9.97904 160.88 9.97904 175.258 9.93232 189.638C9.93232 191.39 10.5162 191.886 12.2213 191.869C19.2867 191.787 26.3697 191.834 33.4469 191.834V191.84Z" fill="black"/>
<path id="Vector_4" d="M76.8052 201.62C76.7526 196.949 76.6767 192.312 76.6592 187.664C76.6592 180.237 76.7059 172.815 76.6183 165.394C76.6183 163.484 77.2022 162.737 79.1058 162.906C80.624 163.035 82.1714 162.824 83.6896 162.953C85.6341 163.122 86.5216 162.527 86.3231 160.424C86.1596 158.673 86.3231 156.921 86.2764 155.169C86.2238 153.744 86.8603 153.236 88.2208 153.266C90.7667 153.324 93.3126 153.266 95.8644 153.266L96.2614 153.61C96.2614 156.15 96.2614 158.69 96.2206 161.23C96.2206 162.439 96.6935 162.935 97.9023 162.912C100.442 162.865 102.982 162.883 105.522 162.871L105.902 163.245C105.902 165.651 105.955 168.056 105.838 170.456C105.762 172.115 106.422 172.646 108.01 172.564C109.902 172.465 111.8 172.564 113.692 172.564C114.994 172.529 115.537 173.066 115.502 174.374C115.455 176.266 115.572 178.164 115.502 180.05C115.42 181.633 115.94 182.31 117.604 182.228C120.004 182.117 122.409 182.181 124.815 182.17L125.16 182.573L125.002 201.626H105.733C105.68 199.098 105.569 196.569 105.598 194.035C105.598 192.639 105.12 192.12 103.706 192.114C101.178 192.114 98.6438 192.365 96.1155 191.95C96.0571 191.08 95.9461 190.199 95.9403 189.346C95.9403 184.535 95.8936 179.729 95.9403 174.917C95.9403 173.446 95.5199 172.769 93.9491 172.85C92.063 172.95 90.1595 172.909 88.2676 172.85C87.053 172.821 86.5742 173.323 86.58 174.538C86.6092 179.711 86.6209 184.885 86.58 190.059C86.58 191.396 87.1172 191.81 88.4077 191.839C90.9478 191.869 93.4995 191.606 96.0396 192.003C96.3315 195.198 96.3432 198.412 96.0746 201.608L76.8052 201.62Z" fill="black"/>
<path id="Vector_5" d="M28.8533 105.869C25.7293 105.763 22.5936 106.085 19.4696 105.676C19.0492 100.164 19.3003 94.6397 19.3295 89.1275C19.3295 87.0896 18.7047 86.5232 16.7194 86.5524C11.2013 86.6283 5.68325 86.494 0.165192 86.4415V76.8067C3.73879 76.7542 7.31239 76.6724 10.8802 76.6608C19.4229 76.6608 27.9599 76.6958 36.4968 76.6257C38.2953 76.6257 38.9726 77.2097 38.885 79.0081C38.7683 81.4081 38.885 83.8196 38.885 86.2312L38.5405 86.6342C36.1465 86.6342 33.7407 86.6867 31.3466 86.5699C29.7058 86.494 29.1978 87.1246 29.2211 88.7246C29.3029 94.3244 29.2679 99.9242 29.2795 105.524L28.8533 105.869Z" fill="black"/>
<path id="Vector_6" d="M201.618 105.711C199.154 105.764 196.684 105.904 194.22 105.834C192.573 105.787 192.036 106.418 192.118 108.006C192.217 109.886 192.118 111.784 192.118 113.67C192.153 114.943 191.668 115.538 190.366 115.503C188.188 115.451 186.004 115.474 183.826 115.503C182.769 115.503 182.197 115.106 182.209 113.974C182.291 108.023 181.975 102.067 182.384 96.1231C184.613 95.8071 186.871 95.762 189.111 95.9888C191.406 96.1406 191.949 95.2706 191.879 93.1217C191.727 88.6255 191.826 84.1176 191.832 79.6156C191.832 76.696 191.832 76.6551 194.88 76.696C197.128 76.696 199.37 76.7894 201.618 76.842V105.711Z" fill="black"/>
<path id="Vector_7" d="M201.618 163.081C199.083 163.134 196.549 163.251 194.027 163.216C192.602 163.216 192.07 163.735 192.135 165.137C192.211 166.807 192.012 168.488 192.181 170.141C192.421 172.43 191.446 173.061 189.32 172.909C187.078 172.751 184.824 172.874 182.576 172.874L182.173 172.529V153.639L182.576 153.289C185.04 153.289 187.51 153.236 189.974 153.289C191.411 153.33 191.913 152.752 191.86 151.362C191.784 149.552 191.86 147.73 191.86 145.92C191.831 144.664 192.275 144.028 193.612 144.075C196.286 144.156 198.967 144.18 201.647 144.226L201.618 163.081Z" fill="black"/>
<path id="Vector_8" d="M96.0731 0.167176L96.2308 19.2264L95.8863 19.6235H86.6311L86.2807 19.2205C86.2807 16.7564 86.2282 14.2864 86.2807 11.8223C86.3216 10.3916 85.7377 9.88947 84.348 9.94203C82.3918 10.0121 80.4357 9.94203 78.4737 9.94203C77.2241 9.97122 76.5818 9.52744 76.6285 8.19026C76.7103 5.51006 76.7336 2.82986 76.7803 0.149658L96.0731 0.167176Z" fill="black"/>
<path id="Vector_9" d="M115.379 29.042C114.97 24.9546 115.227 20.7971 115.209 16.6746C115.209 11.174 115.291 5.66766 115.344 0.167114H124.978C125.025 9.35804 125.07 18.5451 125.113 27.7282C125.113 28.7151 124.681 29.2231 123.67 29.2055C120.908 29.153 118.135 29.4333 115.379 29.042Z" fill="black"/>
<path id="Vector_10" d="M0.167084 105.711C6.59022 105.477 13.0134 105.419 19.4073 105.746C19.8102 111.69 19.4949 117.646 19.5766 123.596C19.5766 124.729 19.0219 125.138 17.9592 125.126C15.7091 125.103 13.4571 125.103 11.2032 125.126C10.0879 125.126 9.64997 124.595 9.65581 123.526C9.65581 121.564 9.57406 119.597 9.65581 117.64C9.73172 116.052 9.20036 115.421 7.54786 115.468C5.08371 115.538 2.61956 115.398 0.149567 115.346L0.167084 105.711Z" fill="black"/>
<path id="Vector_11" d="M201.616 134.615C195.711 134.662 189.806 134.712 183.9 134.767C182.732 134.767 182.148 134.288 182.195 133.079C182.23 130.896 182.23 128.708 182.195 126.516C182.195 125.307 182.709 124.817 183.9 124.829C189.809 124.899 195.713 124.934 201.616 124.98V134.615Z" fill="black"/>
<path id="Vector_12" d="M201.618 191.986C198.926 192.032 196.229 192.067 193.537 192.137C192.369 192.167 191.785 191.659 191.832 190.45C191.867 188.266 191.867 186.078 191.832 183.887C191.832 182.678 192.346 182.17 193.537 182.205C196.229 182.275 198.926 182.304 201.618 182.351V191.986Z" fill="black"/>
<path id="Vector_13" d="M153.444 201.62C153.181 198.425 153.193 195.213 153.479 192.02C156.235 191.629 159.003 191.909 161.765 191.857C162.769 191.857 163.23 192.336 163.213 193.323C163.166 196.09 163.121 198.856 163.078 201.62H153.444Z" fill="black"/>
<path id="Vector_14" d="M172.715 201.62C172.668 198.928 172.639 196.231 172.569 193.539C172.534 192.371 173.042 191.787 174.251 191.834C176.443 191.869 178.63 191.869 180.814 191.834C182.023 191.834 182.531 192.348 182.502 193.539C182.432 196.231 182.397 198.928 182.35 201.62H172.715Z" fill="black"/>
<path id="Vector_15" d="M144.217 163.046C141.093 163.443 137.957 163.128 134.827 163.233L134.425 162.889C134.425 160.413 134.425 157.931 134.471 155.455C134.5 154.212 134.127 153.569 132.719 153.581C127.546 153.628 122.372 153.628 117.199 153.581C115.827 153.581 115.447 154.165 115.447 155.444C115.5 157.341 115.377 159.239 115.476 161.131C115.558 162.772 114.863 163.303 113.292 163.251C110.817 163.175 108.335 163.251 105.859 163.251L105.48 162.883C105.48 160.337 105.48 157.797 105.52 155.257C105.52 154.054 105.053 153.552 103.845 153.575C101.304 153.628 98.7586 153.61 96.2185 153.616L95.8214 153.271L95.874 144.448L96.2185 144.045C105.047 144.045 113.87 144.045 122.694 144.098C124.124 144.098 124.819 143.759 124.807 142.154C124.749 133.909 124.749 125.667 124.807 117.43C124.807 115.836 124.165 115.416 122.711 115.462C120.305 115.55 117.9 115.503 115.494 115.515L115.143 115.112C115.143 106.353 115.202 97.5944 115.108 88.8356C115.108 86.8328 115.692 86.1029 117.724 86.2255C120.06 86.3715 122.396 86.2255 124.731 86.2255L125.099 86.5992C125.099 88.9991 125.158 91.4049 125.099 93.8048C125.053 95.2587 125.485 95.9127 127.067 95.8894C132.089 95.8193 137.111 95.8193 142.132 95.8894C143.715 95.8894 144.164 95.2587 144.1 93.8048C144.018 91.9129 144.135 90.0151 144.071 88.1291C144.024 86.7043 144.626 86.1846 146.015 86.2196C148.415 86.278 150.815 86.2196 153.221 86.2196L153.618 86.5642C153.618 89.1042 153.618 91.6443 153.577 94.1843C153.577 95.3931 154.05 95.8894 155.259 95.866C157.799 95.8193 160.339 95.8368 162.879 95.831L163.224 96.2281C163.224 99.2995 163.224 102.369 163.224 105.437L162.85 105.804C154.319 105.804 145.793 105.869 137.268 105.758C135.195 105.728 134.687 106.429 134.711 108.391C134.804 116.187 134.827 123.988 134.711 131.783C134.676 133.961 135.423 134.603 137.473 134.428C139.224 134.282 140.976 134.428 142.728 134.428C143.761 134.428 144.404 134.755 144.392 135.917C144.304 144.991 144.626 154.025 144.217 163.046Z" fill="black"/>
<path id="Vector_16" d="M76.5883 115.503H67.3857L66.9828 115.159C66.9828 114.429 67.012 113.705 67.0179 112.975C67.0179 105.577 67.0179 105.623 59.6196 105.834C58.0313 105.88 57.6226 106.505 57.6693 107.947C57.7569 110.347 57.7101 112.753 57.7218 115.159L57.3189 115.503C55.0708 115.503 52.8169 115.387 50.5805 115.503C48.5893 115.632 48.0346 114.791 48.163 112.963C48.2798 111.211 48.128 109.46 48.2039 107.743C48.2623 106.347 47.7426 105.775 46.312 105.822C43.8478 105.892 41.3837 105.822 38.9195 105.822L38.5166 105.477V86.6342L38.8611 86.2313C41.337 86.2313 43.8186 86.3598 46.2828 86.2605C48.0346 86.1905 48.6185 86.9028 48.5134 88.567C48.4083 90.2312 48.5893 91.9187 48.4667 93.5829C48.3324 95.3989 49.0039 95.977 50.8023 95.9595C59.4094 95.8952 68.0047 95.8952 76.6234 95.8952L77.0263 96.2397C77.0263 102.542 77.0263 108.841 77.0263 115.135L76.5883 115.503Z" fill="black"/>
<path id="Vector_17" d="M105.869 38.922C105.869 41.4796 105.816 44.0313 105.869 46.583C105.904 48.002 105.332 48.51 103.936 48.5041C95.4694 48.4691 87.0025 48.4691 78.5356 48.5041C77.105 48.5041 76.6321 47.9202 76.6379 46.548C76.6729 38.0811 76.6729 29.6143 76.6379 21.1474C76.6379 19.6934 77.2627 19.2497 78.6174 19.273C81.175 19.3139 83.7267 19.2438 86.2784 19.2205L86.6288 19.6234C86.6288 25.229 86.6288 30.8347 86.5646 36.4345C86.5646 38.0519 87.0784 38.6067 88.7017 38.5833C94.3074 38.4957 99.913 38.5308 105.519 38.5191L105.869 38.922Z" fill="black"/>
<path id="Vector_18" d="M86.2824 76.5909V67.3825L86.6561 67.0146C89.0618 67.0146 91.4735 66.9562 93.8792 67.0146C95.3682 67.0671 96.0222 66.5825 95.9463 65.0176C95.847 63.1257 95.9463 61.2221 95.9113 59.3302C95.8704 57.9696 96.3375 57.304 97.7915 57.3507C99.8352 57.4208 101.879 57.4149 103.923 57.3507C105.307 57.3098 105.879 57.8237 105.873 59.2543C105.842 70.9327 105.842 82.6111 105.873 94.2896C105.873 95.691 105.365 96.2574 103.952 96.2224C101.4 96.164 98.8425 96.2224 96.2908 96.2224L95.8937 95.8954C95.8937 90.2956 95.8937 84.6958 95.9521 79.1018C95.9521 77.5018 95.4792 76.8654 93.8325 76.9413C91.4384 77.0522 89.0385 76.988 86.6386 76.9997L86.2824 76.5909Z" fill="black"/>
<path id="Vector_19" d="M182.313 96.0471C176.894 96.4617 171.469 96.123 166.051 96.2339L163.23 96.2923L162.886 95.8953C162.886 93.3494 162.886 90.8093 162.927 88.2692C162.927 87.0664 162.459 86.5642 161.251 86.5875C158.711 86.6401 156.165 86.6226 153.625 86.6284L153.228 86.2839C153.228 83.738 153.309 81.1979 153.274 78.652C153.274 77.3265 153.631 76.6375 155.114 76.6433C163.621 76.6842 172.129 76.6433 180.637 76.6433C181.694 76.6433 182.5 76.836 182.482 78.1674C182.406 84.1351 182.722 90.0911 182.313 96.0471Z" fill="black"/>
<path id="Vector_20" d="M76.6222 95.8952C76.6222 90.2253 76.7098 84.5554 76.6514 78.8856C76.6514 77.2097 77.1594 76.5499 78.8995 76.6024C81.3637 76.7017 83.8395 76.6024 86.3095 76.5674L86.6598 76.9703C86.6598 83.2728 86.6598 89.5713 86.6598 95.866L86.292 96.2456H76.9959L76.6222 95.8952Z" fill="black"/>
<path id="Vector_21" d="M105.924 28.9135C109.053 29.0186 112.189 28.7091 115.313 29.1062C115.704 31.8331 115.406 34.5834 115.482 37.322C115.523 38.63 114.741 38.8577 113.666 38.8577C111.068 38.8577 108.469 38.8986 105.865 38.9219L105.521 38.519V29.2639L105.924 28.9135Z" fill="black"/>
<path id="Vector_22" d="M96.2888 105.553C98.8406 105.553 101.398 105.606 103.944 105.553C105.351 105.518 105.906 106.079 105.871 107.48C105.813 110.032 105.871 112.59 105.871 115.141L105.532 115.544H96.2655L95.8918 115.165C95.8918 112.082 95.8918 108.996 95.8918 105.909L96.2888 105.553Z" fill="black"/>
<path id="Vector_23" d="M96.2912 96.2339V105.577L95.8942 105.927C93.2899 105.927 90.6856 105.863 88.0871 105.927C86.7908 105.927 86.2653 105.425 86.2828 104.128C86.3178 101.524 86.2828 98.9199 86.2828 96.3214L86.6507 95.9419H95.8942L96.2912 96.2339Z" fill="black"/>
<path id="Vector_24" d="M105.867 115.165H115.21L115.56 115.567C115.56 118.172 115.496 120.77 115.56 123.374C115.56 124.665 115.058 125.196 113.762 125.179C111.158 125.138 108.553 125.179 105.955 125.179L105.575 124.805C105.575 121.722 105.575 118.637 105.575 115.55L105.867 115.165Z" fill="black"/>
<path id="Vector_25" d="M124.767 86.2839C124.767 83.738 124.872 81.1979 124.808 78.652C124.767 77.128 125.392 76.5849 126.863 76.6375C128.971 76.7192 131.079 76.6842 133.187 76.6375C134.285 76.6375 134.769 77.1163 134.758 78.2082C134.758 80.4622 134.723 82.7161 134.758 84.9642C134.758 86.243 134.098 86.57 133.006 86.57C130.39 86.57 127.751 86.605 125.158 86.6284L124.767 86.2839Z" fill="black"/>
<path id="Vector_26" d="M67.3278 81.817C67.246 87.3059 68.0343 86.5468 62.6038 86.5876C57.3836 86.6285 57.3485 86.5877 57.3894 81.4375C57.4361 75.9486 56.6712 76.7077 62.1075 76.661C67.3278 76.6259 67.3278 76.6551 67.3278 81.817Z" fill="black"/>
<path id="Vector_27" d="M115.193 62.1797C115.274 56.685 114.474 57.4383 119.905 57.3916C125.16 57.3507 125.16 57.3916 125.125 62.5359C125.078 68.0306 125.849 67.2774 120.419 67.3182C115.193 67.3591 115.193 67.3299 115.193 62.1797Z" fill="black"/>
<path id="Vector_28" d="M86.2838 67.3822C83.7379 67.3822 81.1978 67.283 78.6519 67.3472C77.1279 67.3822 76.5848 66.7633 76.6374 65.286C76.7191 63.1838 76.6841 61.0759 76.6374 58.9679C76.6374 57.8702 77.1162 57.3855 78.2081 57.3972C80.4621 57.3972 82.716 57.4264 84.9641 57.3972C86.2429 57.3972 86.5699 58.0512 86.5699 59.1489C86.5699 61.7649 86.6049 64.4042 86.6283 66.9969L86.2838 67.3822Z" fill="black"/>
<path id="Vector_29" d="M95.8924 144.466C93.4866 144.466 91.0808 144.308 88.6868 144.466C86.7073 144.577 86.1117 143.788 86.2343 141.926C86.3569 140.063 86.2343 138.282 86.2693 136.46C86.2985 135.24 85.7788 134.755 84.5759 134.784C82.7541 134.831 80.9264 134.691 79.1104 134.819C77.2944 134.948 76.5587 134.3 76.5879 132.355C76.6813 126.75 76.5879 121.138 76.5879 115.527L76.9908 115.182H95.8924L96.2719 115.556C96.2719 118.096 96.2719 120.636 96.2252 123.176C96.2252 124.385 96.6982 124.881 97.9069 124.858C100.447 124.811 102.987 124.829 105.527 124.817L105.907 125.191C105.907 127.526 105.749 129.862 105.907 132.163C106.053 134.329 105.194 134.995 103.15 134.819C101.486 134.679 99.8046 134.854 98.1405 134.779C96.7332 134.714 96.1726 135.252 96.2193 136.676C96.2953 139.146 96.2602 141.616 96.2661 144.086L95.8924 144.466Z" fill="black"/>
<path id="Vector_30" d="M38.9195 105.869C38.9195 111.544 38.8261 117.226 38.8845 122.896C38.8845 124.613 38.3005 125.232 36.613 125.156C34.7966 125.051 32.9756 125.051 31.1592 125.156C29.4483 125.261 28.8702 124.607 28.8877 122.896C28.9461 117.22 28.8877 111.544 28.8527 105.869L29.2556 105.524H38.5166L38.9195 105.869Z" fill="black"/>
<path id="Vector_31" d="M67.3843 115.503C67.3843 118.049 67.2792 120.589 67.3435 123.13C67.3785 124.648 66.7595 125.208 65.2939 125.15C63.2619 125.074 61.2065 125.091 59.1919 125.15C57.9015 125.185 57.3584 124.665 57.3759 123.357C57.3759 120.741 57.3409 118.131 57.3175 115.515L57.7204 115.171H66.9814L67.3843 115.503Z" fill="black"/>
<path id="Vector_32" d="M172.498 172.874C170.255 172.874 168.007 172.874 165.759 172.874C162.939 172.874 162.939 172.874 162.927 169.954C162.927 168.43 162.851 166.906 162.927 165.388C163.003 163.869 162.478 163.198 160.831 163.221C158.378 163.256 155.908 163.467 153.462 163.07C153.071 160.331 153.357 157.575 153.292 154.825C153.263 153.686 153.876 153.312 154.922 153.318C156.948 153.318 158.98 153.26 161.006 153.318C162.407 153.365 162.974 152.851 162.927 151.426C162.851 149.09 162.927 146.79 162.927 144.466L163.301 144.098C168.959 144.098 174.617 144.15 180.275 144.098C181.975 144.098 182.611 144.647 182.535 146.358C182.442 148.693 182.535 151 182.57 153.318L182.167 153.668C179.773 153.668 177.368 153.721 174.973 153.604C173.333 153.528 172.825 154.188 172.848 155.759C172.93 161.359 172.895 166.958 172.906 172.558L172.498 172.874Z" fill="black"/>
<path id="Vector_33" d="M163.244 105.501C165.789 105.501 168.341 105.588 170.893 105.547C172.236 105.547 172.896 105.945 172.878 107.41C172.832 112.724 172.832 118.041 172.878 123.363C172.878 124.694 172.294 125.15 171.033 125.144C165.712 125.109 160.392 125.109 155.074 125.144C153.755 125.144 153.258 124.56 153.288 123.31C153.334 121.197 153.34 119.083 153.288 116.969C153.253 115.638 153.872 115.159 155.127 115.188C157.165 115.235 159.214 115.188 161.247 115.188C162.455 115.217 162.963 114.721 162.934 113.506C162.876 110.96 162.887 108.409 162.87 105.857L163.244 105.501Z" fill="black"/>
<path id="Vector_34" d="M162.92 144.46C160.375 144.46 157.835 144.361 155.289 144.425C153.765 144.46 153.222 143.841 153.274 142.364C153.356 140.262 153.321 138.154 153.303 136.046C153.303 134.948 153.782 134.463 154.874 134.475C157.128 134.475 159.382 134.504 161.63 134.475C162.909 134.475 163.236 135.129 163.236 136.227C163.236 138.843 163.271 141.482 163.294 144.075L162.92 144.46Z" fill="black"/>
<path id="Vector_35" d="M153.416 163.116C153.807 165.867 153.521 168.634 153.58 171.396C153.58 172.389 153.118 172.856 152.126 172.85C149.942 172.85 147.758 172.85 145.574 172.85C144.581 172.85 144.097 172.389 144.12 171.396C144.173 168.634 143.892 165.867 144.283 163.116C147.32 162.813 150.379 162.813 153.416 163.116Z" fill="black"/>
<path id="Vector_36" d="M134.583 182.316L125.135 182.561L124.79 182.164C124.79 176.506 124.86 170.847 124.79 165.189C124.79 163.531 125.269 162.818 127.015 162.894C129.479 162.999 131.949 162.894 134.413 162.894L134.816 163.239C134.816 168.81 134.781 174.38 134.746 179.951C134.752 180.745 134.641 181.533 134.583 182.316Z" fill="black"/>
<path id="Vector_37" d="M153.414 191.956C147.575 192.365 141.771 192.05 135.943 192.12C134.956 192.12 134.46 191.67 134.483 190.672C134.536 187.91 134.256 185.136 134.647 182.386C140.486 181.977 146.29 182.286 152.112 182.216C153.105 182.216 153.595 182.672 153.578 183.67C153.519 186.432 153.805 189.2 153.414 191.956Z" fill="black"/>
<path id="Vector_38" d="M182.564 172.874C182.564 175.419 182.459 177.96 182.523 180.5C182.558 182.018 181.939 182.578 180.474 182.52C178.442 182.444 176.386 182.462 174.372 182.52C173.081 182.555 172.538 182.035 172.556 180.727C172.556 178.111 172.521 175.501 172.497 172.885L172.9 172.541H182.161L182.564 172.874Z" fill="black"/>
<path id="Vector_39" d="M96.2309 19.2263C98.8469 19.2263 101.457 19.3081 104.067 19.2789C105.363 19.2789 105.883 19.7869 105.871 21.0832C105.842 23.6933 105.871 26.3035 105.924 28.9136L105.521 29.2639C102.923 29.2639 100.318 29.1997 97.7141 29.2639C96.4236 29.2639 95.8981 28.7559 95.9156 27.4655C95.9506 24.8612 95.9156 22.2569 95.9156 19.6526L96.2309 19.2263Z" fill="black"/>
<path id="Vector_40" d="M48.4899 33.9062C48.4899 38.0637 48.4373 42.2212 48.4899 46.3787C48.5249 48.0079 47.9059 48.5276 46.3177 48.5159C38.0026 48.4614 29.6876 48.4614 21.3725 48.5159C19.7492 48.5159 19.2295 47.932 19.2354 46.3437C19.2899 38.0286 19.2899 29.7136 19.2354 21.3986C19.2354 19.7753 19.8193 19.2556 21.4134 19.2614C29.7207 19.3159 38.0338 19.3159 46.3527 19.2614C47.9818 19.2614 48.5191 19.8453 48.4899 21.4394C48.4431 25.5911 48.4899 29.7545 48.4899 33.9062Z" fill="black"/>
<path id="Vector_41" d="M182.502 33.9646C182.502 38.1221 182.461 42.2796 182.502 46.4372C182.502 47.9028 182.046 48.5218 180.499 48.5159C172.106 48.4614 163.719 48.4614 155.338 48.5159C153.866 48.5159 153.247 48.0605 153.259 46.5131C153.306 38.1202 153.306 29.7331 153.259 21.3519C153.259 19.8804 153.72 19.2614 155.268 19.2731C163.653 19.3198 172.04 19.3198 180.429 19.2731C182.116 19.2731 182.531 19.9738 182.508 21.5037C182.461 25.6495 182.502 29.8071 182.502 33.9646Z" fill="black"/>
<path id="Vector_42" d="M33.8805 153.295C38.038 153.295 42.1956 153.347 46.3531 153.295C47.9589 153.266 48.5253 153.838 48.5136 155.449C48.4591 163.761 48.4591 172.074 48.5136 180.389C48.5136 181.989 47.9764 182.561 46.3648 182.549C38.0497 182.495 29.7347 182.495 21.4196 182.549C19.8197 182.549 19.2474 182.012 19.2591 180.4C19.3136 172.085 19.3136 163.77 19.2591 155.455C19.2591 153.855 19.7963 153.266 21.4138 153.295C25.5655 153.347 29.7288 153.295 33.8805 153.295Z" fill="black"/>
</g>
<defs>
<clipPath id="clip0_0_323">
<rect width="201.523" height="201.523" fill="white" transform="translate(0.130035 0.13208)"/>
</clipPath>
</defs>
</svg>
