<svg width="143" height="145" viewBox="0 0 143 145" fill="none" xmlns="http://www.w3.org/2000/svg">
<g id="Group 345">
<path id="Vector" d="M111.255 97.7198C107.712 99.2914 104.247 101.367 100.612 102.352C97.5212 103.069 94.5636 104.564 92.0035 106.704C89.4434 108.845 87.3607 111.564 85.9415 114.619C83.6999 119.371 80.0969 123.38 75.6955 126.017C73.1516 127.492 70.3642 128.305 67.5913 128.382C64.8183 128.459 62.1494 127.797 59.8315 126.458C57.5136 125.119 55.6217 123.145 54.3306 120.721C53.0396 118.296 52.3913 115.497 52.4456 112.585C52.4356 109.167 53.4277 105.648 53.8595 102.176C54.3141 98.3517 54.6597 94.5286 55.0257 90.7394C55.1772 87.2723 55.5524 83.7939 56.1486 80.3282C58.7898 68.9379 67.5312 61.851 78.3829 62.1728C80.9946 62.1504 83.5505 62.5462 85.9635 63.3468C90.7509 65.0137 95.8626 65.7845 101.084 65.627C107.555 65.6504 112.934 67.7701 116.247 73.6649C120.907 81.8721 119.036 90.538 111.255 97.7198Z" fill="#6D73E6" fill-opacity="0.1"/>
<path id="Vector_2" d="M51.2573 52.2823C52.2659 55.4018 53.7678 58.4203 54.1957 61.6947C54.3967 63.3985 54.2186 65.1716 53.6748 66.8794C53.131 68.5873 52.2357 70.185 51.057 71.5515C49.8783 72.918 48.447 74.0173 46.8717 74.7661C45.2964 75.5149 43.6185 75.8935 41.9652 75.8732C32.4327 76.0036 24.2937 65.6914 26.1756 55.6386C26.5901 52.8504 27.995 50.2176 30.1007 48.2826C32.2065 46.3475 34.8527 45.2577 37.4941 45.2376C42.4412 45.0163 47.2834 47.6973 51.2573 52.2823Z" fill="#6D73E6" fill-opacity="0.1"/>
<path id="Vector_3" d="M74.2206 29.6802C77.7848 35.1044 79.3031 39.7968 78.0675 45.4714C77.7217 47.3075 76.9705 49.0787 75.8765 50.6376C74.7824 52.1966 73.377 53.4983 71.7771 54.4347C70.1772 55.3711 68.4289 55.9151 66.6776 56.0216C64.9262 56.128 63.2223 55.7937 61.7075 55.0466C55.127 51.7557 51.278 45.9981 51.2474 37.8642C51.2149 27.5732 60.0998 21.3076 68.5945 25.5432C70.6068 26.7223 72.4902 28.1072 74.2206 29.6802Z" fill="#6D73E6" fill-opacity="0.1"/>
<path id="Vector_4" d="M43.8191 87.3712C48.6449 94.191 47.7454 101.282 41.4265 106.186C40.0774 107.195 38.5719 107.915 37.0077 108.301C35.4435 108.688 33.8557 108.731 32.3474 108.427C28.8797 107.819 25.8073 106.045 23.5704 103.358C21.3335 100.671 20.0468 97.2103 19.8946 93.4708C19.8134 91.8554 20.0793 90.2012 20.673 88.628C21.2667 87.0548 22.1734 85.602 23.3274 84.375C24.4813 83.148 25.8536 82.1775 27.3448 81.5338C28.8359 80.8901 30.4086 80.5893 31.9488 80.6534C34.3842 80.6966 36.7173 81.3235 38.7731 82.4869C40.8289 83.6504 42.554 85.3202 43.8191 87.3712Z" fill="#6D73E6" fill-opacity="0.1"/>
<path id="Vector_5" d="M106.455 33.0258C107.804 34.8045 108.743 36.9093 109.208 39.1998C109.673 41.4902 109.653 43.9136 109.151 46.3081C107.098 55.5354 97.6112 59.9249 90.9078 54.7161C89.0518 53.3223 87.5211 51.5208 86.405 49.4167C85.2889 47.3126 84.6097 44.9479 84.4071 42.4606C83.878 36.3316 86.4233 31.1016 90.971 28.6181C95.5187 26.1346 101.179 27.1187 104.906 31.1183C105.439 31.7731 105.972 32.4279 106.455 33.0258Z" fill="#6D73E6" fill-opacity="0.1"/>
</g>
</svg>
