<svg width="122" height="124" viewBox="0 0 122 124" fill="none" xmlns="http://www.w3.org/2000/svg">
<g id="Group 355">
<path id="Vector" d="M96.0846 82.7818C92.9963 84.1034 89.9781 85.8507 86.8069 86.6771C84.1103 87.2767 81.5331 88.5348 79.3058 90.339C77.0786 92.1431 75.2707 94.437 74.0439 97.0153C72.1059 101.026 68.9754 104.407 65.1418 106.628C62.9258 107.869 60.4944 108.551 58.0725 108.611C55.6505 108.671 53.3163 108.107 51.2859 106.972C49.2555 105.836 47.5944 104.166 46.4564 102.115C45.3184 100.064 44.7403 97.6982 44.7754 95.2375C44.7522 92.3498 45.604 89.3782 45.9665 86.4458C46.3474 83.2153 46.6332 79.9859 46.9368 76.7851C47.0545 73.856 47.3676 70.9178 47.8737 67.9907C50.1328 58.3718 57.7387 52.3995 67.2195 52.6905C69.5008 52.6762 71.7352 53.0151 73.8464 53.6958C78.0354 55.1126 82.5039 55.7728 87.0645 55.6489C92.7173 55.6801 97.4248 57.4805 100.343 62.4668C104.449 69.4092 102.851 76.7276 96.0846 82.7818Z" fill="#6D73E6" fill-opacity="0.1"/>
<path id="Vector_2" d="M43.4814 44.286C44.3756 46.9234 45.7003 49.4763 46.088 52.2436C46.2708 53.6835 46.1227 55.1812 45.6549 56.6232C45.1871 58.0652 44.4118 59.4135 43.3879 60.566C42.364 61.7184 41.1184 62.6447 39.7455 63.2746C38.3726 63.9045 36.9084 64.2214 35.4641 64.2013C27.1377 64.2947 19.9844 55.5677 21.5858 47.0774C21.9361 44.7225 23.1522 42.5005 24.9834 40.8693C26.8147 39.2381 29.1217 38.322 31.429 38.3097C35.7495 38.1314 39.9907 40.4051 43.4814 44.286Z" fill="#6D73E6" fill-opacity="0.1"/>
<path id="Vector_3" d="M63.4452 25.2292C66.5815 29.8183 67.9276 33.7855 66.8723 38.5778C66.578 40.1285 65.9293 41.6236 64.9802 42.9388C64.0311 44.254 62.8089 45.3514 61.4153 46.1397C60.0216 46.9281 58.4968 47.3846 56.9674 47.4715C55.4379 47.5583 53.9481 47.2729 52.6217 46.639C46.8595 43.8469 43.4729 38.9756 43.4118 32.1033C43.3399 23.4085 51.0747 18.1303 58.5131 21.724C60.2759 22.7237 61.9269 23.8971 63.4452 25.2292Z" fill="#6D73E6" fill-opacity="0.1"/>
<path id="Vector_4" d="M37.134 73.9175C41.3784 79.688 40.6226 85.6777 35.1235 89.8097C33.9493 90.6595 32.6373 91.2658 31.2725 91.5893C29.9078 91.9128 28.5209 91.9462 27.202 91.6874C24.1703 91.1675 21.479 89.6628 19.5136 87.3889C17.5483 85.115 16.4096 82.1886 16.2608 79.0288C16.1831 77.6638 16.4084 76.2667 16.9204 74.9385C17.4324 73.6104 18.2182 72.3846 19.2211 71.3499C20.2239 70.3152 21.4185 69.4977 22.7184 68.9564C24.0183 68.4152 25.3908 68.1639 26.7365 68.2207C28.8641 68.2615 30.9048 68.7953 32.7055 69.7819C34.5062 70.7685 36.0203 72.1823 37.134 73.9175Z" fill="#6D73E6" fill-opacity="0.1"/>
<path id="Vector_5" d="M91.6178 28.1103C92.804 29.6154 93.6327 31.3954 94.0484 33.3314C94.4642 35.2675 94.4575 37.3149 94.0287 39.3371C92.2745 47.1295 84.0061 50.8215 78.1284 46.4088C76.5011 45.2279 75.1564 43.7032 74.1726 41.9235C73.1887 40.1437 72.5854 38.1446 72.3979 36.0428C71.9099 30.8635 74.1112 26.4492 78.0732 24.3589C82.0353 22.2687 86.984 23.1101 90.2568 26.4959C90.7249 27.0501 91.1929 27.6042 91.6178 28.1103Z" fill="#6D73E6" fill-opacity="0.1"/>
</g>
</svg>
