<svg width="83" height="87" viewBox="0 0 83 87" fill="none" xmlns="http://www.w3.org/2000/svg">
<g id="Group 354">
<path id="Vector" d="M69.4883 52.5105C67.5359 53.97 65.7023 55.7169 63.6108 56.8424C61.8154 57.7269 60.2115 59.0541 58.9425 60.7053C57.6735 62.3565 56.7791 64.2802 56.3391 66.3044C55.634 69.4584 53.9884 72.3732 51.6597 74.5933C50.3067 75.8465 48.7109 76.7436 47.0203 77.2015C45.3296 77.6594 43.5985 77.6633 41.9872 77.213C40.376 76.7626 38.9367 75.8725 37.8024 74.625C36.6681 73.3775 35.8755 71.8129 35.498 70.076C35.0097 68.0486 35.1221 65.8123 34.8973 63.6874C34.6368 61.3496 34.3096 59.0289 33.9996 56.7253C33.6035 54.6448 33.3431 52.5244 33.22 50.3785C33.234 43.2248 37.5983 37.7188 44.3026 36.2967C45.9021 35.8951 47.5263 35.7502 49.12 35.8667C52.2928 36.1445 55.5382 35.8422 58.7201 34.9725C62.6942 34.0245 66.2938 34.4832 69.1581 37.4899C73.1755 41.6688 73.25 47.0908 69.4883 52.5105Z" fill="#6D73E6" fill-opacity="0.1"/>
<path id="Vector_2" d="M26.2594 34.4571C27.3183 36.1589 28.6657 37.7274 29.3902 39.6074C29.7539 40.5889 29.8947 41.6678 29.8019 42.7624C29.7092 43.857 29.3852 44.9384 28.8547 45.9248C28.3241 46.9111 27.6009 47.7764 26.7399 48.455C25.8789 49.1337 24.9026 49.6078 23.8852 49.8415C18.0542 51.3359 11.6052 46.4246 11.3419 40.1777C11.2029 38.4611 11.6936 36.6894 12.7128 35.2278C13.732 33.7662 15.2021 32.7259 16.8201 32.3213C19.8246 31.4546 23.1741 32.3262 26.2594 34.4571Z" fill="#6D73E6" fill-opacity="0.1"/>
<path id="Vector_3" d="M37.1637 17.6288C40.1159 20.3187 41.7095 22.8783 41.7518 26.4303C41.7986 27.5716 41.5875 28.7346 41.1361 29.8226C40.6847 30.9106 40.0059 31.8922 39.1562 32.6859C38.3066 33.4795 37.3105 34.0623 36.2508 34.3858C35.1912 34.7093 34.0985 34.7642 33.0635 34.5459C28.5613 33.5706 25.3872 30.7252 24.2211 25.9016C22.7495 19.7978 27.3176 14.7579 33.1278 16.0094C34.5289 16.4102 35.8799 16.9523 37.1637 17.6288Z" fill="#6D73E6" fill-opacity="0.1"/>
<path id="Vector_4" d="M26.6487 56.3916C30.572 59.7223 31.0203 64.0653 27.8346 67.9154C27.149 68.7146 26.3269 69.3662 25.4215 69.828C24.5162 70.2897 23.5479 70.5512 22.5795 70.5954C20.3658 70.7499 18.2303 70.1532 16.4786 68.891C14.727 67.6287 13.4492 65.7656 12.8283 63.5685C12.5506 62.6217 12.4804 61.6003 12.6228 60.5782C12.7652 59.5561 13.1167 58.559 13.6517 57.6591C14.1867 56.7593 14.8919 55.9792 15.7161 55.3754C16.5403 54.7717 17.4629 54.3594 18.417 54.1685C19.9176 53.8321 21.4377 53.8574 22.8633 54.2424C24.2889 54.6274 25.5831 55.3622 26.6487 56.3916Z" fill="#6D73E6" fill-opacity="0.1"/>
<path id="Vector_5" d="M57.4141 14.8217C58.493 15.6769 59.3658 16.7868 59.9741 18.0773C60.5825 19.3678 60.9124 20.8091 60.9419 22.3051C60.9838 28.0874 55.7817 32.1032 50.9335 30.0078C49.598 29.4563 48.4046 28.6145 47.4229 27.5314C46.4412 26.4484 45.6908 25.1457 45.2156 23.6994C44.0264 20.14 44.8505 16.6572 47.2908 14.507C49.731 12.3569 53.3432 12.0996 56.1946 13.9196C56.6138 14.2291 57.033 14.5386 57.4141 14.8217Z" fill="#6D73E6" fill-opacity="0.1"/>
</g>
</svg>
