<svg width="120" height="116" viewBox="0 0 120 116" fill="none" xmlns="http://www.w3.org/2000/svg">
<g id="Group 346">
<path id="Vector" d="M46.4012 96.769C44.4756 94.0165 42.1476 91.4197 40.6898 88.4847C39.551 85.9679 37.7921 83.7027 35.5704 81.8917C33.3486 80.0808 30.7334 78.7806 27.9585 78.1074C23.6357 77.0312 19.6864 74.6587 16.7279 71.3607C15.0597 69.4456 13.8944 67.2052 13.3398 64.8468C12.7853 62.4885 12.8595 60.0883 13.5555 57.8685C14.2515 55.6486 15.5469 53.6809 17.3217 52.1472C19.0965 50.6136 21.2934 49.5636 23.7092 49.0945C26.5312 48.4808 29.6141 48.7065 32.5587 48.4612C35.7987 48.173 39.0183 47.7918 42.2135 47.4341C45.1047 46.9499 48.0447 46.655 51.0135 46.5515C60.8911 46.7944 68.2935 53.0172 69.9487 62.3569C70.4297 64.587 70.5551 66.8435 70.3209 69.0493C69.7913 73.4395 70.0594 77.9486 71.114 82.3873C72.2403 87.9269 71.4413 92.9032 67.1577 96.7805C61.2025 102.22 53.712 102.154 46.4012 96.769Z" fill="#6D73E6" fill-opacity="0.1"/>
<path id="Vector_2" d="M73.3177 37.4013C70.9192 38.8163 68.6913 40.6354 66.062 41.5811C64.6899 42.0547 63.1936 42.2163 61.6864 42.0534C60.1792 41.8906 58.7007 41.4076 57.3631 40.6413C56.0256 39.8749 54.864 38.8452 53.9665 37.6302C53.069 36.4152 52.4591 35.0469 52.1832 33.6291C50.3879 25.498 57.4664 16.7102 66.1047 16.5403C68.4815 16.4012 70.9053 17.1369 72.8767 18.5956C74.8482 20.0543 76.217 22.125 76.7012 24.381C77.7598 28.5736 76.4022 33.1903 73.3177 37.4013Z" fill="#6D73E6" fill-opacity="0.1"/>
<path id="Vector_3" d="M96.0566 53.0428C92.2064 57.0519 88.5986 59.1814 83.6918 59.1291C82.1137 59.1583 80.5175 58.8293 79.0359 58.1694C77.5542 57.5095 76.23 56.5378 75.1732 55.335C74.1163 54.1322 73.3574 52.733 72.9594 51.2537C72.5614 49.7744 72.5359 48.2577 72.885 46.8297C74.4388 40.618 78.514 36.3062 85.2284 34.8401C93.7245 32.9905 100.474 39.4815 98.4783 47.4978C97.8605 49.4279 97.0498 51.2841 96.0566 53.0428Z" fill="#6D73E6" fill-opacity="0.1"/>
<path id="Vector_4" d="M43.0144 37.2519C38.2346 42.5873 32.2169 43.0733 27.0471 38.5361C25.975 37.5607 25.113 36.4004 24.5171 35.1308C23.9212 33.8611 23.6046 32.5104 23.5881 31.1665C23.4766 28.0925 24.3987 25.1503 26.2223 22.7612C28.0459 20.3721 30.6774 18.6587 33.7398 17.8664C35.06 17.511 36.4737 17.4456 37.8785 17.675C39.2833 17.9044 40.644 18.4228 41.862 19.1926C43.08 19.9625 44.1247 20.9646 44.9205 22.1262C45.7163 23.2878 46.2431 24.5798 46.4629 25.9086C46.8583 27.9996 46.7535 30.1063 46.1563 32.0708C45.559 34.0354 44.4849 35.8067 43.0144 37.2519Z" fill="#6D73E6" fill-opacity="0.1"/>
<path id="Vector_5" d="M99.0016 81.2089C97.7711 82.678 96.1983 83.8534 94.3884 84.6565C92.5784 85.4596 90.5729 85.8721 88.5058 85.8662C80.5192 85.7437 75.2133 78.4058 78.3299 71.7495C79.1528 69.915 80.3701 68.2867 81.9108 66.9595C83.4516 65.6323 85.2849 64.6327 87.3039 64.019C92.2737 62.4814 97.0451 63.7328 99.9019 67.1833C102.759 70.6337 102.948 75.6499 100.303 79.5463C99.8567 80.1179 99.41 80.6894 99.0016 81.2089Z" fill="#6D73E6" fill-opacity="0.1"/>
</g>
</svg>
