<svg width="35" height="36" viewBox="0 0 35 36" xmlns="http://www.w3.org/2000/svg">
    <path id="Vector"
          d="M3.71213 0.328247H31.3106C31.8239 0.429839 32.3193 0.606652 32.7808 0.852958C34.0059 1.56482 34.7217 2.63523 35 4.01347V31.5993C34.958 31.7637 34.9195 31.9299 34.8757 32.0943C34.3927 33.8783 32.6828 35.2845 30.8923 35.309C28.7309 35.3317 26.5677 35.309 24.4044 35.3213C24.1174 35.3213 24.0369 35.2146 24.0369 34.9417C24.0439 31.1638 24.0439 27.387 24.0369 23.6114C24.0369 23.3211 24.1454 23.2406 24.4184 23.2441C25.2498 23.2564 26.0811 23.2441 26.9107 23.2546C27.0331 23.2722 27.1577 23.2439 27.2605 23.1751C27.3633 23.1063 27.4369 23.0019 27.4672 22.8821C28.0256 21.4531 28.6031 20.0294 29.1719 18.6039C29.4782 17.8396 29.4764 17.8396 28.6469 17.8396H24.4167C24.2277 17.8396 24.0492 17.8396 24.0509 17.5703C24.0509 16.1378 24.0509 14.7036 24.0614 13.2711C24.0614 12.8076 24.3397 12.519 24.7877 12.3966C24.9977 12.3445 25.2138 12.321 25.43 12.3266C26.3051 12.3266 27.1802 12.3266 28.0553 12.3266C28.3161 12.3266 28.4228 12.2427 28.4228 11.9768C28.4135 10.4085 28.4135 8.83907 28.4228 7.26843C28.4228 7.02531 28.3441 6.91862 28.0868 6.91862C26.5747 6.9501 25.0608 6.86265 23.5486 6.97284C21.9413 7.07893 20.4357 7.79619 19.3412 8.97724C18.1003 10.2768 17.5613 11.8597 17.549 13.6349C17.549 14.8418 17.549 16.0469 17.549 17.2537C17.549 17.8344 17.549 17.8344 16.9819 17.8344C15.8426 17.8344 14.7067 17.8344 13.5674 17.8344C13.2681 17.8344 13.1701 17.9341 13.1718 18.2297C13.1823 19.7676 13.1823 21.3039 13.1718 22.8384C13.1718 23.1497 13.2698 23.2564 13.5849 23.2529C14.747 23.2389 15.9073 23.2529 17.0695 23.2529C17.5473 23.2529 17.549 23.2529 17.549 23.7146C17.549 27.4348 17.549 31.155 17.549 34.8752C17.549 35.2058 17.4702 35.3282 17.1132 35.3282C12.8323 35.316 8.55311 35.3282 4.27218 35.316C3.14352 35.2939 2.06761 34.8344 1.2715 34.0346C0.475398 33.2348 0.0213744 32.1571 0.00525052 31.0291C-0.00175017 22.2233 -0.00175017 13.4198 0.00525052 4.61864C0.00481232 3.88645 0.201265 3.1676 0.574057 2.53728C1.27413 1.30596 2.34699 0.606344 3.71213 0.328247Z"
    />
</svg>
