<svg width="35" height="36" viewBox="0 0 35 36" xmlns="http://www.w3.org/2000/svg">
    <g id="Component 13">
        <path id="Vector"
              d="M35 4.76621V30.8464C34.9772 30.9461 34.9545 31.0458 34.9335 31.1456C34.3192 33.8692 31.8675 35.3439 29.6835 35.3281C21.525 35.2879 13.3595 35.3141 5.1993 35.3141C3.82248 35.3063 2.50431 34.756 1.5309 33.7827C0.557491 32.8093 0.00741038 31.4915 5.9923e-05 30.1152C5.9923e-05 21.9134 5.9923e-05 13.7115 5.9923e-05 5.50966C-0.00518917 4.43241 0.334542 3.38175 0.969558 2.51137C1.83231 1.3026 3.02056 0.604636 4.46955 0.328247H30.5603C31.3438 0.467375 32.0892 0.770182 32.7478 1.21689C33.3411 1.62834 33.8461 2.15435 34.2329 2.76392C34.6197 3.37349 34.8805 4.0543 35 4.76621ZM17.5245 31.0931H25.4783C25.8652 31.0951 26.2513 31.0599 26.6315 30.9881C29.1253 30.4983 30.8035 28.4394 30.8053 25.8487C30.8053 20.49 30.8053 15.1325 30.8053 9.77618C30.8051 9.41222 30.7705 9.04909 30.702 8.69162C30.2155 6.20063 28.154 4.52655 25.5623 4.52655C20.2026 4.52655 14.843 4.52655 9.48329 4.52655C9.11913 4.52571 8.75576 4.56027 8.3983 4.62976C7.22192 4.84277 6.15855 5.46408 5.39563 6.38415C4.6327 7.30422 4.21921 8.46398 4.22805 9.65898C4.21172 15.0853 4.21172 20.5116 4.22805 25.9379C4.21364 27.0529 4.57346 28.1406 5.25005 29.0272C6.30005 30.4161 7.73505 31.0826 9.46579 31.0896C12.152 31.1036 14.8383 31.0931 17.5245 31.0931Z"
        />
        <path id="Vector_2"
              d="M17.5214 29.0989C14.8124 29.0989 12.104 29.0989 9.39619 29.0989C7.55695 29.0989 6.22345 27.7712 6.22345 25.9415C6.22345 20.5151 6.22345 15.0888 6.22345 9.66252C6.22345 7.85375 7.5622 6.51379 9.37344 6.51379H25.6589C27.4737 6.51379 28.8089 7.84676 28.8089 9.66252C28.8089 15.0993 28.8089 20.5367 28.8089 25.9747C28.818 26.3884 28.7431 26.7996 28.5888 27.1835C28.4344 27.5675 28.2038 27.9161 27.9109 28.2085C27.6179 28.5008 27.2687 28.7308 26.8844 28.8844C26.5 29.0381 26.0885 29.1122 25.6747 29.1024C22.9587 29.1024 20.2409 29.1013 17.5214 29.0989ZM24.6614 17.7897C24.5827 13.8136 21.4957 10.6754 17.5109 10.6806C15.6396 10.7099 13.8549 11.4736 12.542 12.8067C11.229 14.1399 10.4931 15.9356 10.4931 17.8064C10.4931 19.6771 11.229 21.4729 12.542 22.806C13.8549 24.1392 15.6396 24.9028 17.5109 24.9321C21.4939 24.9374 24.5967 21.7991 24.6614 17.7897ZM26.7054 10.6491C26.7065 10.2502 26.589 9.85992 26.368 9.52776C26.1469 9.1956 25.8322 8.93649 25.4637 8.78326C25.0953 8.63004 24.6896 8.58958 24.2981 8.66703C23.9065 8.74448 23.5468 8.93634 23.2645 9.21831C22.9822 9.50028 22.7899 9.85967 22.7121 10.2509C22.6343 10.6422 22.6744 11.0478 22.8274 11.4163C22.9804 11.7847 23.2393 12.0995 23.5714 12.3208C23.9035 12.542 24.2938 12.6598 24.6929 12.6591C25.223 12.6483 25.7284 12.4332 26.1035 12.0586C26.4786 11.684 26.6942 11.179 26.7054 10.6491Z"
        />
        <path id="Vector_3"
              d="M17.5206 12.6587C18.54 12.6587 19.5365 12.9611 20.3839 13.5276C21.2313 14.0942 21.8914 14.8994 22.2806 15.8412C22.6698 16.783 22.7707 17.8191 22.5704 18.8183C22.3701 19.8175 21.8777 20.7347 21.1555 21.454C20.4333 22.1732 19.5138 22.662 18.5135 22.8584C17.5132 23.0549 16.477 22.9502 15.5363 22.5576C14.5955 22.165 13.7925 21.5021 13.2289 20.653C12.6653 19.8039 12.3665 18.8066 12.3703 17.7876C12.3687 17.112 12.5009 16.4427 12.7594 15.8185C13.0179 15.1942 13.3975 14.6273 13.8763 14.1504C14.3552 13.6736 14.9237 13.2963 15.5492 13.0402C16.1747 12.7842 16.8447 12.6545 17.5206 12.6587Z"
        />
    </g>
</svg>
