<svg width="35" height="36" viewBox="0 0 35 36" xmlns="http://www.w3.org/2000/svg">
    <g id="Component 12">
        <path id="Vector"
              d="M31.8567 35.3282H3.16607C3.02255 35.2897 2.87903 35.253 2.73727 35.2127C1.95376 34.9887 1.26377 34.5171 0.770396 33.8683C0.277024 33.2196 0.00676498 32.4287 0 31.6136C0 22.4257 0 13.2366 0 4.04638C0.0100915 3.06037 0.407375 2.11787 1.10612 1.42226C1.80486 0.726658 2.74903 0.333725 3.73487 0.328263C12.9221 0.328263 22.1094 0.328263 31.2966 0.328263C31.7991 0.326749 32.2961 0.432377 32.7545 0.638106C33.9919 1.19302 34.713 2.17857 35 3.49496V32.1913C34.9475 32.3769 34.9072 32.5659 34.8425 32.7462C34.3402 34.1747 33.3128 35.0061 31.8567 35.3282ZM22.334 18.49V14.0174C22.334 13.8038 22.3427 13.6235 22.6245 13.8126C24.1715 14.8574 25.9755 15.4575 27.84 15.5473C28.2338 15.5683 28.2723 15.5473 28.2741 15.1535C28.2741 14.1504 28.2741 13.1491 28.2741 12.1478C28.2741 11.2883 28.3913 11.4056 27.518 11.3128C24.8402 11.0275 22.4617 8.54522 22.348 5.85467C22.3322 5.50456 22.2045 5.41704 21.8772 5.42229C20.8271 5.43804 19.7595 5.42229 18.7006 5.42229C18.1423 5.42229 18.1423 5.42229 18.1423 5.99296V21.9437C18.1431 22.228 18.1274 22.5121 18.0951 22.7945C17.9828 23.7027 17.5328 24.5353 16.8346 25.1267C16.1363 25.718 15.241 26.0247 14.3269 25.9857C13.4137 25.9314 12.5536 25.5383 11.9147 24.8834C11.2758 24.2285 10.904 23.3588 10.8721 22.4444C10.8248 20.1582 12.8235 18.4357 15.1303 18.784C15.3455 18.8173 15.5188 18.8576 15.5171 18.5477C15.5171 17.3294 15.5171 16.111 15.5171 14.8926C15.5171 14.6791 15.4243 14.595 15.2125 14.574C13.6655 14.4302 12.1107 14.7508 10.7467 15.4949C9.38266 16.239 8.27129 17.3728 7.55448 18.7515C6.83767 20.1302 6.54794 21.6914 6.72228 23.2356C6.89663 24.7798 7.52713 26.237 8.53329 27.4211C9.53946 28.6052 10.8756 29.4626 12.3712 29.8837C13.8668 30.3048 15.4539 30.2705 16.9299 29.7853C18.4059 29.3 19.7038 28.3858 20.658 27.1593C21.6121 25.9329 22.1792 24.4498 22.2867 22.8995C22.3882 21.3363 22.2955 19.7766 22.334 18.497V18.49Z"
        />
    </g>
</svg>
